<?xml version="1.0" encoding="UTF-8" standalone="no"?>
<svg
   xmlns:dc="http://purl.org/dc/elements/1.1/"
   xmlns:cc="http://creativecommons.org/ns#"
   xmlns:rdf="http://www.w3.org/1999/02/22-rdf-syntax-ns#"
   xmlns:svg="http://www.w3.org/2000/svg"
   xmlns="http://www.w3.org/2000/svg"
   xmlns:sodipodi="http://sodipodi.sourceforge.net/DTD/sodipodi-0.dtd"
   xmlns:inkscape="http://www.inkscape.org/namespaces/inkscape"
   height="100%"
   version="1.1"
   width="100%"
   id="svg2"
   inkscape:version="0.48.4 r9939"
   sodipodi:docname="t17_fixed.svg">
  <metadata
     id="metadata76">
    <rdf:RDF>
      <cc:Work
         rdf:about="">
        <dc:format>image/svg+xml</dc:format>
        <dc:type
           rdf:resource="http://purl.org/dc/dcmitype/StillImage" />
      </cc:Work>
    </rdf:RDF>
  </metadata>
  <sodipodi:namedview
     pagecolor="#ffffff"
     bordercolor="#666666"
     borderopacity="1"
     objecttolerance="10"
     gridtolerance="10"
     guidetolerance="10"
     inkscape:pageopacity="0"
     inkscape:pageshadow="2"
     inkscape:window-width="1366"
     inkscape:window-height="705"
     id="namedview74"
     showgrid="false"
     inkscape:zoom="1.7940591"
     inkscape:cx="134.00968"
     inkscape:cy="923.32671"
     inkscape:window-x="-8"
     inkscape:window-y="-8"
     inkscape:window-maximized="1"
     inkscape:current-layer="svg2" />
  <defs
     id="defs4" />
  <path
     d="M 92.245,177.966 C 92.245,177.966 99.526,170.542 104.095,170.4 C 108.664,170.258 119.085,171.399 122.94,173.541 C 126.795,175.683 132.077,190.816 131.505,194.385 C 130.933,197.954 123.511,207.519 120.084,208.233 C 116.658,208.947 106.522,209.517 101.097,206.234 C 95.672,202.951 94.101,200.38 92.245,196.526 C 90.389,192.672 89.803,180.232 92.245,177.966z"
     fill="none"
     stroke="#FF0000"
     stroke-width="1"
     id="path10" />
  <path
     d="M 116.515,166.974 C 116.515,166.974 127.508,171.257 129.792,176.111 C 132.076,180.965 136.502,191.673 134.503,196.811 C 132.504,201.949 120.228,215.369 114.374,215.655 C 108.52,215.941 91.532,203.807 89.533,199.809 C 87.534,195.811 88.105,181.821 88.677,180.108 C 89.249,178.395 97.528,170.388 97.528,170.388 L 110.106,166.974 L 116.515,166.974z"
     fill="none"
     stroke="#FF0000"
     stroke-width="1"
     id="path12" />
  <path
     d="M 85.107,196.382 L 87.106,177.11 L 100.097,166.26 C 100.097,166.26 111.661,164.273 115.23,164.838 C 118.799,165.403 127.736,172.685 131.548,175.397 C 135.36,178.109 139.225,193.527 135.008,201.093 C 130.791,208.659 120.798,215.797 116.8,217.082 C 112.802,218.367 103.095,217.234 100.383,215.659 C 97.671,214.084 90.626,206.375 90.626,206.375 L 85.107,196.382z"
     fill="none"
     stroke="#FF0000"
     stroke-width="1"
     id="path14" />
  <path
     d="M 91.96,159.692 L 110.106,153.982 C 110.106,153.982 133.075,160.121 135.788,166.26 C 138.501,172.399 142.497,186.103 141.07,192.813 C 139.643,199.523 125.937,218.226 122.797,220.367 C 119.657,222.508 110.52,228.505 103.525,226.506 C 96.53,224.507 81.968,214.045 80.112,208.783 C 78.256,203.521 76.686,185.532 77.114,182.82 C 77.542,180.108 83.967,168.258 83.967,168.258 L 91.96,159.692z"
     fill="none"
     stroke="#FF0000"
     stroke-width="1"
     id="path16" />
  <path
     d="M 77.042,163.547 C 77.97,162.976 89.391,146.987 89.391,146.987 C 89.391,146.987 98.955,140.42 104.809,139.849 C 110.663,139.278 130.364,143.989 136.074,150.27 C 141.784,156.551 151.634,168.4 151.777,177.537 C 151.92,186.674 149.209,208.945 134.361,220.366 C 119.513,231.787 106.094,231.643 95.101,229.93 C 84.108,228.217 72.545,215.226 70.975,211.514 C 69.405,207.802 66.121,193.527 66.835,186.959 C 67.549,180.391 77.042,163.547 77.042,163.547z"
     fill="none"
     stroke="#FF0000"
     stroke-width="1"
     id="path18" />
  <path
     d="M 66.734,166.974 C 66.734,166.974 82.966,137.422 89.676,134.281 C 96.386,131.14 107.888,126.715 113.7,128.428 C 119.512,130.141 139.357,134.424 147.351,149.699 C 155.345,164.974 160.199,184.389 157.058,193.955 C 153.917,203.521 138.499,229.496 128.649,234.356 C 118.799,239.216 93.102,240.78 87.106,238.496 C 81.11,236.212 70.117,227.503 65.977,220.223 C 61.837,212.943 61.409,201.665 60.124,194.527 C 58.839,187.389 59.124,180.393 60.124,178.109 C 61.124,175.825 66.734,166.974 66.734,166.974z"
     fill="none"
     stroke="#FF0000"
     stroke-width="1"
     id="path20" />
  <path
     d="M 88.138,121.147 C 88.138,121.147 100.036,112.867 113.701,115.865 C 127.366,118.863 142.498,120.005 153.919,140.42 C 165.34,160.835 166.196,192.814 163.77,201.379 C 161.344,209.944 136.217,233.5 127.937,238.925 C 119.657,244.35 103.81,249.204 99.813,249.347 C 95.816,249.49 67.407,240.782 62.267,235.499 C 57.127,230.216 43.137,200.756 48.99,185.292 C 54.843,169.828 61.267,164.118 64.694,160.834 C 68.121,157.55 71.832,147.178 73.973,139.801 C 76.114,132.424 88.138,121.147 88.138,121.147z"
     fill="none"
     stroke="#FF0000"
     stroke-width="1"
     id="path22" />
  <path
     d="M 110.975,242.352 C 110.975,242.352 86.964,244.065 75.4,237.355 C 63.836,230.645 63.265,222.222 56.841,212.658 C 50.417,203.094 53.415,188.959 54.986,179.966 C 56.557,170.973 65.55,163.976 67.549,160.978 C 69.548,157.98 74.544,143.704 79.826,136.994 C 85.108,130.284 102.668,122.432 102.668,122.432 C 102.668,122.432 122.369,116.008 138.501,132.711 C 138.501,132.711 152.776,150.271 153.205,152.555 C 153.634,154.839 160.201,174.476 161.058,183.788 C 161.915,193.1 155.204,208.09 152.492,212.087"
     fill="none"
     stroke="#FFFF00"
     stroke-width="1"
     id="path24" />
  <path
     d="M 97.204,81.426 C 97.204,81.426 116.914,77.368 128.508,81.426 C 140.102,85.484 162.711,93.31 169.957,100.846 C 177.203,108.382 186.189,112.44 193.145,132.15 C 200.101,151.86 207.638,174.374 204.45,185.291 C 201.262,196.208 172.565,257.367 172.565,257.367 C 172.565,257.367 153.359,274.759 141.368,280.846 C 129.377,286.933 100.681,288.092 94.305,288.092 C 87.929,288.092 67.412,278.817 59.264,276.208 C 51.116,273.599 27.928,251.859 24.45,235.918 C 20.972,219.977 22.131,196.788 22.131,196.788 C 22.131,196.788 25.03,186.063 28.798,172.44 C 32.566,158.816 36.044,147.222 36.044,147.222 C 36.044,147.222 45.609,115.627 56.914,105.193 C 68.219,94.759 97.204,81.426 97.204,81.426z"
     fill="none"
     stroke="#FF0000"
     stroke-width="1"
     id="path26" />
  <path
     d="M 110.105,97.948 C 110.105,97.948 132.856,96.788 147.348,107.513 C 161.84,118.238 175.753,123.745 180.681,142.296 C 185.609,160.847 191.407,190.702 183.0,204.325 C 174.593,217.948 148.683,249.348 148.683,249.348 L 124.16,268.092 C 124.16,268.092 97.092,267.512 90.626,268.092 C 84.16,268.672 56.132,255.629 52.899,251.861 C 49.666,248.093 39.522,237.658 36.334,228.673 C 33.146,219.688 30.827,197.079 30.827,193.311 C 30.827,189.543 39.523,170.388 39.523,170.388 L 52.9,153.982 C 52.9,153.982 65.03,125.485 69.668,119.688 C 74.306,113.891 96.045,97.912 96.045,97.912 L 110.105,97.948z"
     fill="none"
     stroke="#FF0000"
     stroke-width="1"
     id="path28" />
  <path
     d="M 21.945,260.847 C 21.945,260.847 32.855,275.34 33.725,276.499 C 34.595,277.658 55.537,305.774 69.377,308.093 C 83.217,310.412 101.261,316.789 101.261,316.789 L 137.928,311.571 L 172.856,295.34 L 191.987,272.731 L 209.378,237.659 L 223.581,196.5 L 226.479,160.558 L 225.03,132.442 L 219.813,113.601 L 216.625,99.108 L 208.799,87.804 L 199.814,70.123 L 191.118,62.587 L 172.567,46.065 L 163.292,42.877 L 145.321,28.095 L 113.576,18.82 L 72.278,22.878 L 49.377,34.47 L 41.564,65.507 C 41.564,65.507 33.817,104.079 30.827,109.804 C 27.837,115.529 16.93,150.883 16.93,150.883 L 14.104,189.022 L 11.477,233.438 L 20.32,255.439 L 21.945,260.847z"
     fill="none"
     stroke="#FF0000"
     stroke-width="1"
     id="path30"
     style="stroke:#00ff00;stroke-opacity:1" />
  <path
     d="M 73.908,121.217 C 73.908,121.217 83.311,106.506 97.978,105.942 C 112.645,105.378 124.493,101.429 138.972,108.763 C 153.451,116.097 165.112,127.004 169.624,136.406 C 174.136,145.808 181.659,157.091 182.035,172.511 C 182.411,187.931 177.084,208.804 161.131,227.797 C 145.178,246.79 126.372,261.459 114.526,263.527 C 102.68,265.595 83.371,263.527 77.041,260.518 C 70.711,257.509 52.097,247.353 47.583,238.328 C 43.069,229.303 34.606,202.412 36.299,194.514 C 37.992,186.616 38.743,175.598 44.949,170.388 C 51.155,165.179 57.032,156.529 59.264,152.767 C 61.496,149.005 71.142,124.806 73.908,121.217z"
     fill="none"
     stroke="#FF0000"
     stroke-width="1"
     id="path32" />
  <path
     d="M 103.996,109.892 C 103.996,109.892 130.348,108.199 142.276,119.67 C 154.204,131.141 166.804,143.552 169.625,161.981 C 172.446,180.41 171.692,200.485 166.239,208.782 C 160.786,217.079 138.785,242.841 130.135,247.354 C 121.485,251.867 98.543,255.251 92.337,254.688 C 86.131,254.125 67.703,244.865 61.497,239.528 C 55.291,234.191 45.701,215.385 44.949,205.42 C 44.197,195.455 44.764,176.649 47.583,174.204 C 50.402,171.759 58.488,164.05 61.873,157.656 C 65.258,151.262 76.541,125.124 78.609,122.491 C 80.677,119.858 90.832,111.208 94.593,111.208 C 98.354,111.208 103.996,109.892 103.996,109.892z"
     fill="none"
     stroke="#FF0000"
     stroke-width="1"
     id="path34" />
  <path
     d="M 126.938,108.2 C 126.938,108.2 148.565,115.158 155.898,127.005 C 163.231,138.852 171.129,148.254 173.198,156.904 C 175.267,165.554 180.344,186.992 173.198,202.6 C 166.052,218.208 143.117,245.474 131.549,251.68 C 119.981,257.886 97.603,260.706 86.32,258.638 C 75.037,256.57 51.534,238.893 47.584,228.739 C 43.634,218.585 35.547,193.408 42.881,179.282 C 50.215,165.156 60.181,158.771 61.686,153.983 C 63.191,149.195 78.046,117.897 81.619,115.212 C 85.192,112.527 105.689,107.449 114.904,106.885 C 124.119,106.321 126.938,108.2 126.938,108.2z"
     fill="none"
     stroke="#FF0000"
     stroke-width="1"
     id="path36" />
  <path
     d="M 28.401,230.781 C 28.401,230.781 28.318,251.493 52.9,266.348 C 77.482,281.203 89.704,281.768 102.304,282.144 C 114.904,282.52 133.61,278.948 141.369,273.682 C 149.128,268.416 163.044,257.51 169.437,250.552 C 175.83,243.594 197.268,197.333 197.268,197.333 C 197.268,197.333 200.652,170.065 198.772,159.347 C 196.892,148.628 184.857,117.955 166.804,106.777 C 148.751,95.599 128.067,83.941 117.912,85.069 C 107.757,86.197 90.457,86.949 79.362,93.343 C 68.267,99.737 53.975,116.935 51.154,121.217 C 48.333,125.499 41.835,143.551 39.913,147.689 C 37.991,151.827 29.529,176.648 29.529,176.648 C 29.529,176.648 24.452,201.282 24.452,207.864 C 24.452,214.446 28.401,230.781 28.401,230.781z"
     fill="none"
     stroke="#FF0000"
     stroke-width="1"
     id="path38" />
  <path
     d="M 27.836,196.206 C 26.52,210.874 29.905,222.722 29.905,222.722 C 31.597,234.381 44.948,255.442 51.906,260.144 C 58.864,264.846 79.549,273.119 89.703,276.316 C 99.857,279.513 122.235,275.94 129.005,272.743 C 135.775,269.546 158.152,257.322 166.238,245.851 C 174.324,234.38 192.377,199.027 194.634,184.37 C 196.891,169.713 193.318,154.836 187.261,138.288 C 181.204,121.74 172.256,118.919 157.025,104.036 C 141.794,89.153 107.015,91.276 107.015,91.276 C 107.015,91.276 85.943,93.643 80.866,97.912 C 75.789,102.181 57.736,114.969 54.163,122.867 L 39.913,164.016 L 27.836,196.206z"
     fill="none"
     stroke="#FF0000"
     stroke-width="1"
     id="path40" />
  <path
     d="M 70.147,266.35 C 70.147,266.35 92.17,276.128 107.015,274.247 C 121.86,272.366 134.296,268.605 142.276,262.212 C 150.256,255.819 182.054,211.627 182.054,211.627 C 182.054,211.627 192.377,179.47 190.685,173.453 C 188.993,167.436 189.836,131.33 164.874,114.029 C 139.912,96.728 121.901,94.283 110.974,95.224 C 100.047,96.165 80.301,100.502 72.779,109.804 C 65.257,119.106 55.02,141.86 52.899,146.937"
     fill="none"
     stroke="#FFFF00"
     stroke-width="1"
     id="path42" />
  <path
     d="M 21.945,138.285 C 23.764,132.832 41.0,88.076 41.376,81.306 C 41.752,74.536 49.838,56.671 49.838,56.671 C 49.838,56.671 51.906,47.884 68.266,42.875 C 84.626,37.866 97.401,32.413 107.938,32.601 C 118.475,32.789 136.339,36.738 139.724,38.619 C 143.109,40.5 161.131,54.603 161.131,54.603 L 183.915,79.623 L 203.66,103.497 L 212.498,126.627 L 217.012,149.978 C 217.012,149.978 217.012,172.262 217.012,181.883 C 217.012,191.504 202.721,222.346 202.157,228.551 C 201.593,234.756 187.113,262.965 184.48,267.102 C 181.847,271.239 159.846,292.864 155.333,296.437 C 150.82,300.01 139.725,302.643 128.63,304.711 C 117.535,306.779 104.372,305.463 99.859,304.711 L 77.042,297.752 L 45.89,275.187 C 45.89,275.187 21.82,249.776 20.315,242.548 C 18.81,235.32 13.921,222.72 14.109,220.84 C 14.297,218.96 14.861,195.83 14.861,195.83 L 17.682,151.638 L 21.945,138.285z"
     fill="none"
     stroke="#FF0000"
     stroke-width="1"
     id="path44" />
  <path
     d="M 12.793,227.984 C 12.793,227.984 17.577,254.875 39.913,272.551 C 62.249,290.227 73.721,300.195 81.054,302.639 C 88.387,305.083 98.276,311.478 111.573,310.537 C 124.87,309.596 126.906,309.22 135.008,307.716 C 143.11,306.212 157.402,296.246 159.658,295.117 C 161.914,293.988 178.462,279.569 179.967,277.564 C 181.472,275.559 195.317,254.749 195.317,254.749 L 213.253,202.409"
     fill="none"
     stroke="#FFFF00"
     stroke-width="1"
     id="path46" />
  <path
     d="M 154.769,301.511 L 167.556,293.993 L 187.262,273.115 L 197.456,253.557 L 210.619,219.708 L 220.209,188.203 L 220.209,146.367 C 220.209,146.367 215.132,117.972 215.175,117.22 C 215.218,116.468 202.157,91.17 202.157,91.17 L 179.779,67.2 C 179.779,67.2 156.461,42.754 142.922,36.36 C 129.383,29.966 117.347,27.146 111.896,26.582 C 106.445,26.018 86.507,29.402 70.711,31.471 C 54.915,33.54 49.65,49.335 49.65,49.335 L 39.913,75.745"
     fill="none"
     stroke="#FFFF00"
     stroke-width="1"
     id="path48" />
  <path
     d="M 56.044,90.329 C 56.044,90.329 79.738,61.933 96.662,63.438 C 113.586,64.943 122.16,66.823 122.16,66.823 L 153.64,79.623"
     fill="none"
     stroke="#FFFF00"
     stroke-width="1"
     id="path50" />
  <path
     d="M 48.71,66.07 C 48.71,66.07 55.48,52.343 69.019,50.086 C 82.558,47.829 107.016,38.803 107.016,38.803 C 107.016,38.803 140.478,45.949 142.17,46.513 C 143.862,47.077 173.761,71.147 173.949,71.711 C 174.137,72.275 195.316,95.969 195.316,95.969"
     fill="none"
     stroke="#FFFF00"
     stroke-width="1"
     id="path52" />
  <path
     d="M 219.27,124.177 C 219.27,124.177 207.986,91.269 207.422,90.328 C 206.858,89.387 192.567,67.386 192.567,67.386 L 175.266,54.787 L 163.23,44.445 C 163.23,44.445 140.477,28.837 139.913,28.649 C 139.349,28.461 110.105,22.067 110.105,22.067 L 72.404,26.52 C 72.404,26.52 56.044,35.257 51.719,38.804 C 47.394,42.351 46.077,52.72 46.077,52.72"
     fill="none"
     stroke="#FFFF00"
     stroke-width="1"
     id="path54" />
  <path
     d="M 47.5338673188,107.928802158 C 53.0492777617,100.751308487 72.7574984131,75.3489824219 81.994,73.405 C 92.713,71.149 112.46,69.644 124.212,72.089 C 135.964,74.534 144.544,80.034 158.025,84.994 C 171.506,89.954 179.215,95.208 186.361,106.778 C 193.507,118.348 191.816,115.148 196.14,124.366 C 200.464,133.584 207.422,167.804 207.422,167.804"
     fill="none"
     stroke="#FFFF00"
     stroke-width="1"
     id="path58" />
  <path
     d="M 25.956,157.837 L 34.418,136.212 C 34.418,136.212 56.795,86.029 60.18,79.623 C 63.565,73.217 72.78,67.459 80.114,63.38 C 87.448,59.301 110.407,58.736 111.903,58.924 C 113.399,59.112 151.781,73.122 151.781,73.122 C 151.781,73.122 188.428,99.135 191.626,108.365 L 207.422,153.982 C 207.422,153.982 208.927,164.984 208.362,173.07 C 207.797,181.156 203.661,202.41 203.661,202.41 C 203.661,202.41 185.608,246.786 184.668,248.478 C 183.728,250.17 157.214,278.253 149.315,283.456 C 141.416,288.659 110.105,294.798 110.105,294.798 L 92.148,292.859 L 77.041,286.277 L 61.873,280.635 L 44.646,268.112 C 44.646,268.112 22.948,253.932 20.691,229.674 C 18.434,205.416 21.945,174.764 21.945,174.764 L 25.956,157.837z"
     fill="none"
     stroke="#FF0000"
     stroke-width="1"
     id="path60" />
  <path
     d="M 39.913,265.968 C 39.913,265.968 63.19,288.722 76.165,293.423 C 89.14,298.124 117.535,301.511 117.535,301.511 C 117.535,301.511 138.686,300.004 141.368,299.441 C 144.05,298.878 162.946,286.655 164.875,283.74 C 166.804,280.825 185.899,257.079 185.899,257.079 L 210.247,198.239 L 215.175,155.92 L 197.783,103.746 L 167.928,71.862 L 133.726,49.543 L 110.975,42.876 L 69.377,56.209 L 55.855,64.759 L 38.073,104.035 L 20.392,149.976 L 16.334,189.021 C 16.334,189.021 15.754,223.456 16.334,225.774"
     fill="none"
     stroke="#FFFF00"
     stroke-width="1"
     id="path62" />
  <path
     d="M 84.063,292.295 C 84.063,292.295 106.999,297.937 115.558,296.62 C 124.117,295.303 139.627,292.671 141.368,292.295 C 143.109,291.919 152.513,288.346 154.016,287.029 C 155.519,285.712 177.898,264.362 177.898,264.362 L 188.429,246.223 L 206.105,202.41"
     fill="none"
     stroke="#FFFF00"
     stroke-width="1"
     id="path64" />
  <path
     d="M 115.625,294.798 C 115.625,294.798 140.101,292.166 146.871,288.093 C 153.641,284.02 179.967,258.07 179.967,258.07 L 188.993,241.522"
     fill="none"
     stroke="#FFFF00"
     stroke-width="1"
     id="path66" />
  <path
     d="M 68.079,88.258 C 68.079,88.258 85.944,77.861 94.782,76.854 C 103.62,75.847 126.749,73.055 139.725,79.623 C 152.701,86.191 177.899,97.662 186.173,110.825"
     fill="none"
     stroke="#FFFF00"
     stroke-width="1"
     id="path68" />
  <line
     fill="none"
     stroke="#0000FF"
     x1="110.9025"
     x2="112.9025"
     y1="189.021"
     y2="189.021"
     id="line72" />
</svg>
