<?xml version="1.0" encoding="UTF-8" standalone="no"?>
<svg
   xmlns:dc="http://purl.org/dc/elements/1.1/"
   xmlns:cc="http://creativecommons.org/ns#"
   xmlns:rdf="http://www.w3.org/1999/02/22-rdf-syntax-ns#"
   xmlns:svg="http://www.w3.org/2000/svg"
   xmlns="http://www.w3.org/2000/svg"
   xmlns:sodipodi="http://sodipodi.sourceforge.net/DTD/sodipodi-0.dtd"
   xmlns:inkscape="http://www.inkscape.org/namespaces/inkscape"
   height="100%"
   version="1.1"
   width="100%"
   id="svg2"
   inkscape:version="0.48.4 r9939"
   sodipodi:docname="t19_fixed.svg">
  <metadata
     id="metadata64">
    <rdf:RDF>
      <cc:Work
         rdf:about="">
        <dc:format>image/svg+xml</dc:format>
        <dc:type
           rdf:resource="http://purl.org/dc/dcmitype/StillImage" />
      </cc:Work>
    </rdf:RDF>
  </metadata>
  <sodipodi:namedview
     pagecolor="#ffffff"
     bordercolor="#666666"
     borderopacity="1"
     objecttolerance="10"
     gridtolerance="10"
     guidetolerance="10"
     inkscape:pageopacity="0"
     inkscape:pageshadow="2"
     inkscape:window-width="1366"
     inkscape:window-height="705"
     id="namedview62"
     showgrid="false"
     inkscape:zoom="2.5371828"
     inkscape:cx="112.61667"
     inkscape:cy="882.2223"
     inkscape:window-x="-8"
     inkscape:window-y="-8"
     inkscape:window-maximized="1"
     inkscape:current-layer="svg2" />
  <defs
     id="defs4" />
  <path
     d="M 101.145,42.116 L 128.727,45.245 L 142.518,52.431 L 154.339,76.188 C 154.339,76.188 157.005,99.091 155.034,106.993 C 153.063,114.895 150.051,124.514 148.891,126.716 C 147.731,128.918 138.808,153.487 138.808,153.487 C 138.808,153.487 139.852,164.612 135.564,167.509 C 131.276,170.406 122.236,169.595 120.845,168.204 C 119.454,166.813 92.336,136.334 92.336,136.334 C 92.336,136.334 69.273,110.492 67.535,94.035 C 65.797,77.578 78.663,54.75 82.95,50.461 C 87.237,46.172 101.145,42.116 101.145,42.116z"
     fill="none"
     stroke="#FF0000"
     stroke-width="1"
     id="path8" />
  <path
     d="M 94.308,59.616 C 95.119,59.268 107.752,52.43 119.572,56.023 C 131.392,59.616 143.214,71.321 143.214,71.321 C 143.214,71.321 150.515,91.833 150.515,102.031 C 150.515,112.229 142.287,137.84 140.085,144.33 C 137.883,150.82 136.608,161.829 133.711,163.684 C 130.814,165.539 125.599,166.464 119.572,161.134 C 113.545,155.804 93.496,125.787 93.149,125.556 C 92.802,125.325 79.821,110.722 79.126,104.811 C 78.431,98.9 80.285,78.735 83.762,72.478 C 87.239,66.221 94.308,59.616 94.308,59.616z"
     fill="none"
     stroke="#FF0000"
     stroke-width="1"
     id="path10" />
  <path
     d="M 94.771,120.226 C 94.655,119.878 83.182,90.211 93.148,79.317 C 103.114,68.423 111.11,69.35 119.803,68.886 C 128.496,68.422 135.449,73.869 137.998,80.939 C 140.547,88.009 147.153,92.493 144.72,112.89 C 142.286,133.286 136.724,155.646 129.191,156.921 C 121.658,158.196 119.898,155.109 115.505,149.431 C 111.112,143.753 94.771,120.226 94.771,120.226z"
     fill="none"
     stroke="#FF0000"
     stroke-width="1"
     id="path12" />
  <path
     d="M 112.271,120.689 C 112.271,120.689 98.711,103.653 103.0,93.802 C 107.289,83.951 121.358,80.474 124.406,82.097 C 127.454,83.72 140.201,93.222 139.506,97.742 C 138.811,102.262 136.725,116.053 134.291,119.877 C 131.857,123.701 122.586,124.745 120.152,124.281 C 117.718,123.817 112.271,120.689 112.271,120.689z"
     fill="none"
     stroke="#FF0000"
     stroke-width="1"
     id="path14" />
  <path
     d="M 114.009,113.852 C 114.009,113.852 105.897,99.134 107.519,95.31 C 109.141,91.486 116.211,88.936 118.181,88.473 C 120.151,88.01 128.031,91.95 130.001,93.456 C 131.971,94.962 135.912,101.67 135.217,105.791 C 134.522,109.912 131.044,115.358 128.727,116.286 C 126.41,117.214 117.04,115.474 116.51,115.243 C 115.98,115.012 114.009,113.852 114.009,113.852z"
     fill="none"
     stroke="#FF0000"
     stroke-width="1"
     id="path16" />
  <path
     d="M 116.51,111.186 C 116.51,111.186 116.675,103.074 119.108,100.756 C 121.541,98.438 123.654,97.512 126.596,99.829 C 129.538,102.146 130.929,108.868 129.422,111.186 C 127.915,113.504 123.466,113.62 122.214,113.504 C 120.962,113.388 116.51,111.186 116.51,111.186z"
     fill="none"
     stroke="#FF0000"
     stroke-width="1"
     id="path18" />
  <path
     d="M 99.059,116.555 C 99.059,116.555 90.599,90.905 98.247,82.909 C 105.895,74.913 120.267,72.711 122.7,72.595 C 125.133,72.479 136.954,83.488 137.765,85.343 C 138.576,87.198 144.371,100.256 143.56,106.011 C 142.749,111.766 137.882,131.005 136.259,132.743 C 134.636,134.481 129.7,141.666 124.404,139.696 C 119.108,137.726 111.227,134.481 109.604,131.931 C 107.981,129.381 99.059,116.555 99.059,116.555z"
     fill="none"
     stroke="#FF0000"
     stroke-width="1"
     id="path20" />
  <path
     d="M 154.567,116.555 C 155.149,114.914 159.457,91.653 157.711,78.381 C 155.965,65.109 146.418,49.858 139.532,40.894 C 132.646,31.93 119.642,37.052 111.569,35.888 C 103.496,34.724 82.506,43.455 81.923,43.455 C 81.923,43.455 69.35,53.467 66.323,62.431 C 63.296,71.395 63.063,88.976 65.275,96.543 C 67.487,104.11 80.293,124.385 80.293,124.385 L 103.111,150.328 L 118.594,169.465"
     fill="none"
     stroke="#FFFF00"
     stroke-width="1"
     id="path22" />
  <path
     d="M 165.878649037,36.1916319064 C 168.986241385,37.7841718316 171.845870008,39.4017238101 172.61,40.309 C 174.473,42.521 179.478,48.109 179.478,48.109 L 188.559,68.859 C 188.559,68.859 189.451,88.855 186.385,92.93 C 183.319,97.005 165.858,110.062 165.858,110.062"
     fill="none"
     stroke="#FFFF00"
     stroke-width="1"
     id="path24" />
  <path
     d="M 120.224,174.541 C 116.384,174.378 106.953,168.837 104.857,166.392 C 102.761,163.947 100.433,160.104 77.15,147.764 C 53.867,135.424 55.845,123.083 51.654,116.556 C 47.463,110.029 45.134,85.363 45.134,85.363 C 45.134,85.363 49.209,64.875 49.442,61.848 C 49.675,58.821 61.899,33.79 61.899,33.79 C 61.899,33.79 83.204,19.122 84.484,18.54 C 85.764,17.958 105.556,15.746 105.556,15.746 L 121.302,19.937 L 150.515,24.943 L 177.851,36.004 L 194.499,58.473 L 200.901,91.188 C 200.901,91.188 198.457,122.738 196.245,126.928 C 194.033,131.118 194.033,137.99 182.391,140.964 C 170.749,143.938 171.564,141.482 165.161,141.016 C 158.758,140.55 156.568,143.81 150.515,146.253 C 144.462,148.696 138.619,168.724 138.619,168.724 C 138.619,168.724 139.433,175.356 120.224,174.541z"
     fill="none"
     stroke="#FF0000"
     stroke-width="1"
     id="path26" />
  <path
     d="M 158.125,108.645 C 158.125,108.645 163.299,93.951 163.299,88.434 C 163.299,82.917 160.751,67.084 158.125,61.613 C 155.499,56.142 147.234,42.869 143.159,39.493 C 139.084,36.117 127.407,31.227 116.19,31.693 C 104.973,32.159 91.702,33.672 87.395,36.117 C 83.088,38.562 64.111,43.335 62.365,61.147 C 60.619,78.959 62.016,93.395 63.18,96.072 C 64.344,98.749 71.213,114.326 73.89,117.54 C 76.567,120.754 83.786,130.533 83.786,130.533"
     fill="none"
     stroke="#FFFF00"
     stroke-width="1"
     id="path28" />
  <path
     d="M 153.403,128.204 C 153.403,128.204 164.579,131.463 176.104,126.807 C 187.629,122.151 191.123,109.532 192.287,106.994 C 193.451,104.456 194.034,83.966 193.917,82.918"
     fill="none"
     stroke="#FFFF00"
     stroke-width="1"
     id="path30" />
  <path
     d="M 156.43,125.177 C 156.43,125.177 174.706,123.081 177.85,119.705 C 180.994,116.329 191.471,102.465 191.471,102.465 C 191.471,102.465 193.917,78.144 193.334,71.858 C 192.751,65.572 184.02,45.082 178.897,41.357 C 173.774,37.632 157.477,30.996 156.429,30.53 C 155.381,30.064 121.3,22.381 121.3,22.381 L 105.438,21.101 L 80.408,23.429 L 64.577,34.954 L 51.538,61.846 L 50.141,87.343 C 50.141,87.343 54.682,116.449 62.83,127.159 C 70.978,137.869 98.57,153.236 98.57,153.236 L 114.747,168.719 C 114.747,168.719 123.018,172.096 127.209,171.164 C 131.4,170.232 137.221,170.931 138.501,166.041 C 139.781,161.151 148.789,132.163 150.514,129.312 C 152.239,126.461 156.43,125.177 156.43,125.177z"
     fill="none"
     stroke="#FF0000"
     stroke-width="1"
     id="path32" />
  <path
     d="M 162.367,116.555 C 162.367,116.555 177.036,116.214 180.412,111.906 C 183.788,107.598 191.588,93.163 191.355,91.3 C 191.122,89.437 192.986,69.412 189.493,63.475 C 186.0,57.538 173.667,39.26 173.667,39.26 C 173.667,39.26 157.709,27.155 125.346,25.524 C 92.982,23.893 79.478,25.524 79.478,25.524 L 70.979,32.275"
     fill="none"
     stroke="#FFFF00"
     stroke-width="1"
     id="path34" />
  <path
     d="M 87.162,137.285 L 68.885,124.385 L 59.339,104.455 L 53.867,83.849 L 55.846,58.82 L 67.377,36.933 L 85.766,27.735 C 85.766,27.735 101.599,27.851 104.509,27.735 C 107.419,27.619 130.935,29.598 130.935,29.598 L 155.761,32.974 L 159.108,33.557 C 159.457,33.557 162.834,36.119 165.162,37.4 C 167.49,38.681 177.503,48.46 177.735,48.925 C 177.967,49.39 185.884,64.292 186.35,69.88 C 186.816,75.468 182.858,84.199 180.529,89.788 C 178.2,95.377 164.115,106.315 164.115,106.315"
     fill="none"
     stroke="#FFFF00"
     stroke-width="1"
     id="path36" />
  <path
     d="M 162.25,100.496 C 162.25,100.496 175.522,85.944 177.501,76.863 C 179.48,67.782 179.363,50.669 174.474,48.108 C 169.585,45.547 154.567,34.138 154.567,34.138 L 113.356,29.598 L 96.009,29.598 L 67.376,39.843 L 59.222,53.697 C 59.222,53.697 56.66,68.716 56.66,70.927 C 56.66,73.138 57.475,85.596 57.708,86.76 C 57.941,87.924 67.376,111.44 67.376,111.44 L 73.424,121.104 L 80.875,129.37 L 92.167,140.663"
     fill="none"
     stroke="#FFFF00"
     stroke-width="1"
     id="path38" />
  <path
     d="M 145.953,36.7 C 145.953,36.7 167.023,45.431 167.839,56.491 C 168.655,67.551 165.627,90.136 165.627,90.136"
     fill="none"
     stroke="#FFFF00"
     stroke-width="1"
     id="path40" />
  <path
     d="M 167.978,85.131 C 167.978,85.131 173.929,64.291 172.747,58.703 C 171.565,53.115 162.716,42.172 159.107,40.542 C 155.498,38.912 142.809,33.557 142.809,33.557"
     fill="none"
     stroke="#FFFF00"
     stroke-width="1"
     id="path42" />
  <path
     d="M 76.486,14.207 C 76.486,14.207 61.309,26.473 60.685,27.731 C 60.061,28.989 53.866,36.7 53.866,36.7 L 39.272,57.865 L 33.659,75.537 C 33.659,75.537 28.462,97.99 30.54,121.067 C 32.618,144.144 43.014,157.206 43.014,157.206 C 43.014,157.206 47.229,170.34 56.66,173.666 C 66.091,176.992 86.882,179.694 92.702,180.318 C 98.522,180.942 108.101,184.06 114.747,184.476 C 121.393,184.892 135.322,184.892 141.975,183.229 C 148.628,181.566 154.7,175.122 156.965,173.874 C 159.23,172.626 175.653,165.974 182.307,165.974 C 188.961,165.974 200.394,163.272 204.552,153.292 C 208.71,143.312 214.74,133.108 213.7,124.385 C 212.66,115.662 213.493,96.134 212.037,88.434 C 210.581,80.734 201.406,57.034 200.9,55.994 C 200.394,54.954 180.295,31.892 178.702,29.598 C 177.109,27.304 153.855,15.87 150.514,14.206 C 147.173,12.542 128.278,9.424 121.301,9.216 C 114.324,9.008 103.305,9.216 100.187,9.216 C 97.069,9.216 76.486,14.207 76.486,14.207z"
     fill="none"
     stroke="#FF0000"
     stroke-width="1"
     id="path44" />
  <path
     d="M 219.314,107.97 C 219.314,107.97 224.303,127.72 224.719,132.502 C 225.135,137.284 219.729,163.064 218.482,166.598 C 217.235,170.132 202.889,187.804 197.276,191.13 C 191.663,194.456 186.673,191.13 178.703,189.259 C 170.733,187.388 167.963,192.378 163.299,194.872 C 158.635,197.366 149.875,202.356 141.56,203.396 C 133.245,204.436 123.472,200.693 114.748,200.278 C 106.024,199.863 83.347,196.535 73.992,194.664 C 64.637,192.793 62.35,192.378 48.005,183.437 C 33.66,174.496 27.63,148.095 27.63,148.095 C 27.63,148.095 24.248,126.269 25.135,110.061"
     fill="none"
     stroke="#FFFF00"
     stroke-width="1"
     id="path46" />
  <path
     d="M 31.788,72.594 C 31.788,72.594 20.77,107.763 20.977,127.721 C 21.184,147.679 25.966,162.041 33.867,174.611 C 41.768,187.181 52.653,197.367 67.376,198.823 C 82.099,200.279 93.327,199.863 98.316,201.318 C 103.305,202.773 121.217,209.219 130.037,211.506 C 138.857,213.793 140.759,215.455 150.515,213.584 C 160.271,211.713 167.979,200.902 167.979,200.902 C 167.979,200.902 170.041,183.356 188.683,193.626 C 192.079,195.497 195.822,195.08 199.98,192.794 C 204.138,190.508 214.949,175.539 214.949,175.539"
     fill="none"
     stroke="#FFFF00"
     stroke-width="1"
     id="path48" />
  <path
     d="M 112.419,179.694 C 112.419,179.694 75.239,171.17 60.478,160.359 C 45.717,149.548 35.53,127.522 35.738,102.465 C 35.946,77.407 43.547,56.408 50.141,46.637 C 56.735,36.866 78.981,17.323 78.981,17.323 C 78.981,17.323 110.515,11.502 110.964,11.502 C 111.413,11.502 149.251,17.739 149.251,17.739 L 177.317,31.662 C 177.317,31.662 197.692,50.172 202.473,67.012 C 207.254,83.852 211.204,124.814 203.928,137.285 C 196.652,149.756 185.817,159.944 173.666,160.567 C 161.515,161.19 157.345,160.148 153.401,165.139 C 149.457,170.13 139.638,180.94 135.297,181.98 C 130.956,183.02 112.419,179.694 112.419,179.694z"
     fill="none"
     stroke="#FF0000"
     stroke-width="1"
     id="path50" />
  <path
     d="M 195.58839453,58.5389166185 C 198.796944602,69.2311551337 204.552,93.832 204.552,93.832 C 204.552,93.832 204.345,126.473 202.889,131.878 C 201.433,137.283 188.96,150.589 179.813,152.46 C 170.666,154.331 162.557,153.084 161.309,153.292 C 161.309,153.292 151.435,153.705 145.249,165.141 C 139.063,176.577 127.439,180.111 123.272,178.656 C 119.105,177.201 79.604,162.231 75.654,159.529 C 71.704,156.827 46.756,136.036 43.845,125.225 C 40.934,114.414 39.271,80.464 41.35,72.595 C 43.429,64.726 53.865,43.728 53.865,43.728"
     fill="none"
     stroke="#FFFF00"
     stroke-width="1"
     id="path52" />
  <path
     d="M 177.11,192.17 C 180.14,190.305 194.574,200.07 202.266,197.991 C 209.958,195.912 221.185,166.597 224.742,150.798 C 228.299,134.999 224.742,122.732 224.742,122.732 L 207.464,63.418 L 203.306,54.983 L 187.506,33.557 L 169.002,19.612 L 143.639,9.125 L 126.596,7.762 L 109.542,5.474 C 109.542,5.474 94.025,7.658 81.683,11.503 C 69.341,15.348 55.904,30.421 47.38,39.777 C 38.856,49.133 35.946,52.923 33.243,59.344 C 30.54,65.765 7.879,115.244 9.542,135.203 C 11.205,155.162 13.711,179.07 30.049,191.753 C 46.387,204.436 89.081,210.465 89.081,210.465 C 89.081,210.465 130.955,227.098 138.647,227.305 C 146.339,227.512 158.824,226.757 161.626,219.962 C 161.626,219.962 171.705,195.497 177.11,192.17z"
     fill="none"
     stroke="#FF0000"
     stroke-width="1"
     id="path56"
     style="stroke:#00ff00;stroke-opacity:1" />
  <line
     fill="none"
     stroke="#0000FF"
     x1="123.405"
     x2="125.405"
     y1="106.7665"
     y2="106.7665"
     id="line60" />
</svg>
