<?xml version="1.0" encoding="UTF-8" standalone="no"?>
<svg
   xmlns:dc="http://purl.org/dc/elements/1.1/"
   xmlns:cc="http://creativecommons.org/ns#"
   xmlns:rdf="http://www.w3.org/1999/02/22-rdf-syntax-ns#"
   xmlns:svg="http://www.w3.org/2000/svg"
   xmlns="http://www.w3.org/2000/svg"
   xmlns:sodipodi="http://sodipodi.sourceforge.net/DTD/sodipodi-0.dtd"
   xmlns:inkscape="http://www.inkscape.org/namespaces/inkscape"
   height="100%"
   version="1.1"
   width="100%"
   id="svg2"
   inkscape:version="0.48.4 r9939"
   sodipodi:docname="t1_fixed.svg">
  <metadata
     id="metadata222">
    <rdf:RDF>
      <cc:Work
         rdf:about="">
        <dc:format>image/svg+xml</dc:format>
        <dc:type
           rdf:resource="http://purl.org/dc/dcmitype/StillImage" />
      </cc:Work>
    </rdf:RDF>
  </metadata>
  <sodipodi:namedview
     pagecolor="#ffffff"
     bordercolor="#666666"
     borderopacity="1"
     objecttolerance="10"
     gridtolerance="10"
     guidetolerance="10"
     inkscape:pageopacity="0"
     inkscape:pageshadow="2"
     inkscape:window-width="1366"
     inkscape:window-height="705"
     id="namedview220"
     showgrid="false"
     inkscape:zoom="1.2685914"
     inkscape:cx="272.90447"
     inkscape:cy="461.47245"
     inkscape:window-x="-8"
     inkscape:window-y="-8"
     inkscape:window-maximized="1"
     inkscape:current-layer="svg2" />
  <defs
     id="defs4" />
  <path
     d="M 249.126,128.432 C 249.126,128.432 251.308,132.408 250.968,133.426 C 250.628,134.444 249.368,136.675 248.253,137.547 C 247.138,138.419 245.489,139.292 244.471,139.244 C 243.453,139.196 241.223,138.953 239.477,137.935 C 237.731,136.917 235.987,136.432 235.599,135.317 C 235.211,134.202 233.757,132.893 234.29,130.663 C 234.823,128.433 236.471,126.542 237.684,126.203 C 238.897,125.864 239.769,124.893 241.805,124.942 C 243.841,124.991 248.626,127.47 249.126,128.432z"
     fill="none"
     stroke="#FF0000"
     stroke-width="1"
     id="path10" />
  <path
     d="M 237.733,123.777 C 237.733,123.777 240.254,122.662 242.775,122.662 C 245.296,122.662 248.496,123.336 250.726,124.938 C 252.956,126.54 253.005,128.286 253.684,130.273 C 254.363,132.26 254.363,136.721 253.684,138.224 C 253.005,139.727 249.515,141.666 246.703,142.733 C 243.891,143.8 237.588,142.345 236.473,141.812 C 235.358,141.279 231.528,138.127 230.849,135.8 C 230.17,133.473 230.607,130.079 231.479,128.576 C 232.351,127.073 237.733,123.777 237.733,123.777z"
     fill="none"
     stroke="#FF0000"
     stroke-width="1"
     id="path12" />
  <path
     d="M 242.59,124.214 C 242.59,124.214 249.514,126.347 250.581,127.996 C 251.648,129.645 252.472,132.505 251.89,134.105 C 251.308,135.705 248.745,139.001 247.336,139.777 C 245.927,140.553 245.927,140.553 245.927,140.553 C 245.927,140.553 239.721,139.49 239.139,139.246 C 238.557,139.002 234.931,137.596 234.175,135.414 C 233.419,133.232 233.235,130.032 234.175,128.384 C 235.115,126.736 239.495,124.262 242.59,124.214z"
     fill="none"
     stroke="#FF0000"
     stroke-width="1"
     id="path14" />
  <path
     d="M 219.407,129.741 C 219.407,129.741 218.292,134.008 221.734,139.874 C 225.176,145.74 232.4,152.574 235.745,152.477 C 239.09,152.38 245.441,151.071 248.787,149.083 C 252.133,147.095 258.337,142.977 258.87,139.001 C 259.403,135.025 259.79,130.226 259.161,129.062 C 258.532,127.898 251.841,120.095 249.804,118.592 C 247.767,117.089 240.058,115.586 235.986,116.217 C 231.914,116.848 223.431,122.082 222.268,124.603 C 221.105,127.124 219.543,128.782 219.407,129.741z"
     fill="none"
     stroke="#FF0000"
     stroke-width="1"
     id="path16" />
  <path
     d="M 226.729,125.864 C 226.729,125.864 229.978,121.888 234.486,120.919 C 238.994,119.95 243.892,119.949 245.734,120.628 C 247.576,121.307 254.606,126.785 255.334,128.919 C 256.062,131.053 256.353,136.486 254.752,139.247 C 253.151,142.008 248.061,146.227 246.461,146.76 C 244.861,147.293 237.297,147.39 235.358,147.051 C 233.419,146.712 226.146,140.021 225.758,138.082 C 225.37,136.143 224.061,130.714 224.788,129.065 C 225.515,127.416 226.729,125.864 226.729,125.864z"
     fill="none"
     stroke="#FF0000"
     stroke-width="1"
     id="path18" />
  <path
     d="M 233.323,160.43 C 236.038,160.631 245.929,158.879 248.159,157.618 C 250.389,156.357 254.459,152.673 257.125,150.103 C 259.791,147.533 261.828,143.947 262.943,136.19 C 264.058,128.433 258.145,122.666 256.4,120.678 C 254.655,118.69 248.012,114.036 243.504,113.308 C 238.996,112.58 235.456,112.969 229.153,114.375 C 222.85,115.781 215.093,127.271 215.093,127.271 C 214.32,129.356 213.836,130.083 213.884,133.089 C 213.932,136.095 214.127,144.14 220.187,150.491 C 226.247,156.842 232.437,160.364 233.323,160.43z"
     fill="none"
     stroke="#FF0000"
     stroke-width="1"
     id="path20" />
  <path
     d="M 220.088,116.366 C 220.088,116.366 211.606,126.496 210.976,128.581 C 210.346,130.666 210.006,135.224 210.491,137.987 C 210.976,140.75 214.515,151.026 216.309,153.449 C 218.103,155.872 224.548,161.738 228.233,163.047 C 231.918,164.356 239.191,164.356 244.717,164.017 C 250.243,163.678 254.024,159.512 256.836,156.651 C 259.648,153.79 265.078,146.615 265.224,145.451 C 265.37,144.287 265.613,134.051 265.224,132.092 C 264.835,130.133 260.52,120.584 259.066,119.712 C 257.612,118.84 247.576,113.459 246.267,112.949 C 244.958,112.439 233.612,111.082 230.995,112.052 C 228.378,113.022 220.088,116.366 220.088,116.366z"
     fill="none"
     stroke="#FF0000"
     stroke-width="1"
     id="path22" />
  <path
     d="M 260.979,120.15 L 266.289,130.275 C 266.289,130.275 267.598,140.313 267.695,141.525 C 267.792,142.737 267.405,148.02 265.902,151.269 C 264.399,154.518 260.232,161.546 258.195,164.208 C 256.158,166.87 244.815,169.787 243.408,169.799 C 242.001,169.811 240.5,169.592 237.3,169.786 C 234.1,169.98 230.27,167.944 228.04,166.538 C 225.81,165.132 218.295,162.078 215.774,159.023 C 213.253,155.968 213.205,155.34 212.671,154.467 C 212.137,153.594 210.538,149.861 208.89,147.247 C 207.242,144.633 206.078,139.245 206.078,139.245 C 206.078,139.245 206.516,132.936 207.679,130.274 C 208.842,127.612 216.308,117.469 218.151,116.069 C 219.994,114.669 227.896,110.644 229.738,110.354 C 231.58,110.064 235.895,109.869 238.222,110.015 C 240.549,110.161 246.413,111.325 248.643,112.391 C 250.873,113.457 260.979,120.15 260.979,120.15z"
     fill="none"
     stroke="#FF0000"
     stroke-width="1"
     id="path24" />
  <path
     d="M 235.843,108.706 C 235.843,108.706 226.439,109.046 225.227,109.288 C 224.015,109.53 216.601,111.178 214.952,111.712 C 213.303,112.246 204.189,118.887 202.589,121.603 C 200.989,124.319 199.536,132.937 199.439,134.275 C 199.342,135.613 200.554,144.969 204.045,150.642 C 207.536,156.315 212.964,164.796 216.358,166.687 C 219.752,168.578 227.797,171.099 230.561,171.681 C 233.325,172.263 243.456,172.7 245.88,171.972 C 248.304,171.244 256.983,167.705 257.856,166.881 C 258.729,166.057 265.078,159.028 265.806,157.962 C 266.534,156.896 269.636,144.196 269.636,142.741 C 269.636,141.286 269.005,132.111 268.375,130.276 C 267.745,128.441 264.692,122.188 263.964,121.557 C 263.236,120.926 258.388,117.436 257.321,116.903 C 256.254,116.37 251.018,112.734 250.194,112.297 C 249.37,111.86 243.775,110.255 242.354,109.967 C 240.933,109.679 235.843,108.706 235.843,108.706z"
     fill="none"
     stroke="#FF0000"
     stroke-width="1"
     id="path26" />
  <path
     d="M 212.875177897,156.560095605 C 208.752119416,153.655996904 205.152948302,146.912875241 204.384,144.052 C 203.511,140.804 203.899,133.147 204.626,129.559 C 205.353,125.971 210.444,119.087 213.596,115.402 C 215.951554928,112.648123125 223.666363272,111.219538908 227.414712933,110.673417932"
     fill="none"
     stroke="#FFFF00"
     stroke-width="1"
     id="path28" />
  <path
     d="M 223.729,106.24 C 223.729,106.24 212.743,108.848 210.261,110.405 C 207.779,111.962 197.454,125.096 196.872,128.393 C 196.29,131.69 194.69,144.487 198.036,151.517 C 201.382,158.547 207.779,167.659 212.482,170.325 C 217.185,172.991 224.552,175.316 229.255,175.268 C 233.958,175.22 239.58,175.511 241.907,175.269 C 244.234,175.027 250.295,172.7 251.361,172.07 C 252.427,171.44 258.984,168.29 259.487,167.611 C 259.99,166.932 266.679,159.081 267.454,157.578 C 268.229,156.075 271.332,144.342 271.332,144.342 C 271.332,144.342 270.847,132.592 270.847,132.02 C 270.847,131.448 267.502,122.724 265.853,121.075 C 264.204,119.426 253.436,112.446 252.082,111.961 C 250.728,111.476 240.645,107.694 240.645,107.694 L 223.729,106.24z"
     fill="none"
     stroke="#FF0000"
     stroke-width="1"
     id="path30" />
  <path
     d="M 240.6,175.345 C 238.66,176.292 226.445,176.192 224.36,176.337 C 222.275,176.482 215.924,174.689 215.924,174.689 C 215.924,174.689 209.14,172.217 207.686,171.441 C 206.232,170.665 201.965,166.641 200.996,165.72 C 200.027,164.799 194.887,154.765 194.353,153.165 C 193.819,151.565 192.077,140.563 191.979,138.672 C 191.881,136.781 194.257,127.088 194.936,125.1 C 195.615,123.112 198.621,117.828 199.057,117.343 C 199.493,116.858 207.589,109.879 208.219,109.345 C 208.849,108.811 219.126,105.806 220.775,105.661 C 222.424,105.516 233.187,105.564 236.192,105.952 C 238.75278768,106.282644133 247.355586438,109.002496974 250.141322085,110.756758064"
     fill="none"
     stroke="#FFFF00"
     stroke-width="1"
     id="path32" />
  <path
     d="M 265.667815466,160.975884131 C 264.588263538,163.374588695 262.921800144,166.966641961 262.319,167.665 C 261.398,168.732 254.273,173.918 252.479,174.597 C 250.685,175.276 240.942,177.99 238.13,178.814 C 235.318,179.638 223.636,181.044 221.49,181.093 C 219.344,181.142 213.311,180.075 209.577,179.008 C 205.843,177.941 196.972,171.154 192.317,162.718 C 187.662,154.282 189.069,144.735 189.167,143.232 C 189.265,141.729 189.604,134.409 189.797,133.1 C 189.99,131.791 191.687,126.411 191.975,125.102 C 192.263,123.793 195.468,116.618 197.407,113.273 C 199.346,109.928 211.707,103.724 211.707,103.724 C 211.707,103.724 219.172,102.172 221.79,102.027 C 224.408,101.882 234.608,103.336 237.846,103.966 C 241.084,104.596 247.387,107.02 249.278,107.844 C 251.169,108.668 260.065,114.532 263.081,116.957 C 264.492601459,118.091991226 265.426872893,119.414497138 266.021406814,120.500359597"
     fill="none"
     stroke="#FFFF00"
     stroke-width="1"
     id="path34" />
  <path
     d="M 193.561,177.981 C 195.022,179.442 201.903,184.51 206.079,186.324 C 210.255,188.138 224.755,190.193 229.496,189.588 C 234.237,188.983 247.848,185.114 252.805,179.674 C 257.762,174.234 266.105,167.825 267.71,164.207 C 269.315,160.589 274.049,144.486 274.049,144.486 C 274.218,142.359 275.688,134.594 275.744,132.092 C 275.829,128.314 272.351,120.15 272.351,120.15 C 272.351,120.15 267.313,112.437 263.565,109.965 C 259.817,107.493 253.409,103.624 246.397,100.722 C 239.385,97.82 226.445,97.82 224.572,97.82 C 222.699,97.82 206.86,100.755 201.298,106.239 C 195.736,111.723 188.725,125.85 188.241,130.273 C 187.757,134.696 186.669,152.711 186.911,156.58 C 187.153,160.449 191.264,175.684 193.561,177.981z"
     fill="none"
     stroke="#FF0000"
     stroke-width="1"
     id="path36" />
  <path
     d="M 202.025,100.36 C 193.562,104.229 183.163,130.829 182.8,135.302 C 182.437,139.775 182.075,170.123 182.8,172.351 C 183.525,174.579 188.241,185.356 190.175,187.049 C 192.109,188.742 203.233,199.14 209.279,201.437 C 215.325,203.734 222.699,203.372 226.931,202.284 C 231.163,201.196 254.014,189.952 256.795,186.808 C 259.576,183.664 276.624,158.637 278.059,156.944 C 279.494,155.251 280.735,135.785 280.372,131.147 C 280.009,126.509 275.745,114.869 275.745,114.869 C 275.745,114.869 268.126,107.789 266.934,105.586 C 265.742,103.383 257.338,100.239 255.918,99.393 C 254.498,98.547 241.227,93.227 240.245,93.106 C 239.263,92.985 229.711,90.688 227.052,90.809 C 224.393,90.93 214.962,92.381 213.027,93.106 C 211.092,93.831 202.025,100.36 202.025,100.36z"
     fill="none"
     stroke="#FF0000"
     stroke-width="1"
     id="path38" />
  <path
     d="M 278.559,120.795 C 278.559,120.795 282.428,130.466 282.428,132.889 C 282.428,135.312 282.428,152.478 282.428,152.478 L 278.68,163.23 L 268.887,175.365 C 268.887,175.365 254.5,192.368 254.137,192.852 C 253.774,193.336 236.726,202.887 233.655,204.459 C 230.584,206.031 220.887,207.603 220.887,207.603 C 220.887,207.603 216.051,207.725 210.972,205.79 C 205.893,203.855 197.793,197.447 194.529,195.754 C 191.265,194.061 185.945,185.115 183.164,181.608 C 180.383,178.101 174.338,152.108 174.459,148.118 C 174.58,144.128 180.873,115.38 182.381,112.948 C 183.889,110.516 196.221,93.106 203.234,91.413 C 210.247,89.72 229.886,87.665 231.311,87.06 C 232.736,86.455 236.429,84.521 237.847,85.247 C 239.265,85.973 249.202,91.414 251.004,92.26 C 252.806,93.106 261.511,98.547 263.808,100.239 C 266.105,101.931 275.746,112.572 275.746,112.572 L 278.559,120.795z"
     fill="none"
     stroke="#FF0000"
     stroke-width="1"
     id="path40" />
  <path
     d="M 279.406,118.135 L 285.33,134.82 L 285.33,154.648 C 285.33,154.648 277.472,172.412 274.69,176.346 C 271.908,180.28 258.852,195.03 258.852,195.03 C 258.852,195.03 239.265,211.836 232.615,212.803 C 229.469,213.261 223.918,215.449 218.678,215.474 C 212.839,215.501 207.386,213.313 206.078,212.803 C 203.597,211.836 189.786,199.14 188.893,197.931 C 188.0,196.722 178.086,180.633 177.24,176.345 C 176.394,172.057 173.25,158.192 173.25,157.508 C 173.25,156.824 172.283,141.555 172.283,141.555 L 174.457,127.686 L 182.381,109.308 L 195.976,94.315 C 195.976,94.315 201.664,90.205 204.928,89.359 C 208.192,88.513 224.515,87.183 226.812,86.578 C 229.109,85.973 235.517,85.088 235.517,85.088 C 235.517,85.088 235.399,83.919 238.481,84.644 C 241.563,85.369 252.082,91.415 252.082,91.415 L 262.478,97.821 L 273.601,107.737 L 279.406,118.135z"
     fill="none"
     stroke="#FF0000"
     stroke-width="1"
     id="path42" />
  <path
     d="M 288.836,136.697 C 288.836,136.697 289.682,152.714 288.836,155.253 C 287.99,157.792 284.242,176.346 284.242,176.346 L 274.449,194.668 L 264.535,211.353 L 246.64,234.325 C 246.64,234.325 232.615,247.263 223.788,248.35 C 214.961,249.437 201.18,247.141 197.552,245.327 C 193.924,243.513 186.912,238.677 184.857,237.105 C 182.802,235.533 172.403,218.606 170.711,216.551 C 169.019,214.496 165.392,206.396 164.424,200.834 C 163.456,195.272 161.402,177.62 161.402,177.62 L 158.38,153.802 C 158.38,153.802 157.896,132.04 158.38,128.775 C 158.864,125.51 164.184,108.633 165.755,105.586 C 167.326,102.539 183.455,85.5 186.877,84.407 C 190.299,83.314 204.928,78.478 204.928,78.478 L 231.311,79.204 L 240.958,79.083 L 255.225,85.854 L 265.986,93.834 L 274.569,103.022 L 283.032,117.289 L 287.868,131.146 L 288.836,136.697z"
     fill="none"
     stroke="#FF0000"
     stroke-width="1"
     id="path44" />
  <path
     d="M 178.383,55.098 C 179.271,55.098 186.449,51.463 186.449,51.463 L 219.234,46.813 C 219.234,46.813 236.353,49.906 240.474,49.906 C 244.595,49.906 261.083,53.323 263.081,55.098 C 265.079,56.873 289.211,71.964 289.211,71.964 L 303.249,85.089 L 314.197,102.017 L 324.553,124.94 L 328.991,143.759 L 331.95,157.509 L 331.95,179.079 L 329.583,205.414 L 328.399,220.208 L 322.481,242.993 L 315.084,270.511 L 303.84,283.826 L 294.964,297.733 L 282.426,307.793 L 268.037,325.843 L 256.497,339.158 L 234.897,364.013 L 202.053,384.43 C 202.053,384.43 181.932,386.501 180.453,385.614 C 178.974,384.727 159.445,371.411 159.445,371.411 L 142.579,350.403 L 130.151,317.263 L 121.866,291.52 L 120.387,273.175 L 117.429,261.043 L 108.552,224.352 L 110.327,193.283 L 110.327,163.557 L 111.215,146.972 L 116.541,122.664 L 119.795,102.018 L 126.897,92.974 L 148.497,69.007 L 158.164,65.16 L 178.383,55.098z"
     fill="none"
     stroke="#FF0000"
     stroke-width="1"
     id="path46" />
  <path
     d="M 173.068,112.949 L 169.385,122.662 C 169.385,122.662 166.163,145.546 166.623,148.967 C 167.083,152.388 171.533,176.345 171.533,176.345 C 171.533,176.345 180.28,193.818 183.655,198.882 C 187.03,203.946 197.005,217.141 205.29,219.29 C 213.575,221.439 224.471,220.518 232.756,217.449 C 241.041,214.38 259.761,199.036 261.449,196.888 C 263.137,194.74 278.635,177.554 278.635,177.554 C 278.635,177.554 287.228,156.226 287.382,153.31 C 287.536,150.394 286.614,134.274 286.614,134.274 C 286.614,134.274 275.931,107.277 273.6,104.822 C 271.269,102.367 261.449,93.927 261.449,93.927 L 241.043,82.88 L 231.409,82.88 C 231.409,82.88 208.974,81.192 206.979,82.113 C 204.984,83.034 187.552,89.938 182.381,97.15 C 177.21,104.362 173.068,112.949 173.068,112.949z"
     fill="none"
     stroke="#FF0000"
     stroke-width="1"
     id="path48" />
  <path
     d="M 253.289570486,201.719169962 C 253.195595341,201.848238112 253.103031042,201.976551839 253.012,202.104 C 249.14,207.525 227.54,217.602 224.573,218.216 C 221.606,218.83 213.734,220.435 200.842,214.226 C 187.95,208.017 176.905,180.929 174.458,174.791 C 172.011,168.653 170.307,147.938 170.46,143.757 C 170.613,139.576 173.222,124.213 173.222,124.213 C 173.222,124.213 178.132,112.647 179.82,108.705 C 181.508,104.763 196.699,90.803 196.699,90.803 C 196.699,90.803 207.286,86.716 211.122,86.408 C 214.077404233,86.1707047696 221.7921036,86.3993669699 225.178346322,86.5168558268"
     fill="none"
     stroke="#FFFF00"
     stroke-width="1"
     id="path50" />
  <path
     d="M 170.635926652,136.606541306 C 170.77123085,133.199914627 170.999226562,129.187917969 171.381,124.939 C 172.455,112.986 185.805,98.837 190.408,93.007 C 195.011,87.177 205.599,84.874 210.261,84.407 C 214.166704191,84.0157593614 227.124373193,85.0724681222 231.225717791,85.4256149141"
     fill="none"
     stroke="#FFFF00"
     stroke-width="1"
     id="path52" />
  <path
     d="M 144.638,263.887 L 153.121,276.832 L 164.475,288.186 L 172.608,291.715 C 172.608,291.715 180.127,294.783 181.047,295.294 C 181.967,295.805 193.016,297.545 193.016,297.545 L 204.984,295.294 L 217.106,290.334 L 226.989,285.271 L 240.429,275.297 L 250.096,267.471 L 264.366,252.741 L 277.255,230.338 L 286.769,214.227 L 295.208,195.507 L 302.772,169.799 L 305.795,156.226 L 304.875,151.149 L 304.875,137.959 L 301.652,124.938 L 295.975,110.404 L 290.297,100.218 L 282.426,89.17 L 274.646,81.837 L 263.529,74.133 L 258.535,69.683 L 249.021,65.387 L 240.245,63.001 L 229.495,62.165 L 218.486,61.551 L 207.132,61.551 L 190.867,64.006 L 182.381,69.223 L 174.457,73.673 L 165.396,80.578 L 157.417,86.306 L 155.576,89.478 L 151.433,93.774 L 145.602,104.515 L 141.152,110.405 L 136.856,131.147 L 133.02,152.479 L 133.02,167.926 L 132.14,206.547 L 132.402,226.693 L 135.937,241.238 C 135.937,241.238 136.46,249.75 137.246,251.844 C 138.032,253.938 144.638,263.887 144.638,263.887z"
     fill="none"
     stroke="#FF0000"
     stroke-width="1"
     id="path54" />
  <path
     d="M 232.767854642,270.44611938 C 230.601632772,272.747969259 227.394070691,276.299864425 226.99,276.525 C 226.439,276.832 213.731,280.054 213.731,280.054 L 195.625,283.583 L 187.646,282.355 L 169.08,276.677 L 166.58,273.608 L 160.027,270.386 L 153.889,259.799 L 146.217,248.631 L 143.301,233.407 L 139.925,218.865 L 139.925,206.094 L 139.925,189.696 L 141.971,170.973"
     fill="none"
     stroke="#FFFF00"
     stroke-width="1"
     id="path56" />
  <path
     d="M 278.113,211.445 L 272.653,222.666 L 258.076,243.995 L 244.266,257.958 L 228.807,265.477 C 228.807,265.477 213.271,268.546 211.43,269.467 C 209.589,270.388 194.244,269.467 194.244,269.467 L 174.458,263.022 L 167.545,256.271 L 160.026,248.632 L 155.269,237.397 L 150.052,223.741 L 149.285,202.106 L 149.285,176.346 L 146.018,152.586 L 148.057,124.94 L 155.296,101.601 C 155.296,101.601 166.751,91.16 166.579,90.805 C 166.407,90.45 174.457,82.852 174.457,82.852 L 190.487,75.221 L 212.296,68.652 L 225.434,68.652 L 243.038,71.805 L 248.892172087,75.4223371667"
     fill="none"
     stroke="#FFFF00"
     stroke-width="1"
     id="path58" />
  <path
     d="M 263.53,230.953 C 259.778,235.71 247.488,248.632 247.488,248.632 C 247.488,248.632 236.9,256.578 234.138,258.265 C 231.376,259.952 215.111,262.715 208.666,262.715 C 202.221,262.715 190.407,258.572 190.407,258.572 L 179.973,251.821 L 168.004,242.154 L 163.554,235.249 L 155.268,218.865 L 152.967,189.696 L 151.908,172.351 L 149.284,150.028 L 150.322,136.696 L 152.588,117.179 C 152.588,117.179 157.397,103.614 158.164,102.014 C 158.931,100.414 174.457,84.405 174.457,84.405 L 188.254,77.32 L 204.414,72.459 C 204.414,72.459 214.065,69.7 216.99,69.963 C 219.915,70.226 230.852,71.146 235.419,71.671 C 239.986,72.196 252.891,77.178 254.073,77.836 C 255.255,78.494 267.71,86.9 267.71,86.9 L 280.437,98.33 L 287.967,112.947 L 294.535,127.758 C 294.535,127.758 296.768,138.735 296.768,140.8 C 296.768,142.865 296.111,153.508 295.454,156.135 C 294.797,158.762 290.725,179.546 290.725,179.546 L 286.258,192.788 C 286.258,192.788 279.69,208.683 278.113,211.442 C 276.536,214.201 263.53,230.953 263.53,230.953z"
     fill="none"
     stroke="#FF0000"
     stroke-width="1"
     id="path60" />
  <path
     d="M 285.220255607,161.30174239 C 284.725230562,164.250411178 283.697263172,170.200955212 283.24,171.572 C 282.626,173.413 273.573,187.837 273.573,187.837 C 273.573,187.837 250.711,212.234 247.028,214.996 C 243.345,217.758 230.149,224.355 226.99,226.207 C 223.831,228.059 210.261,228.038 210.261,228.038 C 210.261,228.038 196.238,225.276 191.098,221.44 C 185.958,217.604 178.592,203.795 176.751,200.879 C 174.91,197.963 169.08,183.868 168.926,181.095 C 168.802956746,178.879422452 169.200825455,169.890074276 169.365754819,166.365563124"
     fill="none"
     stroke="#FFFF00"
     stroke-width="1"
     id="path62" />
  <path
     d="M 254.433513951,203.984735142 C 247.460226221,210.911718164 238.355765636,219.033511847 232.144,221.132 C 220.789,224.968 211.068,225.275 203.883,222.36 C 196.698,219.445 187.799,209.624 185.804,206.709 C 183.809,203.794 172.725,181.698 172.283,180.317 C 171.841,178.936 172.283,177.248 172.283,177.248 L 171.534,176.346"
     fill="none"
     stroke="#FFFF00"
     stroke-width="1"
     id="path64" />
  <path
     d="M 261.57679252,200.58497365 C 258.12737164,204.603787531 244.545103863,220.412535504 242.271,222.82 C 239.662,225.582 228.424,230.031 222.17,231.259 C 215.916,232.487 205.598,233.407 191.098,225.275 C 176.598,217.143 168.619,187.375 168.619,187.375 L 166.579,167.888 L 163.708,152.586 L 165.089,130.275 C 165.089,130.275 167.629,119.108 168.812,116.07 C 169.995,113.032 175.381,101.734 176.958,100.026 C 178.535,98.318 189.044,87.956 192.986,86.307 C 195.595848883,85.2152595618 200.136524908,84.0547019018 202.907407767,83.3949880669"
     fill="none"
     stroke="#FFFF00"
     stroke-width="1"
     id="path66" />
  <path
     d="M 267.735458257,195.15120317 C 262.93101116,202.934548055 250.063146464,222.883487764 241.35,228.037 C 230.455,234.481 221.361,236.426 214.86,235.991 C 208.359,235.556 194.242,232.027 192.708,230.953 C 191.174,229.879 174.412,211.877 172.282,207.605 C 170.67014458,204.372208284 169.560507484,195.01544535 169.116028552,190.654488605"
     fill="none"
     stroke="#FFFF00"
     stroke-width="1"
     id="path68" />
  <path
     d="M 154.854,155.466 C 154.854,158.184 157.119,174.043 158.165,176.346 C 159.211,178.649 161.651,212.781 161.407,213.529 C 161.163,214.277 170.712,229.772 173.204,231.131 C 175.696,232.49 192.687,248.122 194.952,248.632 C 197.217,249.142 211.263,253.332 211.263,253.332 C 211.263,253.332 222.138,254.012 227.914,251.293 C 233.69,248.574 248.189,240.851 251.814,235.991 C 255.439,231.131 264.52,222.296 264.52,222.296 L 280.437,201.228 L 290.1,172.353 L 292.139,156.6 C 292.139,156.6 294.857,141.422 290.326,127.603 C 285.795,113.784 278.999,100.191 278.999,100.191 L 266.936,89.09 L 245.47,76.177 C 245.47,76.177 233.316,73.911 226.367,73.685 C 219.418,73.459 206.245,74.365 203.883,74.818 C 201.521,75.271 183.851,79.797 180.679,81.839 C 177.507,83.881 160.97,102.55 159.611,106.241 C 158.252,109.932 154.628,130.389 154.854,136.698 C 155.08,143.007 154.854,155.466 154.854,155.466z"
     fill="none"
     stroke="#FF0000"
     stroke-width="1"
     id="path70" />
  <path
     d="M 299.138,148.968 C 299.138,148.968 299.003,141.011 299.135,137.96 C 299.267,134.909 295.456,122.663 295.456,122.663 L 289.212,108.706 L 284.158,99.103 L 271.332,87.439 L 259.486,78.167 L 244.485,68.887 L 228.443,66.654 L 213.88,65.53 L 201.463,68.701 L 176.828,78.479 L 161.407,90.804 L 154.231,99.235 L 146.019,112.949 L 142.67,130.274 L 140.437,151.149 L 141.882,165.886 L 142.276,188.366 L 142.276,209.324 L 143.459,222.067 L 146.019,234.679 L 150.685,247.423 L 160.143,260.034 L 167.238,268.574 C 167.238,268.574 186.418,276.325 191.673,276.194 C 196.928,276.063 201.83,277.114 206.408,275.537 C 210.986,273.96 222.546,271.858 222.546,271.858 L 234.108,266.34 L 244.224,261.347 C 244.224,261.347 254.865,251.363 255.785,250.706 C 256.705,250.049 261.828,242.955 261.828,242.955 L 274.702,225.351 C 274.702,225.351 282.848,208.535 284.161,205.776 C 285.474,203.017 291.254,187.254 291.254,187.254 L 295.064,173.227 L 297.034,161.635 L 299.138,154.016 L 299.138,148.968z"
     fill="none"
     stroke="#FF0000"
     stroke-width="1"
     id="path72" />
  <path
     d="M 280.931187856,176.809091535 L 280.436,179.549 C 280.436,179.549 258.689,214.074 256.387,217.143 C 254.085,220.212 244.419,229.572 242.27,231.106 C 240.121,232.64 229.841,239.085 224.471,240.773 C 219.101,242.461 198.539,239.238 191.975,235.991 C 185.411,232.744 169.231,204.867 168.157,202.106 C 167.083,199.345 164.474,173.106 164.474,173.106 L 161.405,143.759 C 161.405,143.759 162.243,131.558 162.243,130.275 C 162.243,128.992 166.972,111.983 168.416,109.966 C 169.86,107.949 182.21,90.832 187.729,87.44 C 193.248,84.048 202.442,80.982 202.442,80.982 L 212.033,79.8 L 240.541,80.457 L 254.73,87.441 L 265.432,95.039 L 267.599174974,98.692025761"
     fill="none"
     stroke="#FFFF00"
     stroke-width="1"
     id="path74" />
  <path
     d="M 225.8350426,266.664623293 L 219.269,271.347 C 219.269,271.347 202.971,273.843 200.475,274.368 C 197.979,274.893 191.099,273.317 191.099,273.317 L 170.452,267.143 L 164.873,261.625 L 153.573,247.7 L 147.267,225.761 L 145.822,209.208 L 145.822,192.523 L 144.639,164.208 L 145.852652282,153.986937083"
     fill="none"
     stroke="#FFFF00"
     stroke-width="1"
     id="path76" />
  <path
     d="M 260.907338148,226.193638016 L 246.583,244.289 C 246.583,244.289 234.103,254.274 231.409,254.537 C 228.715,254.8 215.709,256.902 214.395,256.77 C 213.081,256.638 196.134,251.909 194.163,251.121 C 192.192,250.333 184.309,245.21 183.39,244.947 C 182.471,244.684 170.91,233.78 170.45,232.86 C 169.99,231.94 161.888,218.408 161.407,217.226 C 160.926,216.044 158.165,199.755 158.165,199.755 L 155.409,175.366 L 152.387,145.499 L 154.095,121.194 L 157.205697403,110.560812439"
     fill="none"
     stroke="#FFFF00"
     stroke-width="1"
     id="path78" />
  <path
     d="M 157.409,193.067 L 157.409,207.605 C 157.409,207.605 158.603,218.149 161.407,223.535 C 164.211,228.921 172.619,242.19 179.976,247.971 C 187.333,253.752 195.148,256.773 201.225,257.693 C 207.302,258.613 215.579,262.423 225.169,258.744 C 234.759,255.065 246.582,247.314 249.341,243.636 C 252.1,239.958 253.942,235.072 253.942,235.072"
     fill="none"
     stroke="#FFFF00"
     stroke-width="1"
     id="path80" />
  <path
     d="M 224.362430657,261.641635573 C 219.912573391,263.311113935 213.687503906,265.292622559 208.88,265.443 C 200.472,265.706 184.969,259.887 182.736,258.987 C 180.503,258.087 171.306,249.424 169.861,248.632 C 168.416,247.84 164.082,243.173 163.294,241.237 C 162.506,239.301 153.047,223.146 153.178,220.461 C 153.309,217.776 152.387,210.792 152.387,210.792 L 153.654235072,204.327597231"
     fill="none"
     stroke="#FFFF00"
     stroke-width="1"
     id="path82" />
  <path
     d="M 236.864645699,257.17538241 L 235.944,258.611 L 226.367,263.735 C 223.885,264.786 205.676,267.02 205.676,267.02 L 191.098,263.341 L 178.796,259.4 L 172.283,253.407 L 161.407,244.686 L 155.815055764,227.625893314"
     fill="none"
     stroke="#FFFF00"
     stroke-width="1"
     id="path84" />
  <path
     d="M 225.391060884,280.140053479 L 214.137,287.383 L 199.554,292.769 L 186.942,291.718 L 176.563,287.383 L 165.133,282.522 C 165.133,282.522 161.323,277.793 159.221,277.398 C 157.549111974,277.083825038 154.589824362,269.712043305 153.448764528,266.708364546"
     fill="none"
     stroke="#FFFF00"
     stroke-width="1"
     id="path86" />
  <path
     d="M 275.751,226.691 L 279.166,219.863 L 289.212,199.238 L 295.456,181.093 L 298.347,165.343 L 300.974,156.147 C 300.974,156.147 300.974,139.2 300.974,136.697 C 300.974,134.194 295.85,117.786 295.85,117.786 L 287.4,101.364 L 275.746,87.832 L 250.001,69.947 C 250.001,69.947 241.786,65.034 236.894,65.529 C 232.002,66.024 221.3,65.494 221.3,65.494 L 210.261,65.494 L 190.488,69.948 L 178.534,76.663 C 178.534,76.663 161.061,88.489 160.404,89.145 C 159.747,89.801 144.902,110.297 144.77,111.085 C 144.638,111.873 137.93,151.149 137.93,151.149 L 137.93,184.92 C 137.93,184.92 137.93,218.984 137.93,219.598 C 137.93,220.212 140.999,241.848 140.999,243.995 C 140.999,246.142 146.676,257.345 146.676,257.345 L 156.343,269.774 C 156.343,269.774 165.857,278.367 166.579,279.441 C 167.301,280.515 189.026,288.187 189.026,288.187 L 198.54,288.187 L 217.106,282.816 L 227.693,278.98 L 237.36,272.842 C 237.36,272.842 245.952,266.551 247.334,265.17 C 248.716,263.789 264.52,248.631 264.52,248.631 L 275.751,226.691z"
     fill="none"
     stroke="#FF0000"
     stroke-width="1"
     id="path88" />
  <path
     d="M 131.749,267.02 C 131.356,266.087 127.036,251.327 127.036,251.327 L 124.941,237.973 L 121.668,224.31 L 120.097,206.553 L 121.144,182.995 L 123.108,161.648 L 124.155,147.902 L 126.904,132.323 L 131.224,115.646 L 133.712,105.586 L 137.929,99.07 L 142.222,91.477 L 146.017,87.942 L 154.842,77.731 L 168.536,68.651 L 185.424,57.701 L 203.882,54.69 C 203.882,54.69 214.62,53.381 216.688,53.25 C 218.756,53.119 232.48,56.33 232.48,56.33 L 241.326,57.047 L 248.395,58.618 L 260.701,65.494 L 277.851,77.208 C 277.851,77.208 284.789,82.576 285.328,83.624 C 285.867,84.672 293.954,93.835 293.954,93.835 C 293.954,93.835 301.285,107.058 301.679,107.737 C 302.073,108.416 308.094,121.067 308.487,123.292 C 308.88,125.517 313.593,140.528 313.593,140.528 L 314.771,155.89 L 314.771,159.63 L 314.771,167.41 L 313.201,180.503 L 306.263,202.624 L 301.287,218.865 L 294.741,238.107 L 289.211,257.614 L 281.911,267.02 L 274.579,285.238 L 267.117,291.653 C 267.117,291.653 251.276,307.625 250.752,308.279 C 250.228,308.933 241.718,316.92 241.718,316.92 L 232.946,321.503 C 232.946,321.503 223.913,328.049 222.211,328.834 C 220.509,329.619 215.665,333.023 215.665,333.023 L 204.799,335.51 L 190.791,336.95 L 175.212,333.809 L 160.419,320.456 L 146.935,302.651 L 136.461,282.882 L 133.973,271.093 L 131.749,267.02z"
     fill="none"
     stroke="#FF0000"
     stroke-width="1"
     id="path90" />
  <path
     d="M 229.496,58.486 L 242.897,59.795 L 257.429,65.529 L 272.484,75.505 L 281.911,82.851 L 289.213,90.804 L 293.956,96.845 L 300.974,109.282 L 307.048,123.683 L 310.844,139.883 L 311.761,152.479 L 313.201,157.328 L 311.63,161.256 C 311.63,161.256 311.368,171.468 311.499,174.74 C 311.63,178.012 308.487,186.261 308.487,186.261 L 305.869,196.342 L 299.454,216.324 L 293.955,232.062 L 285.33,258.92 C 285.33,258.92 278.507,268.215 277.722,271.358 C 276.937,274.501 270.784,283.533 269.344,284.45 C 267.904,285.367 254.551,298.196 254.551,298.196 L 241.721,311.942 L 227.844,319.928 C 227.844,319.928 213.704,327.915 211.74,327.915 C 209.776,327.915 199.434,330.01 198.386,330.01 C 197.338,330.01 184.117,328.831 182.807,328.439 C 181.497,328.047 170.632,324.381 169.323,322.286 C 168.014,320.191 155.446,308.671 155.446,308.671 L 142.747,289.164 C 142.747,289.164 138.745,278.207 137.931,276.419 C 137.117,274.631 132.273,261.147 132.273,261.147 L 127.037,238.76 L 124.287,218.867 L 123.502,187.571 L 126.644,154.579 L 133.021,121.588 C 133.021,121.588 135.865,107.972 137.931,103.783 C 139.997,99.594 147.328,88.99 147.328,88.99 C 147.328,88.99 157.278,78.386 159.634,76.684 C 161.99,74.982 183.616,60.188 186.877,59.796 C 190.138,59.404 212.262,55.869 215.273,55.869 C 218.284,55.869 229.496,58.486 229.496,58.486z"
     fill="none"
     stroke="#FF0000"
     stroke-width="1"
     id="path92" />
  <path
     d="M 193.149,61.551 L 213.04,59.139 C 213.04,59.139 223.519,60.111 226.989,60.345 C 230.459,60.579 244.206,62.282 246.693,63.001 C 249.18,63.72 262.796,70.659 264.759,71.837 C 266.722,73.015 285.82,89.511 287.399,91.736 C 288.978,93.961 297.88,105.613 298.928,109.41 C 299.976,113.207 306.653,130.273 306.653,130.273 C 306.653,130.273 308.748,138.83 308.879,143.757 C 309.01,148.684 309.664,155.231 309.795,158.241 C 309.926,161.251 305.344,175.522 304.82,177.486 C 304.296,179.45 297.619,201.575 297.619,201.575 L 288.062,226.081 L 281.191,246.55 L 277.72,254.203 L 270.127,265.452 L 265.152,278.553 L 249.572,292.769 L 237.753,303.82 L 214.356,315.079 C 214.356,315.079 200.872,320.185 197.337,319.661 C 193.802,319.137 182.15,319.268 176.783,316.126 C 171.416,312.984 156.228,302.641 149.813,291.775 C 143.398,280.909 137.898,264.944 137.375,262.714 C 136.852,260.484 130.96,235.742 130.175,232.731 C 129.39,229.72 127.556,208.119 127.556,205.631 C 127.556,203.143 129.912,160.726 129.912,158.5 C 129.912,156.274 136.065,123.299 136.196,120.149 C 136.327,116.999 139.338,108.882 139.731,107.049 C 140.124,105.216 144.84,100.896 146.017,98.408 C 147.194,95.92 151.887,86.859 154.842,84.32 C 157.797,81.781 175.34,68.69 177.566,67.774 C 179.792,66.858 183.458,65.639 183.85,65.528 C 184.242,65.417 189.356,60.826 193.149,61.551z"
     fill="none"
     stroke="#FF0000"
     stroke-width="1"
     id="path94" />
  <path
     d="M 294.612023779,197.300304189 L 290.995,208.184 L 283.5,224.83 C 283.5,224.83 277.27,238.75 276.686,240.406 C 276.102,242.062 271.43,251.114 271.43,251.114 L 263.74,260.947 C 263.74,260.947 257.315,271.168 255.758,271.947 C 254.201,272.726 240.378,284.991 240.378,284.991 L 232.299,292.096 L 227.626,295.212 L 208.45,303.389 C 208.45,303.389 199.202,306.212 197.353,306.504 C 197.353,306.504 193.656,307.379 189.567,307.281 C 185.478,307.183 179.151,306.113 177.691,304.945 C 176.231,303.777 163.577,295.892 163.577,295.892 C 163.577,295.892 159.293,292.29 158.612,291.511 C 157.931,290.732 148.196,277.98 148.196,277.98 L 144.64,267.759 L 138.364,256.273 L 137.977662967,254.43988031"
     fill="none"
     stroke="#FFFF00"
     stroke-width="1"
     id="path96" />
  <path
     d="M 299.138,182.151 L 298.686,195.721 L 292.554,212.207 L 284.085,234.037 L 276.979,252.472 L 268.802,265.906 L 262.063,276.419 L 245.147,291.313 L 233.368,301.437 C 233.368,301.437 216.722,309.614 214.192,310.587 C 211.662,311.56 187.714,316.525 183.723,316.427 C 179.732,316.329 157.409,299.232 157.409,299.232 L 155.352124628,292.127961436"
     fill="none"
     stroke="#FFFF00"
     stroke-width="1"
     id="path98" />
  <path
     d="M 307.539,134.274 L 308.712,134.969 C 308.712,134.969 310.464,148.014 310.659,149.474 C 310.854,150.934 310.659,163.491 310.659,163.491 L 309.491,177.022 L 303.65,196.199 L 296.836,216.934 L 289.73,238.349 L 283.987,248.632 L 280.872,258.604 L 274.837,265.452 L 269.386,278.656 L 257.413,290.532 L 240.378,306.691 L 221.006,316.913 L 213.803,322.072 C 213.803,322.072 204.264,325.381 201.051,325.284 C 197.838,325.187 174.087,321.585 173.308,320.612 C 172.529,319.639 157.928,307.374 157.928,307.374 L 145.175,287.418 L 135.733,262.716 L 130.282,242.834 C 130.282,242.834 127.07,224.566 126.778,220.461 C 126.486,216.356 125.902,181.799 125.999,179.852 C 126.096,177.905 127.361,159.312 127.751,158.047 C 128.141,156.782 133.3,130.207 133.3,130.207 L 134.303350771,128.431398532"
     fill="none"
     stroke="#FFFF00"
     stroke-width="1"
     id="path100" />
  <path
     d="M 226.99,285.271 L 220.129,292.769 L 214.094,296.08 L 203.484,299.779 L 196.962,302.018 L 184.697,300.947 C 184.697,300.947 173.989,296.469 172.627,296.275 C 171.265,296.081 163.087,291.31 163.087,291.31 L 158.165,286.345 L 149.286,277.097 L 146.019,267.019"
     fill="none"
     stroke="#FFFF00"
     stroke-width="1"
     id="path102" />
  <path
     d="M 140.824,260.777 L 146.019,278.456 C 146.019,278.456 159.681,297.535 163.087,300.066 C 166.493,302.597 178.856,308.146 178.856,308.146 C 178.856,308.146 198.032,309.996 203.873,308.146 C 209.714,306.296 224.607,300.456 224.607,300.456 C 224.607,300.456 240.858,290.041 242.273,288.775 C 243.688,287.509 258.581,273.589 258.581,273.589 L 273.864,252.66 L 279.275,234.353"
     fill="none"
     stroke="#FFFF00"
     stroke-width="1"
     id="path104" />
  <path
     d="M 268.51,66.632 L 275.227,70.429 L 286.421,78.479 L 298.395,90.804 L 304.138,100.606 L 311.147,113.941 L 314.067,124.214 L 317.863,135.747 L 318.35,145.384 L 319.81,154.242 L 319.128,168.163 L 318.349,178.093 L 316.305,196.977 L 313.385,210.021 L 307.155,232.062 L 300.731,248.632 L 294.014,263.852 C 294.014,263.852 285.449,274.658 283.988,277.87 C 282.527,281.082 276.686,291.213 276.686,291.213 L 261.306,305.133 L 250.5,317.788 C 250.5,317.788 248.357,321.196 244.854,323.63 C 241.351,326.064 236.872,326.745 235.022,329.957 C 233.172,333.169 225.969,340.957 223.925,342.807 C 221.881,344.657 208.643,348.453 203.581,350.108 C 198.519,351.763 195.501,351.179 189.758,350.108 C 184.015,349.037 176.519,351.568 176.519,351.568 C 176.519,351.568 162.599,344.17 161.625,341.152 C 160.651,338.134 146.439,319.699 146.439,319.699 L 136.413,304.453 L 129.599,289.851 L 127.763,274.477 L 122.948,251.823 L 116.565,226.692 L 117.393870937,204.198849166"
     fill="none"
     stroke="#FFFF00"
     stroke-width="1"
     id="path106" />
  <path
     d="M 121.083654844,178.077853512 L 120.743,176.345 L 121.133,145.771 L 126.584,122.604 L 129.504,107.905 L 131.354,103.135 L 142.549,87.268 L 153.841,74.322 L 167.957,66.436 L 183.727,57.286 L 194.824,54.95 L 213.903,51.64 L 226.992,53.88 L 233.657,54.854 C 233.657,54.854 247.389,56.996 249.823,57.58 C 252.257,58.164 267.734,68.652 267.734,68.652 L 283.99,80.455 L 294.601,91.649 C 294.601,91.649 297.715,96.127 298.494,97.295 C 299.273,98.463 305.114,109.965 305.114,109.965 L 309.787,120.15 L 312.61,129.808 L 315.725,140.966 L 317.185,152.479 C 317.185,152.479 316.698,164.489 316.698,165.887 C 316.698,167.285 316.114,175.77 315.92,176.346 C 315.726,176.922 311.734,191.691 311.734,193.068 C 311.734,194.445 307.159,210.798 307.159,210.798 L 301.708,226.957 L 295.672,245.16 L 291.292,258.495 L 283.407,269.875 L 280.439,276.416 L 279.275,281.577 L 274.936,287.308 L 266.37,295.874 L 249.043,313.883 L 239.892,321.086 L 231.423,326.537 L 217.893,336.758 C 217.893,336.758 210.105,341.139 208.84,341.528 C 207.575,341.917 196.867,343.475 194.239,343.28 C 191.611,343.085 182.85,342.404 181.0,342.696 C 179.15,342.988 168.151,336.949 168.151,336.949 L 157.054,325.952 L 140.826,303.076 L 135.535,290.325 L 131.452,274.474 L 126.488,258.103 L 125.028,247.882 L 122.886,234.35 L 118.894,207.0 L 118.894,185.974 L 118.894,149.178 L 119.922,136.138 L 124.066,119.34 L 127.874,102.542 L 142.432,83.617 L 150.382,73.649 L 179.824,59.551"
     fill="none"
     stroke="#FFFF00"
     stroke-width="1"
     id="path108" />
  <path
     d="M 244.979,336.951 L 229.824,356.312 C 229.824,356.312 220.498,363.307 217.306,364.473 C 214.114,365.639 200.679,374.965 198.347,375.198 C 196.015,375.431 183.658,374.265 179.928,374.032 C 176.198,373.799 165.705,366.571 165.705,366.571 L 152.387,347.451 L 140.437,327.866 L 127.558,298.488 L 124.67,283.583 L 123.502,265.452 L 116.743,242.764 L 112.78,221.782 L 113.946,163.529 L 117.91,135.514 L 124.672,102.017 L 139.927,81.839 L 150.785,69.949 L 174.46,59.14 L 192.754,51.641 L 219.155,49.011 L 246.613,51.641 L 269.638,61.552 L 290.213,73.65 L 305.797,90.805 L 317.184,115.647 L 325.185,139.883 L 326.584,156.264 L 326.584,185.176 L 323.553,212.209 L 316.092,241.238 L 310.747,265.453 L 299.139,279.111 L 292.948,291.495 L 280.438,302.018 L 264.521,317.842 L 253.943,331.598 L 244.979,336.951z"
     fill="none"
     stroke="#FF0000"
     stroke-width="1"
     id="path110" />
  <path
     d="M 136.397,307.287 L 147.284,331.365 L 165.937,356.78 C 165.937,356.78 178.761,365.407 181.326,365.873 C 183.891,366.339 196.482,365.64 199.28,365.873 C 202.078,366.106 210.623,360.977 213.229,360.51 C 215.835,360.043 229.619,351.65 230.887,349.785 C 232.155,347.92 246.611,330.009 246.611,330.009 L 258.503,318.075 L 284.149,292.77 L 300.975,269.877 L 308.164,253.408 L 317.184,218.866 L 322.853,188.368 L 321.357,162.095"
     fill="none"
     stroke="#FFFF00"
     stroke-width="1"
     id="path112" />
  <path
     d="M 246.293,316.049 L 240.198,322.372 C 240.198,322.372 227.768,332.898 226.991,333.234 C 226.214,333.57 218.352,340.513 218.352,340.513 L 206.041,346.56 L 190.698,347.792 C 190.698,347.792 179.387,347.344 174.684,345.824 C 169.981,344.304 162.029,336.483 162.029,336.483 L 143.327,311.397 L 136.048,296.841 L 132.688,285.194 L 123.841,249.919 L 118.894,228.038 L 117.234,199.748 L 116.114,158.648 L 118.417128816,153.625025176"
     fill="none"
     stroke="#FFFF00"
     stroke-width="1"
     id="path114" />
  <path
     d="M 218.428309296,51.594154654 L 219.787,50.693 L 250.89,56.32 C 253.032,56.612 260.527,61.576 261.89,62.355 C 263.253,63.134 278.19,70.486 279.59,71.311 C 280.99,72.136 290.315,81.339 291.288,82.409 C 292.261,83.479 300.73,92.143 300.73,92.143 C 300.73,92.143 309.004,107.913 309.393,108.706 C 309.782,109.499 315.038,121.54 315.428,122.222 C 315.818,122.904 318.543,134.974 318.933,136.045 C 319.323,137.116 319.614,144.417 319.614,144.709 C 319.614,145.001 321.074,151.815 321.269,152.886 C 321.464,153.957 321.269,168.753 321.269,168.753 C 321.269,168.753 319.907,187.735 319.907,189.098 C 319.907,190.461 317.278,204.577 316.986,206.134 C 316.694,207.691 312.799,226.083 312.799,226.083 L 308.905,237.868 C 308.905,237.868 300.242,264.541 300.047,265.453 C 299.852,266.365 291.092,277.682 290.313,279.111 C 289.534,280.54 281.747,291.505 279.897,292.186 C 278.047,292.867 265.88,303.77 264.517,305.911 C 263.154,308.052 254.49,318.859 252.057,322.655 C 249.624,326.451 240.765,331.805 240.765,331.805 L 236.773,336.77 L 220.906,352.54 L 205.721,360.23 C 205.721,360.23 197.155,362.177 192.774,361.593 C 188.393,361.009 180.314,359.646 177.199,359.062 C 174.084,358.478 164.545,350.605 162.501,349.236 C 160.457,347.867 150.43,332.097 150.43,332.097 L 141.183,316.036 L 128.723,293.257 L 126.971,281.965 L 125.3,267.02 L 123.62,260.316 L 117.349,236.93 L 114.437,223.38 L 116.978,215.475"
     fill="none"
     stroke="#FFFF00"
     stroke-width="1"
     id="path116" />
  <path
     d="M 295.961,74.667 L 305.796,84.408 L 313.431,96.615 L 318.695,106.241 L 326.198,124.94 L 330.118,134.275 L 332.806,146.225 L 335.382,157.535 L 337.398,167.278 L 337.398,180.156 L 336.278,195.162 L 334.375,209.832 L 332.583,223.605 L 328.887,243.313 L 324.968,272.652 L 317.185,284.521 C 317.185,284.521 307.388,304.678 304.924,306.134 C 302.46,307.59 287.23,320.917 287.23,320.917 L 268.306,343.298 L 256.435,352.384 L 240.646,369.853 L 234.263,379.82 C 234.263,379.82 214.106,398.746 209.851,400.538 C 205.596,402.33 201.9,406.809 194.508,407.258 C 187.116,407.707 181.853,407.93 176.03,407.258 C 170.207,406.586 160.239,401.434 160.239,401.434 L 150.491,391.152 L 135.149,368.083 L 125.854,352.068 L 118.127,335.161 L 114.768,316.429 L 110.064,291.598 C 110.064,291.598 108.944,277.375 108.608,275.92 C 108.272,274.465 102.224,245.125 102.001,243.109 C 101.778,241.093 99.425,223.065 99.425,223.065 L 100.769,206.604 L 102.337,188.366 L 104.913,160.242 L 103.793,150.836 L 107.712,140.527 L 112.304,119.37 L 115.44,107.947 L 117.629,100.508 L 124.735,91.934 L 134.254,76.927 L 141.309,72.336 L 147.244,66.178 L 154.846,64.05 L 167.179,56.659 L 176.81,52.739 L 184.648,49.156 L 200.103,46.692 L 217.437,45.012 L 232.484,46.804 L 247.361,48.26 L 263.532,53.747 L 278.046,61.549 L 291.26,69.202 L 295.961,74.667z"
     fill="none"
     stroke="#FF0000"
     stroke-width="1"
     id="path118" />
  <path
     d="M 331.952,160.444 L 334.143,166.413 L 334.368,181.755 L 332.128,204.376 L 330.672,219.718 L 325.073,241.236 L 320.707,272.573 C 320.707,272.573 310.292,286.683 309.799,287.691 C 309.306,288.699 296.742,305.496 295.51,306.168 C 294.278,306.84 278.264,320.95 278.264,320.95 L 257.099,343.297 L 241.87,360.815 L 235.374,367.199 L 227.872,376.717 C 227.872,376.717 218.128,386.796 216.449,387.692 C 214.77,388.588 204.021,394.86 200.885,395.979 C 197.749,397.098 191.365,398.219 180.614,397.659 C 169.863,397.099 168.631,397.435 163.704,392.843 C 158.777,388.251 144.779,369.886 139.291,361.7 C 133.803,353.514 125.988,333.94 125.988,333.94 L 120.743,309.752 L 114.878,285.451 L 111.63,267.533 L 107.375,249.168 L 103.455,227.442 L 104.575,186.903 L 106.591,151.964 L 116.860553452,119.482541132"
     fill="none"
     stroke="#FFFF00"
     stroke-width="1"
     id="path120" />
  <path
     d="M 309.945002804,87.8368713734 L 324.107,107.736 L 334.435,132.091 L 336.821,145.474 L 338.976,147.246 L 345.17,170.583 L 346.991,194.501 L 345.716,232.059 L 344.987,269.138 L 341.708,283.581 L 333.874,308.123 L 327.498,318.689 L 313.203,336.949 L 297.332,353.485 L 277.218,369.881 L 267.381,385.833 L 240.783,416.152 C 240.783,416.152 219.47,445.664 214.915,448.579 C 210.36,451.494 196.88,456.595 196.88,456.595 L 173.927,454.225 L 142.958,438.922 L 125.833,425.442 L 108.553,395.748 L 102.515,366.035 L 96.685,351.566 L 95.41,321.968 L 92.313,299.014 L 95.046,280.979 L 91.402,268.409 L 91.402,245.274 L 90.673,224.31 L 93.77,198.638 L 95.956,179.549 L 98.142,157.508 L 104.918311514,141.124608811"
     fill="none"
     stroke="#FFFF00"
     stroke-width="1"
     id="path122" />
  <path
     d="M 102.15,333.444 L 98.689,350.022 L 104.519,366.782 L 109.984,387.915 L 121.643,410.759 L 133.849,423.619 L 155.345,437.282 L 180.12,449.123 C 180.12,449.123 201.069,448.031 203.984,446.209 C 206.899,444.387 229.625,423.438 229.625,423.438 L 251.349,393.562 L 252.787,385.835"
     fill="none"
     stroke="#FFFF00"
     stroke-width="1"
     id="path124" />
  <path
     d="M 312.701870697,308.695488829 C 309.341448493,312.864356763 301.695002564,324.533337056 299.989,326.705 C 297.985,329.256 276.306,352.756 270.658,354.76 C 265.01,356.764 253.535,375.163 252.259,377.349 C 250.983,379.535 238.595,393.563 236.592,396.113 C 234.589,398.663 215.461,415.059 213.821,417.427 C 212.181,419.795 193.781,427.629 188.681,427.811 C 183.581,427.993 178.297,427.63 173.379,423.439 C 168.461,419.248 165.546,416.881 158.077,415.97 C 150.608,415.059 145.325,410.762 145.325,410.762 L 124.922,383.179 L 112.779,351.88 L 110.348,336.953 L 104.883,307.288 L 98.507,269.877 L 94.317,230.335 L 98.1843435317,203.297042574"
     fill="none"
     stroke="#FFFF00"
     stroke-width="1"
     id="path126" />
  <path
     d="M 336.831293031,190.108857944 L 337.396,210.477 L 334.368,233.248 L 328.881,273.508 L 320.755,288.186 L 313.201,302.018 L 284.421,329.253 L 274.933,339.637 C 274.933,339.637 251.894,360.586 248.797,364.594 C 246.606763189,367.42850731 242.71251743,370.014440378 240.619900838,371.285711696"
     fill="none"
     stroke="#FFFF00"
     stroke-width="1"
     id="path128" />
  <path
     d="M 226.210524495,42.4694038253 L 226.33,42.446 L 236.971,43.723 L 246.122,44.361 L 261.552,49.011 L 269.215,52.131 L 284.217,61.069 L 292.947,66.176 L 299.99,71.63 L 316.385,86.305 L 331.687,105.585 L 342.253,128.678 L 349.176,147.246 L 356.827,162.093 L 366.3,189.695 L 369.579,215.473 C 369.579,215.473 373.223,266.764 373.404,273.14 C 373.585,279.516 365.569,330.524 363.384,333.439 C 361.199,336.354 341.524,360.218 337.395,364.955 C 333.266,369.692 316.202,382.806 316.202,382.806 C 316.202,382.806 299.915,389.364 297.492,390.457 C 295.069,391.551 277.946,405.011 276.306,410.759 C 274.666,416.507 271.752,431.448 270.294,433.269 C 268.836,435.09 255.356,463.69 253.352,466.059 C 251.348,468.428 231.129,495.025 223.659,498.122 C 216.189,501.219 183.763,504.315 180.119,504.132 C 176.475,503.949 157.165,495.386 150.789,488.829 C 144.413,482.272 124.01,461.503 124.01,461.503 L 107.979,435.04 L 96.138,411.224 L 86.301,385.835 L 83.75,360.033 L 84.4430529115,328.180136078"
     fill="none"
     stroke="#FFFF00"
     stroke-width="1"
     id="path130" />
  <path
     d="M 337.54,158.44 L 340.247,158.44 L 342.671,170.973 C 342.671,172.499 343.803,197.75 343.803,202.624 C 343.803,207.498 342.218,233.072 341.545,235.109 C 340.872,237.146 341.312,270.432 341.538,271.081 C 341.764,271.73 336.33,286.282 334.368,288.186 C 332.406,290.09 328.632,305.528 328.881,307.286 C 329.13,309.044 314.773,322.057 314.773,322.057 C 314.773,322.057 280.403,356.02 277.007,357.605 C 273.611,359.19 261.383,372.549 261.383,372.549 L 246.292,395.867 C 246.292,395.867 230.364,411.944 227.42,414.434 C 224.476,416.924 202.966,435.038 201.155,435.038 C 199.344,435.038 183.947,434.811 179.871,433.226 C 175.795,431.641 158.586,420.773 156.096,420.546 C 153.606,420.319 144.096,418.508 141.605,416.018 C 139.114,413.528 125.302,396.772 125.302,396.772 L 114.436,377.751 C 114.436,377.751 104.14,351.058 103.454,349.473 C 102.768,347.888 102.493,334.8 102.15,333.441 L 99.417,313.038 L 97.778,291.177 L 95.774,271.656 L 94.316,251.827 L 92.494,229.966 L 94.583,228.464"
     fill="none"
     stroke="#FFFF00"
     stroke-width="1"
     id="path132" />
  <path
     d="M 346.728530194,180.411178821 L 350.066,185.058 L 355.263,205.195 L 352.336,260.317 L 349.288,290.068 L 338.998,319.7 C 338.998,319.7 298.982,365.528 295.171,366.037 C 291.36,366.546 254.773,414.309 254.773,414.309 L 236.861,450.133 C 236.861,450.133 220.855,467.282 217.307,468.426 C 213.759,469.57 175.12,471.475 166.355,468.426 C 157.59,465.377 129.388,439.08 127.558,439.08 L 111.096,416.976 L 99.424,389.155 L 94.327,358.666 L 91.278,314.838 L 88.229,288.186 L 88.229,260.315 L 88.229,216.323 L 93.564,157.508 L 106.522,124.939 L 117.085,99.37 L 119.887,96.417"
     fill="none"
     stroke="#FFFF00"
     stroke-width="1"
     id="path134" />
  <path
     d="M 263.052426236,404.8126796 C 261.662450868,409.482057459 258.215029989,421.111696241 258.042,422.173 C 257.825,423.504 247.158,453.127 247.158,453.127 C 245.883,457.863 236.409,475.35 232.22,478.448 C 228.031,481.546 213.274,489.015 208.173,489.744 C 203.072,490.473 184.126,493.388 176.293,492.295 C 168.46,491.202 151.337,480.636 147.693,476.264 C 144.049,471.892 122.552,446.57 122.552,446.57 L 108.551,425.438 L 98.085,401.573 C 98.085,401.573 93.587,376.98 92.494,373.883 C 91.401,370.786 86.482,350.747 86.482,350.747 L 86.482,325.285 L 83.75,298.464 L 85.025,273.141 L 83.932,254.378 L 84.661,234.352 L 84.479,224.31 L 86.119,209.928 L 86.848,182.602 L 89.581,165.887 L 92.1656567492,162.14656278"
     fill="none"
     stroke="#FFFF00"
     stroke-width="1"
     id="path136" />
  <path
     d="M 284.421,388.552 C 287.916,386.068 303.814,375.16 309.798,372.114 C 315.782,369.068 338.79,344.192 338.79,344.192 L 352.636,315.408 L 354.094,293.0 L 359.195,280.24 L 359.924,248.632 L 359.924,213.209 L 356.099,193.068 L 348.983,175.366 L 348.526,170.973 L 340.141,136.697 L 326.584,105.586 L 304.436,78.478 L 302.774,78.323 L 297.74,73.053 L 291.24,67.254 L 290.618,66.763 L 277.725,59.138 L 263.464,50.85 L 248.141,46.061 L 236.117,44.891 L 219.198,41.805 L 199.831,44.039 L 185.466,46.487 L 175.676,50.318 L 174.928,50.193 L 172.745,50.269 L 162.388,54.201 L 151.36,60.147 L 142.538,63.001 L 131.03,75.205 L 123.933,85.754 L 111.083,97.821 L 102.931,120.374 L 94.317,139.882 L 90.673,148.9 L 88.487,165.113 L 83.751,185.698 L 82.658,218.125 L 80.654,229.603 L 80.654,268.77 L 80.654,296.647 L 84.479,326.528 L 84.844,353.662 L 90.673,388.551 C 90.673,388.551 101.786,417.24 102.696,419.062 C 103.606,420.884 114.355,440.922 114.355,440.922 L 134.576,467.337 C 134.576,467.337 159.716,491.871 162.266,492.538 C 164.816,493.205 179.754,497.941 188.498,496.484 C 197.242,495.027 222.564,486.829 223.292,486.464 C 224.02,486.099 244.425,468.977 244.971,467.883 C 245.517,466.789 260.637,430.613 261.912,427.843 C 263.187,425.073 269.212,410.141 269.212,410.141 C 269.212,410.141 279.02,392.391 284.421,388.552z"
     fill="none"
     stroke="#FF0000"
     stroke-width="1"
     id="path138" />
  <path
     d="M 319.946647639,88.838 L 321.355,88.838 L 334.368,103.716 L 346.989,126.81 L 352.335,139.881 L 366.041,160.516 L 379.02,186.02 L 379.97,201.423 L 382.328,222.403 C 382.328,222.403 384.377,256.969 384.377,257.925 C 384.377,258.881 383.558,306.143 383.558,310.925 C 383.558,315.707 375.909,342.208 375.909,342.208 C 375.909,342.208 357.603,371.169 351.865,376.121 C 346.127,381.073 331.922,387.562 329.872,388.928 C 327.822,390.294 313.889,398.218 301.867,401.36 C 289.845,404.502 268.261,443.572 268.261,444.392 C 268.261,445.212 254.601,470.76 253.644,471.169 C 252.687,471.578 236.568,492.755 234.246,493.985 C 231.924,495.215 215.669,508.875 210.204,509.832 C 204.739,510.789 195.45,513.521 185.614,514.477 C 175.778,515.433 159.658,504.138 159.658,504.138 L 140.122,486.194 L 122.772,466.796 L 111.402,447.844 L 100.359,427.844 L 94.317,412.903 L 85.854,391.475 L 83.217,375.228 L 79.842,341.369 L 79.842,320.931 L 81.4762734563,305.918720021"
     fill="none"
     stroke="#FFFF00"
     stroke-width="1"
     id="path140" />
  <path
     d="M 384.371455677,254.651938063 L 392.314,296.647 C 392.314,296.647 394.847,326.574 394.53,330.008 C 394.213,333.442 373.407,361.701 373.407,361.701 L 346.988,389.121 L 302.265,407.682 C 289.244,410.703 265.181,454.109 265.181,454.109 C 265.181,454.109 252.82,476.195 250.348,476.854 C 247.876,477.513 236.667,497.622 236.338,500.095 C 236.009,502.568 223.483,525.476 221.837,530.092 C 220.191,534.708 211.779,536.851 200.736,539.653 C 189.693,542.455 176.836,541.466 163.32,534.544 C 149.804,527.622 135.63,508.831 135.63,508.831 L 109.753,472.075 L 94.317,440.923 L 82.723,414.947 L 75.47,387.521 L 72.503,357.027 L 79.589,336.077"
     fill="none"
     stroke="#FFFF00"
     stroke-width="1"
     id="path142" />
  <path
     d="M 232.100186514,496.284571891 C 230.721059679,501.491304529 224.007025906,525.293765404 216.23,526.469 C 207.495,527.789 191.341,533.886 182.275,531.084 C 173.209,528.282 155.902,520.206 150.133,516.25 C 144.364,512.294 113.542,467.956 109.421,460.868 C 105.3,453.78 91.868,424.442 90.673,420.651 C 90.1918271673,419.124534553 89.3894725828,413.182590141 88.6026002719,406.62848448"
     fill="none"
     stroke="#FFFF00"
     stroke-width="1"
     id="path144" />
  <path
     d="M 88.883,155.07 L 74.923,183.02 L 71.884,204.425 L 67.977,225.263 L 68.411,242.338 L 65.082,258.691 L 63.635,281.266 L 61.031,300.368 L 63.107,314.011 C 63.107,314.011 64.426,331.976 63.107,339.394 C 61.788,346.812 61.788,357.031 61.788,357.031 L 62.741,375.229 L 62.741,401.698 L 68.052,425.267 L 73.986,450.649 L 84.7,473.23 L 99.864,504.14 L 113.05,521.524 L 135.136,548.719 C 135.136,548.719 145.027,563.224 151.949,564.872 C 158.871,566.52 174.035,574.267 184.584,574.267 C 195.133,574.267 206.012,572.784 206.012,572.784 C 206.012,572.784 222.328,565.367 228.262,560.752 C 234.196,556.137 241.942,546.908 242.766,545.589 C 243.59,544.27 251.502,523.007 251.502,523.007 C 251.502,523.007 254.634,511.47 254.304,509.821 C 253.974,508.172 253.645,492.02 255.952,490.042 C 258.259,488.064 264.687,481.307 265.181,479.658 C 265.675,478.009 282.487,449.0 287.927,446.528 C 287.927,446.528 320.968,429.024 329.21,427.237 C 337.452,425.45 376.477,417.704 382.235,416.612 C 387.993,415.52 401.5,397.548 403.982,393.279 C 406.464,389.01 416.793,357.931 416.793,357.931 L 413.219,329.534 L 411.531,303.817 L 406.566,274.525 L 395.841,237.887 L 393.061,219.418 L 388.096,196.979 L 383.089,191.535"
     fill="none"
     stroke="#FFFF00"
     stroke-width="1"
     id="path146" />
  <path
     d="M 265.284,468.564 L 262.901,475.462 L 251.346,488.775 L 249.687,510.974 C 249.687,510.974 241.941,540.149 233.534,546.907 C 225.127,553.665 208.645,565.369 203.37,565.698 C 198.095,566.027 177.162,567.017 172.217,565.698 C 167.272,564.379 151.943,557.621 148.647,554.984 C 145.351,552.347 123.595,523.997 123.595,523.997 L 107.112,494.657 L 86.674,455.264 L 76.786,431.695 L 65.578,395.928 L 66.897,374.501 L 65.578,351.878 L 67.391,331.48 L 64.589,304.378 L 68.38,284.519 L 66.897,267.02 L 70.853,250.188 L 71.677,228.037 L 73.985,209.514 L 77.776,186.604 L 78.93,176.346 L 86.5188439597,162.328805401"
     fill="none"
     stroke="#FFFF00"
     stroke-width="1"
     id="path148" />
  <path
     d="M 344.329514608,120.378515032 L 347.478,121.114 L 356.117,138.888 L 361.678,147.428 L 370.219,159.243 L 380.845,182.875 L 384.419,196.677 L 386.935,207.604 L 389.151,234.352 L 396.748,269.875 L 397.698,291.119 L 403.395,313.911 L 404.977,351.877 C 404.977,351.877 389.466,399.066 380.919,401.281 C 372.372,403.496 336.164,412.676 331.951,412.993 C 327.738,413.31 303.775,420.591 299.137,422.174 L 263.626,470.834 L 249.878,485.306 L 248.286,500.64 C 248.286,500.64 236.546,536.24 232.358,539.423 C 228.17,542.606 213.41,554.761 206.753,555.196 C 200.096,555.631 186.927,557.656 180.849,556.788 C 174.771,555.92 158.42,549.264 155.381,547.672 C 152.342,546.08 137.003,526.109 134.108,523.215 C 131.213,520.321 112.69,490.076 111.532,489.064 C 110.374,488.052 99.231,462.293 99.231,462.293 L 85.339,434.219 L 72.501,397.809 C 72.501,397.809 71.013,382.557 70.868,374.309 C 70.723,366.061 70.868,348.84 70.868,348.84 L 70.804,319.698 L 69.277,300.506 L 71.737,277.208 L 74.776,254.055 L 75.964,232.927 L 77.237,216.43 L 81.144,184.16 L 87.077,161.296 L 90.673,148.9"
     fill="none"
     stroke="#FFFF00"
     stroke-width="1"
     id="path150" />
  <path
     d="M 462.334,332.818 C 462.334,332.818 478.422,374.689 481.904,379.753 C 485.386,384.817 474.94,411.093 472.091,414.945 C 469.242,418.797 431.889,447.181 426.507,449.122 C 421.125,451.063 370.476,466.175 357.18,465.542 C 343.884,464.909 319.826,481.053 310.33,487.385 C 300.834,493.717 302.415,531.069 301.783,533.602 C 301.151,536.135 293.236,572.539 293.236,572.539 C 293.236,572.539 262.844,611.154 259.362,614.32 C 255.88,617.486 221.692,644.709 221.692,644.709 C 221.692,644.709 196.367,650.724 187.82,650.724 C 179.273,650.724 153.315,631.414 153.315,631.414 L 124.92,606.723 L 106.601656327,569.404841789"
     fill="none"
     stroke="#FFFF00"
     stroke-width="1"
     id="path152" />
  <path
     d="M 137.93,54.926 L 146.953,52.717 L 160.46,46.667 L 172.283,41.913 L 186.933,37.267 L 200.655,36.186 L 209.625,35.43 L 219.453,33.809 L 226.374,34.782 L 235.99,36.078 L 249.604,37.591 L 269.215,43.102 L 286.017,50.692 L 297.794,55.095 L 309.8,62.01 L 321.673,67.521 L 338.853,78.758 L 372.024,96.912 L 381.208,101.774 L 404.113,119.819 L 430.156,144.239 L 448.307,163.255 L 463.652,183.787 L 480.294,200.536 C 480.294,200.536 492.827,213.826 497.581,217.175 C 502.335,220.524 502.659,241.164 502.659,244.19 C 502.659,247.216 503.632,266.45 503.632,266.45 L 508.71,289.465 L 509.25,310.752 L 513.249,332.273 L 514.515,388.552 C 514.515,388.552 517.681,431.356 517.997,435.04 C 518.313,438.724 505.334,459.531 505.334,459.531 L 489.822,474.409 L 458.167,487.388 L 414.482,492.539 C 414.482,492.539 392.005,508.278 384.378,508.911 C 376.751,509.544 356.551,519.991 354.968,521.574 C 353.385,523.157 344.205,552.913 344.205,552.913 C 344.205,552.913 337.558,614.642 337.558,617.726 C 337.558,620.81 322.361,645.027 322.361,645.027 L 303.684,654.208 C 303.684,654.208 280.576,700.425 279.309,704.856 C 278.042,709.287 253.035,725.432 246.387,727.332 C 239.739,729.232 217.264,729.864 217.264,729.864 L 184.342,716.253 L 165.349,695.677 L 139.075,674.467 L 118.499,653.891 L 103.305,640.596 L 83.679,611.473 L 75.643,595.518 L 69.612,582.066 L 64.591,565.923 L 62.004,557.666 L 61.633,544.956 L 60.241,534.194 L 58.014,518.979 L 56.622,506.176 L 53.189,492.539 L 52.725,480.014 L 50.591,466.562 L 47.901,451.162 L 46.695,433.628 L 44.84,415.723 L 43.263,395.963 L 43.263,377.316 L 40.573,361.266 L 41.408,336.495 L 38.996,311.168 C 38.996,311.168 39.46,289.737 40.109,288.346 C 40.758,286.955 42.707,265.431 42.707,265.431 L 44.562,246.134 L 48.644,220.622 L 54.304,206.52 L 64.972,174.514 L 72.301,159.206 L 75.548,145.289 C 75.548,145.289 82.877,132.116 82.877,131.466 C 82.877,130.816 90.673,115.508 90.673,115.508 L 96.793,104.005 L 102.545,89.532 L 115.348,77.935 L 128.43,64.483 L 137.93,54.926z"
     fill="none"
     stroke="#FF0000"
     stroke-width="1"
     id="path154"
     style="stroke:#00ff00;stroke-opacity:1" />
  <path
     d="M 108.161,130.274 L 103.454,147.247 L 103.454,159.63 L 101.42,170.972 C 101.42,170.972 99.234,197.724 98.505,201.424 C 97.776,205.124 98.141,227.054 98.505,230.333 C 98.869,233.612 99.416,250.372 99.422,253.334 C 99.428,256.296 104.335,274.601 104.881,278.062 C 105.427,281.523 106.703,298.101 106.885,299.194 C 107.067,300.287 113.807,330.892 114.435,332.896 C 115.063,334.9 120.184,354.939 122.37,357.125 C 124.556,359.311 132.572,380.079 134.576,382.994 C 136.58,385.909 152.429,405.219 154.615,406.311 C 156.801,407.403 176.293,413.78 177.751,414.691 C 179.209,415.602 196.515,413.78 199.977,413.78 C 203.439,413.78 218.194,403.032 220.252,401.939 C 222.31,400.846 236.775,389.005 239.507,387.184 C 242.239,385.363 252.987,362.773 254.627,360.587 C 256.267,358.401 272.298,345.648 274.933,344.19 C 277.568,342.732 291.79,325.973 293.794,324.334 C 295.798,322.695 311.647,309.032 314.015,307.286 C 316.383,305.54 321.355,294.277 321.355,294.277 L 331.138,279.11 L 335.692,267.02 L 337.396,239.443 L 340.247,217.947 L 340.064,185.339 L 340.247,170.974 L 334.368,143.759 L 331.867,131.148 L 321.302,106.241 L 311.647,90.804 L 308.161,85.089 L 299.755,76.397 L 294.007,70.65 L 283.472,63.627 L 264.316,52.773 L 248.886,47.453 L 240.161,46.389 L 220.794,43.516 L 213.227,43.516 L 201.534,45.11 L 181.636,49.047 L 168.867,54.474 L 159.184,59.552 L 154.183,63.003 L 146.019,65.967 L 139.922,71.631 L 135.534,75.408 C 132.877,77.594 133.958,76.361 131.619,79.8 C 125.979,88.094 133.123,77.743 123.596,90.808 L 116.96,100.849 L 108.161,130.274z"
     fill="none"
     stroke="#FF0000"
     stroke-width="1"
     id="path158" />
  <path
     d="M 338.024,110.402 L 339.885,109.29 L 353.406,123.171 L 360.705,136.213 L 368.962,147.461 L 376.488,154.162 L 381.166,165.051 L 390.62,182.521 L 395.286,195.564 L 399.598,207.604 L 405.58,229.427 L 413.718,252.874 L 417.547,271.067 L 418.026,291.528 C 418.026,291.528 418.745,303.374 420.54,308.998 C 422.335,314.622 424.849,340.349 424.849,340.349 L 426.405,366.195 C 426.405,366.195 428.558,377.443 426.405,380.195 C 424.252,382.947 411.326,412.262 411.326,412.262 C 411.326,412.262 399.001,424.827 396.967,425.305 C 394.933,425.783 382.967,430.092 379.377,430.211 C 375.787,430.33 360.229,436.193 356.879,436.193 C 353.529,436.193 343.047,433.081 337.398,434.398 C 331.749,435.715 317.751,443.013 313.682,444.569 C 309.613,446.125 292.98,452.826 290.707,455.817 C 288.434,458.808 282.092,472.452 279.938,475.324 C 277.784,478.196 275.271,485.498 272.998,488.131 C 270.725,490.764 266.896,498.785 266.417,503.332 C 265.938,507.879 267.614,522.84 267.135,527.746 C 266.656,532.652 263.817,544.144 262.903,547.375 C 261.989,550.606 254.691,562.934 252.656,565.806 C 250.621,568.678 243.322,577.173 241.767,578.25 C 240.212,579.327 226.93,591.415 226.93,591.415 C 226.93,591.415 203.08,603.509 196.08,604.759 C 189.08,606.009 159.122,597.759 156.101,596.509 C 153.08,595.259 136.83,581.259 135.33,580.509 C 133.83,579.759 107.83,544.259 107.33,543.259 C 106.83,542.259 95.33,523.031 93.58,519.645 C 91.83,516.259 82.83,494.759 82.83,494.759 L 72.503,471.009 L 66.83,442.259 L 62.83,411.759 L 61.03,382.576 L 59.33,354.759 L 61.03,332.009 L 59.33,297.546 L 62.08,271.081 L 68.1848456932,243.364749841"
     fill="none"
     stroke="#FFFF00"
     stroke-width="1"
     id="path160" />
  <path
     d="M 260.431,498.182 L 259.594,527.024 C 259.594,527.024 250.261,550.241 249.902,552.993 C 249.543,555.745 233.749,572.26 233.749,572.26 C 233.749,572.26 221.903,582.192 220.228,583.149 C 218.553,584.106 194.98,594.039 187.921,593.321 C 180.862,592.603 174.519,589.252 163.271,587.816 C 152.023,586.38 146.16,579.199 141.853,573.575 C 137.546,567.951 121.75,552.396 114.81,542.344 C 107.87,532.292 93.99,514.218 92.435,508.714 C 91.1450208873,504.148054639 87.0506919838,488.595939938 85.6925571145,483.427427814"
     fill="none"
     stroke="#FFFF00"
     stroke-width="1"
     id="path162" />
  <path
     d="M 265.434,49.01 C 265.434,49.01 250.645,42.945 247.645,43.01 C 244.645,43.075 226.717,40.771 226.717,40.771 L 218.707,39.996 L 203.635,41.807 L 185.72,44.131 L 178.141,45.904 L 177.249,46.339 L 166.578,49.6 L 151.549,56.984 L 140.435,61.971 L 125.751,76.836 L 116.115,89.399 L 108.586,95.728 L 103.454,109.25 L 97.462,121.429 L 92.763,131.786 L 83.75,144.733 L 81.351,155.858 L 77.323,163.915 L 72.816,175.423 L 68.788,190.192 L 64.76,207.262 L 59.677,226.73 L 58.335,249.267 L 54.787,270.174 L 55.362,284.846 L 52.006,300.958 L 54.787,315.823 L 55.746,339.319 L 55.554,354.759 L 55.65,363.007 L 56.992,377.392 L 55.745,390.626 L 57.088,409.231 L 58.814,423.809 L 60.252,442.893 L 61.499,456.6 L 65.526,468.111 L 67.828,481.343 L 69.554,490.834 L 74.253,504.143 L 77.322,516.339 C 77.322,516.339 82.501,532.542 82.98,534.557 C 83.459,536.572 90.173,545.392 92.762,548.94 C 95.351,552.488 110.12,573.487 110.12,573.487 L 124.985,592.952 L 135.343,603.115 L 147.906,608.965 L 165.264,620.182 C 165.264,620.182 170.442,624.018 174.566,624.497 C 178.69,624.976 190.294,626.126 193.075,625.743 C 195.856,625.36 206.5,620.469 207.939,619.798 C 209.378,619.127 226.352,610.978 226.352,610.978 L 253.396,588.157 C 253.396,588.157 266.822,570.035 267.973,568.596 C 269.124,567.157 276.605,554.692 277.276,553.446 C 277.947,552.2 280.537,540.119 280.153,538.392 C 279.769,536.665 277.372,519.697 277.372,518.162 C 277.372,516.627 278.044,507.04 280.153,503.301 C 282.262,499.562 290.872,480.062 291.448,477.857 C 292.024,475.652 298.244,464.44 301.601,463.097 C 304.958,461.754 308.156,458.62 310.746,458.045 C 313.336,457.47 327.624,450.085 330.021,450.085 C 332.418,450.085 337.405,448.939 345.556,449.129 C 353.707,449.319 362.338,450.469 366.558,449.894 C 370.778,449.319 384.586,443.277 387.847,442.702 C 391.108,442.127 405.202,436.854 408.271,435.8 C 411.34,434.746 425.914,426.019 427.448,423.333 C 428.982,420.647 444.131,394.946 445.281,394.083 C 446.431,393.22 448.254,373.559 447.87,372.696 L 445.232,345.0 L 442.6,314.07 L 435.141,283.578 L 434.922,257.474 L 425.928,238.609 L 420.663,226.105 L 414.52,203.136 L 405.526,185.523 L 399.165,172.352 L 382.055,144.723 L 368.893,124.939 L 353.319,111.711 L 335.769,97.82 L 319.809,84.32 L 308.568,75.403 L 299.137,68.65 L 289.212,61.55 L 265.434,49.01z"
     fill="none"
     stroke="#FF0000"
     stroke-width="1"
     id="path164" />
  <path
     d="M 302.248540907,69.0336285197 L 302.772,68.651 L 325.031,82.851 L 340.247,94.51 L 365.765,112.949 L 384.378,134.274 L 396.081,144.586 L 413.831,164.26 L 429.831,195.51 L 445.831,243.01 L 449.831,269.01 L 459.581,306.01 L 465.331,362.01 C 465.331,362.01 469.581,387.51 468.581,392.26 C 467.581,397.01 460.331,408.76 459.831,412.01 C 459.331,415.26 435.081,437.26 435.081,437.26 C 435.081,437.26 406.58,447.01 404.978,448.01 C 403.376,449.01 372.831,459.26 369.331,459.76 C 365.831,460.26 346.082,459.76 343.804,459.76 C 341.526,459.76 315.081,471.01 312.331,471.26 C 309.581,471.51 298.331,489.26 298.331,489.26 L 287.927,526.26 L 286.622,564.01 L 267.83,590.76 L 243.346,613.51 L 219.08,628.76 L 191.33,640.76 L 182.046934426,635.610962784"
     fill="none"
     stroke="#FFFF00"
     stroke-width="1"
     id="path166" />
  <path
     d="M 82.83,469.292 L 83.751,478.56 L 94.349,501.063 L 105.118,521.046 C 105.118,521.046 123.186,544.267 124.622,545.702 C 126.058,547.137 142.93,568.437 147.357,570.831 C 151.784,573.225 174.16,584.473 178.348,585.43 C 182.536,586.387 196.297,586.268 199.647,585.43 C 202.997,584.592 217.596,577.054 218.912,576.336 C 220.228,575.618 232.194,568.795 237.22,564.129 C 242.246,559.463 252.776,537.085 252.776,537.085 L 257.203,523.913 L 258.639,499.977 L 267.733,483.582 L 286.621,453.186 C 286.621,453.186 300.214,444.114 304.384,441.731 C 308.554,439.348 323.251,433.588 326.329,432.596 C 329.407,431.604 341.422,428.724 344.5,427.843 C 347.578,426.962 360.487,424.355 360.487,424.355 C 360.487,424.355 376.079,425.645 393.257,419.191 C 410.435,412.737 419.174,355.545 419.174,355.545 C 419.174,355.545 416.891,319.501 417.685,319.601 C 418.479,319.701 411.628,291.898 411.628,291.898 L 409.443,267.273 L 406.861,255.259 L 399.414,230.535 L 394.35,209.982 L 386.009,186.846 L 381.838,174.338 L 373.894,158.452 L 364.56,145.94 L 357.111,132.536 L 352.057,123.897 L 348.831,123.897"
     fill="none"
     stroke="#FFFF00"
     stroke-width="1"
     id="path168" />
  <path
     d="M 485.586,404.397 C 488.45,397.319 485.586,377.266 485.586,377.266 C 485.586,377.266 476.151,352.157 474.466,347.102 C 472.781,342.047 467.389,320.139 467.389,320.139 L 463.682,296.715 L 458.122,274.639 L 455.426,251.89 L 452.395,240.935 L 440.768,216.164 L 433.587,186.809 L 415.994,159.631 L 396.201,136.697 L 380.587,123.898 L 367.832,110.405 L 337.396,87.628 L 314.772,73.649 L 300.973,65.494 L 289.212,58.379 L 271.332,49.01 L 254.193,42.445 C 254.193,42.445 239.83,39.908 236.894,40.787 C 233.958,41.666 216.99,38.808 216.99,38.808 L 196.913,39.996 L 175.674,45.015 L 150.777,54.469 L 139.924,59.139 L 130.107,69.948 L 112.778,88.839 L 103.454,103.683 L 90.673,130.513 L 81.539,143.759 L 75.99,159.632 L 67.946,179.037 L 62.813,199.29 L 54.767,224.311 L 52.825,247.566 L 50.744,264.49 L 51.577,283.584 L 47.97,300.974 L 51.022,319.699 L 50.606,345.503 L 49.62,350.381 L 52.007,364.935 L 50.814,391.104 L 54.019,422.332 L 56.256,450.701 L 59.516,472.691 L 64.591,502.161 L 72.504,539.988 L 77.598,557.004 L 96.022,586.105 L 118.013,610.805 L 132.307,622.68 L 156.278,642.474 L 171.451,655.011 L 189.264,662.048 L 210.596,660.069 C 210.596,660.069 221.811,659.63 225.99,656.55 C 230.169,653.47 253.699,631.038 253.699,631.038 L 283.607,604.89 C 283.607,604.89 301.42,581.054 302.959,574.268 C 304.498,567.482 302.959,538.67 305.378,534.712 C 307.797,530.754 313.075,518.877 313.075,518.877 C 313.075,518.877 313.514,493.745 318.133,490.367 C 322.752,486.989 339.686,475.773 348.042,473.794 C 356.398,471.815 378.169,469.293 378.169,469.293 L 401.92,461.037 L 436.227,446.157 L 462.617,425.631 C 462.617,425.631 476.937,414.723 478.065,413.972 C 479.193,413.221 485.586,404.397 485.586,404.397z"
     fill="none"
     stroke="#FF0000"
     stroke-width="1"
     id="path170" />
  <path
     d="M 350.268,109.293 L 355.961,110.405 L 371.575,122.663 L 382.351,139.246 L 394.665,152.479 L 406.979,169.8 L 416.794,186.149 L 423.691,203.137 L 429.849,229.692 L 441.274,256.076 C 441.274,256.076 443.463,279.359 443.632,283.066 C 443.801,286.773 448.687,302.613 448.687,302.613 C 448.687,302.613 451.215,326.712 451.552,330.008 C 451.889,333.304 457.617,363.448 459.807,376.761 C 461.997,390.074 454.585,406.252 451.215,410.633 C 447.845,415.013 436.387,428.157 430.152,431.865 C 423.917,435.573 401.674,443.661 395.27,445.177 C 388.866,446.693 378.251,452.592 373.41,454.338 C 368.569,456.084 356.512,455.288 349.098,454.445 C 341.684,453.602 321.293,457.984 321.293,457.984 C 321.293,457.984 306.8,463.544 300.734,470.072 C 294.668,476.6 284.388,522.184 284.051,524.543 C 283.714,526.902 279.164,559.254 279.164,559.254 L 259.111,590.261 L 223.554,620.977 C 223.554,620.977 187.384,636.237 186.535,636.237 C 185.686,636.237 166.452,631.15 166.452,631.15 L 133.127,609.109 L 100.396695018,559.771736038"
     fill="none"
     stroke="#FFFF00"
     stroke-width="1"
     id="path172" />
  <path
     d="M 346.208537293,115.094220779 L 352.058,117.755 L 371.131,141.555 L 379.487,152.061 L 386.084,164.773 L 404.978,207.039 L 416.792,243.325 L 421.49,257.179 L 423.029,272.792 L 429.627,306.878 L 432.267,330.006 L 434.906,365.154 C 434.906,365.154 434.246,384.507 432.707,386.925 C 431.168,389.343 415.334,418.591 415.334,418.591 L 401.699,429.587 L 375.09,436.844 L 359.036,441.462 C 359.036,441.462 343.423,435.964 339.244,439.263 C 335.065,442.562 299.139,457.516 299.139,457.516 L 279.648,486.765 C 279.648,486.765 271.511,503.258 271.071,508.756 C 270.631,514.254 269.216,545.484 269.216,545.484 L 251.5,578.254 L 234.566,592.108 C 234.566,592.108 203.119,609.481 198.5,610.581 C 193.881,611.681 175.188,606.843 172.11,605.963 C 169.032,605.083 140.663,591.889 140.663,591.889 L 117.132,561.98 L 96.24,533.611 L 74.469,485.007 L 66.772,453.119 L 59.515,392.422 L 60.3419639022,391.387875769"
     fill="none"
     stroke="#FFFF00"
     stroke-width="1"
     id="path174" />
  <path
     d="M 342.124728835,110.73793785 L 349.8,112.949 L 368.712,130.274 L 380.148,146.97 L 398.18,179.331 L 407.079,197.26 L 415.329,224.311 L 425.329,250.873 L 428.579,276.417 L 435.329,305.51 L 438.579,333.26 L 441.579,371.01 C 441.579,371.01 443.579,383.51 437.329,395.51 C 431.079,407.51 422.579,422.175 422.579,422.175 C 422.579,422.175 401.579,434.76 398.079,436.26 C 394.579,437.76 376.485,443.01 373.407,443.51 C 370.329,444.01 351.025,445.51 343.802,445.51 C 336.579,445.51 315.579,451.934 306.079,456.597 C 298.726,460.205 284.759,489.08 280.079,493.76 C 277.079,496.76 275.079,529.26 275.829,536.51 C 276.579,543.76 268.829,562.01 266.829,565.01 C 264.829,568.01 246.329,590.208 242.329,593.359 C 238.329,596.51 199.264,617.624 193.585,617.572 C 189.348,617.533 182.731,617.138 173.904,613.809 C 165.077,610.48 136.568,596.298 136.568,596.298 L 129.187,583.129 L 113.269,563.304 L 93.878,538.703 L 86.932,524.231 L 78.539,502.526 L 73.329,489.647 L 69.277,470.072 L 63.923,453.325 L 61.786,432.197 L 58.28,397.809 L 58.28,381.496 L 57.701,360.277 L 58.714,325.285 L 56.254,298.63 L 60.306,264.189 L 63.634,220.46 L 75.356,174.179 L 80.855,160.517 L 88.228,146.346 L 95.723,136.697"
     fill="none"
     stroke="#FFFF00"
     stroke-width="1"
     id="path176" />
  <path
     d="M 492.488,351.878 L 488.918,331.347 L 487.669,310.28 L 489.989,293.141 L 484.811,274.751 L 484.811,246.365 L 479.99,235.474 L 462.672,212.443 L 447.854,188.162 L 430.894,163.347 L 398.104,130.816 L 384.747,118.959 L 375.318,108.53 L 358.532,98.244 L 344.961,89.315 L 328.675,80.315 L 309.246,68.65 L 295.961,59.138 L 286.532,54.6 L 276.461,49.671 L 259.747,43.457 L 252.39,41.386 L 237.89,39.529 L 227.654,37.895 L 219.789,37.128 L 209.574,38.004 L 192.591,38.771 L 185.14,38.99 L 176.594,42.277 L 168.047,45.016 L 160.486,48.522 L 153.693,51.638 L 146.021,54.111 L 139.01,56.96 L 131.67,65.528 L 122.027,74.82 L 116.118,81.837 L 104.824,92.68 L 99.784,104.403 L 94.634,114.593 L 88.279,128.18 L 79.842,140.966 L 76.682,151.845 L 71.411,164.774 L 62.393,189.696 L 51.156,220.461 L 48.52,241.237 L 44.497,269.876 L 44.358,280.991 L 41.028,296.806 L 42.138,312.202 L 45.051,335.228 L 43.802,357.7 L 47.27,375.228 L 46.499,399.773 L 47.625,416.302 L 50.464,436.918 L 51.99,454.813 L 55.181,472.985 L 57.123,493.099 L 60.175,508.079 L 63.921,527.084 L 65.586,556.354 L 70.441,570.364 L 76.129,584.929 L 86.395,601.992 C 86.395,601.992 101.517,626.407 103.597,628.348 C 105.677,630.289 125.515,642.635 125.515,642.635 L 143.966,658.449 L 156.312,667.602 C 156.312,667.602 168.103,679.394 172.82,686.191 C 177.537,692.988 182.254,700.757 186.138,701.867 C 190.022,702.977 219.155,705.612 220.68,704.641 C 222.205,703.67 232.194,699.231 232.194,699.231 C 232.194,699.231 248.148,691.462 253.697,684.803 C 259.246,678.144 267.154,663.716 267.154,663.716 L 283.383,636.805 C 283.383,636.805 297.392,629.037 300.029,626.124 C 302.666,623.211 313.625,606.286 313.625,606.286 L 321.288,589.924 L 326.201,561.087 C 326.201,561.087 327.405,540.131 328.24,538.833 C 329.075,537.535 334.915,515.929 334.915,515.929 C 334.915,515.929 340.292,505.976 344.65,504.137 C 349.008,502.298 362.452,497.199 368.385,496.179 C 374.318,495.159 397.219,484.959 399.537,484.403 C 401.855,483.847 431.987,475.315 431.987,475.315 L 445.06,471.977 L 462.865,465.857 C 462.865,465.857 479.092,456.306 481.039,454.36 C 482.986,452.414 490.403,437.856 491.701,436.187 C 492.999,434.518 496.802,427.473 496.43,424.784 C 496.058,422.095 496.455,410.135 496.455,410.135 L 496.455,390.203 L 492.488,351.878z"
     fill="none"
     stroke="#FF0000"
     stroke-width="1"
     id="path178" />
  <path
     d="M 486.148225345,414.866368246 L 480.192,434.623 L 466.911,450.534 L 445.863,461.183 L 425.568,466.571 L 377.709,481.855 C 377.709,481.855 341.251,494.885 338.746,496.761 C 336.241,498.637 324.339,518.063 323.462,519.817 C 322.585,521.571 316.947,544.122 316.947,544.122 L 315.819,566.364 L 311.183,585.592 L 299.532,602.88 L 291.764,612.903 L 279.234,622.675 L 272.844,630.944 L 257.059,650.238 C 257.059,650.238 234.507,679.553 233.004,680.806 C 231.501,682.059 220.602,684.064 217.093,685.066 C 213.584,686.068 199.93,684.44 199.93,684.44 C 199.93,684.44 186.274,681.683 182.766,680.806 C 179.258,679.929 162.471,664.269 162.471,664.269 L 148.064,647.981 L 129.522,632.196 L 112.233,621.923 L 95.195,601.627 L 81.29,582.208 L 71.518,561.285 L 69.278,543.37 L 66.883,524.326 L 62.999,504.139 L 58.113,473.586 L 54.73,457.193 L 52.976,437.629 L 51.991,423.186 L 49.355,399.326 L 50.604,374.495 L 47.413,359.93 L 47.413,341.618 L 46.026,317.202 L 43.879,303.316 L 45.294,289.703 L 47.062,271.66 L 49.36,251.868 L 54.766,224.31"
     fill="none"
     stroke="#FFFF00"
     stroke-width="1"
     id="path180" />
  <path
     d="M 305.008274323,64.9634695497 L 308.265,65.529 L 323.198,74.265 L 350.847,90.485 L 366.837,100.139 L 378.036,107.091 L 391.424,120.22 L 404.978,130.647 L 422.578,149.569 L 434.679,162.313 L 451.544,183.425 L 463.644,201.189 L 479.349,217.537 L 490.162,231.053 C 490.162,231.053 491.578,263.235 491.449,265.036 C 491.32,266.837 496.47,283.315 497.242,284.988 C 498.014,286.661 497.242,305.069 497.242,305.069 L 496.341,327.983 L 499.689,380.118 L 501.511,405.081 L 504.492,433.75 C 504.492,433.75 499.905,448.429 494.859,453.475 C 489.813,458.521 471.694,471.823 471.694,471.823 L 436.833,481.226 L 401.053,490.366 L 389.185,497.629 L 373.41,504.14 L 358.685,509.797 C 358.685,509.797 350.024,516.247 348.827,517.905 C 347.63,519.563 343.206,529.885 343.206,529.885 L 340.534,545.917 L 338.047,562.227 L 334.822,576.967 L 331.689,600.647 C 331.689,600.647 327.728,615.113 326.162,618.246 C 324.596,621.379 318.891,630.554 318.891,630.554 C 318.891,630.554 310.429,639.155 306.267,641.097 C 302.105,643.039 299.053,642.346 296.972,645.814 C 294.891,649.282 285.458,669.673 285.458,669.673 C 285.458,669.673 275.472,687.984 272.281,692.839 C 269.09,697.694 255.217,709.902 249.946,713.093 C 244.675,716.284 226.917,722.527 219.287,720.446 C 211.657,718.365 186.273,710.735 186.273,710.735 C 186.273,710.735 175.591,701.58 171.152,695.475 C 166.713,689.37 145.766,670.646 145.35,669.674 C 144.934,668.702 128.148,652.472 128.148,652.472 L 105.954,636.237 L 92.081,617.572 L 80.15,597.402 L 72.503,583.115 L 67.388,566.364 L 63.503,557.003 L 62.532,531.812 L 58.786,513.757 L 54.624,490.592 L 52.404,471.311 L 49.075,449.124 L 50.6245300593,445.197076898"
     fill="none"
     stroke="#FFFF00"
     stroke-width="1"
     id="path182" />
  <path
     d="M 411.138208287,153.317732225 L 424.942,162.772 L 439.099,187.955 L 444.737,206.622 C 444.737,206.622 455.761,231.807 456.764,233.686 C 457.767,235.565 463.78,247.342 463.78,250.349 C 463.78,253.356 466.411,277.16 466.787,279.415 C 467.163,281.67 470.169,297.206 471.297,300.087 C 472.425,302.968 476.058,331.91 477.687,337.422 C 479.316,342.934 487.96,368.118 489.338,373.755 C 490.716,379.392 491.217,399.188 490.09,403.698 C 488.963,408.208 485.578,416.978 482.071,420.361 C 478.564,423.744 443.627,449.223 443.627,449.223 C 436.044,453.773 409.759,464.557 409.759,464.557 L 393.071,468.726 C 391.729,468.918 367.679,478.404 367.679,478.404 C 367.679,478.404 345.641,486.359 336.346,489.616 C 327.051,492.873 319.196,507.346 319.196,507.346 L 314.214,523.543 L 309.232,539.163 L 308.657,558.33 L 307.124,575.677 L 298.214,590.818 L 287.961,604.046 L 276.175,615.544 L 263.911,626.565 L 252.508,639.405 L 240.408,653.212 C 239.755,654.517 220.453,668.537 220.453,668.537 C 220.453,668.537 193.908,668.972 191.079,670.059 C 188.25,671.146 168.015,657.874 168.015,657.874 L 140.599,634.811 C 140.599,634.811 125.585,624.802 124.497,624.584 C 123.409,624.366 111.007,614.793 111.007,614.793 L 82.83,578.022 L 72.503,558.875 L 70.502,539.944 L 70.502,530.423"
     fill="none"
     stroke="#FFFF00"
     stroke-width="1"
     id="path184" />
  <path
     d="M 439.674,189.847 C 439.674,189.847 449.249,201.607 449.249,201.983 C 449.249,202.359 452.256,206.618 452.256,206.618 L 468.292,233.679 L 474.18,245.455 L 474.18,267.38 C 474.18,267.38 477.814,284.669 478.566,286.298 C 479.318,287.927 480.821,299.452 480.821,301.206 C 480.821,302.96 481.698,318.62 481.573,320.499 C 481.448,322.378 485.332,336.912 485.457,339.793 C 485.582,342.674 490.468,363.346 490.468,363.346 C 490.468,363.346 493.6,389.531 493.6,395.67 C 493.6,401.809 484.83,432.879 482.2,436.011 C 479.57,439.143 468.92,452.542 467.542,454.046 C 466.164,455.55 447.121,462.816 443.112,465.321 C 439.103,467.826 415.8,472.337 410.915,474.091 C 406.03,475.845 372.827,486.243 368.317,488.248 C 363.807,490.253 341.381,496.141 339.127,498.646 C 336.873,501.151 326.096,518.443 324.468,523.955 C 322.84,529.467 321.211,546.881 320.71,550.515 C 320.209,554.149 314.444,586.467 314.444,586.467 C 314.444,586.467 299.411,612.776 297.657,616.033 C 295.903,619.29 280.117,629.063 278.489,631.318 C 276.861,633.573 259.947,657.378 259.947,657.378 C 259.947,657.378 241.907,682.812 239.276,684.941 C 236.645,687.07 219.229,691.331 212.339,691.832 C 205.449,692.333 190.791,689.075 187.032,687.572 C 183.273,686.069 177.886,684.94 176.509,683.688 C 175.132,682.436 162.1,669.282 162.1,669.282 L 147.064,655.125 L 120.755,636.236 L 105.972,626.435 L 89.183,600.876 L 77.597,582.084 L 68.01,557.778 L 67.259,542.494 L 64.59,523.576 L 59.366,497.641 L 56.735,472.96"
     fill="none"
     stroke="#FFFF00"
     stroke-width="1"
     id="path186" />
  <path
     d="M 479.913,422.175 L 470.295,443.518 L 446.742,458.301 L 409.657,468.7 L 378.212,478.596 C 378.212,478.596 343.633,488.243 333.986,498.893 C 324.339,509.543 317.574,528.083 316.196,532.469 C 314.818,536.855 313.188,552.64 312.938,556.399 C 312.688,560.158 311.81,579.453 307.801,584.964 C 303.792,590.475 291.514,608.517 291.514,608.517 L 274.976,623.301 L 260.434,639.713 L 240.649,664.269 C 240.649,664.269 227.871,680.055 223.235,680.556 C 218.599,681.057 204.318,680.556 204.318,680.556 C 204.318,680.556 178.759,674.041 176.755,672.287 C 174.751,670.533 162.348,659.007 162.348,659.007 L 143.179,639.463 L 142.951328012,638.343332341"
     fill="none"
     stroke="#FFFF00"
     stroke-width="1"
     id="path188" />
  <path
     d="M 327.969578859,76.202644684 L 330.11,76.128 L 379.26,103.532 C 379.26,103.532 390.751,115.892 393.05,117.756 C 395.349,119.62 408.254,128.99 408.254,128.99 L 430.708,153.741 L 452.984,178.492 L 473.315,203.42 L 493.599,225.343 L 495.239,258.404 L 500.719,288.106 L 499.481,312.68 L 500.719,343.266 L 498.311315129,350.797142955"
     fill="none"
     stroke="#FFFF00"
     stroke-width="1"
     id="path198" />
  <path
     d="M 470.017166424,198.983491071 L 497.714,224.446 L 500.718,262.634 L 505.316,287.386 L 506.023,325.751 L 507.792,389.045 C 507.792,389.045 513.627,433.598 513.803,436.604 C 513.979,439.61 490.995,468.25 490.995,468.25 L 463.416,480.449 L 414.618,490.366 L 382.089,505.201 L 347.858379753,522.147059892"
     fill="none"
     stroke="#FFFF00"
     stroke-width="1"
     id="path204" />
  <path
     d="M 242.939,261.982 L 237.755,267.02 L 223.026,274.477 L 204.282,278.186 L 196.532,280.419 L 184.05,277.267 L 168.285,272.406 L 156.463,259.4 L 149.894,250.861 L 146.019,240.088 L 147.144,237.755"
     fill="none"
     stroke="#FFFF00"
     stroke-width="1"
     id="path206" />
  <path
     d="M 232.32,321.957 L 215.672,335.922 L 196.074,340.29 L 174.124,336.951 L 159.229,324.051 L 144.111,302.549 L 135.533,284.519 L 135.156309727,277.503035423"
     fill="none"
     stroke="#FFFF00"
     stroke-width="1"
     id="path208" />
  <path
     d="M 326.436179264,149.459749938 L 328.881,155.551 L 327.984,191.163 L 325.884,216.36 L 319.361,240.212 L 311.858,268.096 L 303.571,278.847 L 294.052,293.74 L 276.918,308.968 L 273.334,311.322 L 259.434,327.636 L 250.807,336.951 L 232.853,359.346 L 218.351,368.905 L 201.61,378.931 L 185.814,381.496 L 172.231,375.229 L 160.107,368.206 L 143.786,343.299 L 137.583,321.356"
     fill="none"
     stroke="#FFFF00"
     stroke-width="1"
     id="path210" />
  <path
     d="M 206.299,376.123 L 235.259,360.595 L 253.625,338.309 L 274.342,314.234 L 284.421,304.378"
     fill="none"
     stroke="#FFFF00"
     stroke-width="1"
     id="path212" />
  <path
     d="M 349.993104391,148.321767539 L 368.257,172.352 L 373.408,191.533 L 375.222,213.531 L 375.222,243.319 L 376.488,300.299 L 368.44,309.689"
     fill="none"
     stroke="#FFFF00"
     stroke-width="1"
     id="path214" />
  <path
     d="M 183.174,292.995 L 197.96,295.295 L 214.882,289.38 L 237.554,274.759 L 252.504,262.273 L 265.647,248.632 L 272.711,234.673 L 286.838,207.605 L 295.709,185.882 L 302.772,155.82 L 302.772,138.569 L 299.158,122.663 L 294.229,110.405 L 286.508,97.821 L 281.251,90.804 L 271.333,81.565 L 264.659,76.802 L 252.083,68.751 L 240.246,64.316 L 232.787,64.316 L 222.437,64.316 L 213.88,63.001 L 195.977,65.958 L 187.61,69.409 L 182.382,72.694 L 170.031,79.923 L 161.162,86.494 L 154.59,93.887 L 149.004,102.016 L 142.761,111.711 L 139.805,128.879 L 138.162,140.966 L 135.533,153.849 L 135.533,175.366 L 135.533,206.912 L 135.533,222.683 L 137.34,235.661 L 140.462,250.773 L 149.498,266.38 L 155.741,277.059 L 164.119,283.959z"
     fill="none"
     stroke="#FF0000"
     stroke-width="1"
     id="path216" />
  <line
     fill="none"
     stroke="#0000FF"
     x1="241.2905"
     x2="243.2905"
     y1="131.147"
     y2="131.147"
     id="line218" />
</svg>
