<?xml version="1.0" ?>
<svg baseProfile="full" height="600px" version="1.1" viewBox="247.181126298 134.352480762 239.362500213 252.022827556" width="570px" xmlns="http://www.w3.org/2000/svg" xmlns:ev="http://www.w3.org/2001/xml-events" xmlns:xlink="http://www.w3.org/1999/xlink">
	<defs/>
	<path d="M 466.399432004,279.390973669 C 465.873929856,281.120259788 465.004289851,284.596489839 465.639,286.983 C 466.514,290.273 466.911,298.379 465.957,304.185 C 465.035425387,309.793660589 463.816167154,316.29070615 462.731024564,320.094636745 C 462.727278439,320.107768661 462.729143159,320.101094238 462.725323336,320.114204907 L 462.622416118,320.467410414 C 462.622398064,320.46747238 462.611309303,320.504439842 462.611290271,320.504501514 L 462.502805418,320.85603028 C 462.498778556,320.869078716 462.500939167,320.862493845 462.496795177,320.875505557 C 461.301941602,324.627225946 458.165010489,331.371060957 456.594118506,335.329383066 C 456.590643586,335.338139145 456.592417051,335.333699745 456.588962581,335.342463913 L 456.49589811,335.578573243 C 456.495881783,335.578614666 456.486084654,335.603372052 456.486068214,335.60341343 L 456.392364289,335.839268607 C 456.388886083,335.848023342 456.390698345,335.843599542 456.387172936,335.852335376 C 454.85467025,339.649820506 452.949512354,341.764107715 450.469209478,344.688788714 C 450.463268788,344.695793755 450.466285522,344.6922407 450.460349004,344.699249278 L 450.300417406,344.888062516 C 450.300389348,344.888095641 450.283558814,344.907860216 450.283530583,344.907893193 L 450.122611652,345.095863863 C 450.116638484,345.102841167 450.119708494,345.099333892 450.113696476,345.10627775 C 447.538198813,348.080967733 443.618383174,351.205333719 440.875362849,354.691513892 C 440.869445565,354.699034331 440.872469362,354.695234413 440.866594706,354.702788197 L 440.708329703,354.906289452 C 440.708301937,354.906325153 440.69167716,354.927658557 440.691649324,354.927694205 L 440.532986488,355.130884095 C 440.527097064,355.138426324 440.530142444,355.134643558 440.524196303,355.142141153 C 437.837530866,358.529805587 435.365709875,359.221542252 431.53686812,361.00251535 C 431.528589631,361.006366062 431.532794796,361.004420847 431.524524714,361.008289583 L 431.301726221,361.112514486 C 431.301687133,361.112532771 431.278343458,361.123532153 431.278304473,361.123550655 L 431.056089467,361.2290131 C 431.047841043,361.232927773 431.052012832,361.230911905 431.043778386,361.234855895 C 427.264597966,363.044941411 427.883204233,363.517173447 420.954,364.139 C 414.020331123,364.76122721 412.202476447,366.303302393 406.596120217,364.268847171 C 406.584360883,364.2645799 406.590343234,364.266704692 406.578614206,364.262354812 L 406.26263071,364.145167741 C 406.262575275,364.145147181 406.229452274,364.13277904 406.229396931,364.132758234 L 405.913936232,364.014163784 C 405.902226615,364.009761665 405.908178621,364.011969386 405.896459192,364.007593457 C 400.342846447,361.933924545 397.70032305,361.623458257 391.968452406,358.864841918 C 391.959315845,358.860444703 391.963956941,358.862666526 391.954829785,358.858249822 L 391.708941489,358.739262491 C 391.708898351,358.739241616 391.684014365,358.725146988 391.68397428,358.725120724 L 391.455485415,358.575414361 C 391.447004112,358.569857394 391.451307229,358.572678611 391.442826753,358.56712038 C 390.2053775,357.75607769 384.736208491,354.168416861 381.842634909,352.219054867 C 381.834435795,352.213531232 381.838598433,352.216331461 381.830403164,352.210802123 L 381.609620158,352.061840106 C 381.609581424,352.061813972 381.586416963,352.046188418 381.586378224,352.046162293 L 381.365564465,351.897245845 C 381.357368054,351.891718199 381.361530328,351.894518969 381.353331016,351.888995626 C 378.271432378,349.812921331 373.958054895,346.996758374 370.515574098,345.133992392 C 370.505923061,345.128770105 370.510812625,345.131435017 370.501145393,345.126242772 L 370.24070727,344.986362139 C 370.240661579,344.986337598 370.2123716,344.973853255 370.212322675,344.973836042 L 369.933453277,344.875720753 C 369.923101892,344.872078801 369.928361846,344.873906963 369.918003449,344.870285004 C 367.8965906,344.163469464 356.456857666,340.231092498 350.485,339.639 C 343.919,338.988 339.499,340.354 330.008,338.924 C 320.890198859,337.550229519 312.792206068,333.656932529 309.17270159,331.048568328 C 309.158419298,331.038275919 309.165743514,331.043394451 309.15161651,331.032889912 L 308.771030826,330.749894496 C 308.770964056,330.749844847 308.731367321,330.71971959 308.73130166,330.719668485 L 308.357019197,330.428358797 C 308.343126189,330.41754566 308.35012218,330.423102193 308.336283365,330.412219787 C 304.738147124,327.582759247 296.988423672,320.793434846 293.802,316.046 C 290.487,311.107 286.976,309.095 284.181,304.77 C 281.5093639,300.635894049 272.690533157,283.947001893 270.908543158,280.804150345 C 270.901933091,280.792492333 270.905234196,280.798438864 270.898516,280.786842828 L 270.7175258,280.474442141 C 270.717494047,280.474387334 270.703045026,280.43972078 270.703028455,280.439659645 L 270.608566692,280.09118405 C 270.60506036,280.078248961 270.606824606,280.084817116 270.60333336,280.071877947 C 270.012793337,277.883233226 267.128625547,267.05558273 267.266,264.854 C 267.419,262.402 267.103,255.007 267.261,253.037 C 267.419,251.067 266.96,249.995 268.032,245.245 C 269.104,240.495 272.015,228.955 273.24,225.764 C 274.465,222.573 275.385,213.699 277.07,210.399 C 278.755,207.099 281.82,202.541 283.657,198.769 C 285.461450625,195.063835189 299.469658221,174.972174123 305.983911039,170.702424556 C 305.995308999,170.694953793 305.989605007,170.69887005 306.001165487,170.691653328 L 306.312608274,170.497232666 C 306.312662913,170.497198558 306.345490091,170.477050735 306.345545242,170.47701746 L 306.659934139,170.287331523 C 306.671603921,170.280290582 306.66567794,170.28385696 306.677351725,170.276822656 C 308.620823721,169.105739377 318.119466891,163.402329325 320.442,162.393 C 323.033,161.267 338.312,153.869 349.839,155.745 C 359.695703629,157.349162055 363.484253522,158.326693462 364.375237786,158.576305465 C 364.382587652,158.578364553 364.378847362,158.577356425 364.386175897,158.579490192 L 364.583608795,158.63697451 C 364.583643432,158.636984595 364.604647904,158.641724326 364.604683516,158.641730093 L 364.807676291,158.674602828 C 364.815211192,158.675823033 364.811387952,158.675201103 364.818922411,158.676424029 C 366.00928712,158.869633388 371.594120967,159.78172311 373.572,160.206 C 375.791,160.682 384.547,163.019 386.092,163.257 C 387.562920963,163.483588472 396.575121369,165.756836677 399.11266645,166.418725439 C 399.12380446,166.421630657 399.118149954,166.420165469 399.129283128,166.423089167 L 399.429216608,166.501855102 C 399.42926922,166.501868919 399.460549243,166.510769103 399.460601247,166.510785053 L 399.757024934,166.601701062 C 399.768027919,166.605075783 399.762531796,166.603090193 399.773447299,166.60673796 C 402.489404257,167.514362336 413.815764111,172.58140486 416.008,173.678 C 418.305,174.827 423.463,177.799 425.5,178.749 C 427.457149677,179.661760036 433.352400569,185.186511087 434.795207681,187.199680044 C 434.800579796,187.207175831 434.797745254,187.203447324 434.802897297,187.211096042 L 434.941694865,187.417154802 C 434.941719215,187.417190953 434.955883962,187.439066002 434.955906985,187.439103012 L 435.087163895,187.650099128 C 435.09203599,187.657931045 435.089560631,187.653958477 435.094435679,187.661788556 C 436.318799485,189.628305693 439.373189212,194.501199078 440.7,196.82 C 442.083,199.237 442.838,200.189 443.749,202.606 C 444.66,205.023 447.353,209.301 448.345,211.362 C 449.303963333,213.354362328 450.44702374,217.752135154 451.307133204,219.259698606 C 451.309952093,219.264639434 451.308583006,219.262096079 451.311526544,219.266963675 L 451.390826531,219.398098521 C 451.390840443,219.398121526 451.399143753,219.411888006 451.399157611,219.411911043 L 451.47815223,219.543220862 C 451.48108444,219.548094967 451.479750397,219.545532179 451.482528663,219.550495645 C 452.262753834,220.944394149 452.221041254,223.610940767 453.139,225.943 C 454.09,228.359 455.714,232.045 455.912,233.51 C 456.076790579,234.729283829 457.842371016,243.104673251 459.645265188,245.868356431 L 466.399432004,279.390973669" fill="none" stroke="#000000" stroke-width="0.209844152836"/>
</svg>
