<?xml version="1.0" ?>
<svg baseProfile="full" height="600px" version="1.1" viewBox="299.18615092 135.383372107 172.017218874 189.925401796" width="544px" xmlns="http://www.w3.org/2000/svg" xmlns:ev="http://www.w3.org/2001/xml-events" xmlns:xlink="http://www.w3.org/1999/xlink">
	<defs/>
	<path d="M 359.106245972,224.930146042 C 364.497681204,221.561706392 402.427532982,198.932233665 399.577,230.853 C 396.53802665,264.8839545 405.689076027,276.040955376 379.85099207,276.249024153 C 379.825867953,276.249226472 379.838617201,276.249073254 379.813492467,276.249172945 L 379.136624152,276.251858649 C 379.136505405,276.25185912 379.06549601,276.251653168 379.065377268,276.251652008 L 378.388545351,276.24504017 C 378.36342195,276.244794744 378.376167513,276.245166191 378.351047738,276.244673863 C 352.445958287,275.736954377 345.23790825,248.93622866 358.101761444,225.983669239 C 358.114045078,225.961751946 358.10788688,225.972916697 358.120323372,225.951085777 L 358.455366228,225.362954184 C 358.455425007,225.362851004 358.50297892,225.312975564 358.503079184,225.312911937 L 359.074583674,224.95023874 C 359.095797414,224.936776632 359.084938116,224.943458681 359.106245972,224.930146042" fill="none" stroke="#FF0000" stroke-width="0.1"/>
	<path d="M 381.912212381,206.80533802 C 386.86111741,206.049631728 414.967104078,202.574936583 415.527,221.036 C 416.141,241.281 422.276,263.368 411.233,276.251 C 400.19,289.134 385.466,298.95 365.834,289.134 C 346.202,279.318 327.797,270.448 332.705,245.129 C 337.240634151,221.730931321 374.78491049,208.952574048 380.455708382,207.148289845 C 380.479650428,207.140672177 380.467527194,207.144622062 380.491522963,207.137175352 L 381.137976535,206.936558648 C 381.138089946,206.936523452 381.207042888,206.920287661 381.207160088,206.920268556 L 381.875201762,206.811371119 C 381.899998877,206.807328943 381.887375867,206.809130598 381.912212381,206.80533802" fill="none" stroke="#FF0000" stroke-width="0.1"/>
	<path d="M 347.63,223.833 C 347.63,223.833 363.346,194.764 377.754,193.291 C 392.162,191.818 406.897,191.327 411.808,199.676 C 416.719,208.025 415.388,219.324 415.383308232,219.278464501" fill="none" stroke="#FFFF00" stroke-width="0.1"/>
	<path d="M 342.86,227.98 C 342.86,227.98 350.249,195.91 376.608,190.344 C 402.967,184.778 405.913,186.087 413.28,193.946 C 420.647,201.805 420.678,220.614 416.161,230.937" fill="none" stroke="#FFFF00" stroke-width="0.1"/>
	<path d="M 335.639,267.23 C 335.639,267.23 306.51,227.5 347.63,196.75 C 388.75,166.0 402.75,169.5 413.0,180.0 C 423.25,190.5 433.75,209.374 431.0,230.937 C 428.25,252.5 421.854,261.738 415.569436692,268.713559408" fill="none" stroke="#FF9900" stroke-width="0.1"/>
	<path d="M 329.685,217.721 C 329.685,217.721 342.75,159.25 396.0,164.5 C 449.25,169.75 434.889,194.941 431.444,217.721" fill="none" stroke="#FFFF00" stroke-width="0.1"/>
	<path d="M 332.025709787,180.010305137 C 332.869459868,175.804168643 339.032233719,155.126786511 378.537,156.25 C 422.501,157.5 448.5,151.75 451.0,178.75 C 453.5,205.75 450.0,245.5 441.75,262.0 C 433.5,278.5 417.5,306.75 389.0,304.25 C 360.5,301.75 328.0,304.5 321.5,283.25 C 315.086471194,262.282694289 319.680129957,196.287755017 331.424091832,181.327061566 C 331.439603693,181.307300926 331.431993817,181.317540051 331.44803724,181.298208488 L 331.880254833,180.777406844 C 331.880330651,180.777315488 331.908809286,180.714981612 331.908828715,180.714864494 L 332.019574298,180.04728988 C 332.023685076,180.022510102 332.020769454,180.034932947 332.025709787,180.010305137" fill="none" stroke="#00FF00" stroke-width="0.1"/>
	<path d="M 359.106245972,224.930146042 L 356.43859806,220.660379492" fill="none" stroke="purple" stroke-width="0.1"/>
	<path d="M 359.75874805,224.527180868 L 357.133955978,220.230936188" fill="none" stroke="purple" stroke-width="0.1"/>
	<path d="M 360.615810217,224.010092909 L 358.037983619,219.68550486" fill="none" stroke="purple" stroke-width="0.1"/>
	<path d="M 361.660637501,223.395789947 L 359.134483985,219.040815758" fill="none" stroke="purple" stroke-width="0.1"/>
	<path d="M 362.876434929,222.701179762 L 360.407377156,218.313582984" fill="none" stroke="purple" stroke-width="0.1"/>
	<path d="M 364.246407529,221.943170137 L 361.840729035,217.520505471" fill="none" stroke="purple" stroke-width="0.1"/>
	<path d="M 365.753760329,221.138668853 L 363.418788507,216.678269952" fill="none" stroke="purple" stroke-width="0.1"/>
	<path d="M 367.381698356,220.304583692 L 365.126035788,215.803557348" fill="none" stroke="purple" stroke-width="0.1"/>
	<path d="M 369.113426638,219.457822435 L 366.947245702,214.913054903" fill="none" stroke="purple" stroke-width="0.1"/>
	<path d="M 370.932150202,218.615292864 L 368.867570913,214.023477959" fill="none" stroke="purple" stroke-width="0.1"/>
	<path d="M 372.821074076,217.793902761 L 370.872651671,213.151607865" fill="none" stroke="purple" stroke-width="0.1"/>
	<path d="M 374.763403288,217.010559907 L 372.948760361,212.314356886" fill="none" stroke="purple" stroke-width="0.1"/>
	<path d="M 376.742342864,216.282172084 L 375.082990433,211.528878355" fill="none" stroke="purple" stroke-width="0.1"/>
	<path d="M 378.741097833,215.625647073 L 377.263498595,210.812752699" fill="none" stroke="purple" stroke-width="0.1"/>
	<path d="M 380.742873223,215.057892657 L 379.479802356,210.184300167" fill="none" stroke="purple" stroke-width="0.1"/>
	<path d="M 382.73087406,214.595816616 L 381.723112664,209.663102481" fill="none" stroke="purple" stroke-width="0.1"/>
	<path d="M 384.688305372,214.256326732 L 383.986622064,209.270858619" fill="none" stroke="purple" stroke-width="0.1"/>
	<path d="M 386.598372187,214.056330788 L 386.265530002,209.032739657" fill="none" stroke="purple" stroke-width="0.1"/>
	<path d="M 388.444279533,214.012736563 L 388.556298109,208.979377485" fill="none" stroke="purple" stroke-width="0.1"/>
	<path d="M 390.209232436,214.142451841 L 390.854132884,209.149321042" fill="none" stroke="purple" stroke-width="0.1"/>
	<path d="M 391.876435926,214.462384403 L 393.147181129,209.590787294" fill="none" stroke="purple" stroke-width="0.1"/>
	<path d="M 393.429095028,214.98944203 L 395.406480435,210.359409771" fill="none" stroke="purple" stroke-width="0.1"/>
	<path d="M 394.850414771,215.740532504 L 397.574807112,211.506747184" fill="none" stroke="purple" stroke-width="0.1"/>
	<path d="M 396.123600182,216.732563607 L 399.565683309,213.05842214" fill="none" stroke="purple" stroke-width="0.1"/>
	<path d="M 397.231856289,217.98244312 L 401.284883333,214.99576879" fill="none" stroke="purple" stroke-width="0.1"/>
	<path d="M 398.15838812,219.507078824 L 402.665526606,217.263654113" fill="none" stroke="purple" stroke-width="0.1"/>
	<path d="M 398.886400702,221.323378502 L 403.686082823,219.80341031" fill="none" stroke="purple" stroke-width="0.1"/>
	<path d="M 399.399099062,223.448249936 L 404.358484637,222.581216784" fill="none" stroke="purple" stroke-width="0.1"/>
	<path d="M 399.679688228,225.898600905 L 404.705046601,225.593600921" fill="none" stroke="purple" stroke-width="0.1"/>
	<path d="M 399.711373228,228.691339193 L 404.743218859,228.85801649" fill="none" stroke="purple" stroke-width="0.1"/>
	<path d="M 399.493402197,231.819651863 L 404.510477456,232.239422772" fill="none" stroke="purple" stroke-width="0.1"/>
	<path d="M 399.260813725,234.933622378 L 404.28455681,235.264163124" fill="none" stroke="purple" stroke-width="0.1"/>
	<path d="M 399.089517225,237.913758424 L 404.118018885,238.161594707" fill="none" stroke="purple" stroke-width="0.1"/>
	<path d="M 398.970607906,240.76231078 L 404.002241366,240.935274642" fill="none" stroke="purple" stroke-width="0.1"/>
	<path d="M 398.895180979,243.481530223 L 403.928640837,243.588924965" fill="none" stroke="purple" stroke-width="0.1"/>
	<path d="M 398.854331654,246.073667531 L 403.888660181,246.126469561" fill="none" stroke="purple" stroke-width="0.1"/>
	<path d="M 398.839155142,248.540973483 L 403.873748308,248.55208299" fill="none" stroke="purple" stroke-width="0.1"/>
	<path d="M 398.840746653,250.885698856 L 403.875328386,250.87025413" fill="none" stroke="purple" stroke-width="0.1"/>
	<path d="M 398.850201397,253.110094429 L 403.88474853,253.085867701" fill="none" stroke="purple" stroke-width="0.1"/>
	<path d="M 398.858614585,255.216410978 L 403.893205456,255.204306129" fill="none" stroke="purple" stroke-width="0.1"/>
	<path d="M 398.857081426,257.206899284 L 403.891626394,257.231571951" fill="none" stroke="purple" stroke-width="0.1"/>
	<path d="M 398.836697133,259.083810122 L 403.870487028,259.174425036" fill="none" stroke="purple" stroke-width="0.1"/>
	<path d="M 398.788556914,260.849394272 L 403.819533411,261.040515336" fill="none" stroke="purple" stroke-width="0.1"/>
	<path d="M 398.703755981,262.505902512 L 403.727365718,262.838463764" fill="none" stroke="purple" stroke-width="0.1"/>
	<path d="M 398.573389544,264.055585619 L 403.580839463,264.57778967" fill="none" stroke="purple" stroke-width="0.1"/>
	<path d="M 398.388552812,265.500694372 L 403.364267987,266.268490095" fill="none" stroke="purple" stroke-width="0.1"/>
	<path d="M 398.140340998,266.843479548 L 403.058519275,267.919943298" fill="none" stroke="purple" stroke-width="0.1"/>
	<path d="M 397.81984931,268.086191926 L 402.640375567,269.538699542" fill="none" stroke="purple" stroke-width="0.1"/>
	<path d="M 397.418172959,269.231082284 L 402.083025455,271.124862356" fill="none" stroke="purple" stroke-width="0.1"/>
	<path d="M 396.926407156,270.280401399 L 401.359070112,272.667607066" fill="none" stroke="purple" stroke-width="0.1"/>
	<path d="M 396.335647112,271.23640005 L 400.447033475,274.142213868" fill="none" stroke="purple" stroke-width="0.1"/>
	<path d="M 395.636988036,272.101329014 L 399.339760816,275.512593516" fill="none" stroke="purple" stroke-width="0.1"/>
	<path d="M 394.821525138,272.877439071 L 398.04916711,276.741320419" fill="none" stroke="purple" stroke-width="0.1"/>
	<path d="M 393.88035363,273.566980997 L 396.601827204,277.802643088" fill="none" stroke="purple" stroke-width="0.1"/>
	<path d="M 392.804568722,274.17220557 L 395.027010859,278.689727316" fill="none" stroke="purple" stroke-width="0.1"/>
	<path d="M 391.585265624,274.69536357 L 393.345404858,279.41226527" fill="none" stroke="purple" stroke-width="0.1"/>
	<path d="M 390.213539546,275.138705773 L 391.564605196,279.988641173" fill="none" stroke="purple" stroke-width="0.1"/>
	<path d="M 388.6804857,275.504482959 L 389.680784961,280.438715742" fill="none" stroke="purple" stroke-width="0.1"/>
	<path d="M 386.977199294,275.794945904 L 387.682779735,280.779863958" fill="none" stroke="purple" stroke-width="0.1"/>
	<path d="M 385.094775541,276.012345387 L 385.555814123,281.025796812" fill="none" stroke="purple" stroke-width="0.1"/>
	<path d="M 383.024309649,276.158932186 L 383.283958413,281.186837743" fill="none" stroke="purple" stroke-width="0.1"/>
	<path d="M 380.75689683,276.236957079 L 380.851445156,281.27067463" fill="none" stroke="purple" stroke-width="0.1"/>
	<path d="M 378.695217766,276.248035993 L 378.646038036,281.282401208" fill="none" stroke="purple" stroke-width="0.1"/>
	<path d="M 376.622269584,276.170237835 L 376.285193275,281.193546638" fill="none" stroke="purple" stroke-width="0.1"/>
	<path d="M 374.577749038,275.971514887 L 373.937174631,280.965202522" fill="none" stroke="purple" stroke-width="0.1"/>
	<path d="M 372.620081239,275.658133682 L 371.666054668,280.601521698" fill="none" stroke="purple" stroke-width="0.1"/>
	<path d="M 370.74944291,275.233968505 L 369.47450502,280.104470034" fill="none" stroke="purple" stroke-width="0.1"/>
	<path d="M 368.966010771,274.702893638 L 367.365745311,279.47640411" fill="none" stroke="purple" stroke-width="0.1"/>
	<path d="M 367.269961547,274.068783365 L 365.343464974,278.720219995" fill="none" stroke="purple" stroke-width="0.1"/>
	<path d="M 365.661471957,273.335511967 L 363.411689596,277.839480339" fill="none" stroke="purple" stroke-width="0.1"/>
	<path d="M 364.140718726,272.506953729 L 361.574598872,276.838498565" fill="none" stroke="purple" stroke-width="0.1"/>
	<path d="M 362.707878574,271.586982933 L 359.836313318,275.72236257" fill="none" stroke="purple" stroke-width="0.1"/>
	<path d="M 361.363128224,270.579473862 L 358.200674878,274.496888903" fill="none" stroke="purple" stroke-width="0.1"/>
	<path d="M 360.106644399,269.488300799 L 356.67104957,273.168510024" fill="none" stroke="purple" stroke-width="0.1"/>
	<path d="M 358.938603819,268.317338027 L 355.250177145,271.744109166" fill="none" stroke="purple" stroke-width="0.1"/>
	<path d="M 357.859183208,267.070459829 L 353.940084018,270.230825839" fill="none" stroke="purple" stroke-width="0.1"/>
	<path d="M 356.868559287,265.751540489 L 352.742064019,268.635858186" fill="none" stroke="purple" stroke-width="0.1"/>
	<path d="M 355.966908778,264.364454288 L 351.656720249,266.966285683" fill="none" stroke="purple" stroke-width="0.1"/>
	<path d="M 355.154408404,262.91307551 L 350.684053204,265.228928734" fill="none" stroke="purple" stroke-width="0.1"/>
	<path d="M 354.431234886,261.401278438 L 349.823576702,263.430253014" fill="none" stroke="purple" stroke-width="0.1"/>
	<path d="M 353.797564948,259.832937355 L 349.074443713,261.576318428" fill="none" stroke="purple" stroke-width="0.1"/>
	<path d="M 353.25357531,258.211926544 L 348.435567666,259.672766752" fill="none" stroke="purple" stroke-width="0.1"/>
	<path d="M 352.799442695,256.542120287 L 347.905729545,257.724838925" fill="none" stroke="purple" stroke-width="0.1"/>
	<path d="M 352.435343825,254.827392869 L 347.48366569,255.737412327" fill="none" stroke="purple" stroke-width="0.1"/>
	<path d="M 352.161455422,253.071618571 L 347.168135012,253.715049255" fill="none" stroke="purple" stroke-width="0.1"/>
	<path d="M 351.977954209,251.278671677 L 346.957966847,251.662049631" fill="none" stroke="purple" stroke-width="0.1"/>
	<path d="M 351.885016907,249.452426469 L 346.852092124,249.582502987" fill="none" stroke="purple" stroke-width="0.1"/>
	<path d="M 351.882820239,247.596757232 L 346.849561056,247.480336579" fill="none" stroke="purple" stroke-width="0.1"/>
	<path d="M 351.971540926,245.715538247 L 346.949550547,245.359357951" fill="none" stroke="purple" stroke-width="0.1"/>
	<path d="M 352.151355691,243.812643798 L 347.151364145,243.223291345" fill="none" stroke="purple" stroke-width="0.1"/>
	<path d="M 352.422441255,241.891948167 L 347.454426861,241.075808017" fill="none" stroke="purple" stroke-width="0.1"/>
	<path d="M 352.784974342,239.957325638 L 347.858276664,238.920550948" fill="none" stroke="purple" stroke-width="0.1"/>
	<path d="M 353.239131672,238.012650493 L 348.362553999,236.761154604" fill="none" stroke="purple" stroke-width="0.1"/>
	<path d="M 353.785089969,236.061797016 L 348.96699026,234.601260484" fill="none" stroke="purple" stroke-width="0.1"/>
	<path d="M 354.423025954,234.10863949 L 349.671395869,232.444529126" fill="none" stroke="purple" stroke-width="0.1"/>
	<path d="M 355.153116349,232.157052197 L 350.475648352,230.294649206" fill="none" stroke="purple" stroke-width="0.1"/>
	<path d="M 355.975537877,230.21090942 L 351.379680672,228.155344214" fill="none" stroke="purple" stroke-width="0.1"/>
	<path d="M 356.890467259,228.274085443 L 352.383469937,226.030377151" fill="none" stroke="purple" stroke-width="0.1"/>
	<path d="M 357.898081218,226.350454549 L 353.487026559,223.923553529" fill="none" stroke="purple" stroke-width="0.1"/>
	<path d="M 359.106245972,224.930146042 L 356.43859806,220.660379492" fill="none" stroke="purple" stroke-width="0.1"/>
	<path d="M 381.912212381,206.80533802 L 381.152229008,201.82842361" fill="none" stroke="purple" stroke-width="0.1"/>
	<path d="M 383.208210739,206.623638468 L 382.564431525,201.63036298" fill="none" stroke="purple" stroke-width="0.1"/>
	<path d="M 385.039309618,206.413159123 L 384.530868651,201.404293029" fill="none" stroke="purple" stroke-width="0.1"/>
	<path d="M 387.313195551,206.21878801 L 386.963988502,201.196307925" fill="none" stroke="purple" stroke-width="0.1"/>
	<path d="M 389.937555072,206.085413152 L 389.777779856,201.053343633" fill="none" stroke="purple" stroke-width="0.1"/>
	<path d="M 392.820074711,206.057922575 L 392.888327895,201.02377982" fill="none" stroke="purple" stroke-width="0.1"/>
	<path d="M 395.868441002,206.181204301 L 396.214512658,201.158507199" fill="none" stroke="purple" stroke-width="0.1"/>
	<path d="M 398.990340477,206.500146356 L 399.678727004,201.512824854" fill="none" stroke="purple" stroke-width="0.1"/>
	<path d="M 402.093459669,207.059636762 L 403.207101117,202.14974323" fill="none" stroke="purple" stroke-width="0.1"/>
	<path d="M 405.08548511,207.904563545 L 406.727655773,203.145306535" fill="none" stroke="purple" stroke-width="0.1"/>
	<path d="M 407.874103333,209.079814728 L 410.162451206,204.595317456" fill="none" stroke="purple" stroke-width="0.1"/>
	<path d="M 410.36700087,210.630278335 L 413.406966412,206.617067493" fill="none" stroke="purple" stroke-width="0.1"/>
	<path d="M 412.471864253,212.600842391 L 416.296011614,209.326220469" fill="none" stroke="purple" stroke-width="0.1"/>
	<path d="M 414.096380017,215.03639492 L 418.591353016,212.768693548" fill="none" stroke="purple" stroke-width="0.1"/>
	<path d="M 415.148234692,217.981823945 L 420.056322156,216.860249511" fill="none" stroke="purple" stroke-width="0.1"/>
	<path d="M 415.538279729,221.38974453 L 420.570074132,221.221527843" fill="none" stroke="purple" stroke-width="0.1"/>
	<path d="M 415.674144853,224.382590904 L 420.700760671,224.099068097" fill="none" stroke="purple" stroke-width="0.1"/>
	<path d="M 415.871698452,227.39327015 L 420.892601487,227.022076837" fill="none" stroke="purple" stroke-width="0.1"/>
	<path d="M 416.114881711,230.413967577 L 421.130878427,229.981499408" fill="none" stroke="purple" stroke-width="0.1"/>
	<path d="M 416.387635816,233.436868494 L 421.400425875,232.968693747" fill="none" stroke="purple" stroke-width="0.1"/>
	<path d="M 416.673901954,236.454158211 L 421.68569933,235.975473738" fill="none" stroke="purple" stroke-width="0.1"/>
	<path d="M 416.957621308,239.458022036 L 421.970810323,238.994138791" fill="none" stroke="purple" stroke-width="0.1"/>
	<path d="M 417.222735064,242.440645279 L 422.239526599,242.017497001" fill="none" stroke="purple" stroke-width="0.1"/>
	<path d="M 417.453184409,245.394213249 L 422.475235053,245.03888368" fill="none" stroke="purple" stroke-width="0.1"/>
	<path d="M 417.632910527,248.310911255 L 422.660862923,248.05217109" fill="none" stroke="purple" stroke-width="0.1"/>
	<path d="M 417.745854604,251.182924608 L 422.778751081,251.05175747" fill="none" stroke="purple" stroke-width="0.1"/>
	<path d="M 417.775957825,254.002438615 L 422.810473425,254.032512547" fill="none" stroke="purple" stroke-width="0.1"/>
	<path d="M 417.707161376,256.761638586 L 422.736601365,256.989641151" fill="none" stroke="purple" stroke-width="0.1"/>
	<path d="M 417.523406442,259.452709831 L 422.536427319,259.918406571" fill="none" stroke="purple" stroke-width="0.1"/>
	<path d="M 417.208634209,262.067837658 L 422.187694144,262.813635174" fill="none" stroke="purple" stroke-width="0.1"/>
	<path d="M 416.746785862,264.599207377 L 421.666437287,265.668918382" fill="none" stroke="purple" stroke-width="0.1"/>
	<path d="M 416.121802587,267.039004297 L 420.947133618,268.475469476" fill="none" stroke="purple" stroke-width="0.1"/>
	<path d="M 415.317625569,269.379413728 L 420.003434443,271.220730367" fill="none" stroke="purple" stroke-width="0.1"/>
	<path d="M 414.318195993,271.612620978 L 418.809747435,273.887091777" fill="none" stroke="purple" stroke-width="0.1"/>
	<path d="M 413.107455046,273.730811357 L 417.343673467,276.451418874" fill="none" stroke="purple" stroke-width="0.1"/>
	<path d="M 411.669343912,275.726170175 L 415.588724799,278.886186825" fill="none" stroke="purple" stroke-width="0.1"/>
	<path d="M 409.920034123,277.747860617 L 413.665626561,281.112052801" fill="none" stroke="purple" stroke-width="0.1"/>
	<path d="M 408.054596097,279.753395787 L 411.678125007,283.248719807" fill="none" stroke="purple" stroke-width="0.1"/>
	<path d="M 406.12298867,281.678589634 L 409.603210576,285.316625814" fill="none" stroke="purple" stroke-width="0.1"/>
	<path d="M 404.12405862,283.5078732 L 407.436500758,287.299308134" fill="none" stroke="purple" stroke-width="0.1"/>
	<path d="M 402.056652727,285.225677533 L 405.173279227,289.179649083" fill="none" stroke="purple" stroke-width="0.1"/>
	<path d="M 399.919617768,286.816433675 L 402.808657794,290.939624127" fill="none" stroke="purple" stroke-width="0.1"/>
	<path d="M 397.711800524,288.264572673 L 400.337870973,292.560036067" fill="none" stroke="purple" stroke-width="0.1"/>
	<path d="M 395.432047773,289.554525572 L 397.756742986,294.020289106" fill="none" stroke="purple" stroke-width="0.1"/>
	<path d="M 393.079206294,290.670723416 L 395.062341962,295.298295641" fill="none" stroke="purple" stroke-width="0.1"/>
	<path d="M 390.652122866,291.597597251 L 392.253775168,296.370642576" fill="none" stroke="purple" stroke-width="0.1"/>
	<path d="M 388.149644267,292.319578121 L 389.332979679,297.213142167" fill="none" stroke="purple" stroke-width="0.1"/>
	<path d="M 385.570617277,292.821097072 L 386.305253749,297.801815998" fill="none" stroke="purple" stroke-width="0.1"/>
	<path d="M 382.913888675,293.086585148 L 383.179227235,298.114193647" fill="none" stroke="purple" stroke-width="0.1"/>
	<path d="M 380.178305238,293.100473395 L 379.966070652,298.130603438" fill="none" stroke="purple" stroke-width="0.1"/>
	<path d="M 377.362713747,292.847192858 L 376.678009714,297.835021259" fill="none" stroke="purple" stroke-width="0.1"/>
	<path d="M 374.46596098,292.311174581 L 373.326526339,297.215146488" fill="none" stroke="purple" stroke-width="0.1"/>
	<path d="M 371.486893716,291.47684961 L 369.920784469,296.261674956" fill="none" stroke="purple" stroke-width="0.1"/>
	<path d="M 368.424358734,290.32864899 L 366.466704344,294.967058314" fill="none" stroke="purple" stroke-width="0.1"/>
	<path d="M 365.36139106,288.897745111 L 363.110491174,293.401155094" fill="none" stroke="purple" stroke-width="0.1"/>
	<path d="M 362.672704776,287.55179491 L 360.412496077,292.050540113" fill="none" stroke="purple" stroke-width="0.1"/>
	<path d="M 360.01456509,286.205947361 L 357.722531937,290.688562199" fill="none" stroke="purple" stroke-width="0.1"/>
	<path d="M 357.399776312,284.850117753 L 355.052728207,289.30417399" fill="none" stroke="purple" stroke-width="0.1"/>
	<path d="M 354.84114275,283.474221374 L 352.415095876,287.885745865" fill="none" stroke="purple" stroke-width="0.1"/>
	<path d="M 352.351468711,282.068173514 L 349.821599429,286.420990209" fill="none" stroke="purple" stroke-width="0.1"/>
	<path d="M 349.943558504,280.62188946 L 347.284286329,284.896877561" fill="none" stroke="purple" stroke-width="0.1"/>
	<path d="M 347.630216437,279.1252845 L 344.815496465,283.29956327" fill="none" stroke="purple" stroke-width="0.1"/>
	<path d="M 345.424246819,277.568273923 L 342.428176894,281.614360523" fill="none" stroke="purple" stroke-width="0.1"/>
	<path d="M 343.338453957,275.940773018 L 340.136321076,279.825820866" fill="none" stroke="purple" stroke-width="0.1"/>
	<path d="M 341.38564216,274.232697072 L 337.955526129,277.918013311" fill="none" stroke="purple" stroke-width="0.1"/>
	<path d="M 339.578615736,272.433961374 L 335.90360273,275.875113968" fill="none" stroke="purple" stroke-width="0.1"/>
	<path d="M 337.930178993,270.534481213 L 334.001073174,273.682397862" fill="none" stroke="purple" stroke-width="0.1"/>
	<path d="M 336.45313624,268.524171877 L 332.271276036,271.327615653" fill="none" stroke="purple" stroke-width="0.1"/>
	<path d="M 335.160291783,266.392948654 L 330.739741391,268.802510025" fill="none" stroke="purple" stroke-width="0.1"/>
	<path d="M 334.064449933,264.130726833 L 329.432638289,266.103940624" fill="none" stroke="purple" stroke-width="0.1"/>
	<path d="M 333.178414996,261.727421701 L 328.374497765,263.233951159" fill="none" stroke="purple" stroke-width="0.1"/>
	<path d="M 332.514991282,259.172948548 L 327.585920254,260.198380445" fill="none" stroke="purple" stroke-width="0.1"/>
	<path d="M 332.086983097,256.457222662 L 327.082188367,257.004288906" fill="none" stroke="purple" stroke-width="0.1"/>
	<path d="M 331.907194751,253.570159331 L 326.873340338,253.657116302" fill="none" stroke="purple" stroke-width="0.1"/>
	<path d="M 331.988430552,250.501673843 L 326.965528575,250.158588584" fill="none" stroke="purple" stroke-width="0.1"/>
	<path d="M 332.343494808,247.241681487 L 327.362945412,246.50589654" fill="none" stroke="purple" stroke-width="0.1"/>
	<path d="M 332.960381236,243.962238138 L 328.069312088,242.768632527" fill="none" stroke="purple" stroke-width="0.1"/>
	<path d="M 333.876935026,240.997273335 L 329.163022949,239.229143049" fill="none" stroke="purple" stroke-width="0.1"/>
	<path d="M 335.1278686,238.154660237 L 330.635522899,235.881758595" fill="none" stroke="purple" stroke-width="0.1"/>
	<path d="M 336.680524603,235.434577206 L 332.433524219,232.730831747" fill="none" stroke="purple" stroke-width="0.1"/>
	<path d="M 338.502245676,232.837202605 L 334.507611254,229.772867832" fill="none" stroke="purple" stroke-width="0.1"/>
	<path d="M 340.560374463,230.362714795 L 336.813367727,227.000097914" fill="none" stroke="purple" stroke-width="0.1"/>
	<path d="M 342.822253605,228.011292139 L 339.31091085,224.403283848" fill="none" stroke="purple" stroke-width="0.1"/>
	<path d="M 345.255225745,225.783112999 L 341.963798445,221.973420348" fill="none" stroke="purple" stroke-width="0.1"/>
	<path d="M 347.826633527,223.678355738 L 344.737914364,219.702545669" fill="none" stroke="purple" stroke-width="0.1"/>
	<path d="M 350.503819592,221.697198716 L 347.60057887,217.583994967" fill="none" stroke="purple" stroke-width="0.1"/>
	<path d="M 353.254126582,219.839820297 L 350.519922867,215.612364583" fill="none" stroke="purple" stroke-width="0.1"/>
	<path d="M 356.044897142,218.106398843 L 353.46448165,213.783355048" fill="none" stroke="purple" stroke-width="0.1"/>
	<path d="M 358.843473913,216.497112715 L 356.402946655,212.093582487" fill="none" stroke="purple" stroke-width="0.1"/>
	<path d="M 361.617199537,215.012140277 L 359.304022145,210.540399886" fill="none" stroke="purple" stroke-width="0.1"/>
	<path d="M 364.333416658,213.651659889 L 362.13634801,209.121743651" fill="none" stroke="purple" stroke-width="0.1"/>
	<path d="M 366.959467918,212.415849915 L 364.868462622,207.836008365" fill="none" stroke="purple" stroke-width="0.1"/>
	<path d="M 369.462695959,211.304888716 L 367.468789068,206.681947328" fill="none" stroke="purple" stroke-width="0.1"/>
	<path d="M 371.810443424,210.318954655 L 369.905634424,205.658594751" fill="none" stroke="purple" stroke-width="0.1"/>
	<path d="M 373.970052956,209.458226094 L 372.147195889,204.765205331" fill="none" stroke="purple" stroke-width="0.1"/>
	<path d="M 375.908867198,208.722881395 L 374.161570099,204.001207474" fill="none" stroke="purple" stroke-width="0.1"/>
	<path d="M 377.594228791,208.113098919 L 375.91676354,203.366167058" fill="none" stroke="purple" stroke-width="0.1"/>
	<path d="M 378.993480378,207.62905703 L 377.380702928,202.859759318" fill="none" stroke="purple" stroke-width="0.1"/>
	<path d="M 380.073964602,207.27093409 L 378.521244951,202.481746951" fill="none" stroke="purple" stroke-width="0.1"/>
	<path d="M 381.912212381,206.80533802 L 381.152229008,201.82842361" fill="none" stroke="purple" stroke-width="0.1"/>
	<path d="M 347.63,223.833 L 343.201217749,221.438602468" fill="none" stroke="purple" stroke-width="0.1"/>
	<path d="M 347.65485929,223.787327834 L 343.236326167,221.374069286" fill="none" stroke="purple" stroke-width="0.1"/>
	<path d="M 347.728602313,223.653090149 L 343.320835226,221.220223306" fill="none" stroke="purple" stroke-width="0.1"/>
	<path d="M 347.849976802,223.434455168 L 343.453530942,220.981188861" fill="none" stroke="purple" stroke-width="0.1"/>
	<path d="M 348.017730486,223.135591112 L 343.633203061,220.661086914" fill="none" stroke="purple" stroke-width="0.1"/>
	<path d="M 348.230611099,222.760666203 L 343.858645504,220.264034751" fill="none" stroke="purple" stroke-width="0.1"/>
	<path d="M 348.487366371,222.313848661 L 344.128656881,219.794145633" fill="none" stroke="purple" stroke-width="0.1"/>
	<path d="M 348.786744033,221.799306709 L 344.442041078,219.255528416" fill="none" stroke="purple" stroke-width="0.1"/>
	<path d="M 349.127491817,221.221208567 L 344.797607935,218.652287133" fill="none" stroke="purple" stroke-width="0.1"/>
	<path d="M 349.508357454,220.583722458 L 345.194174019,217.988520528" fill="none" stroke="purple" stroke-width="0.1"/>
	<path d="M 349.928088676,219.891016604 L 345.630563527,217.268321546" fill="none" stroke="purple" stroke-width="0.1"/>
	<path d="M 350.385433213,219.147259224 L 346.105609321,216.495776767" fill="none" stroke="purple" stroke-width="0.1"/>
	<path d="M 350.879138798,218.356618542 L 346.618154136,215.67496579" fill="none" stroke="purple" stroke-width="0.1"/>
	<path d="M 351.407953161,217.523262778 L 347.167051986,214.809960547" fill="none" stroke="purple" stroke-width="0.1"/>
	<path d="M 351.970624034,216.651360154 L 347.751169804,213.90482456" fill="none" stroke="purple" stroke-width="0.1"/>
	<path d="M 352.565899148,215.745078892 L 348.369389356,212.963612132" fill="none" stroke="purple" stroke-width="0.1"/>
	<path d="M 353.192526235,214.808587212 L 349.020609502,211.990367466" fill="none" stroke="purple" stroke-width="0.1"/>
	<path d="M 353.849253026,213.846053338 L 349.703748843,210.989123721" fill="none" stroke="purple" stroke-width="0.1"/>
	<path d="M 354.534827252,212.861645489 L 350.417748852,209.963902019" fill="none" stroke="purple" stroke-width="0.1"/>
	<path d="M 355.247996645,211.859531888 L 351.161577585,208.918710399" fill="none" stroke="purple" stroke-width="0.1"/>
	<path d="M 355.987508936,210.843880756 L 351.934234073,207.857542755" fill="none" stroke="purple" stroke-width="0.1"/>
	<path d="M 356.752111856,209.818860315 L 352.734753561,206.784377806" fill="none" stroke="purple" stroke-width="0.1"/>
	<path d="M 357.540553137,208.788638785 L 353.562213741,205.703178136" fill="none" stroke="purple" stroke-width="0.1"/>
	<path d="M 358.35158051,207.75738439 L 354.415742212,204.617889421" fill="none" stroke="purple" stroke-width="0.1"/>
	<path d="M 359.183941706,206.729265349 L 355.294525386,203.532439978" fill="none" stroke="purple" stroke-width="0.1"/>
	<path d="M 360.036384457,205.708449886 L 356.197819167,202.450740831" fill="none" stroke="purple" stroke-width="0.1"/>
	<path d="M 360.907656495,204.69910622 L 357.124961719,201.37668662" fill="none" stroke="purple" stroke-width="0.1"/>
	<path d="M 361.796505549,203.705402574 L 358.075388734,200.314157756" fill="none" stroke="purple" stroke-width="0.1"/>
	<path d="M 362.701679353,202.73150717 L 359.048651626,199.267024496" fill="none" stroke="purple" stroke-width="0.1"/>
	<path d="M 363.621925636,201.781588228 L 360.044439091,198.239153784" fill="none" stroke="purple" stroke-width="0.1"/>
	<path d="M 364.555992132,200.85981397 L 361.062602431,197.234420174" fill="none" stroke="purple" stroke-width="0.1"/>
	<path d="M 365.50262657,199.970352618 L 362.103184887,196.256722586" fill="none" stroke="purple" stroke-width="0.1"/>
	<path d="M 366.460576682,199.117372393 L 363.166454853,195.310009375" fill="none" stroke="purple" stroke-width="0.1"/>
	<path d="M 367.428590199,198.305041517 L 364.252942186,194.398315079" fill="none" stroke="purple" stroke-width="0.1"/>
	<path d="M 368.405414854,197.537528211 L 365.363475517,193.525813261" fill="none" stroke="purple" stroke-width="0.1"/>
	<path d="M 369.389798377,196.819000697 L 366.499216374,192.69689111" fill="none" stroke="purple" stroke-width="0.1"/>
	<path d="M 370.3804885,196.153627197 L 367.661682359,191.916252427" fill="none" stroke="purple" stroke-width="0.1"/>
	<path d="M 371.376232953,195.545575931 L 368.852746249,191.189055918" fill="none" stroke="purple" stroke-width="0.1"/>
	<path d="M 372.375779469,194.999015122 L 370.074590062,190.521093831" fill="none" stroke="purple" stroke-width="0.1"/>
	<path d="M 373.377875778,194.51811299 L 371.329583075,189.91900995" fill="none" stroke="purple" stroke-width="0.1"/>
	<path d="M 374.381269613,194.107037758 L 372.620042154,189.390542278" fill="none" stroke="purple" stroke-width="0.1"/>
	<path d="M 375.384708703,193.769957646 L 373.947826765,188.944750701" fill="none" stroke="purple" stroke-width="0.1"/>
	<path d="M 376.386940782,193.511040877 L 375.313730443,188.592151639" fill="none" stroke="purple" stroke-width="0.1"/>
	<path d="M 377.38671358,193.334455672 L 376.716672188,188.344636407" fill="none" stroke="purple" stroke-width="0.1"/>
	<path d="M 378.519148871,193.213766857 L 378.020201611,188.203946161" fill="none" stroke="purple" stroke-width="0.1"/>
	<path d="M 379.730716789,193.095925945 L 379.255527429,188.083795974" fill="none" stroke="purple" stroke-width="0.1"/>
	<path d="M 380.941639897,192.984398741 L 380.494003635,187.969732895" fill="none" stroke="purple" stroke-width="0.1"/>
	<path d="M 382.15057964,192.880221435 L 381.734410467,187.862846126" fill="none" stroke="purple" stroke-width="0.1"/>
	<path d="M 383.356197463,192.784430218 L 382.975555407,187.764234664" fill="none" stroke="purple" stroke-width="0.1"/>
	<path d="M 384.557154808,192.698061281 L 384.216274383,187.67500919" fill="none" stroke="purple" stroke-width="0.1"/>
	<path d="M 385.75211312,192.622150814 L 385.455433252,187.596294387" fill="none" stroke="purple" stroke-width="0.1"/>
	<path d="M 386.939733843,192.557735009 L 386.691929567,187.529231772" fill="none" stroke="purple" stroke-width="0.1"/>
	<path d="M 388.118678422,192.505850056 L 387.924694586,187.474983129" fill="none" stroke="purple" stroke-width="0.1"/>
	<path d="M 389.2876083,192.467532146 L 389.152695477,187.434734684" fill="none" stroke="purple" stroke-width="0.1"/>
	<path d="M 390.445184922,192.44381747 L 390.374937669,187.409702146" fill="none" stroke="purple" stroke-width="0.1"/>
	<path d="M 391.590069731,192.435742218 L 391.590467233,187.40113681" fill="none" stroke="purple" stroke-width="0.1"/>
	<path d="M 392.720924171,192.444342581 L 392.798373151,187.410332904" fill="none" stroke="purple" stroke-width="0.1"/>
	<path d="M 393.836409688,192.47065475 L 393.997789234,187.438636426" fill="none" stroke="purple" stroke-width="0.1"/>
	<path d="M 394.935187724,192.515714915 L 395.187895396,187.487455714" fill="none" stroke="purple" stroke-width="0.1"/>
	<path d="M 396.015919723,192.580559269 L 396.367917794,187.558274019" fill="none" stroke="purple" stroke-width="0.1"/>
	<path d="M 397.077267131,192.666224 L 397.537127205,187.652664338" fill="none" stroke="purple" stroke-width="0.1"/>
	<path d="M 398.11789139,192.773745301 L 398.694834766,187.772306697" fill="none" stroke="purple" stroke-width="0.1"/>
	<path d="M 399.136453946,192.904159361 L 399.840383865,187.919007965" fill="none" stroke="purple" stroke-width="0.1"/>
	<path d="M 400.131616242,193.058502372 L 400.973136608,188.094724048" fill="none" stroke="purple" stroke-width="0.1"/>
	<path d="M 401.102039721,193.237810524 L 402.092452862,188.30158387" fill="none" stroke="purple" stroke-width="0.1"/>
	<path d="M 402.04638583,193.443120008 L 403.197659354,188.541913927" fill="none" stroke="purple" stroke-width="0.1"/>
	<path d="M 402.96331601,193.675467015 L 404.288005926,188.818261193" fill="none" stroke="purple" stroke-width="0.1"/>
	<path d="M 403.851491707,193.935887735 L 405.362605861,189.133410688" fill="none" stroke="purple" stroke-width="0.1"/>
	<path d="M 404.709574364,194.22541836 L 406.420357445,189.49039217" fill="none" stroke="purple" stroke-width="0.1"/>
	<path d="M 405.536225426,194.54509508 L 407.459845218,189.892468009" fill="none" stroke="purple" stroke-width="0.1"/>
	<path d="M 406.330106336,194.895954086 L 408.479221978,190.343091939" fill="none" stroke="purple" stroke-width="0.1"/>
	<path d="M 407.089878539,195.279031568 L 409.476077391,190.845826542" fill="none" stroke="purple" stroke-width="0.1"/>
	<path d="M 407.814203479,195.695363718 L 410.447306163,191.404207461" fill="none" stroke="purple" stroke-width="0.1"/>
	<path d="M 408.5017426,196.145986726 L 411.388997814,192.021546268" fill="none" stroke="purple" stroke-width="0.1"/>
	<path d="M 409.151157345,196.631936783 L 412.296379349,192.700673587" fill="none" stroke="purple" stroke-width="0.1"/>
	<path d="M 409.76110916,197.15425008 L 413.163847589,193.443640568" fill="none" stroke="purple" stroke-width="0.1"/>
	<path d="M 410.330259488,197.713962807 L 413.985124318,194.251418246" fill="none" stroke="purple" stroke-width="0.1"/>
	<path d="M 410.857269773,198.312111156 L 414.753549669,195.123654674" fill="none" stroke="purple" stroke-width="0.1"/>
	<path d="M 411.340801459,198.949731316 L 415.462496795,196.058558661" fill="none" stroke="purple" stroke-width="0.1"/>
	<path d="M 411.77951599,199.627859479 L 416.105851291,197.05296635" fill="none" stroke="purple" stroke-width="0.1"/>
	<path d="M 412.456259539,200.864127339 L 416.949368469,198.592734834" fill="none" stroke="purple" stroke-width="0.1"/>
	<path d="M 413.066630392,202.173021763 L 417.692868729,200.186776404" fill="none" stroke="purple" stroke-width="0.1"/>
	<path d="M 413.593800164,203.505552328 L 418.325357339,201.785198158" fill="none" stroke="purple" stroke-width="0.1"/>
	<path d="M 414.043504033,204.850886798 L 418.857402471,203.376562007" fill="none" stroke="purple" stroke-width="0.1"/>
	<path d="M 414.421477176,206.198192938 L 419.298989278,204.950343805" fill="none" stroke="purple" stroke-width="0.1"/>
	<path d="M 414.733454771,207.53663851 L 419.659464096,206.496598178" fill="none" stroke="purple" stroke-width="0.1"/>
	<path d="M 414.985171996,208.855391277 L 419.947559583,208.005708273" fill="none" stroke="purple" stroke-width="0.1"/>
	<path d="M 415.182364029,210.143619005 L 420.171459735,209.468211121" fill="none" stroke="purple" stroke-width="0.1"/>
	<path d="M 415.330766049,211.390489455 L 420.338879009,210.87468295" fill="none" stroke="purple" stroke-width="0.1"/>
	<path d="M 415.436113233,212.585170392 L 420.457141055,212.215668863" fill="none" stroke="purple" stroke-width="0.1"/>
	<path d="M 415.504140758,213.716829579 L 420.533249975,213.481644006" fill="none" stroke="purple" stroke-width="0.1"/>
	<path d="M 415.540583803,214.77463478 L 420.573951341,214.662996969" fill="none" stroke="purple" stroke-width="0.1"/>
	<path d="M 415.551177547,215.747753758 L 420.585782455,215.750029961" fill="none" stroke="purple" stroke-width="0.1"/>
	<path d="M 415.541657165,216.625354276 L 420.575112195,216.732975079" fill="none" stroke="purple" stroke-width="0.1"/>
	<path d="M 415.517757838,217.396604099 L 420.548170349,217.602034712" fill="none" stroke="purple" stroke-width="0.1"/>
	<path d="M 415.485214742,218.05067099 L 420.511063643,218.347478319" fill="none" stroke="purple" stroke-width="0.1"/>
	<path d="M 415.449763055,218.576722712 L 420.469764084,218.959921674" fill="none" stroke="purple" stroke-width="0.1"/>
	<path d="M 415.417137956,218.963927029 L 420.429990229,219.431435166" fill="none" stroke="purple" stroke-width="0.1"/>
	<path d="M 415.393074622,219.201451704 L 420.396207379,219.763514326" fill="none" stroke="purple" stroke-width="0.1"/>
	<path d="M 415.383308232,219.278464501 L 410.375216312,219.794475249" fill="none" stroke="purple" stroke-width="0.1"/>
	<path d="M 342.86,227.98 L 337.953930617,226.8496306" fill="none" stroke="purple" stroke-width="0.1"/>
	<path d="M 342.873925761,227.921239767 L 337.978745123,226.744609709" fill="none" stroke="purple" stroke-width="0.1"/>
	<path d="M 342.916418452,227.748577429 L 338.033057216,226.523818347" fill="none" stroke="purple" stroke-width="0.1"/>
	<path d="M 342.988551183,227.467440532 L 338.118028394,226.192583863" fill="none" stroke="purple" stroke-width="0.1"/>
	<path d="M 343.091397065,227.083256618 L 338.234829693,225.756227934" fill="none" stroke="purple" stroke-width="0.1"/>
	<path d="M 343.226029209,226.601453233 L 338.384642817,225.220066403" fill="none" stroke="purple" stroke-width="0.1"/>
	<path d="M 343.393520725,226.027457919 L 338.568661397,224.589409162" fill="none" stroke="purple" stroke-width="0.1"/>
	<path d="M 343.594944725,225.366698222 L 338.788092404,223.869560108" fill="none" stroke="purple" stroke-width="0.1"/>
	<path d="M 343.831374318,224.624601686 L 339.044157731,223.065817187" fill="none" stroke="purple" stroke-width="0.1"/>
	<path d="M 344.103882617,223.806595853 L 339.338095947,222.183472572" fill="none" stroke="purple" stroke-width="0.1"/>
	<path d="M 344.41354273,222.918108269 L 339.671164253,221.227812985" fill="none" stroke="purple" stroke-width="0.1"/>
	<path d="M 344.76142777,221.964566478 L 340.044640641,220.204120242" fill="none" stroke="purple" stroke-width="0.1"/>
	<path d="M 345.148610846,220.951398023 L 340.459826267,219.117672051" fill="none" stroke="purple" stroke-width="0.1"/>
	<path d="M 345.57616507,219.884030449 L 340.918048044,217.973743157" fill="none" stroke="purple" stroke-width="0.1"/>
	<path d="M 346.045163553,218.767891299 L 341.420661441,216.7776069" fill="none" stroke="purple" stroke-width="0.1"/>
	<path d="M 346.556679404,217.608408118 L 341.969053481,215.534537302" fill="none" stroke="purple" stroke-width="0.1"/>
	<path d="M 347.111785736,216.41100845 L 342.564645887,214.249811797" fill="none" stroke="purple" stroke-width="0.1"/>
	<path d="M 347.711555657,215.181119838 L 343.208898318,212.928714757" fill="none" stroke="purple" stroke-width="0.1"/>
	<path d="M 348.35706228,213.924169828 L 343.90331159,211.576541971" fill="none" stroke="purple" stroke-width="0.1"/>
	<path d="M 349.049378715,212.645585963 L 344.649430748,210.198606262" fill="none" stroke="purple" stroke-width="0.1"/>
	<path d="M 349.789578073,211.350795786 L 345.448847757,208.800244455" fill="none" stroke="purple" stroke-width="0.1"/>
	<path d="M 350.578733464,210.045226843 L 346.303203545,207.386825879" fill="none" stroke="purple" stroke-width="0.1"/>
	<path d="M 351.417917999,208.734306677 L 347.214189001,205.963762637" fill="none" stroke="purple" stroke-width="0.1"/>
	<path d="M 352.308204789,207.423462832 L 348.183544432,204.536521768" fill="none" stroke="purple" stroke-width="0.1"/>
	<path d="M 353.250666944,206.118122853 L 349.213056852,203.110639434" fill="none" stroke="purple" stroke-width="0.1"/>
	<path d="M 354.246377576,204.823714283 L 350.304554327,201.691737073" fill="none" stroke="purple" stroke-width="0.1"/>
	<path d="M 355.296409795,203.545664666 L 351.459896473,200.285539316" fill="none" stroke="purple" stroke-width="0.1"/>
	<path d="M 356.401836712,202.289401547 L 352.680960127,198.89789315" fill="none" stroke="purple" stroke-width="0.1"/>
	<path d="M 357.563731437,201.060352469 L 353.969619132,197.534787478" fill="none" stroke="purple" stroke-width="0.1"/>
	<path d="M 358.783167082,199.863944977 L 355.327717347,196.202371695" fill="none" stroke="purple" stroke-width="0.1"/>
	<path d="M 360.061216756,198.705606615 L 356.757034197,194.906971414" fill="none" stroke="purple" stroke-width="0.1"/>
	<path d="M 361.398953571,197.590764926 L 358.259242703,193.655098854" fill="none" stroke="purple" stroke-width="0.1"/>
	<path d="M 362.797450638,196.524847455 L 359.835860716,192.453454954" fill="none" stroke="purple" stroke-width="0.1"/>
	<path d="M 364.257781066,195.513281746 L 361.488197306,191.308920016" fill="none" stroke="purple" stroke-width="0.1"/>
	<path d="M 365.781017968,194.561495343 L 363.217297682,190.228529838" fill="none" stroke="purple" stroke-width="0.1"/>
	<path d="M 367.368234453,193.67491579 L 365.023891528,189.219435118" fill="none" stroke="purple" stroke-width="0.1"/>
	<path d="M 369.020503633,192.858970631 L 366.908350953,188.288843409" fill="none" stroke="purple" stroke-width="0.1"/>
	<path d="M 370.738898617,192.119087411 L 368.870664927,187.443945204" fill="none" stroke="purple" stroke-width="0.1"/>
	<path d="M 372.524492517,191.460693672 L 370.910436646,186.69182846" fill="none" stroke="purple" stroke-width="0.1"/>
	<path d="M 374.378358444,190.88921696 L 373.026908566,186.039388613" fill="none" stroke="purple" stroke-width="0.1"/>
	<path d="M 376.301569508,190.410084818 L 375.219016742,185.493243222" fill="none" stroke="purple" stroke-width="0.1"/>
	<path d="M 378.80483966,189.88494459 L 377.786260882,184.954452825" fill="none" stroke="purple" stroke-width="0.1"/>
	<path d="M 381.265538538,189.384301926 L 380.277989584,184.447501461" fill="none" stroke="purple" stroke-width="0.1"/>
	<path d="M 383.577957448,188.930541987 L 382.628263616,183.986319764" fill="none" stroke="purple" stroke-width="0.1"/>
	<path d="M 385.748523714,188.523589725 L 384.844641673,183.570787587" fill="none" stroke="purple" stroke-width="0.1"/>
	<path d="M 387.783664661,188.163370092 L 386.934864594,183.200831406" fill="none" stroke="purple" stroke-width="0.1"/>
	<path d="M 389.689807614,187.849808041 L 388.906876486,182.876451969" fill="none" stroke="purple" stroke-width="0.1"/>
	<path d="M 391.473379898,187.582828522 L 390.768841576,182.597763074" fill="none" stroke="purple" stroke-width="0.1"/>
	<path d="M 393.140808838,187.36235649 L 392.529151063,182.365044559" fill="none" stroke="purple" stroke-width="0.1"/>
	<path d="M 394.698521758,187.188316895 L 394.196410766,182.178812296" fill="none" stroke="purple" stroke-width="0.1"/>
	<path d="M 396.152945983,187.06063469 L 395.779395566,182.039906471" fill="none" stroke="purple" stroke-width="0.1"/>
	<path d="M 397.510508839,186.979234828 L 397.286950758,181.949595322" fill="none" stroke="purple" stroke-width="0.1"/>
	<path d="M 398.77763765,186.94404226 L 398.727814772,181.909683368" fill="none" stroke="purple" stroke-width="0.1"/>
	<path d="M 399.960759742,186.954981938 L 400.110335651,181.922598922" fill="none" stroke="purple" stroke-width="0.1"/>
	<path d="M 401.066302438,187.011978815 L 401.442061721,181.991415428" fill="none" stroke="purple" stroke-width="0.1"/>
	<path d="M 402.100693064,187.114957844 L 402.729214836,182.119738915" fill="none" stroke="purple" stroke-width="0.1"/>
	<path d="M 403.070358945,187.263843975 L 403.976111261,182.311383525" fill="none" stroke="purple" stroke-width="0.1"/>
	<path d="M 403.981727405,187.458562163 L 405.184677244,182.56978282" fill="none" stroke="purple" stroke-width="0.1"/>
	<path d="M 404.84122577,187.699037357 L 406.354281043,182.897171521" fill="none" stroke="purple" stroke-width="0.1"/>
	<path d="M 405.655281365,187.985194512 L 407.482103613,183.293715828" fill="none" stroke="purple" stroke-width="0.1"/>
	<path d="M 406.430321513,188.316958578 L 408.564130774,183.756902678" fill="none" stroke="purple" stroke-width="0.1"/>
	<path d="M 407.172773541,188.694254509 L 409.596586005,184.281501977" fill="none" stroke="purple" stroke-width="0.1"/>
	<path d="M 407.889064773,189.117007256 L 410.577378755,184.860222119" fill="none" stroke="purple" stroke-width="0.1"/>
	<path d="M 408.585622534,189.585141771 L 411.507102951,185.484873007" fill="none" stroke="purple" stroke-width="0.1"/>
	<path d="M 409.268874148,190.098583008 L 412.389332646,186.147634953" fill="none" stroke="purple" stroke-width="0.1"/>
	<path d="M 409.945246941,190.657255917 L 413.230276123,186.842044908" fill="none" stroke="purple" stroke-width="0.1"/>
	<path d="M 410.621168238,191.261085452 L 414.038061571,187.563506282" fill="none" stroke="purple" stroke-width="0.1"/>
	<path d="M 411.303065363,191.909996563 L 414.821953603,188.309346994" fill="none" stroke="purple" stroke-width="0.1"/>
	<path d="M 411.997365641,192.603914205 L 415.591699687,189.07857528" fill="none" stroke="purple" stroke-width="0.1"/>
	<path d="M 412.710496397,193.342763328 L 416.357081137,189.871499653" fill="none" stroke="purple" stroke-width="0.1"/>
	<path d="M 413.449061638,194.129689191 L 417.184289063,190.753992543" fill="none" stroke="purple" stroke-width="0.1"/>
	<path d="M 414.168117663,194.990788794 L 418.151746956,191.912160946" fill="none" stroke="purple" stroke-width="0.1"/>
	<path d="M 414.836460904,195.923085647 L 419.02753697,193.133438147" fill="none" stroke="purple" stroke-width="0.1"/>
	<path d="M 415.454761506,196.921907978 L 419.817555188,194.409283245" fill="none" stroke="purple" stroke-width="0.1"/>
	<path d="M 416.02368961,197.982584012 L 420.52769877,195.732883307" fill="none" stroke="purple" stroke-width="0.1"/>
	<path d="M 416.543915362,199.100441975 L 421.163477932,197.09871936" fill="none" stroke="purple" stroke-width="0.1"/>
	<path d="M 417.016108903,200.270810094 L 421.729831174,198.502173861" fill="none" stroke="purple" stroke-width="0.1"/>
	<path d="M 417.440940378,201.489016595 L 422.231072904,199.939215914" fill="none" stroke="purple" stroke-width="0.1"/>
	<path d="M 417.819079929,202.750389703 L 422.670916707,201.406168124" fill="none" stroke="purple" stroke-width="0.1"/>
	<path d="M 418.1511977,204.050257646 L 423.052535269,202.899544039" fill="none" stroke="purple" stroke-width="0.1"/>
	<path d="M 418.437963835,205.383948649 L 423.378633059,204.4159407" fill="none" stroke="purple" stroke-width="0.1"/>
	<path d="M 418.680048475,206.746790938 L 423.651518474,205.951971572" fill="none" stroke="purple" stroke-width="0.1"/>
	<path d="M 418.878121766,208.13411274 L 423.873168987,207.504227801" fill="none" stroke="purple" stroke-width="0.1"/>
	<path d="M 419.03285385,209.541242281 L 424.045286725,209.069258758" fill="none" stroke="purple" stroke-width="0.1"/>
	<path d="M 419.14491487,210.963507787 L 424.169344054,210.643565366" fill="none" stroke="purple" stroke-width="0.1"/>
	<path d="M 419.21497497,212.396237485 L 424.246619701,212.223601819" fill="none" stroke="purple" stroke-width="0.1"/>
	<path d="M 419.243704294,213.834759599 L 424.278226327,213.805782725" fill="none" stroke="purple" stroke-width="0.1"/>
	<path d="M 419.231772983,215.274402358 L 424.265130438,215.386493842" fill="none" stroke="purple" stroke-width="0.1"/>
	<path d="M 419.179851182,216.710493986 L 424.208165367,216.962105263" fill="none" stroke="purple" stroke-width="0.1"/>
	<path d="M 419.088609035,218.138362711 L 424.108037775,218.528986426" fill="none" stroke="purple" stroke-width="0.1"/>
	<path d="M 418.958716683,219.553336757 L 423.96532778,220.083522665" fill="none" stroke="purple" stroke-width="0.1"/>
	<path d="M 418.790844271,220.950744353 L 423.780482414,221.622133191" fill="none" stroke="purple" stroke-width="0.1"/>
	<path d="M 418.585661942,222.325913722 L 423.553801685,223.141290488" fill="none" stroke="purple" stroke-width="0.1"/>
	<path d="M 418.34383984,223.674173093 L 423.285415895,224.637541068" fill="none" stroke="purple" stroke-width="0.1"/>
	<path d="M 418.066048107,224.99085069 L 422.975252226,226.107527314" fill="none" stroke="purple" stroke-width="0.1"/>
	<path d="M 417.752956886,226.271274741 L 422.622987659,227.548009654" fill="none" stroke="purple" stroke-width="0.1"/>
	<path d="M 417.405236322,227.510773471 L 422.227984237,228.955887419" fill="none" stroke="purple" stroke-width="0.1"/>
	<path d="M 417.023556558,228.704675107 L 421.789201306,230.328215035" fill="none" stroke="purple" stroke-width="0.1"/>
	<path d="M 416.608587736,229.848307875 L 421.30507798,231.662207307" fill="none" stroke="purple" stroke-width="0.1"/>
	<path d="M 416.161,230.937 L 420.77337788,232.955222501" fill="none" stroke="purple" stroke-width="0.1"/>
	<path d="M 335.639,267.23 L 339.699239599,264.253138201" fill="none" stroke="purple" stroke-width="0.1"/>
	<path d="M 335.554172173,267.111525456 L 331.443698736,270.018630528" fill="none" stroke="purple" stroke-width="0.1"/>
	<path d="M 335.312392438,266.762328551 L 331.149653099,269.594086478" fill="none" stroke="purple" stroke-width="0.1"/>
	<path d="M 334.932716419,266.191749372 L 330.715666225,268.941974714" fill="none" stroke="purple" stroke-width="0.1"/>
	<path d="M 334.434199738,265.40912801 L 330.16081079,268.070969228" fill="none" stroke="purple" stroke-width="0.1"/>
	<path d="M 333.835898016,264.423804552 L 329.504199896,266.989665648" fill="none" stroke="purple" stroke-width="0.1"/>
	<path d="M 333.156866876,263.245119089 L 328.765000464,265.706574185" fill="none" stroke="purple" stroke-width="0.1"/>
	<path d="M 332.41616194,261.882411708 L 327.96245019,264.23011344" fill="none" stroke="purple" stroke-width="0.1"/>
	<path d="M 331.632838829,260.345022499 L 327.115878785,262.568606031" fill="none" stroke="purple" stroke-width="0.1"/>
	<path d="M 330.825953167,258.64229155 L 326.244734255,260.730277433" fill="none" stroke="purple" stroke-width="0.1"/>
	<path d="M 330.014560575,256.783558951 L 325.368614874,258.723260039" fill="none" stroke="purple" stroke-width="0.1"/>
	<path d="M 329.217716676,254.77816479 L 324.50730722,256.555605232" fill="none" stroke="purple" stroke-width="0.1"/>
	<path d="M 328.454477091,252.635449156 L 323.680830039,254.235307148" fill="none" stroke="purple" stroke-width="0.1"/>
	<path d="M 327.743897442,250.364752138 L 322.90948263,251.770342828" fill="none" stroke="purple" stroke-width="0.1"/>
	<path d="M 327.105033353,247.975413826 L 322.213894628,249.168734294" fill="none" stroke="purple" stroke-width="0.1"/>
	<path d="M 326.556940444,245.476774307 L 321.615071451,246.438638448" fill="none" stroke="purple" stroke-width="0.1"/>
	<path d="M 326.118674339,242.878173671 L 321.134426042,243.588469869" fill="none" stroke="purple" stroke-width="0.1"/>
	<path d="M 325.809290658,240.188952006 L 320.793783277,240.627058707" fill="none" stroke="purple" stroke-width="0.1"/>
	<path d="M 325.647845025,237.418449402 L 320.615339348,237.563839848" fill="none" stroke="purple" stroke-width="0.1"/>
	<path d="M 325.653393061,234.576005948 L 320.621556349,234.409059627" fill="none" stroke="purple" stroke-width="0.1"/>
	<path d="M 325.844990389,231.670961732 L 320.834975042,231.173972805" fill="none" stroke="purple" stroke-width="0.1"/>
	<path d="M 326.24169263,228.712656843 L 321.277939462,227.870988111" fill="none" stroke="purple" stroke-width="0.1"/>
	<path d="M 326.862555408,225.71043137 L 321.972247502,224.5137107" fill="none" stroke="purple" stroke-width="0.1"/>
	<path d="M 327.726634343,222.673625402 L 322.938769669,221.116832664" fill="none" stroke="purple" stroke-width="0.1"/>
	<path d="M 328.852985058,219.611579029 L 324.197105543,217.69584478" fill="none" stroke="purple" stroke-width="0.1"/>
	<path d="M 330.260663176,216.533632338 L 325.765360665,214.266584233" fill="none" stroke="purple" stroke-width="0.1"/>
	<path d="M 331.968724318,213.449125418 L 327.660113177,210.844682712" fill="none" stroke="purple" stroke-width="0.1"/>
	<path d="M 333.996224106,210.36739836 L 329.89659754,207.445016832" fill="none" stroke="purple" stroke-width="0.1"/>
	<path d="M 336.362218163,207.29779125 L 332.489075198,204.081269007" fill="none" stroke="purple" stroke-width="0.1"/>
	<path d="M 339.085762111,204.249644179 L 335.451312938,200.765676473" fill="none" stroke="purple" stroke-width="0.1"/>
	<path d="M 342.185911571,201.232297236 L 338.797069245,197.508992325" fill="none" stroke="purple" stroke-width="0.1"/>
	<path d="M 345.681722167,198.255090508 L 342.540502305,194.320628722" fill="none" stroke="purple" stroke-width="0.1"/>
	<path d="M 349.674229434,195.233021773 L 346.689289537,191.178717199" fill="none" stroke="purple" stroke-width="0.1"/>
	<path d="M 353.721415388,192.302789798 L 350.803158617,188.200226064" fill="none" stroke="purple" stroke-width="0.1"/>
	<path d="M 357.585387078,189.604757322 L 354.741113454,185.450559527" fill="none" stroke="purple" stroke-width="0.1"/>
	<path d="M 361.27181223,187.132315636 L 358.509829357,182.922956732" fill="none" stroke="purple" stroke-width="0.1"/>
	<path d="M 364.786358572,184.878856028 L 362.11613428,180.61070022" fill="none" stroke="purple" stroke-width="0.1"/>
	<path d="M 368.13469383,182.83776979 L 365.567027645,178.507141413" fill="none" stroke="purple" stroke-width="0.1"/>
	<path d="M 371.32248573,181.002448211 L 368.869697483,176.605735622" fill="none" stroke="purple" stroke-width="0.1"/>
	<path d="M 374.355402,179.366282581 L 372.031532648,174.900089235" fill="none" stroke="purple" stroke-width="0.1"/>
	<path d="M 377.239110366,177.92266419 L 375.060124939,173.384021851" fill="none" stroke="purple" stroke-width="0.1"/>
	<path d="M 379.979278555,176.664984328 L 377.963253147,172.051645698" fill="none" stroke="purple" stroke-width="0.1"/>
	<path d="M 382.581574293,175.586634286 L 380.748837473,170.897462983" fill="none" stroke="purple" stroke-width="0.1"/>
	<path d="M 385.051665308,174.681005353 L 383.424848643,169.916478167" fill="none" stroke="purple" stroke-width="0.1"/>
	<path d="M 387.395219325,173.94148882 L 385.9991525,169.104315142" fill="none" stroke="purple" stroke-width="0.1"/>
	<path d="M 389.617904072,173.361475975 L 388.479270224,168.457318073" fill="none" stroke="purple" stroke-width="0.1"/>
	<path d="M 391.725387275,172.93435811 L 390.872040794,167.972599193" fill="none" stroke="purple" stroke-width="0.1"/>
	<path d="M 393.723336661,172.653526515 L 393.183191556,167.647980088" fill="none" stroke="purple" stroke-width="0.1"/>
	<path d="M 395.617419957,172.512372479 L 395.416859654,167.481763436" fill="none" stroke="purple" stroke-width="0.1"/>
	<path d="M 397.413304889,172.504287292 L 397.575159852,167.472284237" fill="none" stroke="purple" stroke-width="0.1"/>
	<path d="M 399.116659184,172.622662244 L 399.657946281,167.617239181" fill="none" stroke="purple" stroke-width="0.1"/>
	<path d="M 400.733150568,172.860888627 L 401.662931838,167.912883113" fill="none" stroke="purple" stroke-width="0.1"/>
	<path d="M 402.268446769,173.212357728 L 403.586269486,168.353284251" fill="none" stroke="purple" stroke-width="0.1"/>
	<path d="M 403.728215513,173.670460839 L 405.423554714,168.929883157" fill="none" stroke="purple" stroke-width="0.1"/>
	<path d="M 405.118124526,174.22858925 L 407.171031823,169.631544177" fill="none" stroke="purple" stroke-width="0.1"/>
	<path d="M 406.443841536,174.88013425 L 408.826680166,170.445122206" fill="none" stroke="purple" stroke-width="0.1"/>
	<path d="M 407.711034269,175.61848713 L 410.390895904,171.356375753" fill="none" stroke="purple" stroke-width="0.1"/>
	<path d="M 408.925370452,176.437039179 L 411.86665002,172.350949818" fill="none" stroke="purple" stroke-width="0.1"/>
	<path d="M 410.092517811,177.329181688 L 413.259192803,173.415178461" fill="none" stroke="purple" stroke-width="0.1"/>
	<path d="M 411.218144073,178.288305947 L 414.575490156,174.536575806" fill="none" stroke="purple" stroke-width="0.1"/>
	<path d="M 412.307916966,179.307803245 L 415.823588756,175.70401307" fill="none" stroke="purple" stroke-width="0.1"/>
	<path d="M 413.489332981,180.50746445 L 417.134717429,177.034940297" fill="none" stroke="purple" stroke-width="0.1"/>
	<path d="M 414.887638646,182.027364873 L 418.650304192,178.682278962" fill="none" stroke="purple" stroke-width="0.1"/>
	<path d="M 416.278758102,183.646892278 L 420.152426831,180.431003234" fill="none" stroke="purple" stroke-width="0.1"/>
	<path d="M 417.655067764,185.362836287 L 421.634523128,182.278815085" fill="none" stroke="purple" stroke-width="0.1"/>
	<path d="M 419.00894405,187.171986525 L 423.089741314,184.223368975" fill="none" stroke="purple" stroke-width="0.1"/>
	<path d="M 420.332763379,189.071132618 L 424.510992,186.26227923" fill="none" stroke="purple" stroke-width="0.1"/>
	<path d="M 421.618902166,191.05706419 L 425.890983496,188.393124837" fill="none" stroke="purple" stroke-width="0.1"/>
	<path d="M 422.85973683,193.126570866 L 427.222245349,190.613451054" fill="none" stroke="purple" stroke-width="0.1"/>
	<path d="M 424.047643788,195.27644227 L 428.497143507,192.920767414" fill="none" stroke="purple" stroke-width="0.1"/>
	<path d="M 425.174999458,197.503468027 L 429.707889697,195.312541772" fill="none" stroke="purple" stroke-width="0.1"/>
	<path d="M 426.234180256,199.804437761 L 430.84654711,197.786190061" fill="none" stroke="purple" stroke-width="0.1"/>
	<path d="M 427.217562601,202.176141098 L 431.905034237,200.339061506" fill="none" stroke="purple" stroke-width="0.1"/>
	<path d="M 428.11752291,204.615367662 L 432.87512865,202.968419152" fill="none" stroke="purple" stroke-width="0.1"/>
	<path d="M 428.926437599,207.118907077 L 433.748472524,205.671415813" fill="none" stroke="purple" stroke-width="0.1"/>
	<path d="M 429.636683088,209.683548969 L 434.516581802,208.4450659" fill="none" stroke="purple" stroke-width="0.1"/>
	<path d="M 430.240635792,212.306082961 L 435.170860874,211.286214141" fill="none" stroke="purple" stroke-width="0.1"/>
	<path d="M 430.73067213,214.98329868 L 435.702624577,214.191502853" fill="none" stroke="purple" stroke-width="0.1"/>
	<path d="M 431.099168519,217.711985749 L 436.103128959,217.157340202" fill="none" stroke="purple" stroke-width="0.1"/>
	<path d="M 431.338501376,220.488933792 L 436.363611623,220.179872678" fill="none" stroke="purple" stroke-width="0.1"/>
	<path d="M 431.441047119,223.310932436 L 436.475341457,223.254965627" fill="none" stroke="purple" stroke-width="0.1"/>
	<path d="M 431.399182165,226.174771304 L 436.429676194,226.378195968" fill="none" stroke="purple" stroke-width="0.1"/>
	<path d="M 431.205282932,229.077240021 L 436.218124687,229.544860916" fill="none" stroke="purple" stroke-width="0.1"/>
	<path d="M 430.810258679,232.363950653 L 435.797255528,233.054685188" fill="none" stroke="purple" stroke-width="0.1"/>
	<path d="M 430.237591665,236.083409269 L 435.200803203,236.928266056" fill="none" stroke="purple" stroke-width="0.1"/>
	<path d="M 429.590271241,239.545574768 L 434.522709488,240.554685621" fill="none" stroke="purple" stroke-width="0.1"/>
	<path d="M 428.873440729,242.76422116 L 433.767045036,243.947390062" fill="none" stroke="purple" stroke-width="0.1"/>
	<path d="M 428.092243448,245.753122453 L 432.937908733,247.119423924" fill="none" stroke="purple" stroke-width="0.1"/>
	<path d="M 427.251822718,248.526052655 L 432.039524905,250.083345032" fill="none" stroke="purple" stroke-width="0.1"/>
	<path d="M 426.357321861,251.096785777 L 431.076372379,252.851155742" fill="none" stroke="purple" stroke-width="0.1"/>
	<path d="M 425.413884195,253.479095825 L 430.053340314,255.434268118" fill="none" stroke="purple" stroke-width="0.1"/>
	<path d="M 424.426653042,255.686756809 L 428.975896688,257.84352152" fill="none" stroke="purple" stroke-width="0.1"/>
	<path d="M 423.400771722,257.733542738 L 427.85024542,260.089266741" fill="none" stroke="purple" stroke-width="0.1"/>
	<path d="M 422.341383554,259.633227619 L 426.683440541,262.181519771" fill="none" stroke="purple" stroke-width="0.1"/>
	<path d="M 421.25363186,261.399585463 L 425.483425077,264.130171683" fill="none" stroke="purple" stroke-width="0.1"/>
	<path d="M 420.142659958,263.046390277 L 424.258971193,265.945223419" fill="none" stroke="purple" stroke-width="0.1"/>
	<path d="M 419.013611171,264.587416069 L 423.019516275,267.637002281" fill="none" stroke="purple" stroke-width="0.1"/>
	<path d="M 417.871628817,266.03643685 L 421.77491143,269.216316818" fill="none" stroke="purple" stroke-width="0.1"/>
	<path d="M 416.721856217,267.407226626 L 420.535116278,270.694520267" fill="none" stroke="purple" stroke-width="0.1"/>
	<path d="M 415.569436692,268.713559408 L 419.309879881,272.083475805" fill="none" stroke="purple" stroke-width="0.1"/>
	<path d="M 329.685,217.721 L 324.771558019,216.623120376" fill="none" stroke="purple" stroke-width="0.1"/>
	<path d="M 329.69901411,217.659896473 L 324.795056403,216.520400719" fill="none" stroke="purple" stroke-width="0.1"/>
	<path d="M 329.741775787,217.479826982 L 324.848022492,216.297274463" fill="none" stroke="purple" stroke-width="0.1"/>
	<path d="M 329.81436405,217.185653165 L 324.931594347,215.958537934" fill="none" stroke="purple" stroke-width="0.1"/>
	<path d="M 329.917857921,216.782236659 L 325.046915453,215.508984428" fill="none" stroke="purple" stroke-width="0.1"/>
	<path d="M 330.053336417,216.274439102 L 325.195135264,214.953404157" fill="none" stroke="purple" stroke-width="0.1"/>
	<path d="M 330.221878561,215.66712213 L 325.377409795,214.296584225" fill="none" stroke="purple" stroke-width="0.1"/>
	<path d="M 330.42456337,214.965147381 L 325.594902271,213.543308629" fill="none" stroke="purple" stroke-width="0.1"/>
	<path d="M 330.662469866,214.173376493 L 325.848783845,212.698358303" fill="none" stroke="purple" stroke-width="0.1"/>
	<path d="M 330.936677068,213.296671102 L 326.140234377,211.766511216" fill="none" stroke="purple" stroke-width="0.1"/>
	<path d="M 331.248263996,212.339892846 L 326.470443289,210.752542519" fill="none" stroke="purple" stroke-width="0.1"/>
	<path d="M 331.598309671,211.307903362 L 326.840610494,209.661224793" fill="none" stroke="purple" stroke-width="0.1"/>
	<path d="M 331.987893111,210.205564287 L 327.251947396,208.497328369" fill="none" stroke="purple" stroke-width="0.1"/>
	<path d="M 332.418093338,209.037737259 L 327.705677981,207.26562178" fill="none" stroke="purple" stroke-width="0.1"/>
	<path d="M 332.88998937,207.809283915 L 328.203039968,205.970872352" fill="none" stroke="purple" stroke-width="0.1"/>
	<path d="M 333.404660228,206.525065891 L 328.745286052,204.617846959" fill="none" stroke="purple" stroke-width="0.1"/>
	<path d="M 333.963184932,205.189944827 L 329.333685192,203.211312996" fill="none" stroke="purple" stroke-width="0.1"/>
	<path d="M 334.566642502,203.808782358 L 329.969523962,201.756039582" fill="none" stroke="purple" stroke-width="0.1"/>
	<path d="M 335.216111957,202.386440122 L 330.65410793,200.256799064" fill="none" stroke="purple" stroke-width="0.1"/>
	<path d="M 335.912672317,200.927779756 L 331.388763032,198.71836885" fill="none" stroke="purple" stroke-width="0.1"/>
	<path d="M 336.657402603,199.437662897 L 332.174836905,197.14553364" fill="none" stroke="purple" stroke-width="0.1"/>
	<path d="M 337.451381835,197.920951184 L 333.013700123,195.543088111" fill="none" stroke="purple" stroke-width="0.1"/>
	<path d="M 338.295689031,196.382506252 L 333.906747253,193.915840114" fill="none" stroke="purple" stroke-width="0.1"/>
	<path d="M 339.191403213,194.82718974 L 334.855397648,192.268614451" fill="none" stroke="purple" stroke-width="0.1"/>
	<path d="M 340.1396034,193.259863284 L 335.861095836,190.606257286" fill="none" stroke="purple" stroke-width="0.1"/>
	<path d="M 341.141368612,191.685388522 L 336.925311372,188.933641237" fill="none" stroke="purple" stroke-width="0.1"/>
	<path d="M 342.197777869,190.108627091 L 338.049537953,187.255671192" fill="none" stroke="purple" stroke-width="0.1"/>
	<path d="M 343.309910191,188.534440629 L 339.235291581,185.577290827" fill="none" stroke="purple" stroke-width="0.1"/>
	<path d="M 344.478844598,186.967690772 L 340.484107527,183.903489815" fill="none" stroke="purple" stroke-width="0.1"/>
	<path d="M 345.70566011,185.413239158 L 341.797535798,182.239311602" fill="none" stroke="purple" stroke-width="0.1"/>
	<path d="M 346.991435746,183.875947425 L 343.177134817,180.589861578" fill="none" stroke="purple" stroke-width="0.1"/>
	<path d="M 348.337250527,182.360677209 L 344.624463007,178.960315374" fill="none" stroke="purple" stroke-width="0.1"/>
	<path d="M 349.744183472,180.872290147 L 346.141068003,177.355926871" fill="none" stroke="purple" stroke-width="0.1"/>
	<path d="M 351.213313602,179.415647878 L 347.728473274,175.782035398" fill="none" stroke="purple" stroke-width="0.1"/>
	<path d="M 352.745719937,177.995612038 L 349.38816207,174.244071428" fill="none" stroke="purple" stroke-width="0.1"/>
	<path d="M 354.342481495,176.617044264 L 351.121558785,172.747559975" fill="none" stroke="purple" stroke-width="0.1"/>
	<path d="M 356.004677298,175.284806194 L 352.930008048,171.298120757" fill="none" stroke="purple" stroke-width="0.1"/>
	<path d="M 357.733386365,174.003759465 L 354.814752229,169.901464187" fill="none" stroke="purple" stroke-width="0.1"/>
	<path d="M 359.529687716,172.778765715 L 356.776908339,168.563382284" fill="none" stroke="purple" stroke-width="0.1"/>
	<path d="M 361.394660371,171.61468658 L 358.817445752,167.289733797" fill="none" stroke="purple" stroke-width="0.1"/>
	<path d="M 363.329383351,170.516383699 L 360.937166467,166.086423185" fill="none" stroke="purple" stroke-width="0.1"/>
	<path d="M 365.334935674,169.488718707 L 363.1366899,164.959373579" fill="none" stroke="purple" stroke-width="0.1"/>
	<path d="M 367.41239636,168.536553243 L 365.416444226,163.914494519" fill="none" stroke="purple" stroke-width="0.1"/>
	<path d="M 369.562844431,167.664748943 L 367.776666101,162.957645934" fill="none" stroke="purple" stroke-width="0.1"/>
	<path d="M 371.787358905,166.878167446 L 370.217410093,162.094600524" fill="none" stroke="purple" stroke-width="0.1"/>
	<path d="M 374.087018803,166.181670388 L 372.738568392,161.331007211" fill="none" stroke="purple" stroke-width="0.1"/>
	<path d="M 376.462903144,165.580119406 L 375.339900356,160.672358561" fill="none" stroke="purple" stroke-width="0.1"/>
	<path d="M 378.916090949,165.078376138 L 378.021070451,160.123964964" fill="none" stroke="purple" stroke-width="0.1"/>
	<path d="M 381.447661237,164.681302221 L 380.781692117,159.690937816" fill="none" stroke="purple" stroke-width="0.1"/>
	<path d="M 384.058693028,164.393759293 L 383.621374457,159.378183131" fill="none" stroke="purple" stroke-width="0.1"/>
	<path d="M 386.750265343,164.22060899 L 386.539768319,159.190405935" fill="none" stroke="purple" stroke-width="0.1"/>
	<path d="M 389.523457201,164.16671295 L 389.536608485,159.132124703" fill="none" stroke="purple" stroke-width="0.1"/>
	<path d="M 392.379347621,164.23693281 L 392.61174924,159.207694174" fill="none" stroke="purple" stroke-width="0.1"/>
	<path d="M 395.319015625,164.436130207 L 395.765191449,159.421334209" fill="none" stroke="purple" stroke-width="0.1"/>
	<path d="M 398.638258126,164.782693057 L 399.218546517,159.781641453" fill="none" stroke="purple" stroke-width="0.1"/>
	<path d="M 401.886174609,165.198258236 L 402.586479635,160.21259633" fill="none" stroke="purple" stroke-width="0.1"/>
	<path d="M 404.949173799,165.668452065 L 405.779586932,160.702803487" fill="none" stroke="purple" stroke-width="0.1"/>
	<path d="M 407.832168849,166.191876059 L 408.803633557,161.251885362" fill="none" stroke="purple" stroke-width="0.1"/>
	<path d="M 410.54007291,166.767131735 L 411.664383558,161.859670341" fill="none" stroke="purple" stroke-width="0.1"/>
	<path d="M 413.077799133,167.392820609 L 414.367559343,162.526223197" fill="none" stroke="purple" stroke-width="0.1"/>
	<path d="M 415.45026067,168.067544196 L 416.918782848,163.251872448" fill="none" stroke="purple" stroke-width="0.1"/>
	<path d="M 417.662370672,168.789904013 L 419.323493855,164.037228815" fill="none" stroke="purple" stroke-width="0.1"/>
	<path d="M 419.71904229,169.558501574 L 421.586841588,164.883185804" fill="none" stroke="purple" stroke-width="0.1"/>
	<path d="M 421.625188677,170.371938397 L 423.713548122,165.790889762" fill="none" stroke="purple" stroke-width="0.1"/>
	<path d="M 423.385722984,171.228815997 L 425.707747406,166.761663173" fill="none" stroke="purple" stroke-width="0.1"/>
	<path d="M 425.005558361,172.12773589 L 427.572812522,167.796863248" fill="none" stroke="purple" stroke-width="0.1"/>
	<path d="M 426.489607962,173.067299592 L 429.311196636,168.897660624" fill="none" stroke="purple" stroke-width="0.1"/>
	<path d="M 427.842784936,174.046108618 L 430.924327832,170.064733837" fill="none" stroke="purple" stroke-width="0.1"/>
	<path d="M 429.070002436,175.062764485 L 432.412609737,171.297896865" fill="none" stroke="purple" stroke-width="0.1"/>
	<path d="M 430.176173612,176.115868709 L 433.775579681,172.595708525" fill="none" stroke="purple" stroke-width="0.1"/>
	<path d="M 431.166211617,177.204022805 L 435.012254771,173.955145486" fill="none" stroke="purple" stroke-width="0.1"/>
	<path d="M 432.045029603,178.325828289 L 436.121650048,175.371438756" fill="none" stroke="purple" stroke-width="0.1"/>
	<path d="M 432.817540719,179.479886677 L 437.103392137,176.838158192" fill="none" stroke="purple" stroke-width="0.1"/>
	<path d="M 433.488658118,180.664799486 L 437.958301916,178.347573539" fill="none" stroke="purple" stroke-width="0.1"/>
	<path d="M 434.063294952,181.87916823 L 438.688810011,179.891239103" fill="none" stroke="purple" stroke-width="0.1"/>
	<path d="M 434.546364372,183.121594426 L 439.299111866,181.460678106" fill="none" stroke="purple" stroke-width="0.1"/>
	<path d="M 434.942779528,184.39067959 L 439.795047911,183.04801682" fill="none" stroke="purple" stroke-width="0.1"/>
	<path d="M 435.257453574,185.685025237 L 440.183771624,184.64644821" fill="none" stroke="purple" stroke-width="0.1"/>
	<path d="M 435.49529966,187.003232884 L 440.473311311,186.250470131" fill="none" stroke="purple" stroke-width="0.1"/>
	<path d="M 435.661230937,188.343904047 L 440.672130461,187.855910472" fill="none" stroke="purple" stroke-width="0.1"/>
	<path d="M 435.760160557,189.705640241 L 440.788759972,189.459795378" fill="none" stroke="purple" stroke-width="0.1"/>
	<path d="M 435.797001673,191.087042981 L 440.831535163,191.060130089" fill="none" stroke="purple" stroke-width="0.1"/>
	<path d="M 435.776667434,192.486713785 L 440.80843764,192.65565271" fill="none" stroke="purple" stroke-width="0.1"/>
	<path d="M 435.704070993,193.903254168 L 440.727023286,194.245601992" fill="none" stroke="purple" stroke-width="0.1"/>
	<path d="M 435.5841255,195.335265646 L 440.594411288,195.829520743" fill="none" stroke="purple" stroke-width="0.1"/>
	<path d="M 435.421744109,196.781349734 L 440.417310753,197.407101824" fill="none" stroke="purple" stroke-width="0.1"/>
	<path d="M 435.221839969,198.24010795 L 440.202066554,198.978074708" fill="none" stroke="purple" stroke-width="0.1"/>
	<path d="M 434.989326233,199.710141807 L 439.95471178,200.542126262" fill="none" stroke="purple" stroke-width="0.1"/>
	<path d="M 434.729116051,201.190052823 L 439.681018992,202.098848199" fill="none" stroke="purple" stroke-width="0.1"/>
	<path d="M 434.446122576,202.678442514 L 439.386546015,203.647704095" fill="none" stroke="purple" stroke-width="0.1"/>
	<path d="M 434.145258959,204.173912394 L 439.076674348,205.188010041" fill="none" stroke="purple" stroke-width="0.1"/>
	<path d="M 433.831438351,205.675063981 L 438.756639601,206.718924324" fill="none" stroke="purple" stroke-width="0.1"/>
	<path d="M 433.509573904,207.180498789 L 438.431554123,208.239442838" fill="none" stroke="purple" stroke-width="0.1"/>
	<path d="M 433.184578769,208.688818336 L 438.106422213,209.748397917" fill="none" stroke="purple" stroke-width="0.1"/>
	<path d="M 432.861366098,210.198624136 L 437.786148405,211.24445921" fill="none" stroke="purple" stroke-width="0.1"/>
	<path d="M 432.544849042,211.708517706 L 437.475539156,212.726135893" fill="none" stroke="purple" stroke-width="0.1"/>
	<path d="M 432.239940753,213.217100562 L 437.179298144,214.191780165" fill="none" stroke="purple" stroke-width="0.1"/>
	<path d="M 431.951554382,214.722974218 L 436.902015233,215.639592533" fill="none" stroke="purple" stroke-width="0.1"/>
	<path d="M 431.68460308,216.224740193 L 436.64814904,217.06763003" fill="none" stroke="purple" stroke-width="0.1"/>
	<path d="M 431.444,217.721 L 436.42200312,218.473819172" fill="none" stroke="purple" stroke-width="0.1"/>
	<path d="M 332.025709787,180.010305137 L 327.089443186,179.020091113" fill="none" stroke="purple" stroke-width="0.1"/>
	<path d="M 332.375046205,178.598434069 L 327.539866031,177.195478457" fill="none" stroke="purple" stroke-width="0.1"/>
	<path d="M 333.060828294,176.610161127 L 328.384275881,174.745460265" fill="none" stroke="purple" stroke-width="0.1"/>
	<path d="M 334.187362824,174.187941317 L 329.744662028,171.819468937" fill="none" stroke="purple" stroke-width="0.1"/>
	<path d="M 335.858956566,171.474229645 L 331.741690596,168.57675269" fill="none" stroke="purple" stroke-width="0.1"/>
	<path d="M 338.179916291,168.611481119 L 334.4887072,165.187707292" fill="none" stroke="purple" stroke-width="0.1"/>
	<path d="M 341.25454877,165.742150744 L 338.084789048,161.830645269" fill="none" stroke="purple" stroke-width="0.1"/>
	<path d="M 345.187160774,163.008693526 L 342.611207134,158.682989582" fill="none" stroke="purple" stroke-width="0.1"/>
	<path d="M 350.082059074,160.553564473 L 348.135458495,155.910505357" fill="none" stroke="purple" stroke-width="0.1"/>
	<path d="M 356.04355044,158.51921859 L 354.721849217,153.661198659" fill="none" stroke="purple" stroke-width="0.1"/>
	<path d="M 363.175941645,157.048110883 L 362.442233228,152.067255161" fill="none" stroke="purple" stroke-width="0.1"/>
	<path d="M 371.583539458,156.28269636 L 371.381273971,151.25215559" fill="none" stroke="purple" stroke-width="0.1"/>
	<path d="M 380.602071207,156.304036347 L 380.722604154,151.270873963" fill="none" stroke="purple" stroke-width="0.1"/>
	<path d="M 387.887040256,156.42742446 L 387.940552023,151.393103427" fill="none" stroke="purple" stroke-width="0.1"/>
	<path d="M 394.809729476,156.47005897 L 394.822607848,151.435470018" fill="none" stroke="purple" stroke-width="0.1"/>
	<path d="M 401.363881606,156.476884966 L 401.366967798,151.442280489" fill="none" stroke="purple" stroke-width="0.1"/>
	<path d="M 407.543239386,156.492847536 L 407.573087847,151.458330594" fill="none" stroke="purple" stroke-width="0.1"/>
	<path d="M 413.341545554,156.562891767 L 413.442175223,151.529292117" fill="none" stroke="purple" stroke-width="0.1"/>
	<path d="M 418.75254285,156.731962748 L 418.977792611,151.70239872" fill="none" stroke="purple" stroke-width="0.1"/>
	<path d="M 423.769974012,157.045005568 L 424.186486437,152.027658743" fill="none" stroke="purple" stroke-width="0.1"/>
	<path d="M 428.387581781,157.546965315 L 429.078101855,152.559938766" fill="none" stroke="purple" stroke-width="0.1"/>
	<path d="M 432.599108895,158.282787076 L 433.664829116,153.362269605" fill="none" stroke="purple" stroke-width="0.1"/>
	<path d="M 436.398298093,159.29741594 L 437.956788181,154.510103498" fill="none" stroke="purple" stroke-width="0.1"/>
	<path d="M 439.778892115,160.635796995 L 441.950551361,156.093644654" fill="none" stroke="purple" stroke-width="0.1"/>
	<path d="M 442.7346337,162.34287533 L 445.609175781,158.209564358" fill="none" stroke="purple" stroke-width="0.1"/>
	<path d="M 445.259265586,164.463596032 L 448.846370563,160.930901643" fill="none" stroke="purple" stroke-width="0.1"/>
	<path d="M 447.346530513,167.042904191 L 451.546454462,164.266595384" fill="none" stroke="purple" stroke-width="0.1"/>
	<path d="M 448.99017122,170.125744893 L 453.625581216,168.160999124" fill="none" stroke="purple" stroke-width="0.1"/>
	<path d="M 450.183930447,173.757063228 L 455.072121539,172.551725259" fill="none" stroke="purple" stroke-width="0.1"/>
	<path d="M 450.921550932,177.981804284 L 455.924948331,177.422102367" fill="none" stroke="purple" stroke-width="0.1"/>
	<path d="M 451.316158645,182.685579645 L 456.338932482,182.340623497" fill="none" stroke="purple" stroke-width="0.1"/>
	<path d="M 451.589346308,187.608198834 L 456.619314465,187.392161545" fill="none" stroke="purple" stroke-width="0.1"/>
	<path d="M 451.747607825,192.706679035 L 456.781248881,192.608142275" fill="none" stroke="purple" stroke-width="0.1"/>
	<path d="M 451.792341501,197.940749071 L 456.826934888,197.951758129" fill="none" stroke="purple" stroke-width="0.1"/>
	<path d="M 451.724945641,203.270137762 L 456.758227884,203.385557138" fill="none" stroke="purple" stroke-width="0.1"/>
	<path d="M 451.546818549,208.654573931 L 456.576740283,208.871689377" fill="none" stroke="purple" stroke-width="0.1"/>
	<path d="M 451.259358531,214.0537864 L 456.28389161,214.372093015" fill="none" stroke="purple" stroke-width="0.1"/>
	<path d="M 450.86396389,219.427503988 L 455.880923989,219.848649013" fill="none" stroke="purple" stroke-width="0.1"/>
	<path d="M 450.362032933,224.73545552 L 455.368888661,225.263326231" fill="none" stroke="purple" stroke-width="0.1"/>
	<path d="M 449.754963963,229.937369814 L 454.748601291,230.578336275" fill="none" stroke="purple" stroke-width="0.1"/>
	<path d="M 449.044155285,234.992975694 L 454.020555471,235.756318971" fill="none" stroke="purple" stroke-width="0.1"/>
	<path d="M 448.231005205,239.862001981 L 453.184771452,240.760585163" fill="none" stroke="purple" stroke-width="0.1"/>
	<path d="M 447.316912027,244.504177496 L 452.24053554,245.555454467" fill="none" stroke="purple" stroke-width="0.1"/>
	<path d="M 446.303274056,248.879231061 L 451.185943984,250.106743235" fill="none" stroke="purple" stroke-width="0.1"/>
	<path d="M 445.191489596,252.946891498 L 450.017081117,254.382481356" fill="none" stroke="purple" stroke-width="0.1"/>
	<path d="M 443.982956953,256.666887627 L 448.726485573,258.353952534" fill="none" stroke="purple" stroke-width="0.1"/>
	<path d="M 442.679074432,259.998948271 L 447.300185442,261.997093612" fill="none" stroke="purple" stroke-width="0.1"/>
	<path d="M 441.195537869,263.102955214 L 445.688553247,265.374532767" fill="none" stroke="purple" stroke-width="0.1"/>
	<path d="M 439.363733169,266.647209668 L 443.813085306,269.00316326" fill="none" stroke="purple" stroke-width="0.1"/>
	<path d="M 437.312384174,270.405669231 L 441.698511602,272.877336272" fill="none" stroke="purple" stroke-width="0.1"/>
	<path d="M 435.032952003,274.301933373 L 439.334356914,276.918260486" fill="none" stroke="purple" stroke-width="0.1"/>
	<path d="M 432.516897772,278.259601562 L 436.708247274,281.048838217" fill="none" stroke="purple" stroke-width="0.1"/>
	<path d="M 429.755682598,282.202273266 L 433.805947079,285.19269287" fill="none" stroke="purple" stroke-width="0.1"/>
	<path d="M 426.740767599,286.053547955 L 430.611216646,289.273311291" fill="none" stroke="purple" stroke-width="0.1"/>
	<path d="M 423.463613891,289.737025097 L 427.105694672,293.213014072" fill="none" stroke="purple" stroke-width="0.1"/>
	<path d="M 419.915682591,293.176304162 L 423.269088752,296.931556336" fill="none" stroke="purple" stroke-width="0.1"/>
	<path d="M 416.088434817,296.294984616 L 419.080134347,300.34430378" fill="none" stroke="purple" stroke-width="0.1"/>
	<path d="M 411.973331685,299.01666593 L 414.518954325,303.360288513" fill="none" stroke="purple" stroke-width="0.1"/>
	<path d="M 407.561834314,301.264947572 L 409.571306281,305.881144511" fill="none" stroke="purple" stroke-width="0.1"/>
	<path d="M 402.845403819,302.963429011 L 404.234198026,307.802695734" fill="none" stroke="purple" stroke-width="0.1"/>
	<path d="M 397.815501318,304.035709715 L 398.520307696,309.020737272" fill="none" stroke="purple" stroke-width="0.1"/>
	<path d="M 392.463587928,304.405389153 L 392.45711821,309.43999042" fill="none" stroke="purple" stroke-width="0.1"/>
	<path d="M 386.879583971,304.073784508 L 386.484365229,309.092853536" fill="none" stroke="purple" stroke-width="0.1"/>
	<path d="M 381.301209733,303.685681235 L 380.989694717,308.710639958" fill="none" stroke="purple" stroke-width="0.1"/>
	<path d="M 375.689813031,303.363428284 L 375.416593687,308.39061467" fill="none" stroke="purple" stroke-width="0.1"/>
	<path d="M 370.093598496,303.060026139 L 369.814277714,308.086877208" fill="none" stroke="purple" stroke-width="0.1"/>
	<path d="M 364.56077076,302.728475284 L 364.22986716,307.752194482" fill="none" stroke="purple" stroke-width="0.1"/>
	<path d="M 359.139534456,302.321776203 L 358.708249677,307.337874807" fill="none" stroke="purple" stroke-width="0.1"/>
	<path d="M 353.878094215,301.792929379 L 353.291864723,306.793288042" fill="none" stroke="purple" stroke-width="0.1"/>
	<path d="M 348.824654669,301.094935297 L 348.020498892,306.064903633" fill="none" stroke="purple" stroke-width="0.1"/>
	<path d="M 344.02742045,300.180794441 L 342.931370307,305.094644851" fill="none" stroke="purple" stroke-width="0.1"/>
	<path d="M 339.53459619,299.003507294 L 338.060198542,303.817383419" fill="none" stroke="purple" stroke-width="0.1"/>
	<path d="M 335.39438652,297.516074341 L 333.444741784,302.157856022" fill="none" stroke="purple" stroke-width="0.1"/>
	<path d="M 331.654996072,295.671496065 L 329.133183528,300.028985395" fill="none" stroke="purple" stroke-width="0.1"/>
	<path d="M 328.364629478,293.42277295 L 325.198735893,297.337408255" fill="none" stroke="purple" stroke-width="0.1"/>
	<path d="M 325.571491371,290.722905481 L 321.753753382,294.00499756" fill="none" stroke="purple" stroke-width="0.1"/>
	<path d="M 323.323786382,287.524894141 L 318.941775339,290.003851784" fill="none" stroke="purple" stroke-width="0.1"/>
	<path d="M 321.669719142,283.781739414 L 316.892543368,285.371029632" fill="none" stroke="purple" stroke-width="0.1"/>
	<path d="M 320.777576751,280.500163267 L 315.867169406,281.611536957" fill="none" stroke="purple" stroke-width="0.1"/>
	<path d="M 320.077430953,276.842887173 L 315.107309891,277.646098481" fill="none" stroke="purple" stroke-width="0.1"/>
	<path d="M 319.515059001,272.711876304 L 314.512659407,273.280427161" fill="none" stroke="purple" stroke-width="0.1"/>
	<path d="M 319.088151512,268.164649528 L 314.068023084,268.546175851" fill="none" stroke="purple" stroke-width="0.1"/>
	<path d="M 318.794399104,263.258725716 L 313.76488216,263.485024384" fill="none" stroke="purple" stroke-width="0.1"/>
	<path d="M 318.631492394,258.051623736 L 313.597739444,258.14426829" fill="none" stroke="purple" stroke-width="0.1"/>
	<path d="M 318.597121999,252.600862459 L 313.562585827,252.574456052" fill="none" stroke="purple" stroke-width="0.1"/>
	<path d="M 318.688978537,246.963960754 L 313.65620743,246.828068321" fill="none" stroke="purple" stroke-width="0.1"/>
	<path d="M 318.904752625,241.198437489 L 313.875856581,240.95873697" fill="none" stroke="purple" stroke-width="0.1"/>
	<path d="M 319.242134881,235.361811536 L 314.219095136,235.02074924" fill="none" stroke="purple" stroke-width="0.1"/>
	<path d="M 319.698815922,229.511601764 L 314.683729648,229.068700609" fill="none" stroke="purple" stroke-width="0.1"/>
	<path d="M 320.272486366,223.705327041 L 315.267805917,223.157216306" fill="none" stroke="purple" stroke-width="0.1"/>
	<path d="M 320.960836829,218.000506238 L 315.969655685,217.340686141" fill="none" stroke="purple" stroke-width="0.1"/>
	<path d="M 321.761557929,212.454658223 L 316.788007377,211.672963473" fill="none" stroke="purple" stroke-width="0.1"/>
	<path d="M 322.672340284,207.125301868 L 317.722196914,206.206970559" fill="none" stroke="purple" stroke-width="0.1"/>
	<path d="M 323.69087451,202.06995604 L 318.772557372,200.994126917" fill="none" stroke="purple" stroke-width="0.1"/>
	<path d="M 324.814851226,197.34613961 L 319.941155439,196.083467388" fill="none" stroke="purple" stroke-width="0.1"/>
	<path d="M 326.041961049,193.011371448 L 321.233244417,191.520232245" fill="none" stroke="purple" stroke-width="0.1"/>
	<path d="M 327.369894596,189.123170422 L 322.660287442,187.343605242" fill="none" stroke="purple" stroke-width="0.1"/>
	<path d="M 328.796342484,185.739055402 L 324.246607601,183.583327158" fill="none" stroke="purple" stroke-width="0.1"/>
	<path d="M 330.318995331,182.916545258 L 326.044640755,180.256254911" fill="none" stroke="purple" stroke-width="0.1"/>
	<path d="M 332.025709787,180.010305137 L 327.089443186,179.020091113" fill="none" stroke="purple" stroke-width="0.1"/>
</svg>
