<?xml version="1.0" encoding="utf-8"?>
<!-- Generator: Adobe Illustrator 24.2.3, SVG Export Plug-In . SVG Version: 6.00 Build 0)  -->
<svg version="1.1" id="Layer_1" xmlns:ev="http://www.w3.org/2001/xml-events"
	 xmlns="http://www.w3.org/2000/svg" xmlns:xlink="http://www.w3.org/1999/xlink" x="0px" y="0px" width="600px" height="542px"
	 viewBox="0 0 600 542" enable-background="new 0 0 600 542" xml:space="preserve">
<path fill="none" stroke="#FFFF00" stroke-width="0.4996" stroke-miterlimit="5.0355" d="M212,260.9c0.2-2,2.5-6.6,5.7-10.3
	c0,0,0,0,0,0l0.2-0.2c0,0,0,0,0,0l0.2-0.2c0,0,0,0,0,0c3.4-3.7,7.2-4.8,11.4-5.9c4.3-1.1,11.7-0.8,16.4-0.8s6.7,1.3,12.7,3.1
	c5.5,1.7,10.3,19.5,11.1,22.8c0,0,0,0,0,0l0.1,0.5c0,0,0,0,0,0l0,0.5c0,0,0,0,0,0c0,3,0.1,17.5-2.3,20c-2.6,2.8-4.9,7.2-7,9.4
	c-2.1,2.3-7.6,4.9-10.6,6.2c-3,1.3-8.2,2.8-12.1,2.8c-3.8,0-7.8-1.2-11.1-2.3c0,0,0,0,0,0l-0.2-0.1c0,0,0,0,0,0c0,0,0,0,0,0
	l-0.2-0.1c0,0,0,0,0,0c-3.4-1.3-8.3-5.2-9.8-7"/>
<path fill="none" stroke="#FFFF00" stroke-width="0.4996" stroke-miterlimit="5.0355" d="M274.2,217.7c0,0,37.1,15.1,39.3,35.6
	c2.1,20.5,3.4,31.8-1.9,39.4c-5.3,7.6-12,25.4-24.5,30.5c-12.6,5-33.1,18.9-60.2,5.9"/>
<path fill="none" stroke="#FFFF00" stroke-width="0.4996" stroke-miterlimit="5.0355" d="M294.1,216c0,0,40.7,23.3,42.2,38.4
	c1.5,15.1-1.9,30-4.8,34.4c-2.9,4.4-20.5,29.2-23.7,34.2s-13.2,14.7-18.6,17.2c-5.4,2.5-18.5,12.2-33.6,6.5"/>
<path fill="none" stroke="#FFFF00" stroke-width="0.4996" stroke-miterlimit="5.0355" d="M314.2,228.9c0,0,27.4,7.9,27.7,23.7
	c0.3,15.7,2.1,30.8-3.8,39.3c-5.7,8.1-21.3,29.4-25.1,35.4c0,0,0,0,0,0l-0.4,0.6c0,0,0,0.1,0,0.1l-0.4,0.6c0,0,0,0,0,0
	c-4.1,4.9-22.4,13.5-27.5,14.1"/>
<path fill="none" stroke="#FFFF00" stroke-width="0.4996" stroke-miterlimit="5.0355" d="M202.2,188.5c0,0,34.5-12.3,40-13
	c5.5-0.6,21.5,3.3,30.7,5.9c8.8,2.5,47.2,18.2,55,23c0,0,0,0,0,0l0.7,0.5c0,0,0.1,0.1,0.1,0.1l0.7,0.5c0,0,0,0,0,0
	c6.2,5.1,24.5,22.8,28.5,32.1c4.2,9.7,17.4,31.2,12.3,47.7c-5,16.5-30.3,44.8-33,49.5c-2.6,4.7-15.6,19.1-36.3,24.8
	c-20.2,5.6-71.1,12.4-87.5,9c0,0,0,0,0,0l-0.8-0.2c0,0-0.1,0-0.1,0l-0.8-0.2c0,0,0,0,0,0c-15.3-3.9-36.4-14-47.7-31.4
	c-11.5-17.8-12.7-29.7-13.6-34.5"/>
<path fill="none" stroke="#FFFF00" stroke-width="0.4996" stroke-miterlimit="5.0355" d="M215.8,183.4c0,0,5.3-7.1,13.8-9.7
	c8.2-2.5,18.4-2.1,23.8-0.8c0,0,0,0,0,0l0.5,0.1c0,0,0.1,0,0.1,0l0.5,0.2c0,0,0,0,0,0c5.7,1.6,22,6,27.3,8.3c0,0,0,0,0,0l0.6,0.3
	c0,0,0.1,0,0.1,0l0.6,0.3c0,0,0,0,0,0c6,2.8,29.8,11.6,33,12.9c3.3,1.4,20.9,12.1,24.4,16.2c3.5,4.2,18.9,25.3,21.5,27.9
	s15.6,29.5,13.8,37.1c-1.8,7.7-12.7,33-17.1,38c-4.2,4.8-22,28-26.1,31.7c0,0,0,0,0,0l-0.4,0.3c0,0,0,0,0,0l-0.4,0.3c0,0,0,0,0,0
	c-3.1,2.5-9.2,9.9-19,12.6c-10.3,2.9-62.8,12.1-77.3,13.2c-14.1,1.1-27.3-3.9-35.6-4.6c0,0,0,0,0,0l-0.5,0c0,0,0,0,0,0
	c0,0-0.1,0-0.1,0l-0.6-0.1c0,0,0,0,0,0c-8.1-0.9-15.7-8.3-20.3-12c-4.7-3.8-10.1-11.8-11.2-14.1"/>
<path fill="none" stroke="#FFFF00" stroke-width="0.4996" stroke-miterlimit="5.0355" d="M229.6,173.7c0,0,14.5-8.6,21.5-5
	c7,3.5,18.6,6.5,26.6,9.2c7.9,2.6,44.8,17.1,54.9,23.3c9.7,6,17.5,15.2,22.8,21.5c0,0,0,0,0,0l0.5,0.6c0,0,0,0.1,0,0.1l0.5,0.6
	c0,0,0,0,0,0c5.5,6.7,19.6,27.4,20.4,34.8c0,0,0,0,0,0l0,0.7c0,0,0,0.1,0,0.1l0,0.7c0,0,0,0,0,0c0,7,2.6,22.4-0.8,30.3c0,0,0,0,0,0
	l-0.3,0.6c0,0,0,0.1,0,0.1l-0.3,0.6c0,0,0,0,0,0c-4.5,8.7-17.8,34.2-22.3,39.1c-4.7,5-17.1,16.2-21.8,21.8
	c-4.7,5.5-50.4,17.4-83.5,20.9c-33.1,3.5-38,0.9-45.1-1.8c-7-2.6-9.4-4.7-13.8-8.6"/>
<path fill="none" stroke="#FFFF00" stroke-width="0.4996" stroke-miterlimit="5.0355" d="M339.3,205.8c0,0,14.1,5,20,13
	c5.7,7.6,15.7,22.4,18,29.9c0,0,0,0,0,0l0.2,0.8c0,0,0,0.1,0,0.1l0.2,0.8c0,0,0,0,0,0c1.8,8.2,5.2,34.6,1.8,42.4
	c-3.5,8.1-20.4,36-34.5,50.3c0,0,0,0,0,0l-0.6,0.6c0,0-0.1,0.1-0.1,0.1l-0.6,0.6c0,0,0,0,0,0c-13.7,13.5-20.9,16.5-37.6,18.2"/>
<path fill="none" stroke="#FFFF00" stroke-width="0.4996" stroke-miterlimit="5.0355" d="M359.4,218.8c0,0,12.9,7.1,16.3,13.4
	c0,0,0,0,0,0l0.2,0.4c0,0,0,0,0,0l0.2,0.5c0,0,0,0,0,0c3.1,7.1,13.1,31.1,11.4,43.6c0,0,0,0,0,0l-0.1,0.8c0,0,0,0.1,0,0.1l-0.2,0.8
	c0,0,0,0,0,0c-2.3,12.5-4.6,28-31,52.1"/>
<path fill="none" stroke="#800080" stroke-width="0.4996" stroke-miterlimit="5.0355" d="M377.4,456.7c-9.9,3.7-30.4,8.4-37.7,9.8
	c-7.3,1.4-16.7,1.4-25.3,1.4s-21.9-0.4-32.2-3c-10.3-2.6-20.6-4.3-35.6-4.3s-28.6-4.3-40.9-6.3c-12-2-14.2-2.6-20.7-4.2c0,0,0,0,0,0
	l-0.5-0.1c0,0,0,0,0,0l-0.5-0.1c0,0,0,0,0,0c-7.2-2.1-22.3-12.3-30.1-17.9c-7.3-5.2-21.8-17.8-24.2-20c0,0,0,0,0,0l-0.3-0.3
	c0,0,0,0,0,0l-0.4-0.2c0,0,0,0,0,0c-5.9-3-9.3-10.6-11.9-13.4c-2.6-2.9-13.7-22.2-16.2-25.7c-2.5-3.5-6.4-23-9.7-28.6
	c-3.3-5.5-13.7-41.5-12.7-47.7c1-6.2,8.4-30.5,10.1-36.6c1.6-6.2,8.4-47.3,10.1-50.6c1.6-3.3,12.3-32.1,13.3-34.7
	c0.9-2.4,22.3-29.5,26.1-34.4c0,0,0,0,0,0l0.5-0.7c0,0,0.1-0.1,0.1-0.1l0.5-0.7c0,0,0,0,0,0c3.5-4.2,21.3-25.6,28.4-29.1
	c7.8-3.9,15-14,20.8-18.5c5.6-4.4,19.4-9.4,27.5-10.6c0,0,0,0,0,0l0.6-0.1c0,0,0.1,0,0.1,0l0.6-0.1c0,0,0,0,0,0
	c8.1-1.2,19.3-7.1,25.6-7.7c6.5-0.6,20.8,5.2,29.6,6.8c8.7,1.6,12.8-0.8,21.9,4c0,0,0,0,0,0l0.5,0.2c0,0,0,0,0,0l0.5,0.3
	c0,0,0,0,0,0c9,5,14.5,4.7,21.5,10.2c7.2,5.5,14.4,15,22.4,20.1c8.1,5.2,33.4,20.8,39.9,22c6.5,1.3,39,18.3,47.5,20.1
	c8.4,1.9,22.7,7.8,28.2,11.3c5.5,3.5,23.7,13.6,27.3,15.9c3.7,2.3,12.1,13.6,15.6,20.8c3.4,6.9,6.2,17.7,9.3,22.3c0,0,0,0,0,0
	l0.3,0.5c0,0,0,0,0,0l0.3,0.5c0,0,0,0,0,0c3.3,5.2,9.3,24.4,9.3,30.3c0,6.2,4.2,25.1-8.8,34.1"/>
<path fill="none" stroke="#800080" stroke-width="0.4996" stroke-miterlimit="5.0355" d="M154.6,110.4c0,0,12.7-13,18.2-18.8
	c0,0,0,0,0,0l0.3-0.3c0,0,0,0,0,0l0.3-0.3c0,0,0,0,0,0c4.9-5.6,6.5-11.6,11.4-12.9c5-1.3,12.6-3.4,19.5-5.7
	c6.9-2.3,27.1-9.2,31.8-9.4c4.6-0.2,17.5,3.5,23.3,4.3c0,0,0,0,0,0l0.5,0.1c0,0,0,0,0,0c0,0,0.1,0,0.1,0l0.5,0.1c0,0,0,0,0,0
	c7,1,38.8,8.5,41.2,9.4c0.3,0.1,0.1,0.1,0.4,0.2l6.8,4.3c0.2,0.2,0.1,0.1,0.4,0.2c0,0,12.6,4.7,16.1,8.2c3.5,3.5,12,17.2,26.6,20.8
	c14.2,3.4,30.3,9.7,41.6,12.7c0,0,0,0,0,0l0.8,0.2c0,0,0.1,0,0.1,0l0.8,0.2c0,0,0,0,0,0c11.2,3,30.3,8.3,39.5,12.1c0,0,0,0,0,0
	l0.8,0.3c0,0,0.1,0,0.1,0l0.8,0.4c0,0,0,0,0,0c9.5,5,27.6,28.3,30.4,31.7"/>
<path fill="none" stroke="#800080" stroke-width="0.4996" stroke-miterlimit="5.0355" d="M322.4,87.2c0,0,1.3,0.6,3.2,2.1
	c0.9,0.7,1.5,2.2,3.1,3.2c2.8,1.8,6.8,4,12.3,6.4c13.9,6,16.5,10.3,26.8,13.1c0,0,0,0,0,0l0.7,0.2c0,0,0.1,0,0.1,0l0.7,0.2
	c0,0,0,0,0,0c10.5,2.8,22.8,6.7,30.3,7.8c0,0,0,0,0,0l0.7,0.1c0,0,0.1,0,0.1,0l0.7,0.1c0,0,0,0,0,0c8.3,1.7,36,13.7,40.4,16.2
	c0,0,0,0,0,0l0.3,0.2c0,0,0,0,0,0c0,0,0,0,0,0l0.3,0.2c0,0,0,0,0,0c2.9,2.2,7.2,9.1,10.6,13.7"/>
<path fill="none" stroke="#FFFF00" stroke-width="0.4996" stroke-miterlimit="5.0355" d="M236.3,56.9c0,0,10.4,1.1,23.8,1.1
	c13.3,0,29.5,6.2,36.3,7.2c6.6,1,20.9,6.5,29.8,11.6c0,0,0,0,0,0l0.6,0.3c0,0,0.1,0,0.1,0l0.6,0.3c0,0,0,0,0,0
	c7.2,4.2,16.6,9,24.9,14.6c0,0,0,0,0,0l0.6,0.4c0,0,0.1,0,0.1,0l0.6,0.4c0,0,0,0,0,0c8.9,5.5,30.3,12.7,35.5,13.6c0,0,0,0,0,0
	l0.6,0.1c0,0,0.1,0,0.1,0l0.5,0.2c0,0,0,0,0,0c3.6,1.1,22.4,6.6,23.1,7.4c0.8,0.9,19.5,11.1,22.3,12.2c2.8,1.1,18.5,12,20.1,15.1
	c1.6,3.1,22.9,27.1,23.9,30.2"/>
<path fill="none" stroke="#800080" stroke-width="0.4996" stroke-miterlimit="5.0355" d="M287,59.8c0,0,16.9,0.6,24,3.3
	c7.2,2.6,14.6,3.9,30.5,13.6C357,86.1,367.9,91,376,94.5c0,0,0,0,0,0l0.6,0.3c0,0,0.1,0,0.1,0l0.6,0.3c0,0,0,0,0,0
	c8,3.4,18.1,7,25.7,9.8c7.8,2.9,23,11.3,34.1,16.2c11.1,4.9,18.1,6.5,23.4,12c5.3,5.4,19.8,20.8,23.7,25.3
	c3.9,4.5,13.3,12.3,16.9,18.1c3.5,5.8,8.4,19.1,14.6,25.7c6.2,6.5,24,29.2,24.7,34.1c0.6,4.9,9.1,28.6,6.8,35.4
	c-2.3,6.8-9.4,32.5-13.6,37c-4.2,4.5-23.7,34.7-24.3,38.3c-0.6,3.4-8.9,17.9-13.8,23.5c0,0,0,0,0,0L495,371c0,0,0,0,0,0l-0.4,0.5
	c0,0,0,0,0,0c-5.4,5.9-21.4,25.3-23.8,30.3c-2.5,5-10.6,13.8-17.6,18.8c0,0,0,0,0,0l-0.5,0.3c0,0-0.1,0-0.1,0l-0.5,0.3c0,0,0,0,0,0
	c-7.5,5.5-30.8,29.2-34.5,32.1c0,0,0,0,0,0l-0.3,0.2c0,0,0,0,0,0l-0.4,0.2c0,0,0,0,0,0c-2.5,1.7-10.9,9.5-14.2,11.1
	c-3.5,1.6-12.3,2.3-15.6,2.3"/>
<path fill="none" stroke="#800080" stroke-width="0.4996" stroke-miterlimit="5.0355" d="M122.4,218.7c0,0-1-24,18.1-38.7
	c0,0,0,0,0,0l0.7-0.5c0,0,0.1-0.1,0.1-0.1l0.7-0.5c0,0,0,0,0,0c19.2-14.5,27.5-31.6,33.6-37.1c6.2-5.5,25.3-16.2,31.8-20.4
	c6.5-4.2,29-11.1,32.5-8.8c3.5,2.2,3.9,3.5,13.2,4.9c0,0,0,0,0,0l0.3,0c0,0,0,0,0,0l0.3,0c0,0,0,0,0,0c9.7,1.4,24.8,7.4,33.1,9.4
	c8.1,1.9,19.3,13.7,26.2,16.4c0,0,0,0,0,0l0.7,0.2c0,0,0.1,0,0.1,0l0.7,0.2c0,0,0,0,0,0c6.9,2.4,17.8,11.6,30.1,15
	c12.1,3.3,50.4,20,55.9,23.3c0,0,0,0,0,0l0.5,0.4c0,0,0.1,0,0.1,0l0.5,0.3c0,0,0,0,0,0c2.9,1.9,15.8,10.2,22.2,16.5
	c7.2,7.2,13.6,11.7,19.1,19.5c5.5,7.8,15,27.6,16.2,37.6c1.2,9.9,5.4,35.1-9.9,55.1c0,0,0,0,0,0l-0.5,0.7c0,0-0.1,0.1-0.1,0.1
	l-0.5,0.7c0,0,0,0,0,0c-15.1,19.3-25.2,36.6-33.1,44.4c0,0,0,0,0,0l-0.6,0.6c0,0-0.1,0.1-0.1,0.1l-0.6,0.6c0,0,0,0,0,0
	c-8.5,7.7-27.4,24.1-33,27.6c-5.8,3.5-15.6,16.9-23,19.1c-7.2,2.2-30.1,5-39,4.9c0,0,0,0,0,0l-0.9,0c0,0-0.1,0-0.1,0l-0.9,0
	c0,0,0,0,0,0c-8.3-0.3-25.3-0.6-38-0.4c0,0,0,0,0,0l-0.9,0c0,0-0.1,0-0.1,0l-0.9,0c0,0,0,0,0,0c-13.4,0.3-34.9-0.4-40-0.7"/>
<path fill="none" stroke="#FFFF00" stroke-width="0.4996" stroke-miterlimit="5.0355" d="M143.5,184.6c0,0,29.2-27.6,33.5-34.1
	c4.3-6.5-2.6-3.9,6.8-8.8c9.4-4.9,23.7-13,28.6-15.9c4.9-2.9,15-11.7,23.4-9.4c8.4,2.3,25.7,7.8,31.5,8.8c5.8,1,32.5,15.2,36,17.9"
	/>
<path fill="none" stroke="#FFFF00" stroke-width="0.4996" stroke-miterlimit="5.0355" d="M174,161.8c0,0,7.8-13.3,14-16.6
	c6.2-3.3,25.1-17.5,29.8-18.1s17.5-10.7,35.1,0.6"/>
<path fill="none" stroke="#800080" stroke-width="0.4996" stroke-miterlimit="5.0355" d="M317.8,468.2c-1.7,0.1-2.9-0.2-4.5-0.2
	c-1.1,0-2.5,0-4.6,1.1c0,0,0,0,0,0l-0.2,0.1c0,0,0,0,0,0l-0.2,0.1c0,0,0,0,0,0c-5.2,2.6-10.9,1.3-19.4,1.3c-8.7,0-29.3-6.3-44.9-6.9
	c-15.6-0.6-40.4-9.6-40.5-9.6"/>
<path fill="none" stroke="#FFFF00" stroke-width="0.4996" stroke-miterlimit="5.0355" d="M435.2,331.4c-0.5,6.7-52.1,67.7-58.3,72.6
	c-6.2,4.9-35.2,19.4-51,20.5c-15.4,1.1-15.7-3.1-28.5-4.3c0,0,0,0,0,0l-0.7-0.1c0,0-0.1,0-0.1,0L296,420c0,0,0,0,0,0
	c-13.4-1.3-33.2-3.5-38.7-4.1c-5.5-0.6-26.8-3.5-41.2-2.6c-14.4,0.9-29.3-6.4-37.1-9.9c-7.8-3.5-23.8-21.5-23.9-21.7"/>
<path fill="none" stroke="#800080" stroke-width="0.4996" stroke-miterlimit="5.0355" d="M367.5,399.5c-4.8,4-19.8,16.1-32,18.2
	c-11.9,2.1-23.6,0-31.4-1.5c0,0,0,0,0,0l-0.6-0.1c0,0-0.1,0-0.1,0l-0.6-0.1c0,0,0,0,0,0c-7.7-1.4-19.8-2.4-26.8-2.4
	c-7.2,0-41.6-4-41.8-4"/>
<path fill="none" stroke="#FFFF00" stroke-width="0.4996" stroke-miterlimit="5.0355" d="M509.7,218.4c1.1,0.9,7.2,8.2,8.4,11.3
	s11.5,27.6,13.6,45.1c2.1,17.5-16,36.8-19.3,41.8c-3.3,5-17.7,23.7-23,30.6c-5.3,6.9-20,26.6-24.8,32.5
	c-4.8,5.9-14.5,24.4-18.9,27.3c-4.4,2.9-26.1,28.1-32.1,33.7c-6,5.7-21.4,16.7-24.5,18.6c-2.9,1.7-27.3,8.5-31.2,9.6c0,0,0,0,0,0
	l-0.5,0.1c0,0,0,0,0,0l-0.5,0.1c0,0,0,0,0,0c-7.4,1.4-15.4,5.2-20,5.8c-4.7,0.6-18.5,2.8-28.6,3.4c-9.7,0.6-22.4,2.3-29.9,1.6
	c0,0,0,0,0,0l-0.7-0.1c0,0-0.1,0-0.1,0l-0.7-0.1c0,0,0,0,0,0c-7.4-0.9-19.1-4.1-28.2-6c-9.4-1.9-43.6-14.4-43.8-14.5"/>
<path fill="none" stroke="#FFFF00" stroke-width="0.4996" stroke-miterlimit="5.0355" d="M458.2,187.8
	c32.4,13.5,27.2,34.8,34.8,65.6c0,0,0,0,0,0l0.2,0.8c0,0,0,0.1,0,0.1l0.2,0.8c0,0,0,0,0,0c7.4,29.4-1,34.1-4.7,42.9c0,0,0,0,0,0
	l-0.3,0.8c0,0,0,0.1,0,0.1l-0.3,0.8c0,0,0,0,0,0c-4.2,10.7-21.5,51.3-27,58c0,0,0,0,0,0l-0.6,0.6c0,0-0.1,0.1-0.1,0.1l-0.6,0.5
	c0,0,0,0,0,0c-4.9,5-11.9,22.5-20.4,28.7c-8.8,6.5-29,29.2-36.5,34c-7.6,4.8-17.6,19.4-23.9,22.7c-6.2,3.2-20.3,5.1-33.4,8.4
	c0,0,0,0,0,0l-0.6,0.1c0,0-0.1,0-0.1,0l-0.6,0.1c0,0,0,0,0,0c-12.8,3-19.4,0.9-24.9,0.9c-5.7,0-30.6-3.1-44.4-4.2
	c-13.8-1-72-13-72-13"/>
<path fill="none" stroke="#FFFF00" stroke-width="0.4996" stroke-miterlimit="5.0355" d="M414.9,191.5c0,0,25.2,17,28.6,20.1
	c3.4,3.1,16,17,19.1,36.1c3.1,19.1,9.1,20.8,4,33.4c-4.7,11.8-10.3,31-12.8,36c0,0,0,0,0,0l-0.4,0.7c0,0,0,0.1,0,0.1l-0.5,0.7
	c0,0,0,0,0,0c-3.3,4.7-15.5,21.9-19.2,30.1c-3.9,8.3-26.9,37.7-32.3,44.2c0,0,0,0,0,0l-0.5,0.7c0,0-0.1,0.1-0.1,0.1l-0.6,0.6
	c0,0,0,0,0,0c-6.8,6.3-47.8,33.8-62.2,38.9c-15,5.3-18.6,0-28.2-1.4c-9.6-1.4-32.2-1.6-43.9-2c-11.7-0.4-30.2-4.7-48.2-5.3
	c-18-0.6-21.3-6-33.6-11c-12.3-4.9-19.9-14.4-26.6-19c-6.7-4.7-20.9-29-25.9-35.6c-5-6.7-17.2-36.3-17.2-36.5"/>
<path fill="none" stroke="#FFFF00" stroke-width="0.4996" stroke-miterlimit="5.0355" d="M162.5,148.3c0,0,14.6-18.9,23.2-25.7
	c0,0,0,0,0,0l0.6-0.5c0,0,0.1,0,0.1,0l0.6-0.5c0,0,0,0,0,0c8.7-6.1,22.2-11.5,30.4-14.2c8.4-2.8,18.6-5,24.8-4.7
	c6.2,0.4,22.9,3.3,28.6,3.5c5.7,0.3,21.8,6.3,28.1,8.2c6.3,1.9,18.3,13,22.4,16.1s34.4,21.3,39,22.3c0.9,0.2,0.4,0.2,1.2,0.6
	l21.8,10c0.8,0.4,0.3,0.3,1.1,0.5c0,0,28.1,9.6,43.6,19.3c0,0,0,0,0,0l0.7,0.5c0,0,0.1,0,0.1,0l0.7,0.5c0,0,0,0,0,0
	c14.3,9.3,26.6,14.9,31.2,19.4c0,0,0,0,0,0l0.5,0.5c0,0,0,0.1,0,0.1l0.4,0.5c0,0,0,0,0,0c4,4.8,8.9,15.8,11.1,25c0,0,0,0,0,0
	l0.1,0.6c0,0,0,0.1,0,0.1l0.1,0.6c0,0,0,0,0,0c2.1,9.6,7.1,23.9,6.5,35.6c-0.1,1-0.1,0.5-0.4,1.5l-7.2,26.7
	c-0.3,0.9-0.4,0.4-0.4,1.4c0.3,5.8-22,47-24.9,53.9c-2.6,6.2-18.7,25.7-22.1,29.7c0,0,0,0,0,0l-0.5,0.7c0,0-0.1,0.1-0.1,0.1
	l-0.5,0.7c0,0,0,0,0,0c-4.3,5.9-13.6,13.5-30.9,33.5c0,0,0,0,0,0l-0.6,0.6c0,0-0.1,0.1-0.1,0.1l-0.6,0.6c0,0,0,0,0,0
	c-17.2,19.6-28.6,17.8-36.3,22c0,0,0,0,0,0l-0.6,0.3c0,0-0.1,0-0.1,0l-0.6,0.3c0,0,0,0,0,0c-7.7,4.2-20.1,2.4-28.1,2.4
	c-8.2,0-23.4-2.1-34-2.1c-10.6,0-28.8-2.4-41.2-3.4c-12.3-1-18.3-1.9-30-3.8c-11.7-1.9-27-9-27.1-9.1"/>
<path fill="none" stroke="#FFFF00" stroke-width="0.4996" stroke-miterlimit="5.0355" d="M238.1,111.8c0,0,3.8-3.8,14.5-0.6
	c10.7,3.1,31.2,11,35,12.2c3.8,1.3,19.9,9.8,24.3,13.2c4.4,3.4,16.7,12,27.9,15.4c10.9,3.3,22.3,9.3,31.5,12.7c0,0,0,0,0,0l0.7,0.3
	c0,0,0.1,0,0.1,0l0.7,0.3c0,0,0,0,0,0c9.6,3.7,31.1,14.6,34.4,16.1c3.4,1.5,9.2,2.9,15.1,7.6c5.9,4.7,22,17,27.3,22.9
	c5.3,5.9,17,32.1,18,38.4c1,6.3,7.6,20.5,3.1,31.8c-4.4,11.3-11.1,26.2-12,28.7c-0.9,2.5-1.3,6.5-6.9,8.8"/>
<path fill="none" stroke="#FFFF00" stroke-width="0.4996" stroke-miterlimit="5.0355" d="M511.9,227c0,0,11.5,29.4,10.8,37.5
	c0,0,0,0,0,0l-0.1,0.6c0,0,0,0.1,0,0.1l-0.1,0.6c0,0,0,0,0,0c-1.3,7-0.8,18.6-2.6,24.6c0,0,0,0,0,0l-0.2,0.5c0,0,0,0.1,0,0.1
	l-0.2,0.5c0,0,0,0,0,0c-2.4,6.5-9.8,25.1-15.5,29.4c-5.9,4.4-13.5,19.9-17,23c-3.5,3.1-10.7,14.5-14.1,16.7"/>
<path fill="none" stroke="#FFFF00" stroke-width="0.4996" stroke-miterlimit="5.0355" d="M538.4,289.7c0,1.3-2.3,6.9-3.8,10.7
	c-1.4,3.6-24.4,39.9-29.6,46.2c0,0,0,0,0,0l-0.6,0.6c0,0-0.1,0.1-0.1,0.1l-0.6,0.6c0,0,0,0,0,0c-4.8,5.7-23.6,31.7-30,41.1
	c-6.7,9.8-18.6,21.4-18.6,21.4"/>
<path fill="none" stroke="#FFFF00" stroke-width="0.4996" stroke-miterlimit="5.0355" d="M515.3,218.6c2.6-0.1,9.7,12.7,11.7,15.4
	c2,2.6,10.8,27.8,13,39.4c2.1,11.5-12.9,26.6-13,26.7"/>
<path fill="none" stroke="#800080" stroke-width="0.4996" stroke-miterlimit="5.0355" d="M473.1,145.9c0,0,2.3,2.9,6.2,6.4
	c6.9,6.2,17.1,15.1,19.7,16.6c4,2.3,7.9,4.8,14.5,17.6c6.5,12.8,30,43.4,30,45.7c0,2.1,4.6,21.5,3.5,28c-0.1,0.6,0.1,1,0,1.4"/>
<path fill="none" stroke="#FFFF00" stroke-width="0.4996" stroke-miterlimit="5.0355" d="M347.2,113.7c0,0,18.3,6.9,23.3,9.2
	c4.8,2.2,23.3,6.6,30.4,8.9c0,0,0,0,0,0l0.7,0.2c0,0,0.1,0,0.1,0l0.7,0.2c0,0,0,0,0,0c7.8,2.8,35.4,13.6,35.7,15.5"/>
<path fill="none" stroke="#FFFF00" stroke-width="0.4996" stroke-miterlimit="5.0355" d="M344.9,111.6c0,0,22.9,6.9,27.3,8.4
	c4.4,1.5,43.2,12.2,46.8,13.6c3.7,1.4,29,11.3,30.6,23.5"/>
<path fill="none" stroke="#FFFF00" stroke-width="0.4996" stroke-miterlimit="5.0355" d="M146.4,129.2c0,0,10.1-18.6,16.6-22
	c6.5-3.4,15-11,17.2-15.4c2.3-4.4,10.3-6.5,12.6-7.6c2.2-1,15.8-4.4,21.2-6.1c0,0,0,0,0,0l0.5-0.2c0,0,0.1,0,0.1,0l0.5-0.2
	c0,0,0,0,0,0c5.2-1.8,17-5.7,22.8-6.9c0,0,0,0,0,0l0.5-0.1c0,0,0.1,0,0.1,0l0.5-0.1c0,0,0,0,0,0c6.1-0.8,21.5,3,26.1,4.3
	c4.8,1.3,15.5,4,19.5,3.8c4-0.2,7.1,0.6,12.9,3.4c0,0,0,0,0,0l0.3,0.1c0,0,0,0,0,0l0.3,0.1c0,0,0,0,0,0c6.1,3,16.7,7.4,18.3,8.9
	c0.2,0.2,0.1,0.1,0.3,0.3l5.3,4.5c0.2,0.2,0.1,0.1,0.3,0.2c0,0,11.5,9.1,14.2,12.2c2.8,3.1,23,16.6,28.3,18.5
	c5.3,1.9,11.6,4.5,23.5,10.1c12,5.5,31.3,15.4,37.4,16c6,0.6,15.1,3.1,17.4,5.7c2.3,2.5,34,18.6,33.7,21.8"/>
<path fill="none" stroke="#FFFF00" stroke-width="0.4996" stroke-miterlimit="5.0355" d="M378.9,132.7c8.6,2.5,36.9,13.8,41.9,16.6
	s9.6,3.1,16.1,4.4c6.5,1.3,7.8,2.9,9.7,4.8c1.9,1.9,24.3,16.6,24.3,16.6"/>
<path fill="none" stroke="#FFFF00" stroke-width="0.4996" stroke-miterlimit="5.0355" d="M296.6,70.8c3.1,0,22.4,6,24.5,7.9
	c2.1,1.9,19.5,13.3,27.9,17.4c8.4,4,34.6,12.8,46.2,15.1c11.6,2.3,32,15.4,32.1,15.5"/>
<path fill="none" stroke="#FFFF00" stroke-width="0.4996" stroke-miterlimit="5.0355" d="M253.7,61.5c0,0,5.4-0.6,12,0
	c6.3,0.6,22.5,3.3,29.2,6.3c0,0,0,0,0,0l0.6,0.3c0,0,0.1,0,0.1,0l0.6,0.3c0,0,0,0,0,0c6.8,2.9,23.1,7.3,25.8,8.5
	c2.8,1.3,20.8,13.5,23.3,14.2c2.5,0.7,19.7,11.1,31.5,13.4c0,0,0,0,0,0l0.8,0.1c0,0,0.1,0,0.1,0l0.8,0.1c0,0,0,0,0,0
	c11.9,2.4,33.6,10,37.3,14.7"/>
<path fill="none" stroke="#800080" stroke-width="0.4996" stroke-miterlimit="5.0355" d="M163.8,106.3c2.7-2.1,14-16.1,18.4-19.8
	c0,0,0,0,0,0l0.4-0.3c0,0,0,0,0,0l0.5-0.3c0,0,0,0,0,0c4.4-2.8,18.1-6.4,21.8-7.3c0,0,0,0,0,0l0.5-0.1c0,0,0.1,0,0.1,0l0.5-0.1
	c0,0,0,0,0,0c3.8-1.1,18.1-5.9,22.5-6.8c4.7-0.9,11.6-2.5,17.6-2.5c6,0,18,4.7,30.8,5.9c12.8,1.3,26.1,9.4,26.1,9.6"/>
<path fill="none" stroke="#800080" stroke-width="0.4996" stroke-miterlimit="5.0355" d="M186.1,83.9c0,0,9-4.1,14.7-6
	c5.7-1.9,14.1-4.7,17-5.7c2.8-1,17.7-5,23.1-3.4c0.2,0.1,0.5,0,0.7,0.1"/>
<path fill="none" stroke="#FFFF00" stroke-width="0.4996" stroke-miterlimit="5.0355" d="M303.8,485.8c-1.9,0.4-14.9,3.3-18.3,3.5
	c-3.3,0.2-30.5-3.7-36.2-5.3c0,0,0,0,0,0l-0.3-0.1c0,0,0,0,0,0c0,0,0,0,0,0l-0.3-0.1c0,0,0,0,0,0c-4.7-1.4-8-0.7-13.8-1.8
	c-5.9-1.1-17.1-5.3-21.4-6.5c-4.3-1.3-18.1-5.3-24.8-6.5c-6.7-1.3-19.8-10.9-19.9-11"/>
<path fill="none" stroke="#FFFF00" stroke-width="0.4996" stroke-miterlimit="5.0355" d="M313.5,485.7c0,0-14.9,4.2-20.5,4.8
	c-5.7,0.6-17.6,0.6-23-0.4c-5.4-1-13.8,0.3-20.5-2.3c-6.7-2.5-24.5-4.2-29.8-6.3c-5.3-2.1-12.6-5-14.1-6c-1.5-1-5-3.5-7.2-4.2"/>
<path fill="none" stroke="#FFFF00" stroke-width="0.4996" stroke-miterlimit="5.0355" d="M295.1,490.3c-5.5,1.5-12,3.1-16.6,2.8
	c-4.7-0.4-17.6-2.3-25.2-2.3c-7.5,0-8.4-4.3-8.4-4.4"/>
<path fill="none" stroke="#FF0000" stroke-width="0.4996" stroke-miterlimit="5.0355" d="M233.2,281.8c0.3-0.2,1.9-0.8,2.5,0.7
	c0.6,1.6,1.3,2.4,0.4,3.9c-0.9,1.5,0.2,3-2,3.1c0,0,0,0,0,0l-0.1,0c0,0,0,0,0,0c0,0,0,0,0,0l-0.1,0c0,0,0,0,0,0
	c-2.2,0.1-2.6,0.7-3.5-1.3c-1-1.9-1.2-3.2-0.8-4.1c0,0,0,0,0,0l0-0.1c0,0,0,0,0,0c0,0,0,0,0,0l0.1-0.1c0,0,0,0,0,0
	c0.7-0.9,2.9-1.5,3.5-2.1c0,0,0,0,0,0L233.2,281.8C233.2,281.9,233.2,281.9,233.2,281.8C233.2,281.9,233.2,281.9,233.2,281.8
	C233.2,281.9,233.2,281.9,233.2,281.8L233.2,281.8C233.2,281.8,233.2,281.8,233.2,281.8"/>
<path fill="none" stroke="#FF0000" stroke-width="0.4996" stroke-miterlimit="5.0355" d="M229.4,292.2c-1.1-0.7-2.4-3.4-4.1-5.6
	c-1.7-2.2,0.4-6.6,2.3-10.7c0,0,0,0,0,0l0.1-0.2c0,0,0,0,0,0l0.1-0.2c0,0,0,0,0,0c1.9-4,4.4-2.2,7.8-2.8c3.4-0.6,4.8,1.5,6.1,3.2
	c0,0,0,0,0,0l0.1,0.1c0,0,0,0,0,0c0,0,0,0,0,0c0,0,0,0,0,0l0.1,0.1c0,0,0,0,0,0c1.1,1.9,2,6.7,1.3,9.7c0,0,0,0,0,0l0,0.2
	c0,0,0,0,0,0c0,0,0,0,0,0l-0.1,0.2c0,0,0,0,0,0c-1,2.9-3.9,4.2-6.1,5.7c-2,1.3-6.3,0.5-7.3,0.3c0,0,0,0,0,0l-0.2,0c0,0,0,0,0,0
	c0,0,0,0,0,0L229.4,292.2C229.4,292.2,229.4,292.2,229.4,292.2"/>
<path fill="none" stroke="#FF0000" stroke-width="0.4996" stroke-miterlimit="5.0355" d="M232.6,297.5c-1.6,0-4.3-1.4-6.5-2.2
	c0,0,0,0,0,0l-0.2-0.1c0,0,0,0,0,0l-0.2-0.1c0,0,0,0,0,0c-1.8-0.9-1.8-6.4-4-9.5c-2.3-3.1,1.4-9.9,3.1-12.1c1.7-2.1,5.2-3.9,8.6-5.1
	c0,0,0,0,0,0l0.2-0.1c0,0,0,0,0,0l0.2-0.1c0,0,0,0,0,0c3.3-0.8,6.8,1.5,10.2,3.2c3.5,1.8,3.7,5.2,4,8.9c0.4,3.8-3.3,11-5.7,13.8
	c-2.2,2.6-8.5,3.1-9.6,3.1c0,0,0,0,0,0l-0.2,0c0,0,0,0,0,0c0,0,0,0,0,0c0,0,0,0,0,0L232.6,297.5
	C232.6,297.5,232.6,297.5,232.6,297.5"/>
<path fill="none" stroke="#FF0000" stroke-width="0.4996" stroke-miterlimit="5.0355" d="M233.3,300.4c-2.4,0.3-2.8,0-4.9-1
	c0,0,0,0,0,0l-0.1,0c0,0,0,0,0,0c0,0,0,0,0,0l-0.1,0c0,0,0,0,0,0c-2.2-0.9-8.6-3.9-11.5-7.6c-2.9-3.8-2-7.4-2.8-14.1
	c-0.7-6.5,5.9-10.2,9.3-13.2c0,0,0,0,0,0l0.3-0.2c0,0,0,0,0,0l0.3-0.2c0,0,0,0,0,0c3.4-2.7,7.9-3.1,14.2-3.9
	c6.4-0.9,6.8,1.1,10.8,3.8c3.9,2.6,6.4,7.6,7.2,11.2c0,0,0,0,0,0l0.1,0.3c0,0,0,0,0,0c0,0,0,0,0,0l0,0.3c0,0,0,0,0,0
	c0.4,3.8-2,10.3-5.7,17c-3.6,6.5-15.5,7.6-16.9,7.7c0,0,0,0,0,0l-0.1,0c0,0,0,0,0,0c0,0,0,0,0,0L233.3,300.4
	C233.3,300.4,233.3,300.4,233.3,300.4"/>
<path fill="none" stroke="#FF0000" stroke-width="0.4996" stroke-miterlimit="5.0355" d="M239.7,306.6c-5.9,1.1-12.3-2.2-15.1-3.1
	c0,0,0,0,0,0l-0.2-0.1c0,0,0,0,0,0c0,0,0,0,0,0l-0.2-0.1c0,0,0,0,0,0c-2.7-0.9-7.1-3.1-8.7-5c-1.6-1.9-3.1-7.6-5.2-12.5
	c-2-4.8,0.4-7.1-0.2-10.9c0,0,0,0,0,0l0-0.2c0,0,0,0,0,0l0-0.2c0,0,0,0,0,0c-0.6-3.7,1-6.4,1.3-10.5c0,0,0,0,0,0l0-0.2c0,0,0,0,0,0
	c0,0,0,0,0,0l0-0.2c0,0,0,0,0,0c0.6-4.4,6.2-10.3,11-14.2c4.8-4,10.3-2.2,17.4-2.9c0,0,0,0,0,0l0.2,0c0,0,0,0,0,0c0,0,0,0,0,0l0.2,0
	c0,0,0,0,0,0c6.9-0.6,7.9,0.9,10.1,1.7c2.1,0.7,7.3,4,9.2,6.1c0,0,0,0,0,0l0.2,0.2c0,0,0,0,0,0l0.2,0.2c0,0,0,0,0,0
	c1.8,2.3,4.3,9.6,4.9,14c0,0,0,0,0,0l0,0.2c0,0,0,0,0,0c0,0,0,0,0,0l0,0.2c0,0,0,0,0,0c0.5,4.3,0.3,4,0.2,10.2
	c-0.1,6.3-8.7,17.4-11.7,21.8c-2.7,3.9-11.1,5.3-13,5.6c0,0,0,0,0,0l-0.3,0c0,0,0,0,0,0c0,0,0,0,0,0L239.7,306.6
	C239.7,306.6,239.7,306.6,239.7,306.6"/>
<path fill="none" stroke="#FF0000" stroke-width="0.4996" stroke-miterlimit="5.0355" d="M209.1,298c-1.2-2.2-2.1-7.9-2.6-12.4
	c0,0,0,0,0,0l0-0.3c0,0,0,0,0,0c0,0,0,0,0,0l0-0.3c0,0,0,0,0,0c-0.1-4.6,0.2-10-0.7-15.4c0,0,0,0,0,0l-0.1-0.3c0,0,0,0,0,0
	c0,0,0,0,0,0l-0.1-0.3c0,0,0,0,0,0c-0.9-5.4,0.4-8.7,2.6-13.8c0,0,0,0,0,0l0.1-0.3c0,0,0,0,0,0l0.1-0.3c0,0,0,0,0,0
	c2.4-5.2,6.2-7.4,10.9-10.4c4.8-3,8.8-2.8,13.5-3.7c4.6-0.9,10.8,0.3,15.4,0.6c0,0,0,0,0,0l0.3,0c0,0,0,0,0,0c0,0,0,0,0,0l0.3,0
	c0,0,0,0,0,0c4.5,0.3,8.9,1.7,11.5,3.3c0,0,0,0,0,0l0.2,0.1c0,0,0,0,0,0l0.2,0.1c0,0,0,0,0,0c2.5,1.7,4.9,5.7,6.3,8.8c0,0,0,0,0,0
	l0.1,0.2c0,0,0,0,0,0c0,0,0,0,0,0c0,0,0,0,0,0l0.1,0.2c0,0,0,0,0,0c1.4,3.4,3.9,11.1,4.7,15.1c0.8,4.2,1.1,4.5,0.9,9.8
	c-0.3,5.3-4.4,16-7.6,20.9c-3.1,4.8-9.1,7.4-15.1,11c0,0,0,0,0,0l-0.4,0.2c0,0,0,0,0,0l-0.4,0.2c0,0,0,0,0,0
	c-5.9,3.2-9,1.4-17.5,0.7c-8.7-0.8-9.1-4.4-13.8-5.4c-4.2-0.9-8.1-6.6-8.9-7.9c0,0,0,0,0,0l-0.1-0.2c0,0,0,0,0,0c0,0,0,0,0,0
	L209.1,298C209.1,298,209.1,298,209.1,298"/>
<path fill="none" stroke="#FF0000" stroke-width="0.4996" stroke-miterlimit="5.0355" d="M213.7,307.6c-2-1.7-4.8-5.1-7-9.6
	c0,0,0,0,0,0l-0.1-0.3c0,0,0,0,0,0l-0.1-0.3c0,0,0,0,0,0c-2.2-4.8-1.9-10-2.4-14.1c-0.5-4.2-1-6.8-1-11.6c0-4.8-1.4-9.7,0.6-16
	c2-6.2,4.3-8.8,9.6-12.5c0,0,0,0,0,0l0.3-0.2c0,0,0,0,0,0l0.3-0.2c0,0,0,0,0,0c5.4-3.6,8.1-4.5,15.5-6.1c7.6-1.6,16.2,0,23.9,1
	c7.7,1,9.2,3.1,14.5,8.4c5.2,5.2,4.1,6.2,5.7,10.4c0,0,0,0,0,0l0.1,0.3c0,0,0,0,0,0c0,0,0,0,0,0c0,0,0,0,0,0l0.1,0.3c0,0,0,0,0,0
	c1.8,4.4,2.9,10.9,2.9,16.2c0,5.4,0.9,15.1-1,19.8c-1.9,4.7-9.3,12.6-13.2,16.4s-11.7,5.7-17.6,7.7c-5.9,2-9.9-0.8-17-2.1
	c-6.3-1.2-12.4-6.1-13.6-7.1c0,0,0,0,0,0l-0.2-0.2c0,0,0,0,0,0c0,0,0,0,0,0L213.7,307.6C213.7,307.6,213.7,307.6,213.7,307.6"/>
<path fill="none" stroke="#FF0000" stroke-width="0.4996" stroke-miterlimit="5.0355" d="M208.2,303.6c-2.7-4-5-10.2-5.3-14.8
	c0,0,0,0,0,0l0-0.4c0,0,0,0,0,0l0-0.4c0,0,0,0,0,0c-0.2-4.7-2.4-13.3-2.8-18.5c-0.4-5.3-0.4-10.8,0.9-14.9c1.3-4,3.4-8.1,5.9-12.5
	s7.4-5.4,11.6-7.6c4.1-2.1,14.5-3.5,22.5-3.9c0,0,0,0,0,0l0.5,0c0,0,0.1,0,0.1,0l0.5,0c0,0,0,0,0,0c7.8-0.2,12.9,1.5,20.5,4.2
	c7.8,2.8,8.4,4.4,14.4,13.3c5.9,8.9,4.7,16,6.3,24c1.6,7.9,0.3,13.6-1.9,21.3c0,0,0,0,0,0l-0.1,0.4c0,0,0,0,0,0c0,0,0,0,0,0
	l-0.1,0.4c0,0,0,0,0,0c-2.4,7.5-8,10.8-11.2,14.2c-3.2,3.3-12.1,9.2-17,10.7c0,0,0,0,0,0l-0.4,0.1c0,0,0,0,0,0l-0.4,0.1c0,0,0,0,0,0
	c-4.7,1.2-9.8-0.3-18.9-0.8c-9.4-0.5-11.1-2.5-15.4-4.7c-3.8-1.9-8.1-8.5-9-10c0,0,0,0,0,0l-0.2-0.3c0,0,0,0,0,0L208.2,303.6
	C208.2,303.6,208.2,303.6,208.2,303.6"/>
<path fill="none" stroke="#FF0000" stroke-width="0.4996" stroke-miterlimit="5.0355" d="M262.1,231.1c4.6,1.4,4.7,1.8,7.5,3.6
	c0,0,0,0,0,0l0.2,0.1c0,0,0,0,0,0l0.2,0.1c0,0,0,0,0,0c3.2,2.5,13.2,14.7,17.1,22.2c3.9,7.6,8.4,22.8,7.3,32.5
	c-1.1,9.5-5.5,11.6-12.1,19.8c0,0,0,0,0,0l-0.3,0.4c0,0,0,0,0,0l-0.3,0.4c0,0,0,0,0,0c-6.5,8.1-12.7,8.7-26.9,13.9
	c-14.5,5.3-13.2,0.9-25.1-0.1c-11.8-1-12-4.9-19.4-9.7c-7.4-4.8-15.4-17.5-18.1-25.2s-1.4-10.8-1.3-16.6c0.1-5.8,1.6-15.9,5.5-24.9
	c3.9-9.1,5.5-7.3,13-11.7c7.4-4.4,16.5-5.2,23.9-8.1c7-2.7,26.3,2.5,28.5,3.1c0,0,0,0,0,0l0.2,0.1c0,0,0,0,0,0L262.1,231.1
	C262.1,231.1,262.1,231.1,262.1,231.1"/>
<path fill="none" stroke="#FF0000" stroke-width="0.4996" stroke-miterlimit="5.0355" d="M281,230.3c1.8,2.1,14.3,17.3,17.1,22.8
	c0,0,0,0,0,0l0.3,0.6c0,0,0,0.1,0,0.1l0.2,0.6c0,0,0,0,0,0c2.2,6.5,6.6,30.5,4.1,35.8c-2.5,5.5-9.4,20.4-17,25.2
	c-7.4,4.7-17.6,8.8-30.6,11.7c0,0,0,0,0,0l-0.7,0.2c0,0-0.1,0-0.1,0l-0.7,0.2c0,0,0,0,0,0c-13,2.8-23.5,1.5-30.3-1.3
	c-6.9-2.9-15.1-9.6-19.3-13.3c-4-3.7-12.5-15.9-14.5-22.3c0,0,0,0,0,0l-0.1-0.5c0,0,0,0,0,0l-0.1-0.5c0,0,0,0,0,0
	c-1.6-5.9-3.2-11.5-1.6-20.4c1.6-9.2-0.6-21.5,8.4-32.2s13.7-16.1,21.8-16.5c8.1-0.4,9.7-1.5,15.1-2.6c5.4-1.1,9.6-2.1,14.4-1.6
	c4.7,0.5,18.2,4,22.5,6.1c0,0,0,0,0,0l0.3,0.1c0,0,0,0,0,0l0.2,0.2c0,0,0,0,0,0c3.5,2.2,7,5.1,10,7.3c0,0,0,0,0,0l0.2,0.2
	c0,0,0,0,0,0c0,0,0,0,0,0L281,230.3C280.9,230.3,280.9,230.3,281,230.3"/>
<path fill="none" stroke="#FF0000" stroke-width="0.4996" stroke-miterlimit="5.0355" d="M221.9,334.6c-14.6-4.1-34-17.2-39.8-26.9
	c0,0,0,0,0,0l-0.4-0.7c0,0,0-0.1,0-0.1l-0.4-0.8c0,0,0,0,0,0c-5.1-10.7-4.7-36.7-2.3-44c2.4-7.4,7.4-26.9,13.1-34.7
	c5.1-7.1,22.8-16,26-17.6c0,0,0,0,0,0l0.5-0.2c0,0,0.1,0,0.1,0l0.5-0.2c0,0,0,0,0,0c2.8-1.2,16-6.6,21.9-5.9
	c6.5,0.8,18,0.8,25.4,4.2c7.4,3.4,22,9.3,28.6,13.1c6.5,3.8,20.1,14.1,24,20.9c3.8,6.6,5.3,14.3,6,22.3c0,0,0,0,0,0l0,0.5
	c0,0,0,0.1,0,0.1l0,0.5c0,0,0,0,0,0c0.6,9.1,1.5,16.7-3.4,25.2c-5,8.7-10.6,17.2-14.7,22.2c-4.2,4.9-4,7.7-14.4,12.6
	c-10.3,4.9-16.1,9.1-31.1,12.7c-14.6,3.6-26.4,0.3-37.7-2.5c0,0,0,0,0,0l-0.8-0.2c0,0-0.1,0-0.1,0L221.9,334.6
	C221.9,334.6,222,334.6,221.9,334.6"/>
<path fill="none" stroke="#FF0000" stroke-width="0.4996" stroke-miterlimit="5.0355" d="M155.1,259c1.8-18.5,15.3-40.9,21.6-47.1
	c0,0,0,0,0,0l0.5-0.5c0,0,0.1-0.1,0.1-0.1l0.6-0.5c0,0,0,0,0,0c6.3-5.3,19.5-13.5,27.2-16.2c0,0,0,0,0,0l0.7-0.2c0,0,0.1,0,0.1,0
	l0.7-0.2c0,0,0,0,0,0c7.8-2.6,20.9-7.1,35.5-9.6c15.1-2.5,47,9.6,59.5,15.1s23.9,12.6,34.4,21c10.2,8.3,15.2,23.2,21.6,37.8
	c0,0,0,0,0,0l0.3,0.8c0,0,0,0.1,0,0.1l0.3,0.8c0,0,0,0,0,0c6.1,14.8-3.1,36.4-5.2,41.7c-2.1,5.4-18.9,32.2-39.7,45.7
	c-20.8,13.5-57.8,17-75.2,17.6c-17.4,0.6-24-4.7-45.7-12.8c-21.2-8-31.4-41.8-35.6-55.4c0,0,0,0,0,0l-0.2-0.8c0,0,0-0.1,0-0.1
	l-0.2-0.8c0,0,0,0,0,0c-3.2-11.6-2-30.1-1.7-34.4c0,0,0,0,0,0l0.1-0.8c0,0,0-0.1,0-0.1L155.1,259C155.1,259,155.1,259,155.1,259"/>
<path fill="none" stroke="#FF0000" stroke-width="0.4996" stroke-miterlimit="5.0355" d="M185.8,214c3.4-2.6,19.6-14.5,34.1-16.4
	c0,0,0,0,0,0l0.8-0.1c0,0,0.1,0,0.1,0l0.8-0.1c0,0,0,0,0,0c15.6-1.6,29.1-4.4,37.5-3.4c0,0,0,0,0,0l0.8,0.1c0,0,0.1,0,0.1,0l0.8,0.2
	c0,0,0,0,0,0c9.3,1.9,33.4,9.8,43.1,14.7c10.1,5,29,16.7,31.5,23.9c2.5,7.1,20.8,23.6,16,41.6c0,0,0,0,0,0l-0.2,0.8c0,0,0,0.1,0,0.1
	l-0.3,0.8c0,0,0,0,0,0c-5.8,18.2-17.5,34.9-24,42.9c-6.5,8-13.1,20.5-24.9,23.9c0,0,0,0,0,0l-0.8,0.2c0,0-0.1,0-0.1,0l-0.8,0.2
	c0,0,0,0,0,0c-12.6,3-35.6,8.9-51,8.9c-15.4,0-43.9-0.4-55.6-10.1c0,0,0,0,0,0l-0.6-0.6c0,0-0.1-0.1-0.1-0.1l-0.6-0.6c0,0,0,0,0,0
	c-11-10.6-26-33.9-26.8-46.6c-0.7-12.7-3.6-41.8,0.1-53c0,0,0,0,0,0l0.3-0.7c0,0,0-0.1,0-0.1l0.3-0.7c0,0,0,0,0,0
	c4.4-9.7,13.6-20.7,18.1-25c0,0,0,0,0,0l0.5-0.5c0,0,0.1,0,0.1,0L185.8,214C185.8,214,185.8,214.1,185.8,214"/>
<path fill="none" stroke="#FF0000" stroke-width="0.4996" stroke-miterlimit="5.0355" d="M256.8,210.8c4.3,1.4,35.5,12,42.6,31.1
	c7.6,20.5,12.3,31.8,10.4,39.3c-1.8,7.2-9.6,22.1-12.6,28.6c0,0,0,0,0,0l-0.2,0.5c0,0,0,0.1,0,0.1l-0.3,0.5c0,0,0,0,0,0
	c-3.2,5.7-13.4,9.6-21.1,13.6c-7.9,4.2-12.3,8.2-27.7,7.8c-14.9-0.4-31-5.1-38.7-10.4c0,0,0,0,0,0l-0.7-0.5c0,0-0.1-0.1-0.1-0.1
	l-0.6-0.5c0,0,0,0,0,0c-7.3-5.8-18.6-19.3-20.7-28c-2.1-8.8-2.9-32.1,0.1-42.6c0,0,0,0,0,0l0.2-0.7c0,0,0-0.1,0-0.1l0.2-0.7
	c0,0,0,0,0,0c3.6-9.9,12.5-22.2,18-26.3c5.7-4.2,21.7-10.3,29.6-11.1c7.6-0.7,15.6-1.2,20.5-0.7c0,0,0,0,0,0l0.5,0.1c0,0,0,0,0,0
	L256.8,210.8C256.8,210.8,256.8,210.8,256.8,210.8"/>
<path fill="none" stroke="#FF0000" stroke-width="0.4996" stroke-miterlimit="5.0355" d="M193.4,328.2c-4.1-3.5-15.3-21.6-19.4-31
	c0,0,0,0,0,0l-0.3-0.8c0,0,0-0.1,0-0.1l-0.3-0.8c0,0,0,0,0,0c-3.5-10.3-1-30.5,1-40.3c2-10.1,8.2-24.5,13.6-31.1
	c5.4-6.5,32.7-20.1,46.3-24.2c13.6-4,15.4,1.9,30.2,4.4c14.1,2.4,31.8,13.3,37.6,17.1c0,0,0,0,0,0l0.7,0.5c0,0,0.1,0.1,0.1,0.1
	l0.7,0.5c0,0,0,0,0,0c5.6,4.3,19.8,21.2,23.4,28.2c3.6,7,2.4,28.5-0.3,36.6c0,0,0,0,0,0l-0.3,0.8c0,0,0,0.1,0,0.1L326,289
	c0,0,0,0,0,0c-3.8,8.2-19.5,29.3-23.8,33.4c-4.3,4.2-16.6,16.3-28.1,21.3c0,0,0,0,0,0l-0.8,0.3c0,0-0.1,0-0.1,0l-0.8,0.3
	c0,0,0,0,0,0c-11.9,4.3-32,1.7-52.3,0.7c-18-0.9-24.4-12.5-25.8-15.6c0,0,0,0,0,0l-0.3-0.7c0,0,0-0.1,0-0.1L193.4,328.2
	C193.4,328.2,193.4,328.3,193.4,328.2"/>
<path fill="none" stroke="#FF0000" stroke-width="0.4996" stroke-miterlimit="5.0355" d="M259.8,181.5c4.2,1.2,38.3,10.8,43.9,13.7
	c5.9,3.1,22.3,12.3,26.7,14.9c4.4,2.5,16.4,17.6,19.8,21.8c3.4,4.2,13,19.9,13.6,27.3c0.6,7.2,5,21.4,1.9,29.2c0,0,0,0,0,0l-0.3,0.6
	c0,0,0,0.1,0,0.1l-0.3,0.6c0,0,0,0,0,0c-3.4,7.4-8.6,19.7-12.7,24.8c0,0,0,0,0,0l-0.4,0.5c0,0,0,0.1,0,0.1l-0.4,0.5c0,0,0,0,0,0
	c-4.5,5.2-15.7,17.7-21.2,23.8c-5.7,6.3-17,14.2-25.2,17.2c-8.2,3-35.2,8.4-42.5,9.7c-7.3,1.3-29.6,1.3-40.7,0.9
	c-11.1-0.4-33.4-8.8-39-13.8c-5.7-5-16.6-11.7-17.4-19.5c-0.7-7.4-14.2-26.2-15.3-33.3c0,0,0,0,0,0l-0.1-0.8c0,0,0-0.1,0-0.1l0-0.9
	c0,0,0,0,0,0c0-7.6-2.1-34.1-0.4-42.5c1.8-8.8,2.8-26.8,8.6-32.7c5.8-5.9,26.4-25.4,28.6-26.7s21.4-11.1,26.7-12
	c5-0.8,23.9-4.9,27.6-5.6c0,0,0,0,0,0l0.4-0.1c0,0,0,0,0,0c0,0,0,0,0,0l0.4,0c0,0,0,0,0,0c2.9-0.1,12.9,2.1,16.9,2.3c0,0,0,0,0,0
	l0.4,0c0,0,0,0,0,0L259.8,181.5C259.8,181.5,259.8,181.5,259.8,181.5"/>
<path fill="none" stroke="#FF0000" stroke-width="0.4996" stroke-miterlimit="5.0355" d="M248.3,151.6c1.7,0.5,8.8,2.3,14.5,3.6
	c6.5,1.4,26.7,7.3,30.3,10.2c3.7,2.9,20.8,9.9,30.7,13.6s44.6,16.9,48.6,21.1c3.9,4.1,15.2,10.9,18.4,14.1c0,0,0,0,0,0l0.4,0.4
	c0,0,0,0,0,0l0.3,0.4c0,0,0,0,0,0c3,3.5,11.5,14,11.8,18.3c0.4,4.4,13.1,28.3,8.8,40.6c0,0,0,0,0,0l-0.3,0.7c0,0,0,0.1,0,0.1
	l0.1,0.7c0,0,0,0,0,0c0.2,3.6,0.7,18.6-8,28.9c-9.9,11.8-48.8,54.1-56.4,59.8c-7.6,5.7-24,15.9-30.1,15.9s-49.5,2.6-60,7.3
	c-10.6,4.7-40.3,5.7-47.6,5.7c-7.3,0-38-15.9-43.3-23.4c-5.3-7.6-32.7-53.1-34-61.1c-1.2-7.8,0.5-42,0.4-56.5c0,0,0,0,0,0l0-0.9
	c0,0,0-0.1,0-0.1l0-0.9c0,0,0,0,0,0c0.2-13.9,11.6-35.4,13.6-38.3c1.9-2.9,38.4-31.3,45.8-36.7c0,0,0,0,0,0l0.7-0.5
	c0,0,0.1-0.1,0.1-0.1l0.7-0.5c0,0,0,0,0,0c7.2-5,42.8-24.9,53.6-22.6c0,0,0,0,0,0l0.3,0.1c0,0,0,0,0,0L248.3,151.6
	C248.3,151.6,248.2,151.6,248.3,151.6"/>
<path fill="none" stroke="#FF0000" stroke-width="0.4996" stroke-miterlimit="5.0355" d="M273.9,164.2c3.9,1.7,22.1,9.7,28.6,11.8
	c0,0,0,0,0,0l0.7,0.2c0,0,0.1,0,0.1,0l0.7,0.2c0,0,0,0,0,0c8.2,2.6,45.1,18.3,52.7,22.8c0,0,0,0,0,0l0.6,0.4c0,0,0.1,0,0.1,0
	l0.6,0.4c0,0,0,0,0,0c6.4,3.8,20.1,7.7,25.5,15.6c5.7,8.2,22.3,29.7,19.9,44.3c-2.4,14.6,3.1,13.5-0.8,26.2
	c-3.9,12.7-14.2,22.7-19.9,30.5c-5.6,7.7-30.9,34.1-38.5,40.7c0,0,0,0,0,0l-0.4,0.3c0,0,0,0,0,0c0,0,0,0,0,0l-0.4,0.3c0,0,0,0,0,0
	c-6.8,5.9-10.7,10.6-17.3,12.7c-6.6,2.1-43,4.8-54.7,8.5c0,0,0,0,0,0l-0.8,0.3c0,0-0.1,0-0.1,0l-0.8,0.3c0,0,0,0,0,0
	c-11,3.9-34.2,10-46.2,9.2c-12.2-0.7-32.4-5.2-42.7-14.5c0,0,0,0,0,0l-0.4-0.4c0,0,0,0,0,0l-0.4-0.4c0,0,0,0,0,0
	c-9.9-9.2-10.6-10-15.8-16.6c-5.3-6.7-24-38.9-26.9-50.6c-2.9-11.7-2.5-47.5,0-55.6c2.5-8.2,12.1-40.4,17-43.9
	c4.7-3.4,43.6-33,52.6-36.8c0,0,0,0,0,0l0.8-0.3c0,0,0.1,0,0.1,0l0.8-0.3c0,0,0,0,0,0c7.9-2.7,28.8-13.2,33.1-13.2
	c4.3,0,25.5,5.6,30.8,7.2c0,0,0,0,0,0l0.7,0.2c0,0,0.1,0,0.1,0L273.9,164.2C273.9,164.2,273.9,164.2,273.9,164.2"/>
<path fill="none" stroke="#FF0000" stroke-width="0.4996" stroke-miterlimit="5.0355" d="M376.7,219.6c2.3,1.9,13.7,12.3,15.7,30.8
	c2.3,20.6,6.8,32.5,0.3,41.8c-6.5,9.3-20.3,29.6-23.9,33.9s-17.2,22-24.5,27.7c-7.3,5.7-15,12.1-23.4,13c-8.2,0.9-30.1,4.1-40.1,6
	c0,0,0,0,0,0l-0.7,0.1c0,0-0.1,0-0.1,0l-0.7,0.2c0,0,0,0,0,0c-9.2,2.2-16.2,9.1-29.7,9.4c-13.8,0.3-23.4,3.4-33.2,2
	s-23.4-7.3-29.6-11c-6.2-3.7-27.1-28.8-30-34.7c-2.9-5.9-15.9-28.5-16.1-33c-0.3-4.5-0.9-45.2,0-50.7c0.9-5.5,7.9-31.6,11.8-37.3
	c3.9-5.7,30.7-26.6,36.4-30c5.7-3.4,25.4-16.4,35.5-19.5c9.8-3.1,16.9-8.2,27-5.6c0,0,0,0,0,0l0.6,0.2c0,0,0.1,0,0.1,0l0.6,0.2
	c0,0,0,0,0,0c10,3.1,22.5,8.6,32.1,11.2c0,0,0,0,0,0l0.8,0.2c0,0,0.1,0,0.1,0l0.8,0.2c0,0,0,0,0,0c10.3,2.9,34.4,12.9,42.6,17
	c8.4,4.3,23.7,13.2,29.6,15.7c5.8,2.5,9.9,8.4,17.3,11.6c0,0,0,0,0,0l0.4,0.2c0,0,0,0,0,0L376.7,219.6
	C376.7,219.6,376.7,219.6,376.7,219.6"/>
<path fill="none" stroke="#FF0000" stroke-width="0.4996" stroke-miterlimit="5.0355" d="M356.8,210.9c3.2,2.4,20.5,15.2,24.3,20.8
	c4.2,6.2,13.8,25.1,11.6,32.5c-2.3,7.4,1.4,13.2-1.1,19.1c-2.4,5.6-13.4,23.3-16.2,28.3c0,0,0,0,0,0l-0.4,0.7c0,0,0,0.1,0,0.1
	l-0.4,0.6c0,0,0,0,0,0c-3.6,5.4-22.7,27.7-26.1,32.5c-3.7,5-9.3,10.4-17.5,13.6c-8.2,3.1-27.4,8.4-39.5,9.1
	c-12.1,0.6-27.3,8.2-32.4,9.3c-4.9,1.1-37,4.1-46.7,2.7c0,0,0,0,0,0l-0.7-0.1c0,0-0.1,0-0.1,0l-0.7-0.2c0,0,0,0,0,0
	c-8.6-1.9-23-8.7-28.3-13.9c-5.4-5.4-20.9-22.5-23.2-27.7c-2.2-5-13.5-26.6-15.7-35.2c0,0,0,0,0,0l-0.2-0.8c0,0,0-0.1,0-0.1
	l-0.1-0.8c0,0,0,0,0,0c-1.2-9.3-1.1-42.5,1.5-51.8c0,0,0,0,0,0l0.3-0.8c0,0,0-0.1,0-0.1l0.3-0.8c0,0,0,0,0,0
	c2.9-8.3,5.6-25.5,11.8-32.1c0,0,0,0,0,0l0.6-0.6c0,0,0.1-0.1,0.1-0.1l0.6-0.5c0,0,0,0,0,0c7.5-6.6,32.7-26.2,41.1-30.4c0,0,0,0,0,0
	l0.7-0.3c0,0,0.1,0,0.1,0l0.7-0.3c0,0,0,0,0,0c8.1-3.6,22.4-11.4,28.6-14.4c6.4-3.1,14.4-7,18-5.4c3.7,1.6,16.9,6.5,23.9,9.3
	c6.9,2.7,52.5,20,61,24c0,0,0,0,0,0l0.5,0.3c0,0,0.1,0,0.1,0l0.5,0.3c0,0,0,0,0,0c6.6,3.6,17.2,10.4,22,12.9c0,0,0,0,0,0l0.5,0.3
	c0,0,0.1,0,0.1,0L356.8,210.9C356.8,210.9,356.8,210.9,356.8,210.9"/>
<path fill="none" stroke="#FF0000" stroke-width="0.4996" stroke-miterlimit="5.0355" d="M173.9,183.5c5.6-4,40.2-29,50.8-32.9
	c0,0,0,0,0,0l0.5-0.2c0,0,0,0,0,0l0.5-0.2c0,0,0,0,0,0c10.6-3.4,16.9-6,20.4-4.9c3.5,1.1,41.9,13.6,44.6,13.8
	c2.6,0.3,24.2,11.5,27.7,13.2c3.5,1.8,28.6,13.2,35.1,14.5c6.5,1.3,22.2,10.1,28.3,13.8c6.2,3.8,15.6,10.6,20.6,23.3
	c5,12.7,13.2,20,13.6,31c0.4,10.6,1.9,36.2-3.3,45.8c0,0,0,0,0,0l-0.4,0.7c0,0,0,0.1,0,0.1l-0.5,0.7c0,0,0,0,0,0
	c-6.7,9.4-31.6,36.2-38.4,45.7c0,0,0,0,0,0l-0.5,0.7c0,0-0.1,0.1-0.1,0.1l-0.5,0.7c0,0,0,0,0,0c-6.4,8.8-19.2,20.7-27.8,26
	c-8.6,5.4-23.7,8.2-36.4,8.8c0,0,0,0,0,0l-0.9,0c0,0-0.1,0-0.1,0l-0.9,0c0,0,0,0,0,0c-13.1,0.7-41.9,4.3-54.2,8.8c0,0,0,0,0,0
	l-0.8,0.3c0,0-0.1,0-0.1,0l-0.8,0.3c0,0,0,0,0,0c-12.3,4.2-33.5,1.4-41.3,1.4c-7.9,0-23.9-8.6-37.1-17.1
	c-13.2-8.6-27.9-31.8-33-45.4c-4.9-13.2-10-17.4-10.5-24.1c0,0,0,0,0,0l0-0.6c0,0,0-0.1,0-0.1l0-0.6c0,0,0,0,0,0
	c-0.2-7.9,1.2-33.4,1.2-40.9c0-7.5,2.7-39.4,9.1-48.5c0,0,0,0,0,0l0.5-0.7c0,0,0.1-0.1,0.1-0.1l0.5-0.7c0,0,0,0,0,0
	c6.9-8.1,22.6-25.6,32.7-32c0,0,0,0,0,0l0.7-0.4c0,0,0.1,0,0.1,0L173.9,183.5C173.9,183.5,173.9,183.5,173.9,183.5"/>
<path fill="none" stroke="#FF0000" stroke-width="0.4996" stroke-miterlimit="5.0355" d="M253.8,141.5c5.8,1.8,37.9,12,42.8,14.2
	c5.3,2.3,31.3,15.1,40,19.2c0,0,0,0,0,0l0.6,0.3c0,0,0.1,0,0.1,0l0.6,0.3c0,0,0,0,0,0c7.5,3.2,12.5,3.4,27.3,10.7
	c14.9,7.2,36.1,20.6,42.4,31.3c0,0,0,0,0,0l0.4,0.7c0,0,0,0.1,0,0.1l0.4,0.7c0,0,0,0,0,0c5.7,10.9,16.9,25,14.9,31.9
	c-2,7,3.8,23.9-0.6,34.2c-4.4,10.3-16.5,34.2-20.9,39.5c-4.4,5.3-25.3,25.9-31.2,32.5c-5.9,6.5-23.9,24.4-31.6,26.2
	s-30.1,2-43.1,4.4c-12.7,2.3-32.8,8.1-48.5,10.4c0,0,0,0,0,0l-0.8,0.1c0,0-0.1,0-0.1,0l-0.8,0.1c0,0,0,0,0,0
	c-15.3,2.3-23.5,3.6-38.6,0.7c-14.9-2.8-41.2-22.7-50.5-29.2c0,0,0,0,0,0l-0.7-0.5c0,0-0.1-0.1-0.1-0.1l-0.7-0.5c0,0,0,0,0,0
	c-8.6-6.9-22.3-33.3-24-42.7c-1.8-9.7-10.3-12.3-6.2-45.7c4.2-33.4,2.6-49.9,7.7-60.2c4.9-10.1,16.1-24.1,25.8-31.3c0,0,0,0,0,0
	l0.7-0.5c0,0,0.1-0.1,0.1-0.1l0.7-0.5c0,0,0,0,0,0c10.1-7.4,38.2-28.2,47.3-32.4c0,0,0,0,0,0l0.8-0.3c0,0,0.1,0,0.1,0l0.8-0.3
	c0,0,0,0,0,0c8.6-3.9,29.3-16.4,43.2-13.8c0,0,0,0,0,0l0.8,0.2c0,0,0.1,0,0.1,0L253.8,141.5C253.8,141.5,253.8,141.5,253.8,141.5"/>
<path fill="none" stroke="#FF0000" stroke-width="0.4996" stroke-miterlimit="5.0355" d="M390.8,194.8c2.3,1.8,11.7,9.1,19.4,17.7
	c0,0,0,0,0,0l0.4,0.5c0,0,0,0,0,0l0.4,0.5c0,0,0,0,0,0c8.6,10.1,16,27.3,16.3,34.6c0.2,7.2,1.4,30.9-0.4,38.4c0,0,0,0,0,0l-0.2,0.7
	c0,0,0,0.1,0,0.1l-0.2,0.7c0,0,0,0,0,0c-2,6.7-5.3,17.9-12.7,28.1c-7.7,10.6-32.5,42.2-36,44.6c-3.4,2.3-18.6,19.6-28.6,23.6
	c0,0,0,0,0,0l-0.8,0.3c0,0-0.1,0-0.1,0l-0.8,0.3c0,0,0,0,0,0c-9.6,3.1-17,5.6-34.5,5.9c-17.7,0.2-26.5,1.5-41.9,4.8c0,0,0,0,0,0
	l-0.8,0.2c0,0-0.1,0-0.1,0l-0.8,0.2c0,0,0,0,0,0c-14.9,3.4-24.8,8-32.6,8.1c0,0,0,0,0,0l-0.7,0c0,0-0.1,0-0.1,0l-0.7,0c0,0,0,0,0,0
	c-7.9-0.1-18.5,1.7-31.7-1.1c-13.3-2.8-17.4-5.4-26-12.2c0,0,0,0,0,0l-0.5-0.4c0,0-0.1,0-0.1,0l-0.5-0.4c0,0,0,0,0,0
	c-8.6-6.7-21.2-13-27.2-21.5c0,0,0,0,0,0l-0.5-0.7c0,0,0-0.1,0-0.1l-0.4-0.7c0,0,0,0,0,0c-6.2-9.9-20-37.3-23.9-47
	c-4-9.9-2.4-29.5-2.4-37.8s1.5-51.6,9.4-65.7c7.9-14.1,28.3-33.4,40.7-41.3c12.3-7.9,46.6-30.3,56-32.7c9.3-2.3,15.1-3.2,28.1-2.7
	c0,0,0,0,0,0l0.7,0c0,0,0.1,0,0.1,0l0.7,0c0,0,0,0,0,0c14,1.1,45.1,15,52,20c6.8,4.8,31.1,12.1,39.2,15.3c0,0,0,0,0,0l0.8,0.3
	c0,0,0.1,0,0.1,0l0.8,0.3c0,0,0,0,0,0c8.3,3.3,31.3,15.9,39.3,18.5c0,0,0,0,0,0l0.6,0.2c0,0,0,0,0,0c0,0,0.1,0,0.1,0L390.8,194.8
	C390.8,194.8,390.8,194.8,390.8,194.8"/>
<path fill="none" stroke="#FF0000" stroke-width="0.4996" stroke-miterlimit="5.0355" d="M324.6,160.2c5.5,1.9,34.4,12,41.9,14.7
	c8.3,2.9,35.4,13,42.8,20c7.4,7,16.2,13,19.5,20.6c3.3,7.7,12.3,38,11.2,53.4c-1.1,15.4-3.8,27.9-9.2,38.3
	c-5.4,10.3-20.6,32.1-26.6,39.2c-5.9,7-12.7,22.4-24.2,28.6c-11.5,6.2-15,13-26.2,15.6c-11.2,2.6-20.9,5.7-31,5.9
	c-10.1,0.3-28.3-2.6-41.3,0.6c-13,3.3-23.9,9.2-35.4,9.4c-11.1,0.2-28.3,1.3-37.1,0.1c0,0,0,0,0,0l-0.8-0.1c0,0-0.1,0-0.1,0
	l-0.8-0.1c0,0,0,0,0,0c-19.4-3.2-22.4-7.7-30.7-13.3c0,0,0,0,0,0l-0.5-0.3c0,0-0.1,0-0.1,0l-0.5-0.3c0,0,0,0,0,0
	c-9.2-6.1-12.6-7.7-20.7-15c-8.3-7.4-30.3-43.3-33.4-53.4c-3-10.1-9.2-13.2-9.2-19.5s2.9-11.2,3.8-23.3c0.9-12.1,5.5-34.2,7.9-49
	c2.3-14.3,11.5-33.4,19.9-40.3c0,0,0,0,0,0l0.7-0.5c0,0,0.1-0.1,0.1-0.1l0.7-0.5c0,0,0,0,0,0c8.6-6.5,27.6-20.7,33.6-24.6
	c0,0,0,0,0,0l0.7-0.5c0,0,0.1,0,0.1,0l0.7-0.4c0,0,0,0,0,0c6.1-3.7,24.5-16.3,34.6-21.9c10.6-5.9,20-9.7,28.6-9.7
	c8.2,0,23.1,3.8,29.3,5.1c0,0,0,0,0,0l0.7,0.1c0,0,0.1,0,0.1,0l0.7,0.2c0,0,0,0,0,0c7.3,2.3,39.7,17.6,48.2,20.6c0,0,0,0,0,0
	l0.8,0.3c0,0,0.1,0,0.1,0L324.6,160.2C324.6,160.2,324.5,160.2,324.6,160.2"/>
<path fill="none" stroke="#FF0000" stroke-width="0.4996" stroke-miterlimit="5.0355" d="M116.5,238.8c1.9-6.3,13.1-43.1,17.1-46.6
	c4.3-3.6,34.1-23.6,41.3-30.5c0,0,0,0,0,0l0.6-0.6c0,0,0.1-0.1,0.1-0.1l0.6-0.6c0,0,0,0,0,0c6-6.3,21.3-16.9,32.1-21.7
	c10.8-4.9,22.3-14.7,31-13.4c0,0,0,0,0,0l0.8,0.2c0,0,0.1,0,0.1,0l0.8,0.2c0,0,0,0,0,0c9.7,2.2,37.3,8.4,41.3,9.2
	c4.2,0.9,23.3,9.7,29.7,12.7c6.4,3,22.7,13.8,30.1,14.5c7.4,0.6,28.3,11.8,33.4,12.7c5,0.9,16.5,8.8,24.2,10.3
	c7.7,1.5,17.7,11.2,22.2,16.2c4.4,5,17.4,22.2,17.4,28.3c0,6.2,6.5,42.4,5,47.7c-1.5,5.3-3.8,20.9-6.2,25.9
	c-2.3,4.9-7.5,17.9-9.8,23.6c0,0,0,0,0,0l-0.2,0.5c0,0,0,0.1,0,0.1l-0.2,0.5c0,0,0,0,0,0c-2.4,5.6-10.5,16.9-15.1,21.2
	c-4.8,4.4-21.5,18-24.8,25.7c-3.3,7.7-18.3,13.2-23.5,18.3c-5.3,5-13,6.8-25.3,7.7c-12.1,0.9-29.8-1.7-42.2-0.1c0,0,0,0,0,0
	l-0.5,0.1c0,0-0.1,0-0.1,0l-0.5,0.1c0,0,0,0,0,0c-11.6,1.6-12.8,1.1-23.1,3.1c0,0,0,0,0,0l-0.4,0.1c0,0,0,0,0,0l-0.4,0.1
	c0,0,0,0,0,0c-10.5,2-10.2,4.6-17.8,4.6c-7.7,0-11.8,0.3-24.8,0.9c-13,0.6-35.6-2.4-43.3-7c-7.7-4.7-30.1-18.9-34.5-24.8
	s-24.8-36.5-29.7-44.8c-4.8-8.1-16.6-21.3-15.2-31.2c0,0,0,0,0,0l0.2-0.8c0,0,0-0.1,0-0.1l0.2-0.8c0,0,0,0,0,0
	c2.2-11.2,7.9-50.6,9.5-59.4c0,0,0,0,0,0l0.2-0.8c0,0,0-0.1,0-0.1L116.5,238.8C116.5,238.8,116.5,238.8,116.5,238.8"/>
<path fill="none" stroke="#FF0000" stroke-width="0.4996" stroke-miterlimit="5.0355" d="M111.6,240.3c1.1-6.9,8.7-50,22.5-62.4
	c15-13.5,18.6-19.5,23.9-24.8c5.1-5.1,18.1-18.4,23.3-22.8c0,0,0,0,0,0l0.5-0.4c0,0,0.1,0,0.1,0l0.5-0.4c0,0,0,0,0,0
	c5.2-4.1,19.4-14.1,25.1-16c5.8-2,26.3-9.3,33.9-7.6c0,0,0,0,0,0l0.5,0.1c0,0,0,0,0,0c0,0,0.1,0,0.1,0l0.5,0.2c0,0,0,0,0,0
	c6.7,2.2,11.2,2.5,23,5.1c12.1,2.6,32.1,13.6,33.9,13.6c1.8,0,10.6,5.9,16.5,9.2c5.8,3.2,22.3,14.3,31.9,18.3c0,0,0,0,0,0l0.7,0.3
	c0,0,0.1,0,0.1,0l0.7,0.3c0,0,0,0,0,0c9.2,3.3,23.2,7.2,30.6,11.1c0,0,0,0,0,0l0.7,0.4c0,0,0.1,0,0.1,0l0.7,0.4c0,0,0,0,0,0
	c7.4,4.3,18.5,12.4,28.5,16.7c10,4.3,19.2,8.5,25.6,13.4c0,0,0,0,0,0l0.5,0.4c0,0,0.1,0,0.1,0l0.5,0.4c0,0,0,0,0,0
	c6.6,5.1,17.8,14.5,20.9,21.7c3.3,7.4,17.6,41.9,17.6,46.6c0,4.7,0,7.9-0.3,11.5c-0.2,3.3-5,17.5-6.6,21.3c0,0,0,0,0,0l-0.2,0.5
	c0,0,0,0,0,0l-0.2,0.5c0,0,0,0,0,0c-2.3,4.8-17.5,33.1-19.8,38.1c-2.4,5.3-20.4,28.6-23,33c-2.6,4.4-14.7,22.2-18.6,25.3
	c-3.9,3.1-9.4,8.6-14.5,13.8c-5,5.3-14.5,14.1-20.4,17.6c-5.9,3.5-25.3,10.6-33.4,10.6c-8.1,0-13.8,0.9-30.1,0
	c-15.9-0.9-26.3-2.3-38.7-2.9c0,0,0,0,0,0l-0.8,0c0,0-0.1,0-0.1,0l-0.8,0c0,0,0,0,0,0c-11.9-0.6-18.1-1.5-31.7-2.8c0,0,0,0,0,0
	l-0.7-0.1c0,0-0.1,0-0.1,0l-0.7-0.1c0,0,0,0,0,0c-14.3-1.6-30.2-5-34.6-6.1c-4.3-1.1-10.1-0.6-18.5-5.3c0,0,0,0,0,0l-0.4-0.2
	c0,0,0,0,0,0l-0.4-0.2c0,0,0,0,0,0c-8.1-4.7-16.9-8.7-19.9-12.5c0,0,0,0,0,0l-0.3-0.4c0,0,0,0,0,0l-0.3-0.5c0,0,0,0,0,0
	c-3.7-5.4-22.6-29.8-29.1-36.6c-6.6-6.9-16-29.9-19.2-36.4c0,0,0,0,0,0l-0.2-0.5c0,0,0,0,0,0l-0.2-0.5c0,0,0,0,0,0
	c-2.9-5.4-8.2-15.1-10.4-19.6c0,0,0,0,0,0l-0.2-0.5c0,0,0,0,0,0l-0.2-0.5c0,0,0,0,0,0c-1.5-4.7,1.3-16.8,2.7-25.9c0,0,0,0,0,0
	l0.1-0.6c0,0,0-0.1,0-0.1l0.1-0.6c0,0,0,0,0,0c2-9.7,5.7-33.9,7.8-41.1c0,0,0,0,0,0l0.3-0.8c0,0,0-0.1,0-0.1L111.6,240.3
	C111.6,240.3,111.6,240.3,111.6,240.3"/>
<path fill="none" stroke="#FF0000" stroke-width="0.4996" stroke-miterlimit="5.0355" d="M103.7,259.4c1.1-5.5,6.9-33.4,7.5-38
	c0.6-5,8.6-30.7,14.5-38.6c5.9-7.9,40.4-43.3,42.2-47.2c1.8-3.9,20.4-21.5,24.4-25.3c4-3.8,17.4-5.3,24.4-7.7c7-2.4,27.1-3.8,31-3.3
	s18.3,2.9,27.4,4.7c9,1.7,22,5.7,30.1,9.8c0,0,0,0,0,0l0.5,0.3c0,0,0.1,0,0.1,0l0.5,0.3c0,0,0,0,0,0c7.4,4.1,11.7,12.1,18.6,15.3
	c0,0,0,0,0,0l0.5,0.2c0,0,0.1,0,0.1,0l0.5,0.2c0,0,0,0,0,0c7.7,3.7,29.2,19.1,38.6,21.9c0,0,0,0,0,0l0.8,0.2c0,0,0.1,0,0.1,0
	l0.8,0.2c0,0,0,0,0,0c9.9,2.7,34.2,16.1,45.7,19.5c11.5,3.4,28.7,11,35.9,15.8c0,0,0,0,0,0l0.5,0.4c0,0,0.1,0,0.1,0l0.5,0.4
	c0,0,0,0,0,0c6.7,4.5,19.3,11.5,21.4,17.2c0,0,0,0,0,0l0.2,0.6c0,0,0,0.1,0,0.1l0.1,0.6c0,0,0,0,0,0c1.8,8.4,13.4,55.7,13.1,59.7
	c-0.4,4.2-19.1,52.7-22.2,59.3c-2.9,6.2-8.2,21.2-9.8,25.5c0,0,0,0,0,0l-0.2,0.6c0,0,0,0.1,0,0.1l-0.3,0.6c0,0,0,0,0,0
	c-2.4,4.4-15.7,21-18.8,25.3c0,0,0,0,0,0l-0.4,0.5c0,0,0,0.1,0,0.1l-0.5,0.4c0,0,0,0,0,0c-2.6,2.6-15,14.9-19,19.9
	c-4.5,5.7-28.3,27.7-32.5,33c-4.2,5.3-18,7.7-25.3,11c-7.3,3.3-21.5,4.2-25.1,3.5s-37.8-3.8-44.8-3.8c-7,0-47.7-5.5-61.3-7
	c-13.6-1.5-45.7-10.3-58.7-21.5c-13-11.2-35.4-42.2-40.9-49.2c-5.3-6.8-20.3-40.5-24-48.4c0,0,0,0,0,0l-0.4-0.8c0,0,0-0.1,0-0.1
	l-0.3-0.8c0,0,0,0,0,0c-1.9-8.1,2.9-45.2,3.9-53.9c0,0,0,0,0,0l0.1-0.8c0,0,0-0.1,0-0.1L103.7,259.4
	C103.7,259.4,103.7,259.5,103.7,259.4"/>
<path fill="none" stroke="#FF0000" stroke-width="0.4996" stroke-miterlimit="5.0355" d="M107.4,227.3c1-5.6,6.4-35.4,17.8-47.9
	c0,0,0,0,0,0l0.6-0.6c0,0,0.1-0.1,0.1-0.1l0.6-0.6c0,0,0,0,0,0c13.2-13.7,40.4-47.8,47.7-53.6c7.4-5.9,16.7-19.1,22.4-20
	c5.7-0.9,28.8-9.4,35.6-9.7c6.8-0.3,14.5-0.9,18,0c3.5,0.9,18.9,3.4,33,6.8c0,0,0,0,0,0l0.8,0.2c0,0,0.1,0,0.1,0l0.8,0.2
	c0,0,0,0,0,0c14.1,3.7,26.4,13.1,33.9,17.4c7.6,4.3,14.5,16.4,33.4,23.6c0,0,0,0,0,0l0.8,0.3c0,0,0.1,0,0.1,0l0.8,0.3c0,0,0,0,0,0
	c19.7,7.3,55.1,25,70.7,27.4c15.9,2.4,48.1,26.8,50.7,31.8c2.6,4.9,14.4,54,14.5,64.1c0,0,0,0,0,0l0,0.6c0,0,0,0.1,0,0.1l-0.1,0.6
	c0,0,0,0,0,0c-1,8.4-8.3,22.1-9.1,26.4c-0.9,4.4-4.2,13.8-6.8,19.1c-2.6,5.3-16.5,34.7-17.4,39.2c-0.9,4.4-15.6,19.1-17.4,25.1
	c-1.8,5.9-23.3,21.3-25.7,25.9c-2.4,4.7-26.8,24.4-30.1,28.6c-3.3,4.2-33.6,17.1-43.1,17.1c-9.2,0-32.8-1.4-47.4-2.8c0,0,0,0,0,0
	l-0.8-0.1c0,0-0.1,0-0.1,0l-0.8-0.1c0,0,0,0,0,0c-16.1-1.7-77.7-8.7-86-9.6c-8.6-0.9-25.7-9.4-35.1-12.1
	c-9.4-2.6-26.6-26.2-31.8-33.4c-5.3-7.2-26.2-39.8-27.7-43.7c-1.5-3.9-15-30.7-15-38c0-7.1,6-68.4,11.4-81c0,0,0,0,0,0l0.4-0.8
	c0,0,0-0.1,0-0.1L107.4,227.3C107.4,227.3,107.4,227.4,107.4,227.3"/>
<path fill="none" stroke="#FF0000" stroke-width="0.4996" stroke-miterlimit="5.0355" d="M100.5,238.5c1.9-6.8,13.8-49.5,18.6-56
	c5.3-7,39.8-49.9,46.6-55.1c6.8-5.3,25.7-24.8,27.7-26.8c2-2,41.5-18.9,49.9-17.1c8,1.7,38.6,5.3,45.3,8.2c0,0,0,0,0,0l0.6,0.3
	c0,0,0.1,0,0.1,0l0.6,0.3c0,0,0,0,0,0c5.5,2.9,21.5,8.4,25.5,11.6c0,0,0,0,0,0l0.4,0.4c0,0,0,0,0,0l0.4,0.4c0,0,0,0,0,0
	c2.9,3.6,6.9,12.7,17,16.3c10.6,3.8,23.5,15,30.7,16.7c7.2,1.8,38.3,19.1,47.5,20.9s20.9,5.9,23.9,7.4c3,1.5,15.1,11.4,27.6,16.4
	c0,0,0,0,0,0l0.7,0.3c0,0,0.1,0,0.1,0l0.7,0.3c0,0,0,0,0,0c12.3,5.2,21.7,16.9,23.4,20.6c1.8,3.8,11.8,36,11.8,40
	c0,4,4.7,18.9,4.7,27.4c0,8.2-2.7,19.7-5.6,24.3c0,0,0,0,0,0l-0.3,0.5c0,0,0,0.1,0,0.1l-0.3,0.5c0,0,0,0,0,0
	c-3.2,5-12.8,24.4-14.8,29.9c0,0,0,0,0,0l-0.2,0.7c0,0,0,0.1,0,0.1l-0.2,0.7c0,0,0,0,0,0c-1.7,5.4-9.5,22-13.9,27.8
	c-4.4,5.9-18.4,25.2-21.4,31.6c0,0,0,0,0,0l-0.3,0.8c0,0,0,0.1,0,0.1l-0.4,0.7c0,0,0,0,0,0c-3.3,5.9-19.6,19.8-24.9,24.9
	c-5.5,5.3-16.5,14.1-23.5,21.3c-7,7.2-9.7,15.6-13.2,16.2s-18.3,5.3-27.4,6.2c-9.2,0.9-19.8,1.5-30.3,2.4c-10.6,0.9-11.2-2-26.8-1.8
	c-15.6,0.3-55.8-9.2-68.7-9.4c-13-0.3-51.9-11.5-61.9-17.1c-10.1-5.7-23-20.6-35.1-31c-12.1-10.3-20.9-26.2-23.9-32.7
	c-3-6.5-9.7-24.8-12.7-33.6c-2.9-8.6-10-20.1-9.7-31.6c0,0,0,0,0,0l0-0.8c0,0,0-0.1,0-0.1l0-0.8c0,0,0,0,0,0
	c1-12.2,11.7-52.5,11.9-60.8c0,0,0,0,0,0l0-0.9c0,0,0-0.1,0-0.1L100.5,238.5C100.5,238.6,100.5,238.6,100.5,238.5"/>
<path fill="none" stroke="#FF0000" stroke-width="0.4996" stroke-miterlimit="5.0355" d="M107.5,198.2c0.4-2.8,2.6-14.7,8.1-21.1
	c0,0,0,0,0,0l0.4-0.4c0,0,0,0,0,0l0.4-0.4c0,0,0,0,0,0c6.8-7.5,22.1-30.3,25.5-33.8c3.4-3.4,12.7-11.8,16.2-17.5c0,0,0,0,0,0
	l0.3-0.4c0,0,0,0,0,0l0.3-0.4c0,0,0,0,0,0c3.5-5.1,13.3-9.1,17.5-12.8c0,0,0,0,0,0l0.4-0.3c0,0,0,0,0,0l0.3-0.3c0,0,0,0,0,0
	c4.1-4,9.4-13.5,13.7-15.5c4.4-2,26.6-8.6,31.8-10.1c5.3-1.5,11.8-8.6,20.6-7.9c8.8,0.6,25.3,4.7,31,5.3c5.7,0.6,12.7,0.6,17.1,3.3
	c4.4,2.6,19.5,9.4,25.3,14.1c5.8,4.7,9.4,13,18.3,16.2c8.8,3.3,12.1,11.8,27.7,16.2c15.6,4.4,37.1,16.2,44.2,18.6
	s20.9,8.6,27.7,10.6c6.8,2,23,10.3,29.2,15.4c6,4.9,17.9,9.4,23.9,15.3c0,0,0,0,0,0l0.5,0.5c0,0,0,0.1,0,0.1l0.4,0.5c0,0,0,0,0,0
	c5.7,6.9,14.5,32.9,16.7,41.8c0,0,0,0,0,0l0.2,0.8c0,0,0,0.1,0,0.1l0.2,0.8c0,0,0,0,0,0c2.2,8.7,10.9,26.1,7.7,39.7
	c-3.1,13.5-16.2,35.7-17.8,43.3c0,0,0,0,0,0l-0.1,0.8c0,0,0,0.1,0,0.1l-0.2,0.8c0,0,0,0,0,0c-2.1,7.2-19.5,27.1-22.8,32.6
	c0,0,0,0,0,0l-0.3,0.6c0,0,0,0.1,0,0.1l-0.3,0.6c0,0,0,0,0,0c-2.5,5-11.1,18.3-15.5,25c-4.7,7-11.2,18-16.2,22.2
	c-5,4.2-21.3,21.5-24.8,23.5c-3.4,1.9-17.9,17-21,20.5c0,0,0,0,0,0l-0.3,0.3c0,0,0,0,0,0l-0.2,0.4c0,0,0,0,0,0
	c-1.7,2.7-1.9,7.4-15.3,8.8c-14.1,1.5-30.7,9.2-43.1,7.4c-12.3-1.8-50.7-4.2-64-5.3c-13.2-1.1-45.1-2-58.7-6.2
	c-13.2-4-39.2-10.6-48.7-16.8c0,0,0,0,0,0l-0.7-0.5c0,0-0.1-0.1-0.1-0.1l-0.7-0.5c0,0,0,0,0,0c-9.7-7.3-38.8-30.5-39.7-34.8
	c-0.9-4.4-16.5-31.6-19.8-35.8c-3.2-4-20.1-54-20.4-65.7c0,0,0,0,0,0l0-0.8c0,0,0-0.1,0-0.1l0.1-0.8c0,0,0,0,0,0
	c0.7-9.2,3.2-16.3,7.9-33c0,0,0,0,0,0l0.1-0.4c0,0,0,0,0,0l0-0.4c0,0,0,0,0,0c0.3-2.5,1.7-14.1,2.5-17.5c0,0,0,0,0,0l0.1-0.4
	c0,0,0,0,0,0l0.1-0.4c0,0,0,0,0,0c1.6-4.9,12.2-36.9,13.8-44.7c0,0,0,0,0,0l0.1-0.5c0,0,0-0.1,0-0.1L107.5,198.2
	C107.5,198.2,107.5,198.2,107.5,198.2"/>
<path fill="none" stroke="#FF0000" stroke-width="0.4996" stroke-miterlimit="5.0355" d="M124.9,147.4c3-4.3,18.5-26.9,24-35.9
	c0,0,0,0,0,0l0.3-0.5c0,0,0-0.1,0-0.1l0.3-0.5c0,0,0,0,0,0c5.5-9.1,13-14.3,17.9-19.2c5-5,8.3-15.4,12.7-17.1
	c4.3-1.7,17.9-5.1,26.4-7.7c0,0,0,0,0,0l0.6-0.2c0,0,0.1,0,0.1,0l0.6-0.2c0,0,0,0,0,0c8.7-2.8,23.4-10.1,30.3-8.3
	c7,1.8,22.4,5.5,27.4,6.2c5,0.6,28.8,5.3,32.5,7.7c3.6,2.3,16,6.6,23.3,9.8c0,0,0,0,0,0l0.5,0.2c0,0,0.1,0,0.1,0l0.5,0.3
	c0,0,0,0,0,0c7,3.5,17.2,12.5,24.5,15.3c7.4,2.9,18.3,7.9,28.8,11.2c10.6,3.3,24.4,6.8,31.2,10.3c6.8,3.5,35.1,13.2,39.5,17.1
	c4.4,3.9,11.2,13.6,15,18.3c3.8,4.7,10.3,12.3,13.6,14.7c3.3,2.4,13,8.6,15.9,13.8c2.9,5.3,7.9,19.8,13,23.9
	c5,4.2,18.6,20,22.4,35.4c3.8,15.4,7.4,15,7.7,30.3c0.3,15.4-7.9,31.2-11.8,35.1c-3.8,3.8-13.8,24.2-20.9,32.1
	c-7,7.9-18.3,22.2-22.4,29.7c-4.1,7.4-9,8.3-12.5,14.1c0,0,0,0,0,0l-0.2,0.4c0,0,0,0,0,0c0,0,0,0,0,0l-0.2,0.4c0,0,0,0,0,0
	c-1.3,2.6-8.3,15.8-10.4,18.9c0,0,0,0,0,0l-0.3,0.4c0,0,0,0,0,0c0,0,0,0,0,0l-0.3,0.4c0,0,0,0,0,0c-2.7,2.6-13.8,11.4-18.8,17.6
	c-5.3,6.5-20.6,25.1-31.8,32.7c-11.2,7.7-14.7,10.1-21.3,11.8c-6.5,1.8-16.2,2.9-31.6,7.7c-15.4,4.8-16.5,7.7-23,7.7
	c-6.5,0-33.4,0.9-42.2,2.9s-20-3.5-29.5-4.4c-9.4-0.9-34.5-11-45.1-13.6c-10.3-2.6-32.4-12.7-39-14.4c0,0,0,0,0,0l-0.4-0.1
	c0,0,0,0,0,0l-0.5-0.1c0,0,0,0,0,0c-5.7-1.2-10.9-3.3-18.4-7.3c-7.7-4.2-23-17.1-28.6-23c-5.4-5.8-14-9.3-16.6-16.2c0,0,0,0,0,0
	l-0.2-0.5c0,0,0-0.1,0-0.1l-0.2-0.5c0,0,0,0,0,0c-2.8-7.5-15.9-23.6-19.1-30.2c0,0,0,0,0,0l-0.2-0.4c0,0,0,0,0,0l-0.2-0.4
	c0,0,0,0,0,0c-2.5-6-4.1-6-9-18.6c-5-13-10.6-21.8-13.2-28.6c-2.6-6.6-4.5-22.5-1-29.4c0,0,0,0,0,0l0.3-0.6c0,0,0-0.1,0-0.1l0.4-0.6
	c0,0,0,0,0,0c4.2-7.3,13.3-31.8,14.3-39.4c0,0,0,0,0,0l0.1-0.8c0,0,0-0.1,0-0.1l0.1-0.8c0,0,0,0,0,0c0.8-7.5,7.9-26.8,9.1-31.3
	c1.3-4.7,5.9-31.8,7.7-38.6c1.7-6.7-2.3-5.1,2.5-11.2c0,0,0,0,0,0l0.2-0.2c0,0,0,0,0,0c0,0,0,0,0,0l0.2-0.2c0,0,0,0,0,0
	c5.1-6.4,20.1-19.8,23.9-23.4c0,0,0,0,0,0l0.5-0.5c0,0,0.1-0.1,0.1-0.1L124.9,147.4C124.9,147.4,124.9,147.4,124.9,147.4"/>
<path fill="none" stroke="#FF0000" stroke-width="0.4996" stroke-miterlimit="5.0355" d="M127.9,146.6c3-4.4,17.9-26.6,25.3-34.6
	c8.2-8.9,13.7-10.3,20.1-17.5c6.4-7.2,7-13,13.8-14.7c6.7-1.7,30.3-11.1,41.8-12.6c0,0,0,0,0,0l0.6-0.1c0,0,0.1,0,0.1,0l0.6-0.1
	c0,0,0,0,0,0c10.8-1,17.8-0.5,25,0.9c7.2,1.5,38.7,7.5,46.7,11.4c0,0,0,0,0,0l0.7,0.4c0,0,0.1,0,0.1,0l0.7,0.4c0,0,0,0,0,0
	c6.7,4,21.9,14.3,26.9,18.5c0,0,0,0,0,0l0.6,0.5c0,0,0.1,0.1,0.1,0.1l0.6,0.5c0,0,0,0,0,0c5.1,4.5,20.6,19.9,30.6,23.6c0,0,0,0,0,0
	l0.8,0.3c0,0,0.1,0,0.1,0l0.8,0.3c0,0,0,0,0,0c10.7,3.6,32.4,15.1,44.8,18c12.7,2.9,26.8,4.2,31.8,6.8s7.9,8.8,14.5,12.1
	c6.5,3.3,20.9,13.6,24.8,17.1c3.9,3.5,11.2,11.8,15,18c3.7,6,13.8,17.9,16.1,26.3c0,0,0,0,0,0l0.2,0.7c0,0,0,0.1,0,0.1l0.1,0.7
	c0,0,0,0,0,0c1.8,8.5,6.6,23.9,8,30.9c0,0,0,0,0,0l0.1,0.7c0,0,0,0.1,0,0.1l0.1,0.7c0,0,0,0,0,0c0.9,7,0.1,21.3-1.9,29.7
	c0,0,0,0,0,0l-0.2,0.7c0,0,0,0.1,0,0.1l-0.2,0.6c0,0,0,0,0,0c-2.4,8.2-7.9,17.6-12.6,25.2c0,0,0,0,0,0l-0.3,0.6c0,0,0,0.1,0,0.1
	l-0.4,0.6c0,0,0,0,0,0c-4.9,7.7-13.6,19.2-18,25.8c0,0,0,0,0,0l-0.4,0.6c0,0,0,0.1,0,0.1l-0.4,0.6c0,0,0,0,0,0
	c-4.7,7.3-15.4,25.7-20.8,31.8c-5.4,6.1-15.1,25.3-20.1,31.4c0,0,0,0,0,0l-0.5,0.6c0,0-0.1,0.1-0.1,0.1l-0.5,0.6c0,0,0,0,0,0
	c-4.8,5.4-14,14.7-24.5,24.4c-11,10.1-16.2,18.3-20,20.6c-3.7,2.3-23.3,12.4-34.2,14.6c0,0,0,0,0,0l-0.8,0.2c0,0-0.1,0-0.1,0
	l-0.8,0.1c0,0,0,0,0,0c-11.4,1.9-41.8,6-54.2,6.9c-12.7,0.9-21.3,3.8-35.1,0.9c-13.8-2.9-55.8-10.3-69.6-14.7
	c-13.5-4.3-30.1-7.5-39.3-15c0,0,0,0,0,0l-0.7-0.5c0,0-0.1-0.1-0.1-0.1l-0.6-0.6c0,0,0,0,0,0c-9.4-7.9-27.4-19.3-32.6-25.6
	c-5.4-6.4-7.9-5-11.5-10.1c-3.5-5-23.3-33.9-25.9-39.8c-2.6-5.9-10.1-30.1-13.6-37.1s-11.5-22.7-1.1-52.7
	c10.1-29.3,18.7-78.2,23.8-89.9c0,0,0,0,0,0l0.4-0.8c0,0,0-0.1,0-0.1l0.4-0.8c0,0,0,0,0,0c5.1-10,18.1-31.6,24.2-37.4c0,0,0,0,0,0
	l0.6-0.6c0,0,0.1-0.1,0.1-0.1L127.9,146.6C127.9,146.7,127.9,146.7,127.9,146.6"/>
<path fill="none" stroke="#FF0000" stroke-width="0.4996" stroke-miterlimit="5.0355" d="M140.6,116.5c1.8-2.4,9.9-13.1,13.9-17.7
	c4.5-5.2,14-19.5,17.5-24c3.5-4.5,5.2-7.4,10.7-8.8c5.5-1.4,23-5.8,29.6-8.1c6.4-2.2,14.8-5.4,21.3-5.8c0,0,0,0,0,0l0.4,0
	c0,0,0,0,0,0l0.4,0c0,0,0,0,0,0c6.2-0.4,8.6-0.6,19.3,1c11,1.6,23,4.5,32.1,6.8c9.1,2.3,32.5,7.4,39.9,10.7
	c7.4,3.3,13.6,11.3,21.4,15.2c7.6,3.8,18.5,8.5,25.9,11.7c0,0,0,0,0,0l0.6,0.3c0,0,0.1,0,0.1,0l0.6,0.3c0,0,0,0,0,0
	c7.9,3.4,27.5,10.2,34.5,12c7,1.9,19.9,12.9,31.2,16.7c0,0,0,0,0,0l0.5,0.2c0,0,0,0,0,0c0,0,0.1,0,0.1,0l0.5,0.2c0,0,0,0,0,0
	c10.8,3.6,13.5,9.6,18.3,16c4.9,6.5,20.4,24.7,27.9,28.6c7.6,3.9,5.5,10.1,10.4,14.6c4.8,4.5,6.5,9.5,13,17.4c0,0,0,0,0,0l0.3,0.4
	c0,0,0,0,0,0l0.3,0.4c0,0,0,0,0,0c6.9,8.2,18.8,25.6,21,31.7c2.2,6,7.6,9.5,7.2,17.4c0,0,0,0,0,0l0,0.4c0,0,0,0,0,0l0,0.4
	c0,0,0,0,0,0c-0.3,7.8,5.8,13.6,3.6,21.3c-2.3,7.8-3.9,13.6-11.1,23s-26.3,42.5-29.6,45.8s-21.4,29.6-25.7,35.4
	c-4.3,5.8-15.6,16.6-16.6,22.8c-1,6-17.4,16.8-23.2,24.3c0,0,0,0,0,0l-0.5,0.6c0,0,0,0.1,0,0.1l-0.5,0.6c0,0,0,0,0,0
	c-5.6,7.6-24,26.4-28.7,29.4c0,0,0,0,0,0l-0.5,0.3c0,0-0.1,0-0.1,0l-0.6,0.3c0,0,0,0,0,0c-4.4,2-19.3,8.6-24.4,10.2c0,0,0,0,0,0
	l-0.6,0.2c0,0-0.1,0-0.1,0l-0.6,0.2c0,0,0,0,0,0c-5.2,1.8-41.2,14.4-48.1,15c-7.4,0.6-31.2,0.6-40.9,2.6c-9.4,1.9-29.1-1.6-38.3-3.4
	c0,0,0,0,0,0l-0.8-0.2c0,0-0.1,0-0.1,0l-0.8-0.2c0,0,0,0,0,0c-7.1-2.1-53.9-16-68-20.5c-15.2-4.9-36.6-14-41.9-18.9
	c-5.3-4.9-34.9-25.4-38.8-33.5c-3.9-8.1-24.3-34.4-30.5-52.9c-6.2-18.5-18.1-32.1-15.9-45.4c2.2-12.7,11.8-32.2,14-39c0,0,0,0,0,0
	l0.2-0.8c0,0,0-0.1,0-0.1l0.2-0.8c0,0,0,0,0,0c2.2-7,10.7-29.4,12.9-36.8c0,0,0,0,0,0l0.1-0.5c0,0,0-0.1,0-0.1l0.1-0.5c0,0,0,0,0,0
	c1.7-6.6,1.6-5.7,4.4-21.9c2.9-16.6,0.6-30.2,5.5-38.3c4.7-7.7,17.6-19.6,23-23.2c0,0,0,0,0,0l0.6-0.4c0,0,0.1,0,0.1,0l0.6-0.4
	c0,0,0,0,0,0c5.4-4.4,20-24.3,21.6-31.7c0,0,0,0,0,0l0.1-0.5c0,0,0,0,0,0L140.6,116.5C140.6,116.5,140.6,116.5,140.6,116.5"/>
<path fill="none" stroke="#FFFF00" stroke-width="0.4996" stroke-miterlimit="5.0355" d="M456.4,138.2c0,0,19.5,16.7,22.3,21.7
	c2.8,4.9,15.5,14.1,19.3,20.1c3.8,6,13,20.8,13,23.5"/>
<path fill="none" stroke="#00FF00" stroke-width="0.4996" stroke-miterlimit="5.0355" d="M256.9,48.6c1.4-0.1,7.6-0.3,11.7,0
	c4.6,0.4,13.7,5.2,23.3,7.2c0,0,0,0,0,0l0.6,0.1c0,0,0.1,0,0.1,0L293,56c0,0,0,0,0,0c10.1,1.8,30.4,5,37.1,8.6
	c6.9,3.7,14.1,7.7,28.3,14.5c14.2,6.8,29.3,15.2,38.4,17.4c9.1,2.1,31.2,15.6,38.1,18.5c6.9,2.9,21,7.9,26.8,11.6
	c5.6,3.5,11.2,11,14.5,13.6c0,0,0,0,0,0l0.3,0.2c0,0,0,0,0,0l0.3,0.2c0,0,0,0,0,0c3.1,2.2,6,6.9,12.3,12.1
	c6.5,5.4,13.1,14.5,18.9,16c5.8,1.5,8.3,7.7,12.3,13.8c4,6.2,9.4,24.3,12.3,28.3c2.9,4,13.1,15.2,13.1,19.6s4,28.7,3.7,34.1
	c-0.4,5.2-5.6,30.7-6.5,37.3c0,0,0,0,0,0l-0.1,0.8c0,0,0,0.1,0,0.1l-0.1,0.8c0,0,0,0,0,0c-1.1,5.1-8.5,16.5-13.4,29.2c0,0,0,0,0,0
	l-0.3,0.7c0,0,0,0.1,0,0.1l-0.3,0.7c0,0,0,0,0,0c-5.1,13-18.5,23.7-24.6,31.1c0,0,0,0,0,0l-0.5,0.7c0,0-0.1,0.1-0.1,0.1l-0.5,0.7
	c0,0,0,0,0,0c-6.3,8.3-24.2,30.5-28.6,36.4c0,0,0,0,0,0l-0.1,0.2c0,0,0,0,0,0c0,0,0,0,0,0c0,0,0,0,0,0l-0.1,0.2c0,0,0,0,0,0
	c-4.3,5.6-4.5,4.9-6,8.5c-1.5,3.7-12,9.4-14.1,12c-2.1,2.5-10.2,5.8-12,10.2c-1.8,4.4-8.3,6.9-14.9,13.8s-8.3,6.2-14.1,12
	s-2.5,5.8-6.5,7.9c-4,2.1-15.5,5.2-22.3,5.2c-6.8,0-10.8-0.7-17.5,3.3c0,0,0,0,0,0l-0.4,0.2c0,0,0,0,0,0l-0.4,0.2c0,0,0,0,0,0
	c-6.8,4-18.6,3.7-24.2,6.7c0,0,0,0,0,0l-0.4,0.2c0,0,0,0,0,0l-0.4,0.2c0,0,0,0,0,0c-5.4,3.1-13.5,4.9-17.5,5.3
	c-4,0.4-11.6-0.4-20.6,2.5c-9.1,2.9-12.3,3.3-16.4,4s-5.8-0.8-13.5-1.1c-7.7-0.4-13.1,0-21.8-1.1c-8.7-1.1-9.8-8.3-12.3-7.9
	c-2.5,0.4-3.7,3.3-6.2,3.7c-2.5,0.4-2.5-1.5-10.2-3.7c-7.7-2.1-13.8-9.4-22.5-10.6c-8.5-1.1-27.2-11.2-40.6-13.3c0,0,0,0,0,0
	l-0.7-0.1c0,0-0.1,0-0.1,0l-0.7-0.1c0,0,0,0,0,0c-12.9-2.1-20-13.8-26-17.6c-6.2-3.9-22.5-15.6-31.6-20.3
	C91.5,419.3,82.2,392,69,380c0,0,0,0,0,0l-0.5-0.4c0,0,0-0.1,0-0.1l-0.2-0.6c0,0,0,0,0,0c-1.2-3.3-6.1-17.9-7.7-27.3
	c-1.8-10.6-10.2-20.3-10.2-25.4c0-5-0.4-18.1,0-22.5c0.4-4.4,22.2-42,25.8-52.2c3.5-9.8,8.3-22.4,9-28.3c0,0,0,0,0,0l0.1-0.7
	c0,0,0-0.1,0-0.1l0.1-0.7c0,0,0,0,0,0c0.6-7.3,4.6-41.4,5.6-48.8c0,0,0,0,0,0l0.1-0.8c0,0,0-0.1,0-0.1l0.3-0.8c0,0,0,0,0,0
	c3.4-5.8,29.5-23.8,32.6-30.3c3.2-6.8,15.2-17.1,17.6-31.3c0,0,0,0,0,0l0.1-0.6c0,0,0-0.1,0-0.1l0.4-0.5c0,0,0,0,0,0
	c2.2-2.6,12.3-14.8,16.2-19.6c0,0,0,0,0,0l0.4-0.5c0,0,0,0,0,0l0.3-0.5c0,0,0,0,0,0c3.9-5.4,7.5-18.1,12.3-21.3
	c4.8-3.1,29.6-8.8,36.2-11.6c0,0,0,0,0,0l0.8-0.4c0,0,0.1,0,0.1,0l0.8-0.4c0,0,0,0,0,0c6.3-3,28-13.1,47-5.4c0,0,0,0,0,0l0.2,0.1
	c0,0,0,0,0,0c0,0,0,0,0,0L256.9,48.6C256.9,48.6,256.9,48.6,256.9,48.6"/>
<path fill="none" stroke="#0000FF" stroke-width="0.4996" stroke-miterlimit="5.0355" d="M231.8,285.6h2.5"/>
</svg>
