<?xml version="1.0" encoding="utf-8"?>
<!-- Generator: Adobe Illustrator 23.1.1, SVG Export Plug-In . SVG Version: 6.00 Build 0)  -->
<svg version="1.1" id="Layer_1" xmlns="http://www.w3.org/2000/svg" xmlns:xlink="http://www.w3.org/1999/xlink" x="0px" y="0px"
	 width="792px" height="612px" viewBox="0 0 792 612" enable-background="new 0 0 792 612" xml:space="preserve">
<g id="Layer_4" display="none">
	<path display="inline" fill="none" stroke="#FFFF00" stroke-width="5.000000e-02" d="M277.8,368c0,0,4.7-30.7,19-39.1
		s24.3-9.3,24.3-9.3s16.8,1.6,20.1,3.4c3.3,1.8,13.3,6.6,17.5,12.1c0,0,13.6,19.1,13.3,24.3"/>
	<path display="inline" fill="none" stroke="#FFFF00" stroke-width="5.000000e-02" d="M379.8,361.5c0,0-14-59.9-57.8-53.4
		c-39.2,5.8-48.9,43.6-48.9,43.6"/>
	<path display="inline" fill="none" stroke="#FFFF00" stroke-width="5.000000e-02" d="M375.6,338.3c0,0-16.9-33.4-41.1-33.9
		s-50.9,15.9-52.6,24.8"/>
	<path display="inline" fill="none" stroke="#FFFF00" stroke-width="5.000000e-02" d="M391.8,355.4c-1.8-33.3-43.3-57.6-43.3-57.6
		s-48-7.8-74.9,36.7"/>
	<path display="inline" fill="none" stroke="#FFFF00" stroke-width="5.000000e-02" d="M363.1,358.5c0,0-12.6-28-37.3-26.5
		c-24.8,1.5-30.3,11.5-30.7,13.6"/>
	<path display="inline" fill="none" stroke="#FFFF00" stroke-width="5.000000e-02" d="M351.8,277.3c0,0,32.6,1.6,45.1,25.5
		s17.5,43.7,16.1,51.1s5.3-5.8,1.3,15.8c-4,21.6-7.3,21.3-7.3,22.2"/>
	<path display="inline" fill="none" stroke="#FFFF00" stroke-width="5.000000e-02" d="M420.4,354.6c3.9-13.8-8-45.8-8-45.8
		s-14.2-26.1-38.3-32.3c0,0-33.1-4.8-41-1.1"/>
	<path display="inline" fill="none" stroke="#FFFF00" stroke-width="5.000000e-02" d="M436.9,408.5c0.3-0.8,4.1-8.7,4.3-9.5
		c0.2-0.8,7.9-19.2,8.6-21.8c0.7-2.7,1.3-20.2,0.9-21.8c-0.4-1.6,3.3-20.8,4-26.3s-3.4-20.3-3.1-21.6c0.3-1.3-5.4-12.9-6.3-17.8
		s-9.5-12-9.5-12s-23.8-12.5-28-14.2c0,0-31-11.1-40.2-10.2c-9.2,0.8-35.5,1.7-38.5,2c-2.9,0.3-27.2,7.7-29.7,8.5s-25,11.7-26.8,13
		c0,0-5.4,4-7,6.7"/>
	<path display="inline" fill="none" stroke="#FFFF00" stroke-width="5.000000e-02" d="M361.2,469.2c-3.1,0.8-16.6,2.2-18.1,2.3
		s-12.8-1.1-12.8-1.1c-0.8-0.6-18.4,0.8-18.8,0.8s-15.7-3.3-16.1-3c-0.4,0.2-20.7-4.1-20.7-4.1s-19.5-12-21.4-12.7
		s-13.8-13.3-13.8-13.3c-1.2-2.4-12.6-19.2-13.1-21.1s-9.3-25.4-9.8-26.1c-0.4-0.8-2.8-19.1-2.6-19.5s0-16,0-16
		c0-1.9,2-11.9,2.1-12.3c0.1-0.3,5.4-17.1,5.5-18.1s5.3-14.3,5.3-14.3c0.2-0.3,7.3-11.4,7.8-12s6.7-9.1,7.5-9.8s7.1-9.3,7.7-9.9
		c0.6-0.6,4.3-3.9,4.3-3.9l8-6.4l9.9-7.3c0,0,9.8-5.9,10.6-6.4c0.8-0.5,8.7-3.4,8.7-3.4c0.5-0.5,13-7.6,13-7.6
		c1.2-0.8,5.8-3.2,7.8-3.3c2.1-0.2,19.8-5.4,22.5-6.2s19.4,0.4,25.2,0.8c5.8,0.4,27,4.7,30.5,4.9s15.2,3.1,21.3,4.3
		c6.2,1.3,6.5,1.9,19.5,5.8c13,3.9,29.4,24.7,29.4,24.7s6.1,6.8,9.2,18.5c3.1,11.9,4.6,23.3,4.3,25"/>
	<path display="inline" fill="none" stroke="#FFFF00" stroke-width="5.000000e-02" d="M431.4,460.7c0,0,15-16.7,17.6-18.3
		s16.8-21,17.5-22s18.5-24.9,20.7-26.7c2.2-1.8,8.3-27.9,9.6-29.7c1.3-1.8,9.9-25.8,9.9-27.5s3.6-25,3.6-25s4.6-30.6,1.6-37.6
		c-3-6.9-6.6-18.9-7-19.8s-17.4-34-24-37s-31.1-17.1-31.6-17.6s-15-2.6-28.1-6.4c-10.4-3-11-0.9-19.6-3.4c0,0-14.9-6.6-33.8-4.6
		s-15.8-1.4-27.7,2.6s-22.5,9.1-23,9.4s-13.3,7.5-18.3,8.4s-12.6,1.5-20.3,9.6s-22.5,22-22.9,22.4s-19,19.4-19,19.4
		s-13.4,18-13.7,19.8s-17.9,38.2-21.1,57.5"/>
	<path display="inline" fill="none" stroke="#FFFF00" stroke-width="5.000000e-02" d="M567.9,457.3c0,0-11,6.8-12.7,7.4
		s-8.8,5.5-10.3,6.4s-8.6,8.7-9.7,9.4s-9.7,11.5-12.7,14.4s-13.1,17.9-14.9,18.6s-7.7,6.8-13.3,8.9s-17.6,15.5-20.6,17.9
		s-12.1,4.1-12.1,4.1c-1.3,0.7-7.5,4.4-9.9,6.1s-16.6,6-19.1,6.3s-23.4,0-23.4,0s-38,3.4-42.9,3.7s-18.6-1-22.8-1.4
		s-3.2-2.3-11.4-3.5s-9.5-2.3-13.9-3.2s-7.1-3-12.9-3.2s-6.1,0.9-10.8-0.5c-4.8-1.4-12.7-6.8-15.5-8.3c-2.8-1.4-8.3-5.3-11.3-6.1
		s-4.9-1.4-8.8-2.6s-4-0.9-7.1-2.5c-2.4-1.3-4.5-1.7-6.7-3.5l-6.5-5.4c-3.5-1.9-2.4-0.6-5.1-3.7c-4.9-5.6-21.1-12.8-24.6-13.6
		c-3.6-0.8-10.7-2-13.7-3.2s-4.8-1-7.1-2.6s-5-5.2-7.8-7.3s-3.2-4-6.4-6.3s-2.1-2.5-6.1-4.8s-6.7-4-8.8-5.6s-4.7-4.5-8.4-6.6
		s-1.9-1.1-6.3-3.7s-7.1-6.4-8.1-8.6s-3.4-5.4-4.1-8.6s-2.6-10.2-3.8-11.9s-3.9-5.8-4.8-8.8s-2.3-5.8-4-9.2s-4.4-15.8-5.4-19.4
		s-2.1-6.8-2.2-10.3s-2.2-14.3-2.9-17.6s-2-3.5-2-8.9c0,0-2.7-8.4-3-11s-0.5-8.4-0.3-10.4s-0.1-12,0.6-14.6s-1.1-11.1-0.7-13.2
		s0.1-4.6,0.4-7.3s-0.5-6-0.3-8.3s-0.7-11.6-0.3-13.9c0.4-2.3,1.9-9.8,2.4-11.9s0.3-10.7,0.6-12.4s-1-6.4-0.9-7.6s1.7-8.3,2.4-10.1
		c0.8-1.8,2.3-7.6,3-9.6c0,0,4.2-10.6,5.4-12.4c1.2-1.8,4.5-6.1,5.9-8.1c1.4-2.1,5.9-20.2,6.6-22.1s0.8-8.3,1.2-10.7
		s3.6-8.5,6.9-11.6c3.3-3.1,2.7-21.1,6.8-27.5c4.1-6.3,22.6-23.8,34.3-30.7c11.6-6.9,12.8-8.4,43.2-18.5
		c30.3-9.4,50.4-15.7,70.6-15.7s24,2.1,45.2-4.1c21.1-6.1,7.3,2,30.8-8.3s29.7,0.5,53.4,0c23.7-0.5,5-5,33.6,0s32.6,20.6,52.7,15.1
		c12.5-3.4,4.7-10.3,32.7-7.8c0,0,30.6,8.8,32.8,10.3c2.3,1.5,5.9,5.3,10.3,6.2c4.4,0.9,11.2,2.7,13.8,3.4c2.6,0.8,1-0.1,5.1,2.1
		s5.4,3.5,12.3,7.6c6.9,4.1,5.8,5.4,10.1,9.2s3.6,4.8,7.8,7.7c0,0,11,9.4,13.7,11.8s8.2,6.8,11.2,9.1s8.2,1.8,9.8,11.9
		c1.7,10.1,3.5,13.8,5.2,23.4s5.8,18.8,9,25.8s4.7,18,3.2,27.7s-3.3,13.3-4.5,25c-1.2,11.7-5.2,34.5-6.2,45.8s-4.3,36-6,50
		s-1.5,8-9.2,25S646.2,386,641.8,392s-9.7,8.2-15.2,13s-19.3,7.5-23.7,12.8c-4.2,5-11.1,8.4-12.5,11.8
		C589.1,432.8,570.8,452.9,567.9,457.3z"/>
	<path display="inline" fill="none" stroke="#FFFF00" stroke-width="5.000000e-02" d="M136.8,447.6c0,0,4.6,8.9,5.1,9.7
		s6,4.3,7.1,4.7c2.8,0,2.5,0.1,5.6,2.1s4.5,5.3,6.6,6.8c0,0,7.4,4.7,10.8,6.7c3.4,1.9,6.3,4.9,7.2,7.1c0.8,2.2,6.5,6.6,8.5,8.3
		s10.3,5.8,12.8,6c2.4,0.2,13.7,4.3,16.5,5.2c2.8,0.9,9,4.7,11.1,6.1s4.4,2.9,6.6,4.6c2.2,1.7,12.2,9.4,15.3,11.2s11.2,4.2,14.3,4.5
		s11.1,3.6,14.1,5.7s6.6,4.4,12.5,6.3s11.6,2.1,16.2,2.3s5.8,1,11.7,2.8s18.1,5.7,22.5,6.8s22,3.4,29.6,2.2
		c4.7-0.8,33.4-4.8,37.4-4.1s10.2,1.3,15.5,1s7.7-0.7,10.2-1.1s9-3.8,10.1-4.6s3.6-2.5,7.6-4.4s2.2-2.2,6.9-3.9c0,0,9.4-3.9,9.9-4.4
		c1.8-1.1,11.6-11,11.6-11c2.5-1.4,14.3-8.3,16.8-9.8c0,0,9.1-5.4,10.4-6.4c1.4-1,5.6-7.3,6.2-8.4c0.7-1.2,4-4.9,5.9-6.6
		s12.5-15,14-16.2s5.5-6.8,8-8c2.5-1.3,15.9-9.2,18.3-10.2s9.2-4.7,11-7c1.9-2.3,8.8-12.4,12.6-16.9c3.9-4.6,8.6-9.8,10.3-11.4
		s13.2-14.3,15-15.8s7.3-6,8.8-7.8c1.4-1.8,15.9-11.1,17.6-12.9c0,0,16.4-29.3,14.4-25.8c0,0,6.7-19,6.2-24.7s1.5-14.2,3.3-19.8
		c1.8-5.7-0.7-18.8,1.8-29.7s3.2-20.5,6.2-29.7c3-9.2,0.8-27.2,3.2-38.8c2.3-11.7-3.3-14.7-3.5-17.2s-6.3-37.6-9.7-43.3
		c-3.3-5.7-6.3-11.4-10.2-16.6c-3.8-5.2-5.8-5.9-11.2-10.1c-5.3-4.2-12-13.1-15-17.8s-12.7-12.5-18.7-15.2s-14.9-2.8-21.9-6
		c-7.1-3.2-9.6-5.3-14.6-8.5s-1.3-3-8.8-4.3S546.4,76,537,75.1s-14.8-1.3-18.3,0.8c-3.5,2.2,2.6,3.5-4.8,9c0,0-4.2,3.7-6.3,3.5
		c-2.2-0.2-92.2-21-99.5-20.3S303.4,79.6,297.3,80.9c-6.2,1.3-22.5,1.7-33.2,4.7c-10.7,3-24.7,9.9-34.2,16s-39.3,13.5-50.7,24.1
		c-11.3,10.6-19.5,15.3-28.7,31.9c-9.1,16.6-2.3,12.8-11.5,34.2c-8,18.8-6.5,16.5-8.5,20.3c0,0-9.7,17.8-11,19.8s-9.3,36.1-8.7,38.9
		c0.7,2.8-1.8,23.3-2,26.9c-0.2,3.7-0.3,23.7-0.2,27c0.2,3.3,0.9,24.2,1.9,28s1.4,13.7,3.1,19.8c1.7,6.2,6,21.3,6.8,27
		s0.3,11.3,3,16.8c0,0,7.4,14.4,8.3,16.1C131.7,432.3,136.3,446.6,136.8,447.6z"/>
	<path display="inline" fill="none" stroke="#FFFF00" stroke-width="5.000000e-02" d="M414.2,554.1c-3.8-0.2-7.2-1.1-9.8-1.2
		c-2.6-0.1-33.8,4.2-38.6,4.5c-4.8,0.2-7.4,0.8-10.4,0.4c-2.9-0.4-12.2-2.6-14.1-3.2c-2-0.6-6.5-1.7-9.5-2.2s-7.5-2.2-9.5-2.8
		s-6.6-2.7-9.2-2.9s-7.2-1.4-10.2-1.4s-6.8-1.1-10.1-1.6c-3.3-0.5-7.5-2.9-9.8-3.7c-2.2-0.8-7.1-3.5-9.3-4.5c-2.2-0.9-3.2-3-7.4-3.6
		c-4.2-0.6-6.4-0.9-10.1-2c-3.7-1.1-5.6-3-8.6-4.1c-3-1.2-3.6-3.2-5.9-4.9c-2.2-1.7-4.8-3.8-6.9-5.1c-2.1-1.3-6.5-5.2-9.1-6.2
		c-2.6-1.1-0.7-0.3-4-2.2c-3.3-1.9-4.9-2.1-7.8-3.3s-10.3-3.1-12.3-3.6c-2-0.6-3-0.9-5.8-1.7c-2.8-0.7-7.2-2.7-9.4-3.8
		c-2.2-1.2-4.7-5.8-8.3-8.8c-3.6-3.1-2.5-2.4-4.6-4.6s-4.8-3.6-7.8-5.3c-3-1.7-5.8-3.9-6.9-4.8c-1.1-0.9-3.7-4.2-4.6-5
		c-0.9-0.8-7.9-3.8-9.8-4.9c-1.9-1.1-4-3.7-5.3-5.6s-5.2-12.3-5.7-13.7c-0.5-1.4-2.5-7.7-3-8.2c-0.6-0.5-3.5-7.2-3.9-7.8
		c-0.3-0.6-4.9-9.5-4.9-9.5c-4.5-4.6-2.5-14.4-4.5-18.8s-6.3-32.1-7-35.9s-3.2-27.7-3.2-31.9c0-4.3-1.8-22.2-0.8-28.5
		c1-6.2,0.7-13.6-0.8-19.9s3.7-16.2,3.8-20.3c0.2-4.2,0-14.5,0.8-16.3s4.2-15.7,4.5-18.3c0.3-2.7,10.3-14.3,12.2-17.8
		s6-24.2,8.3-32.2s5.2-10.3,7.2-16.3s3.2-10.8,8.3-20.4c5.1-9.6,18.9-20.1,25.7-23.8c6.8-3.8,32.7-15.1,45.7-19.4
		s27.3-12.3,37.5-16.2c10.2-3.9,25.3-4.7,45.5-4.8c20.2-0.2,64.5-8.7,77-12.3c12.5-3.7,30.3-2,38.7-1c8.3,1,78.5,19.3,86.5,17.8
		s4.5-4,9.3-8.2s8.5-2,13.8-2.5s8-0.3,13.5,1s19.2,7.3,23.4,8.3s8.1,5.2,15.3,6.8c7.2,1.7,17.8,4.5,20.5,6s12.7,7.2,18.2,14
		s10.8,7.7,16.8,17.2s14.5,11,18.3,18.2s6.8,15.5,8,21s5,18.7,5,25.3c0,6.7,8.2,16.8,8,23.7c-0.2,6.8,1.8,12.5-1,26.3
		s-1.5,16-4.7,26c-3.2,10-3,19.2-4.7,25.3c-1.7,6.2,1,28.8-2.2,39s-4.8,15.8-8.8,25.8s-5.5,14.2-8.3,20s-15.3,21-15.3,21
		c2.5-1.7-12.3,7.4-12.3,7.4c-2.5,2.3-6.7,4.6-9.2,7s-8,6.9-10,8.9s-5.4,5.4-7.8,8.1c-2.4,2.7-7.6,7.8-9.1,10.7s-8.8,12.7-10.5,14.9
		s-7.7,6.1-11,7.5s-11.2,5.9-11.2,5.9c-2.7,1.9-6.2,3.8-8.3,5.2c-2.2,1.3-7.3,9.7-11.7,13.4c-4.4,3.7-5.7,6.2-8.3,8.5
		s-4.4,3.7-6.4,6.9c-1.9,3.2-3.9,8.8-6.8,10.7c-2.8,1.9-13.5,9.1-18.1,11.8c-1.9,1.1-18.3,16.2-20.4,18s-8.7-0.3-15.5,4.4
		c-2.9,2-5,3.8-8.7,5.8C434.3,556.3,414.2,554.1,414.2,554.1z"/>
	<path display="inline" fill="none" stroke="#FFFF00" stroke-width="5.000000e-02" d="M552.6,468.2c-5.5,3.4-8,6.1-12,10.4
		s-5.7,9.4-10.4,13.6c0,0-11.9,11.4-12.8,12.9s-2.3,8.5-5.3,9.8s-5.3,4.8-8.7,5.7s-9.5,4.2-12.4,6.7s-4.4,5.1-5.6,6.8
		s-2,2.1-3.3,3.6s-7.4,4.9-10.4,6.1s-6.4,1.1-9.1,2.4s-2.5,2.8-5.8,4.9s-6.1,3-8.3,3.8s-10.3,2.9-14.7,3.2s-6.1,0.9-9.1,0.9
		c0,0-6.9-0.8-10.3,0s-4.5,0.3-8.8,1s-36.1,3.1-38.6,2.8s-4.9-2-8.6-1.6s-9-0.1-13.1,0.1s-9.7-2.6-13.4-3.1c0,0-6-2.8-12.4-3.4
		s-7.9-2-12-3.1s-2.1-0.3-7.8,0.3s-8.8-2.4-14-4.8s-4.3-4.3-10.4-6.3s-16.4-7.7-20.8-9.2c-4.4-1.5-9.3-3.4-11-4.6
		c0,0-29.2-18.9-37.3-22c-2.1-0.8-20.3-6.7-19-6.2c0,0-13.8-13.7-15.8-14.7c-2.1-0.9-8.7-5.5-10.3-6.5c-1.7-1-26.2-19.9-27.2-21.8
		c-1-1.8-7.2-17-8.1-19.7c-0.8-2.7-8.5-15.7-9.1-19.1c-0.6-3.3-4.6-19.4-4.9-20.9s-4.1-20.8-4.8-22.8s-2-12.8-2.4-14.4
		s-2.3-12.2-2.7-14.3c-0.4-2.1,0.8-25.8,0.3-27.1c-0.4-1.3-0.6-23.3-0.4-24.9s0-14.3,0.6-16.9c0.6-2.7,2.4-13.3,2.3-14.9
		c0,0-0.4-5.2-0.4-6.7s-0.2-11.7,1.2-14.6c1.3-2.8,6.8-19.9,13.3-28.3c6.5-8.3,7.7-32.8,8-34.4c0.3-1.7,2.4-6.8,3.6-8.6
		c0,0,6.1-34.6,8.6-39.3s17.9-14.7,38.7-29s39-18.1,76-26s54.7-9.3,77.6-12.9c22.9-3.7,37.5-2.7,57.8-9.6c6.5-2.2,1.8,5,32.6,3.6
		c31.4-1.4,43.1,3.2,67.5,6.1c0,0,50.9,0.8,55.7,3.7c4.8,2.8,30.8,10.7,34.4,13c0,0,6.5,3.3,10.3,4.4s17.9,5.5,19.7,7.5
		s11.8,9.9,13,11.2s1.1,1.5,3.5,4.3s4.4,5.5,6.4,7s12,6.8,14.3,8.7s-1,2.8,4.3,5.8c5.3,3.1,6.6,4.4,11.8,7.9s6,8.8,7.3,14.6
		s2,15,4.8,20.6s9.7,25,11.9,30.7c2.3,5.7,0.3,30.8-0.8,33.5s-4,18.9-4.9,24.7c-0.9,5.8-2.8,27.3-3.6,32s-3,22.4-4.3,27.2
		c-1.3,4.8-2,19.2-2.1,25.3s-2.7,12-5.5,18.3s-4.2,16.9-10,20s-2,7-8.1,10.7s-0.1,2.5-7.7,7.3s-15.3,13-21,15.2
		c-5.8,2.2-10.1,3.3-12.5,5.1s-0.6,0-5.8,4.4s-9.3,7.7-11.4,11c-2.1,3.3-6.5,7.6-8.2,10.8c-1.7,3.2-5.6,8.8-9.2,11.5
		c-3.6,2.7-2.1,1.9-5.1,3.3s-5.3,3-8.3,4.7C555.7,467.1,555.1,466.6,552.6,468.2z"/>
	<path display="inline" fill="none" stroke="#FFFF00" stroke-width="5.000000e-02" d="M122.8,433.6c-1.3-1.2-8.2-14.7-8.8-18.4
		c-0.7-3.7-8.2-37.3-8.2-40.9s-7.8-28.7-6.5-33.7s0.5-35.3,0.8-38.2c0.3-2.9-3.4-22.9,1.2-34.2c0.8-2-2.3-15.7-0.2-28.1
		c0,0,8.3-21.2,11-23.8c2.7-2.7,13-35,13.5-39.3s4.3-8.3,4.7-13.7c0.3-5.4,1.1-28.4,2.7-34.2c1.6-5.8,26-23.2,41.1-31.7
		s13.2-12.4,37.5-20.3s6.8,4,45.5-6.9S285.2,61.7,310,58c24.9-3.7,32.1-2.6,54.5-6.9c23.9-4.6,26.6-4.3,44.8,0
		c18,4.3,18.1-7.4,34.3-1.6c16.2,5.8,7.3-1.8,34.7,5.6c28,7.5,33,6.9,55.1,4.5s14.7,5.2,42.2,12.9c27.5,7.8,15,4.8,35.6,14.9
		s15.7,11.7,30.5,22.7s10.7,3.1,28.5,23.3c17.8,20.1-1.5,1.9,12.2,29.9c13.8,28,13.2,29.9,10.1,49.5c-3.2,19.6,4.2,10.9-4.2,33.1
		s-0.8,22-5.9,42.7c-5.1,20.7,0.5,23.2-1.6,35.1s-1.9,11.1-6.4,33.4c-4.4,22.3-6.2,17.8-12.7,28s-3.9,0.4-16.6,14.6
		c-12.7,14.2-11.4,14.4-26.2,19.1s-14.3,4.5-24.9,19.3c-10.6,14.8-3,12.1-19.6,23.2s-11.6,3.3-24.3,13.3s-19.1,17.9-23.3,25
		S515.3,518.7,510,523s-22.6,16-29.7,19.6c-7.1,3.7-0.3,6.4-16.6,11.1c-16.4,4.7-18.1,3.6-41.6,9.1s-25.2,0-57.4,2.8
		c-24.8,2.2-32.5-6.7-42.5-7.7c-12.5-1.2-7.7,1.5-24.3-1.2c-16.7-2.7-14.7-7-27.6-14.1s-14.6-5.6-31.5-15.3s-30.7-15.7-44.3-21
		c-17.7-6.8-27.2-16.9-29.5-16.7c-2.3,0.2-6.3-8.3-9.4-9.8c-24.5-11.7-6.2-4.6-19.7-19.2C125.7,449.7,123.3,435.7,122.8,433.6z"/>
	<path display="inline" fill="none" stroke="#FFFF00" stroke-width="5.000000e-02" d="M234.3,441.5c0,0,19.9,18.6,23,19.8
		c3.1,1.3,14.4,8.1,16,9.1s18.3,5.5,26.9,6.8c0,0,33.5,2.6,37.6,2.8s20.5-0.6,22.6-1.4s16.8-5.2,18.9-6.4"/>
	<path display="inline" fill="none" stroke="#FFFF00" stroke-width="5.000000e-02" d="M522.9,295.4c0,0,4.4-14-1.3-32.3
		s-12.4-35.3-12.4-35.3s-9.8-18.6-16.5-20.9c-6.8-2.3-26.5-12.1-27.4-12.5s-9.4-6.4-14.3-6.8c-4.8-0.3-11.2,0.7-14.6,0
		s-16.3-4.2-19.3-4.7s-25.9-3.5-28.4-3.9s-26.2-3.2-28.2-2.8c-2.1,0.3-18.3,1.4-23.1,4.1c-4.8,2.7-28.7,12.1-30.2,12.7
		c-1.5,0.6-15.3,4.6-17.3,4.5c-1.9-0.1-11.8,1.8-14.6,5.5s-15.9,15.5-16.3,15.9"/>
	<path display="inline" fill="none" stroke="#FFFF00" stroke-width="5.000000e-02" d="M397.9,352.9c0,0-4.9-55.1-52.6-63.9
		c-19.3-3.6-50.8,13.4-50.8,13.4"/>
	<path display="inline" fill="none" stroke="#FFFF00" stroke-width="5.000000e-02" d="M334.6,403.7c-7.6,1.5-15.9-0.2-20.3-1.7
		s-17.9-6.3-16.4-27.5c1.6-21.9,25.3-23.7,25.3-23.7s14.6,0,22.6,11.3c4,5.7,4.3,6.6,4.3,6.6"/>
	<path display="inline" fill="none" stroke="#FFFF00" stroke-width="5.000000e-02" d="M295.7,370.9c0,0,0.4-3,1.1-8.9
		s8.5-11.9,8.5-11.9s8.3-7.1,23.1-5.6s25.1,16.9,25.1,16.9s4.2,11.1,3.9,12.8"/>
	<path display="inline" fill="none" stroke="#FFFF00" stroke-width="5.000000e-02" d="M426.3,383.1c-2.3,12.5-9.3,23.4-10.7,26.3
		c-1.5,2.9-18.7,22-18.7,22s-7.6,6-8.6,6.3s-13.4,5.4-17.8,8c-4.3,2.6-18.4,5.2-22.9,4.5s-27-2.5-32.8-3.3s-42.5-5.8-57.3-28.8
		c0,0-17.3-28.6-14.6-41.4"/>
	<path display="inline" fill="none" stroke="#BF0000" stroke-width="5.000000e-02" d="M450.8,531.6c0,0-11.2,5.4-13.2,6.3
		c-1.9,0.9-8.3,3.5-11,3.7s-18.6,1.1-22.1,0.9s-23.4-0.6-24.6-0.6"/>
	<path display="inline" fill="none" stroke="#BF0000" stroke-width="5.000000e-02" d="M340,548.8c0,0,29.6,1.3,35.4-0.6
		s48.9-1.5,55.7-2.7c6.8-1.1,21.1-10.4,22.6-11.4c0,0,6.6-1.6,9.4-2.5s8.9-6.9,10.5-8s6.3-5.7,6.7-5.9"/>
	<path display="inline" fill="none" stroke="#BF0000" stroke-width="5.000000e-02" d="M433.2,551.8c-1.8,0.3-15.6,0.2-20.6,0.3
		c-4.5,0.1-9.5-1-9.5-1s-30.5,3.7-32.8,4.1s-6.7,1.1-8.5,1.1"/>
	<path display="inline" fill="none" stroke="#FFFF00" stroke-width="5.000000e-02" d="M309.5,489.2c3.9,0.4,5.2,0.1,13.4,1.2
		c1.3,0.2,5.8,0.3,7.1,0.6s13.3,2.9,14.8,2.8c0,0,8.6,0.4,9.9,0.3s25.8-6.9,27.3-6.8s16.6-9,24.1-10c1.7-0.2,13-11.3,14.4-12.3
		s7.2-9.6,7.2-9.6s15-16.4,16.1-17.2c1.1-0.8,13.6-14.5,13.6-14.5l13.4-19.9c0,0,11.1-12.6,11.8-13.7s5.1-22.8,5.3-23.1
		s8.7-26.4,9.1-27.6s4.6-33.1,4.9-34.1s2.3-25.8,2.1-27.1s-8.9-20.2-9.3-21.3s-7.6-15.4-8-16.2s-11-13.1-12.3-14.1
		c-1.4-1-14.5-8.8-16.4-9.9c0,0-6.9-6-11.2-7.2c-4.3-1.2-12.8-1.9-15-2.8c-2.3-0.8-10.3-4.4-14.1-6.6s-6.5,0.1-13.9-2.4
		s-23.1-7.3-29.7-6.7s-13,1.9-16.2,1.5s-8.8,0.6-12.4,2.1s-28.5,11.9-30.4,12.6c-1.9,0.7-16.4,6-18.9,6.4s-7.4,2.9-9.8,6.6
		s-11.9,12-13.2,12.9c-1.3,0.9-13.8,11.7-14.9,12.9c-1.2,1.2-8.5,5.9-10.3,7.6c-1.8,1.7-12.8,9.5-13.4,10.4s-8.1,15.9-8.7,17.2"/>
	<path display="inline" fill="none" stroke="#FFFF00" stroke-width="5.000000e-02" d="M451.1,256.1c-0.3-0.6-6.6-5-9.3-7
		s-8.6-6.6-8.8-6.9c-0.3-0.3-13.1-5-14.9-5.5s-6.6-2.8-10.2-3.8c-3.5-1.1-8,0-9.3-0.3s-15.3-3.8-19.1-4c-3.8-0.2-24.7-1.8-26.4-2
		s-8.6,1.7-13.2,0.9s-13,0.5-13,0.5s-5.9,4-7.8,4.6c-1.8,0.6-7.8,3-9.3,3.9c-1.4,0.9-11.9,5.4-13,6s-11.7,6.2-12.3,6.3
		c-0.7,0.2-6.5,3-6.8,3.3s-13.3,9.7-13.3,9.7s-16,12.3-15.8,12.8c0.2,0.4-6,7.5-6.3,8.1s-5.6,6.5-5.6,6.5"/>
	<path display="inline" fill="none" stroke="#BF0000" stroke-width="5.000000e-02" d="M450.8,531.5l12-1.8c0,0,6.8-4.9,8.4-6.8"/>
</g>
<g>
	<path fill="none" stroke="#FF0000" stroke-width="0.15" d="M327.5,374.3c0,0,8.5,1.6,8.1,8.7c-0.4,7.2-5,8.2-8.3,8.8
		s-11.7-3.5-10.6-10.5C317.8,374.4,327.5,374.3,327.5,374.3z"/>
	<path fill="none" stroke="#FF0000" stroke-width="0.15" d="M314.4,382.3c0,0-2.3-10.9,13.7-10.9c6,0,12.1,8.5,11.9,11.7
		s-1.2,12.3-12.6,10.3C316.1,391.5,314.4,382.3,314.4,382.3z"/>
	<path fill="none" stroke="#FF0000" stroke-width="0.15" d="M310.2,379.3c0,0,1.4-13,17-12.4c15.7,0.6,15.3,11.3,15.7,11.8
		c0.3,0.5,1.2,11.9-4.8,14.8s-8.2,3.1-12.6,2.5s-11.8-5.6-12.8-8.4C311.6,384.8,310.6,384.5,310.2,379.3z"/>
	<path fill="none" stroke="#FF0000" stroke-width="0.15" d="M342.5,372.5l-1.8-2.5c-4.1-4.7-11.7-5.2-11.7-5.2s-7.2-0.6-12.9,1.7
		c-2.9,1.2-4.3,1.7-7.9,7.5c0,0-2.7,5.7-0.4,10.8c2.3,5.1,4.8,8.4,8.7,10.7c0,0,8.7,3.9,14,3.1s11-3.1,12.6-6.6
		S347.4,379.8,342.5,372.5z"/>
	<path fill="none" stroke="#FF0000" stroke-width="0.15" d="M347.1,382.8c-0.1-1.7-0.9-7.3-5.4-13.5s-16.3-6.5-16.3-6.5
		s-9,0.4-13.4,4.3c0,0-6.2,4.8-6.7,14.1s9.6,15.2,9.7,15.4s11.3,4,18.2,2.8C340.2,398.2,347.6,392.5,347.1,382.8z"/>
	<path fill="none" stroke="#FF0000" stroke-width="0.15" d="M324.8,356.4c0,0,21.9,1.4,24.5,17.9c1.9,11.8,2.3,10.6,0.5,14.5
		S339,404,327.6,402.2s-23.7-8-25.2-22.4s12.2-21.4,13.5-21.8S321.3,356.5,324.8,356.4z"/>
	<path fill="none" stroke="#FF0000" stroke-width="0.15" d="M338.3,357.5c0,0-10.3-5.7-21.3-2.7c0,0-6.4,2.8-8.8,4.6
		s-8.4,10.2-8.5,15.1c0,5-0.1,16.2,9.3,22.4c9.4,6.2,19.8,7.5,22.1,7.5c4.5,0,17.4-5.3,20.6-12s-0.6-22.4-1.7-23.7
		C349,367.3,343,360,338.3,357.5z"/>
	<path fill="none" stroke="#FF0000" stroke-width="0.15" d="M298.1,389.2c5.7,10.6,16.4,15.1,16.4,15.1c21.8,4.3,27.9-1.5,35.6-6.3
		s7.9-19.3,8-20s-0.3-6.6-10.4-19.9s-28.3-11.3-28.3-11.3s-16.9,3.8-21.1,15.1C294.2,373.5,293.8,381,298.1,389.2z"/>
	<path fill="none" stroke="#FF0000" stroke-width="0.15" d="M324.4,340.8c-7.6,1,0.3-0.8-12.8,2.2c-12.3,2.8-16,21-16,21
		c-1,1.3-7.3,17.3,0.6,27.7c11.6,15.3,23.6,15.4,23.6,15.4s17,4.3,32.2-8.3c9.4-7.8,8.2-17.5,8.2-21.8c0,0-1-12-7.6-19.8
		C349.2,353.3,336.1,339.2,324.4,340.8z"/>
	<path fill="none" stroke="#FF0000" stroke-width="0.15" d="M290.2,365c0,0,9.5-21.3,18.8-24.2c10.6-3.3,14.6-4.4,23.9-1.8
		s20.8,12.4,25.8,21.4c0,0,5.6,10.9,5.7,17.4s-2.7,14.3-4.1,16.4c-1.5,2.1-8.5,9.1-11.3,10.8s-19.1,5.3-23.7,5.1s-18.9-3.7-23.3-7.8
		s-11.1-11.9-12-24.8C289.2,367.6,290.2,365,290.2,365z"/>
	<path fill="none" stroke="#FF0000" stroke-width="0.15" d="M291.8,394.9c-6.1-8.9-5.3-29.7-5.3-30.2s4.1-14.1,12.9-22.7
		s26-7.9,26-7.9s19.3,0.6,29.2,13.8c0,0,11.5,15.6,12.8,22.9s-1.6,18.1-3.1,20.8c-1.5,2.8-10.8,13.3-15.5,15.1s-21.4,9.7-44.2,0.8
		C304.6,407.7,293.9,399,291.8,394.9"/>
	<path fill="none" stroke="#FF0000" stroke-width="0.15" d="M320.3,330.4c0,0,18.7-3.9,33.5,9s8.8,16.5,12.2,19.9
		c3.4,3.4,4.3,18.8,3.9,20s-2.4,13-5.6,16.1c-3.3,3.1-11.6,11.8-12.3,12.1s-9.6,4.7-12.9,4.6s-12.1,1.8-16.9,1.3s-18.7-3.2-24.4-8
		c0,0-11.1-10.3-11.4-15.2c-0.3-4.9-5.4-9.9-3.8-21.1s4.5-19.2,7-22.5c2.2-2.9,9.4-11.3,15-13C310.1,331.9,320.3,330.4,320.3,330.4z
		"/>
	<path fill="none" stroke="#FF0000" stroke-width="0.15" d="M317.3,324c0,0,23.1-3.5,36.3,10.1c17.9,18.5,17.9,25.2,17.9,25.2
		s3.3,0.5,3.4,9.4s-3.8,25.2-7.9,30.4s-12.9,17.4-27,17.8c-14,0.4-38.5-3.8-43.9-8.2c0,0-11.8-8.7-15.3-19.2
		c-2.6-7.8-5.3-16.9-0.2-33.9s20.2-26.7,20.2-26.7L317.3,324z"/>
	<path fill="none" stroke="#FF0000" stroke-width="0.15" d="M280.3,393.7c-2.3-3.6-6.7-12.5-4.8-30c2.2-20.7,19.5-36.9,19.5-36.9
		c11.9-7.4,23.4-8.3,23.4-8.3s15-1.1,25.5,3.6c21.3,9.5,30.5,35.6,30.5,35.6s4.1,4.8,2.2,15.6c-1.9,10.8-3.8,18.6-3.8,18.6
		s-5.7,12-10.9,15.9s-11.1,9.2-18.8,9.7s-34.4-2.4-34.8-2.5s-0.4-0.1-0.4-0.1s-12.8-3.5-20.1-11.1
		C280.4,396.3,280.3,393.7,280.3,393.7z"/>
	<path fill="none" stroke="#FF0000" stroke-width="0.15" d="M374.4,351.4c0,0-11.5-24.6-20.9-29.7c-9.4-5.2-15.3-10.8-28.6-10.1
		c-13.2,0.8-23.7,6.3-25.9,7.3c-2.3,0.9-19.3,18.3-22.5,25.6c-3.3,7.3-10.2,22.8-3.2,39.9c7.4,18,9.3,15.9,12.4,20.7
		c0,0,12.9,8.7,19.6,10.4c6.7,1.8,29.1,3.4,32.6,3.3s23.4-2.3,33.7-19.1s7.9-36.8,7.9-36.8S375.5,353.7,374.4,351.4z"/>
	<path fill="none" stroke="#FF0000" stroke-width="0.15" d="M279.1,332.8c8-8.2,11.2-13.1,22.1-19.3c5.9-3.3,22.7-6.3,25.4-6.8
		c4.5-0.8,16.9,1.3,24.3,5.8c4.5,2.7,18.3,16.6,21.1,20.6c2.8,4,9.4,23.8,9.4,23.8s3.1,11.6,2.7,15.4s-6.8,25.8-10,30
		s-11.4,12-17.7,14.7c-6.5,2.8-20.3,5.1-27.6,4.2c-7.3-0.8-21.9-2.8-21.9-2.8s-18-5-27.2-16.1c-10-12.2-12-27.1-12.1-32.7
		C267.5,357.8,274.6,337.3,279.1,332.8z"/>
	<path fill="none" stroke="#FF0000" stroke-width="0.15" d="M381,341.4c-1.4-4.1-17.9-36.5-43.7-39c0,0-24.8-0.1-42,11.3
		s-25,35.7-25,35.7s-7.5,19.7-1.8,35.6c0,0,6.3,16.4,17.6,24.2c3.9,2.7,10.1,7.1,20.1,9.6c7.3,1.8,16.8,3.3,28.5,3.2
		c3.1,0,6.3-0.7,9.7-0.8c0,0,28.6-3.3,36.3-26.9c7.7-23.6,7.1-32.8,7.1-32.8S382.4,345.6,381,341.4z"/>
	<path fill="none" stroke="#FF0000" stroke-width="0.15" d="M337.8,300.3c6.3,0.6,27.1,6.9,34.2,19.8c0,0,19.2,28.9,16.7,38.2
		c-0.3,1,2.6,3.9,2.6,3.9s-0.9,17.5-3,23.2s-8.4,18.9-10.6,20.4c-2.3,1.5-11.2,11.6-15.8,12.5c0,0-15.7,6.6-25.7,5.4
		s-37.1-0.9-49.7-11.6c-13-11-18.4-19.3-20.1-30c-1.8-10.8-0.5-27.2,5.9-43.8s30.7-32.4,41-34C323.6,302.8,331.6,299.7,337.8,300.3z
		"/>
	<path fill="none" stroke="#FF0000" stroke-width="0.15" d="M317.5,425.8c14.3,2,27.2,1.8,37.1-0.9c9.9-2.8,24.7-15.5,24.7-15.5
		s14.1-21.6,14.8-24.4s8.3-12.7-4.7-50.5c-12.9-37.8-50.3-40.3-50.3-40.3s-36.3,3.4-47.9,15.3c0,0-18.8,14.2-21.3,24.5
		c0,0-9,23.8-8.9,26.1s-3.3,24.9,7.5,38.6C279.2,412.5,296.1,422.8,317.5,425.8z"/>
	<path fill="none" stroke="#FF0000" stroke-width="0.15" d="M382.5,414.4c0,0,13.1-12.9,17.6-29.4c0,0,6.4-37.6-7.7-63.7
		c0,0-14.5-27.5-36.8-33.4c0,0-25.5-4.2-39.7,2.5c0,0-30.2,11.9-39.1,25.1c0,0-13.9,18-17.2,32.7c-3.3,14.7-1.8,30.2-0.6,35.5
		c0,0,0.9,20.5,28.2,35.6c23.6,13.1,51.6,11,52.7,10.9C342.7,430,371.8,425.5,382.5,414.4z"/>
	<path fill="none" stroke="#FF0000" stroke-width="0.15" d="M284,305.9c16-9.5,38.7-22.2,56.1-22.3c17.4-0.1,26.3,6.4,42.2,18
		c15.8,11.6,20.6,52.3,20.6,52.3s1.3,20-0.9,30.5s-11,23.4-13.3,26.2c0,0-15,15.7-31.7,18.2c0,0-21.1,5.5-37.9,2
		s-36.5-8.6-42.3-16.7c0,0-15.2-9.5-17.3-23.8c-0.7-4.7-1.9-10.3-2.3-16.3c-0.9-12.4,0-26.6,5.2-37.9
		C271.1,317.3,279.9,308.3,284,305.9z"/>
	<path fill="none" stroke="#FF0000" stroke-width="0.15" d="M406.7,353.9c0,0-2.8-39.3-19.8-55.2c-10.8-10.1-20.3-16.8-36.8-18.5
		c0,0-26.8,0.8-39.5,7.7c-16.2,8.8-27.4,14.2-30.6,18.7c0,0-18.7,24.6-20.9,33.2c-2.3,8.6-7.8,36.6,2.7,59.1
		c9.8,21.1,29.2,26.6,33.9,28.4c9.2,3.6,40.5,12,68,0.7c0,0,24.6-9.4,32.1-22.5C403.3,392.3,410.7,365.6,406.7,353.9z"/>
	<path fill="none" stroke="#FF0000" stroke-width="0.15" d="M260.8,330.3c-5.6,11.1-6.9,39.3-6.6,50.2c0.3,10.8,11.8,29.2,19.9,37.1
		c8.1,8,29.2,13.8,33.8,14.7s31.3,4,38.3,3.3s30.9-9.3,42.9-20.1c12-10.8,16.4-27.2,19.3-36.4c2.9-9.2,2.3-25.2,2.3-25.2
		c-0.2-12-10.4-42.6-18.8-53.7c-8.4-11-28.8-19.4-28.8-19.4s-16.7-4.9-25.4-2.3c0,0-35.3,8.5-50.5,20.5
		C270.3,312.4,262.4,327.3,260.8,330.3z"/>
	<path fill="none" stroke="#FF0000" stroke-width="0.15" d="M323.5,280.7c0,0,11.9-7.2,34.9-4.1s27.7,9.6,31.1,11.9
		s17.7,22.3,18.3,24.2c0.5,1.9,7.5,29.3,7.5,29.3s3.2,23.9,2.7,26s0.1,8.3-4.1,18.4c0,0-13.4,22.1-15.2,25c0,0-19.8,16.7-25.6,19
		c-5.8,2.3-24.1,8.1-30.9,7.8c-6.8-0.3-38.6-2.5-54.5-9.3c0,0-21.2-13.6-26-23.7s-11.5-27.9-10.1-36.5s2.3-37.5,14.8-52.1
		c12.6-14.6,24.8-23.2,32.4-26.2C306.3,287.2,316.8,282.3,323.5,280.7z"/>
	<path fill="none" stroke="#FF0000" stroke-width="0.15" d="M300.4,289.1c-5.6,1.7-13.9,7.3-13.9,7.3c-10.3,6-7.8,6-12.3,9.1
		c-5.6,3.8-11,13-14.5,21.5c-3.9,9.2-5.8,17.8-5.8,18.2c0,0.8-3.9,29-3.9,29c0.1,14.7,17.2,41.6,17.2,41.6
		c11.1,14.5,29.9,16.9,52.8,22.3c22.9,5.3,40.2-1.4,40.2-1.4c7.3-1.8,28.5-11.8,38.1-20.1s20.8-40.9,21.9-44.4s-2.2-27.9-2.8-38.6
		c-0.6-10.7-6.4-18.3-9.1-28.2c-2.7-9.8-24.3-23.5-33.4-27.6c-9.2-4.1-35.3-2.9-35.3-2.9s-16.8,4.7-21.3,6.6
		S302.5,288.5,300.4,289.1z"/>
	<path fill="none" stroke="#FF0000" stroke-width="0.15" d="M411,298.7c0,0,10.6,24,10.8,33.3c0.2,9.2,0.8,39.3-0.7,43.6
		c-1.4,4.3-9.3,22.2-10.9,27s-14.2,17.8-15.3,19.5c0,0-32.5,19.5-40.8,20.1s-31-0.1-35-0.7s-28.3-6.6-33.3-8.9
		c-4.9-2.3-18.2-9.7-20.7-15.6s-13.1-20.9-13.3-23.8c-0.3-2.8-4.3-13.6-3.1-27.3s5.9-28.4,6.8-31.9c1.6-6.2,9.9-25.1,20.5-31.7
		c8.9-5.5,19.1-15.2,30.4-18.5s14.8-6.7,21.4-8.7s27.4-4.8,35.5-3.5C371.6,273.1,396.2,283.3,411,298.7z"/>
	<path fill="none" stroke="#FF0000" stroke-width="0.15" d="M246.4,353.9c2.4-13.3,9.3-35.9,19.9-45c10.7-9.1,14.5-15,22.5-18.3
		s17.1-10.4,26.1-12.9s23.3-8.2,32.5-7.3c9.2,0.9,15.9-6.1,42.9,8.9s28,27.6,29.6,31.1s6.8,16.5,6.4,23.2s2.1,21.5,1,26.4
		s-7.8,27.4-10.3,34.8s-10.2,19.1-13.9,23.2c-3.2,3.6-9,9.7-10.8,10.7c-1.8,0.9-16.4,9-20.3,11.6c-10.4,7-38.1,5.5-41.6,4.8
		s-39-5.7-40.6-7.6c0,0-18.9-8.6-22.4-13.9c-3.4-5.3-14.6-19.1-14.8-21.3s-6.6-17.3-7.3-30C245.1,366.9,244,367.2,246.4,353.9z"/>
	<path fill="none" stroke="#FF0000" stroke-width="0.15" d="M415.2,406.6c2.6-5.5,9.1-23.9,12.4-35.8c3.4-11.8,1.1-14.5,1.6-28.7
		c0.6-14.2-2.5-17.7-5.7-28.8c-3.2-11.1-10.2-21.1-31.8-35.5c-21.6-14.5-45.8-8-49.4-8.9s-16.6,4.1-20.1,4.4s-12.4,5.3-18.5,6.8
		c-6.1,1.6-15.3,7.5-21.5,9.8s-14.1,13.8-18.2,17.2c-4.1,3.4-12.2,20.4-12.2,20.4s-5.8,14.1-6.3,17.7s-3.3,22.8-2.3,29.1
		c0.9,6.2,5.9,37.2,25.1,52.9c19.2,15.7,21.2,11.9,25.7,14c4.4,2.1,40.7,6.3,49.1,7.8s27.7-5,34.7-8.8
		C389.8,433.6,410.2,417,415.2,406.6z"/>
	<path fill="none" stroke="#FF0000" stroke-width="0.15" d="M393.3,438.1c0,0,10.7-9.9,14.5-14.3c3.9-4.3,14.5-20,15.1-22
		c0.7-2,4-6.6,6.6-17.1s3-27,3-27v-29c0,0-2.3-5.5-3-8.5s-16.4-33.7-24.1-37.2s-30.2-14.1-33.4-14.8c-3.2-0.7-37.6-2.2-50.8,2.7
		s-22.7,7.7-23.8,7.8c-1.1,0.2-20.8,12.1-21.6,12.7c-8.3,6.6-17.4,19.8-17.6,20.1c-0.2,0.3-12.5,23-13.1,26s-9.5,24-5.3,45
		s9.9,38.9,25.2,47.8s27.3,13.6,33.7,15.1s30.7,6.1,31.8,6.4c1.2,0.3,22.1,1.3,26.8,0.5c0,0,20.2-6.7,24.6-9.3
		C386.4,440.4,393.3,438.1,393.3,438.1z"/>
	<path fill="none" stroke="#FF0000" stroke-width="0.15" d="M436.3,368.9c0,0-0.2-26.7,0.2-28.2s2.4-14.1,0-17s-7-16.7-7-16.7
		s-7.2-14.7-7.4-15.2c-0.2-0.5-9.5-8.3-10.2-8.8s-16.5-10.4-17.4-10.9s-15.6-4.6-17.3-5.3c-1.8-0.8-7.6-1.5-7.6-1.5
		s-34.5-0.5-41.1,1.2s-22.8,7-24.5,7.5c-1.7,0.6-17.9,8.5-21.5,10.8c-4.1,2.7-13.3,9.5-13.3,9.5s-12.3,14.2-12.6,15.1
		c0,0-13.3,25.5-13.6,26.4s-3.4,10.2-3.8,12.5c0,0-4.3,21-2.5,30.5s3.8,21.8,4.8,23.6c1,1.8,6.4,13.7,8.2,16.4s10.4,13.6,20.2,18.2
		c9.8,4.7,29.5,10.9,35.4,12.2c5.9,1.3,31.3,6.7,33.7,6.7s22.6-0.9,31.3-5.6c8.8-4.7,23.2-8.6,23.4-10.2
		c0.3-1.6,24.6-20.8,26.6-26.7c1.9-5.8,10.4-13.9,12.1-29.3c0.8-6.7,3.8-15.4,4-16.3"/>
	<path fill="none" stroke="#FF0000" stroke-width="0.15" d="M296,449.7c0.7,0.3,26.3,8.3,30,6.5c2.2-1,21.6,1.6,22,1.8
		c0.4,0.2,21.6-5.3,21.6-5.3s6.8-3.4,9.3-4.5c2.5-1,16.8-6,19.8-9.3s12-11.2,12-11.2l13.4-14.2c0,0,7.8-13.8,8.3-14.7
		c0.5-0.9,2.2-8.9,2.8-13.2c0.6-4.3,5.3-11.3,5.3-11.3c0-0.3,0.9-16.4,0.9-17.3s3.9-28.8,3.9-30.6c0-1.8-9-24.5-10.8-27.5
		s-9.3-12.9-9.8-13c-0.6-0.1-14.7-9-14.7-9s-9.3-6.9-9.7-7.2c-0.3-0.3-10.3-2.6-16.5-5.7c-6.2-3.2-30.2-3.1-31-3.3
		s-22.4,1.7-23.6,1.8c-1.2,0.2-12.2,2.2-14.5,2.7s-9.9,5.1-12.2,6.2c-2.3,1.2-11.2,3.1-14.6,5.4s-15.3,11.1-16.1,11.2
		S257,304.5,256,305s-6.2,12.1-9.5,15.7s-9.1,23.7-9.1,23.7s-3.8,12.9-3.5,14.9s0.3,18.4,0.6,20s4.6,23.1,5.3,25
		c0.8,1.9,10.9,21.5,12.5,22.9c0,0,15.2,11.7,18.6,13.1S295.7,449.5,296,449.7z"/>
	<path fill="none" stroke="#FF0000" stroke-width="0.15" d="M261.6,288.9c0,0,11.2-9,13.5-9.8c2.4-0.8,15-9.8,16.5-9.5
		c1.4,0.3,16.2-5.1,17.7-5.8s18.8-4.5,21-5.1s22.3-3.2,23.8-3.2c1.6,0.1,20.5,0.1,23.1,0.8c2.6,0.8,33,11.2,35.1,12.3
		s24.1,10.8,27.7,18.3c3.6,7.6,11.9,35.1,12.3,36.5s-5.7,39.6-5.3,40.4s1.3,11.8-2.6,17.9c-3.8,6.2-6,15.1-6.9,18.6
		s-12.6,18.8-13.3,19.5s-22.7,20.4-23.1,20.7c-0.4,0.3-14,7-14.9,7.1s-12.7,4.8-13.5,5.3c0,0-16.5,4.8-17.8,5.2
		c-1.3,0.3-22.4,0.2-25.8-0.5c0,0-14.6-0.1-16.7-0.3c-2.1-0.3-17.7-3.3-21.5-4.3c-3.8-0.9-17.4-6.6-20.6-8.4
		c-3.3-1.8-10.4-5.5-11.9-7.7s-17.9-21.1-19-24.1s-12.2-27.8-11.5-37.3c0.7-9.6-0.7-26.5,6.7-41.6c7.3-15.1,23.3-40.4,23.7-40.8
		S261.6,288.9,261.6,288.9z"/>
	<path fill="none" stroke="#FF0000" stroke-width="0.15" d="M244.9,428.1c1.8,2.1,15,14.3,15,14.3c0.9,1.3,20.7,10.9,23,11.9
		s17.9,4.9,22.4,5.3c4.5,0.3,20.8,0.9,23.8,1.2c2.9,0.3,22.1,0.3,24.9,0.6s18.6-4.9,20.4-5.4s16.3-6.9,17.7-6.7
		c1.4,0.2,23.3-14.5,25.3-15.6s14-16,14-16s11.8-15.4,12-17.9s7.5-16.9,8.3-19.3s4.4-31.3,4.8-32.3s2.6-21.8,2.2-25.6
		c0,0-5.9-25.3-6.2-26.1s-9-19.2-13-21.6s-32.1-14.9-32.4-15.2s-29.7-8.6-30.5-8.9c-0.8-0.3-28.7-0.2-31.2,0
		c-2.4,0.2-29.1,3.3-32.2,4.1s-22.1,9.3-25.3,10.5s-19.7,11.1-22.2,12.5c-2.5,1.5-14,14-15,15.5s-12.4,22.3-13.4,23.9
		c0,0-13.1,31.4-11.9,49.1c0,0-0.8,18.1,1.7,22.8c0,0,2.3,11.6,3.8,13.7C230.7,402.8,243.8,426.8,244.9,428.1z"/>
	<path fill="none" stroke="#FF0000" stroke-width="0.15" d="M249.9,289.5c1-1.2,7.7-9.5,8.9-10.3c1.1-0.8,14.9-9.2,15.9-10.2
		s11-6.9,11.6-6.6s16.3-5.8,16.3-5.8c4.9-2.7,16.1-4.7,18.5-5.7c2.4-0.9,15.5-4.2,18.6-3.9s17.7-1.3,24.3-1.2
		c6.7,0.1,17.3,1.2,17.3,1.2c6.5,2.9,21.5,3.8,22.8,4.8c1.3,0.9,16.8,5.3,18.8,6.2s15.8,8.8,23.1,15s12.7,24.9,13,26.6
		s-0.3,7.4,2.6,16c2.8,8.6,2,21.3,1.9,22s-2.6,17.8-2.9,18.8s-4.6,23.4-4.6,23.4s-2.8,5.1-3.9,7.5c-1.2,2.4-6.8,14.1-7.8,17.3
		s-8.2,13.1-8.7,13.6s-8.2,8.4-9.2,9.7c-1,1.3-11.3,10.6-12.2,11.3c-0.8,0.7-4.3,4.1-7.1,5.7c-2.8,1.6-21.7,12-23.7,11.9
		s-13.5,4.4-14.7,4.8c-1.2,0.3-18.1,4-19.8,3.8c0,0-24.4-1.1-25.7-1.3s-24-1.3-25.3-1.6c-1.3-0.3-16.2-1.6-18.1-1.9
		s-12.5-6.5-15-7.3s-12.1-8.8-12.5-9.3c0,0-11.1-12.1-11.3-12.8c-0.3-0.7-6.8-12.1-7.1-12.8c-0.3-0.7-9.6-21.5-9.9-22.3
		c-0.3-0.8-1.7-9.7-1.9-11.3c-0.2-1.7-0.8-14.5-0.9-15.5c-0.2-1,1.1-16.1,1.5-17.6s1.1-13.8,2.5-17.9s11-27.9,11.5-28.4
		S247.1,292.8,249.9,289.5z"/>
	<path fill="none" stroke="#FF0000" stroke-width="0.15" d="M411.6,442.9l3.2-2.2c0,0,17.7-16.1,18.9-17.3s12.8-13.8,13.3-14.9
		c0.4-1.1,4-11.5,4.8-13.6s9-16.9,9.3-18.2s6.8-25.4,7-27.4s2.4-18,1.5-25.7c-0.9-7.8-4.7-26.4-5.3-27.3
		c-0.7-0.9-9.9-22.5-10.9-23.5s-15.5-13.6-19.8-15.9s-13.1-6.5-16.6-7.1s-12.1-2.8-15.3-3.3c-3.2-0.4-19.6-3.9-21.7-4.5
		s-22.1-2.6-23.7-3s-16.8-1.5-21.4-0.6s-14.3,4-16.9,4.3s-10.4,1.8-13.4,4.3s-13.4,8.5-18.8,9.5c-5.4,1-13.4,8.1-15.3,8.8
		c-1.9,0.8-10.9,8.7-12.1,9.4c-1.3,0.7-10.8,11.8-11.4,12.6c-0.6,0.8-11.8,16.5-13.1,17c-1.3,0.6-8.7,17.5-9.5,18.3
		s-6.2,24.2-7.3,25.5s-2,26.5-0.8,31.2s8,27.4,9.3,29.2s13.5,24.9,15.7,27.2c2.2,2.2,16.4,16.2,19.8,17.6s16.9,8.9,19.7,10.4
		s23.1,1.5,31.1,3.8c0,0,28.4-0.1,30.8,0.7c2.4,0.8,23.7-4.3,25.4-4.8s30.8-10.8,36.7-15.5C404.5,447.8,407.9,445.6,411.6,442.9z"/>
	<path fill="none" stroke="#FF0000" stroke-width="0.15" d="M228.1,311.5c0.5-1,7-11.7,7.6-12.2s7.5-8.3,9.2-11.8
		c1.7-3.6,9.4-11.5,10.2-11.7s8.5-7.1,9.5-7.6c1-0.4,9.5-6.7,10.5-7.6c1-0.8,5.7-3.8,6.5-4.1s10.1-4.2,12.8-5.5
		c2.8-1.3,9.7-6.8,11.6-7.2s10.6-2.7,16.4-4.9s18.3-2.6,20.8-2.7c2.4-0.1,22.1,1.7,22.1,1.7c3.7-0.1,26.9,5.2,31.2,5.9
		c4.1,0.6,19.4,4,21.5,4.3s16.9,4.5,21.8,7.3c4.8,2.8,14.3,12.7,17.5,17c1.3,1.8,7.6,13.3,7.6,13.3c2.3,5.8,2.1,7.5,3.3,11.4
		s3.3,30.9,3.4,36.1c0.2,5.2-5.8,31.5-6.1,32.4c-0.3,0.9-5.1,17.8-5.3,18.2s-5.1,8-6.3,9.8s-3.6,9.2-3.6,9.2s-2.5,7-3,8
		s-10.3,10.1-11,11.7c-0.8,1.6-8.5,7.4-8.8,8.4s-14.2,12.6-15.1,13.5s-13.3,9.9-14.7,10.5c0,0-14.9,6.7-15.9,7.1
		c-1,0.3-9.7,3.9-11.2,4s-9.7,2.6-12.1,2.8c-2.3,0.2-6.8,1.6-10.3,1.6c-3.4,0-18.7-1.3-22.3-1.1c-3.6,0.2-12,1-13.5,1
		s-4.2-1.5-9.4-2.5c-8.8-1.6-14.2-1.7-23.8-3.3c0,0-17.3-9.2-19.9-10.4s-14-10.7-15.2-12.3c-1.2-1.6-11.4-15.5-12-16.8
		s-8.3-17.2-9.1-17.9s-6.2-18-6.6-19.7c-0.3-1.7-2.5-16.2-1.8-24.7c0.3-3.5,1-15.9,1.3-16.1c0,0,6.8-23.8,9.4-29.2
		C226.5,315.8,226.6,314.2,228.1,311.5z"/>
	<path fill="none" stroke="#FF0000" stroke-width="0.15" d="M224.6,417.6c0.5,1,13.6,22.3,14.2,23.2c0.6,0.9,20,16.5,22.3,18.2
		c2.3,1.7,15.7,7.5,18.7,8.6s15,3.3,18.5,4.2c3.5,0.8,18.1,2.7,20.8,2.1s11,0.5,11.5,0.8s14.6-0.1,17.1,0s17.5-3.6,20.1-3.8
		c2.6-0.2,14.7-5.7,16.4-6.3c1.6-0.7,17.8-7.8,19.1-8.5c1.3-0.7,12-9,12.4-9.8s14.9-14,16.1-14.7s5.8-5.6,6.6-6.2
		c0.8-0.6,9.3-9.8,10.5-11.3s6.3-11.7,7.4-14.1c1.2-2.4,9.7-17.3,10-18.3c0.3-0.9,4.8-14,4.8-15.5s5.7-25.3,5.8-25.8
		c0.1-0.6-0.3-17-0.6-18.9c-0.3-1.9-2.8-24.8-2.8-24.8s-2.3-9.3-7.3-17.5s-12.1-18.8-14.6-20.5c0,0-11.8-8.5-12.9-9.7
		c-1.1-1.3-8.5-6.3-11.1-7.2c0,0-12.4-4.3-14.7-4.7c-2.3-0.3-13.1-2.3-17-2.7c-3.9-0.3-18.5-2.6-20.6-2.8s-14.5,0.5-16.1,0
		s-19.7-0.5-21.3-0.5c-1.7,0-15,2.6-16.3,3.3s-11.8,4.2-13.2,4.5s-8.8,2.4-10.1,3.8c-1.3,1.4-7.9,5.3-9.8,6
		c-1.8,0.7-6.7,2.3-7.5,2.7c0,0-8.4,6-10.1,6.9s-8,6.1-9,6.6s-9.8,8.3-12.1,10.3s-7.2,8.8-7.8,9.6c-0.6,0.8-7,7.6-7.4,8.3
		c-0.4,0.7-6.8,8.1-6.8,8.1s-1.8,4.3-2.1,5s-5.3,12.3-5.3,12.3s-5.7,16.7-5.9,18.3c-0.3,1.6-2.7,25.1-2.8,26.2s1.4,15.2,1.6,17
		c0.2,1.8,5.3,24.8,7.2,28.7C222.3,412.3,222.9,414.6,224.6,417.6z"/>
	<path fill="none" stroke="#FF0000" stroke-width="0.15" d="M208.9,368.7c-0.1,1.8,1.3,14.3,1.9,17.3c0.9,4.4,1.2,6.4,1.2,6.4
		c0.1,2.5,5.8,16.7,6.6,18.8s8.3,15.3,11,21.8s10,16,11.2,16.9s11.8,9.4,12.8,10.3s15.4,9.2,15.4,9.2c1.8,1.1,14.8,5.6,16.6,6.1
		s11.1,3.1,12.1,3.3s15.2,4.2,18.6,4.2s11.9-0.4,14.4-0.3s13.1,1.1,15.2,1.1s8.1-0.5,10.2-0.7s13.9-3.6,14.9-3.8s8.8-3.8,9.4-4
		s9.6-6.3,10.1-6.6s8.2-4.3,8.5-4.4s5.7-3.9,5.7-3.9c0.6-0.3,8.7-6.1,9.3-6.4s7.7-7.4,7.7-7.4s11.8-11.3,13.8-12.2
		s8.5-7.6,11.2-10.7c2.8-3.1,10.7-7.6,12.5-16.1c0,0,8.3-11.8,9.4-13s6.3-10.4,6.8-11.1c0.4-0.7,5.6-24.7,7-26.8
		c1.4-2.1,4.8-27.5,4.9-29.1s1.7-21.1,1.3-22.3s0.4-11.7,0.3-12.4s-2.3-15.8-3.1-17.3s-8.7-16-8.9-16.8c0,0-7.3-12.4-9.3-13.8
		c-2-1.3-10.8-8.8-11.5-9.4c-0.7-0.6-15.8-11.1-16.5-11.5s-15.7-5.4-16.6-5.9s-11.3,0.1-12.3,0s-14.8-3.2-16.3-3.8
		c-1.5-0.7-12.2-4-13.8-4.1c-1.6-0.1-15.1-0.1-16.2,0s-4.9-0.4-7.5-0.1c-2.6,0.3-9.2,2.6-10.8,2.8s-16,3.3-18.2,4.5
		s-7.9,3.7-8.8,4.2s-5.3,4-6.5,4.5c-1.3,0.5-8.3,3.2-8.8,3.4c-0.6,0.2-5.8,4.9-5.8,4.9s-8.6,6.3-9.9,6.9s-11,6.6-11,6.6
		s-10.4,7.9-10.8,8s-7.9,5.8-8.5,6.1s-8.7,7.3-9,7.3c0,0-5.5,5.7-5.8,6.2s-4.9,6.6-4.9,6.9s-3.5,6-4,6.4s-5.9,6.7-6.1,7
		s-4.2,6.8-4.3,7.3s-2.5,7.9-2.8,8.5s-3.8,8.2-3.9,8.9s-3.1,10.5-3.3,11.1s-3.1,12.8-3.4,13.3s-1.3,5.7-1.4,6.3s0,9.9,0.1,10.1
		C208.8,361.5,209,367.1,208.9,368.7z"/>
	<path fill="none" stroke="#FF0000" stroke-width="0.15" d="M212.5,396.3c0,0-2.6-9.5-3-10.6s-1.9-7.6-2.7-9s0.3-12,0.3-12
		l-0.1-10.3l0.9-14.3c0-0.8,4.6-12.8,4.6-13.1c0-0.3,5.1-14.7,5.5-15.6c0.4-0.8,6.7-12.9,7.1-13.5c0.4-0.7,5.1-6.8,5.1-6.8
		s0,0,1.2-1.4s9.7-13.9,9.7-13.9c0.8-0.8,9.3-9.5,10.2-10.2c1-0.8,8.9-7.3,10.7-8.3s13.3-10.5,13.3-10.5s10.7-6.7,12.1-7.3
		c1.4-0.7,10.4-11.1,12-12.1s12.8-6.4,15.1-7.5c2.3-1.1,12-7.8,14.3-7.8s14.8-4.6,15.8-4.6s16.3-3.6,17.7-3.6
		c1.3,0,16.4-1.8,19.4-1.2c3,0.7,16.6,3,20,3.8s11.3,2.5,12.5,2.8c1.3,0.3,9.3,5.8,11.2,6.3c1.8,0.4,17.6,5.9,19.3,7
		c1.7,1.1,11.9,7.2,16.3,10.9s16.4,15.7,16.8,17c0.3,1.3,2.9,9.4,10.3,20.2s6,20.2,6,20.2l-2.3,25.8l-2.9,19.3
		c0,0-4.8,22.1-4.9,22.7c-0.2,0.6-3.2,13.1-3.2,13.1s-2.9,12.8-3.3,14.7c-0.4,1.9-9,12.7-9.5,13.5s-5.3,4.2-7.1,9.8
		s-10,12.3-10.3,13.1s-8.5,9.8-8.8,10.2s-7.5,5.4-9,6.4s-9.8,9.8-9.8,9.8s-7,8.4-7.7,8.7s-6.2,4.9-7.2,5s-9.8,4.4-9.8,4.4
		s-11.3,6.9-11.3,7.3s-7.3,4.6-8.3,5.4s-10.5,4.7-12.6,4.8s-11.8,1.5-12.3,1.5s-15.4-0.3-15.8-0.6s-18.5-1-18.5-1
		s-13.5-1.1-14.5-1.4s-12.8-3.8-13-4.1s-17.4-6-17.4-6s-13-7.3-13.9-7.8s-14.6-10-14.6-10s-9.6-7.4-15.5-17.3
		c-0.7-1.2-4.5-8.7-5.3-9.8c-0.8-1.1-9.6-20.7-10.1-22.5C214.7,404,212.9,397.9,212.5,396.3z"/>
	<path fill="none" stroke="#FF0000" stroke-width="0.15" d="M249.9,459.1c-2.4-2.2-12.2-9.4-13.1-10.3s-6.3-7.4-6.4-7.8
		s-5.9-9.2-7.5-11.3s-8.6-12.1-8.6-12.1c-1.4-1.7-3.7-9-4.1-9.9s-4.1-8.8-4.9-10.3s-1.1-7.8-1.1-7.8c-3.4-10.4-2.1-15.3-2-16.1
		s1.6-11.8,1.5-18c-0.1-6.3,2.2-19.8,2.4-20.4s3.3-10.8,3.3-10.8s2.3-7.4,2.3-8.3s3.6-6,3.9-7.2s4.6-12.1,4.6-12.1
		c0-0.4,1.7-0.1,7.8-12.5c5.8-11.8,10-16.5,10.5-17.6s16.2-11.6,17.4-12.2s10.3-8.8,11.3-9.5s15-10.9,16.9-13.4
		c1.9-2.4,12.7-12.4,13.8-12.8c1.1-0.3,9.9-3.5,11.3-3.7s8.8-3.9,9.4-4.3s8.9-4.3,9.8-4.6c0.8-0.3,10.9-3.3,11.5-3.4
		c0.6-0.1,12.1-4.8,12.9-5.1c0.9-0.3,6.1-0.4,6.1-0.4c6.5,0.2,19.5-3,21.7-2.4s26.1,8.2,31.2,8.8s13.5,6.6,17,7.8s15.8,4.4,17.1,6.1
		c1.3,1.7,7.7,6.6,19.1,13.9c11.4,7.3,20.1,23,20.5,24.3s11.4,23.1,12.3,25.5s-2.9,35.9-3.1,36.9s-5.5,28.9-6,30.2
		s-7.5,32.8-7.7,33.7c-0.2,0.9-3,7.6-3.1,8.3c-0.1,0.7-10.3,12.4-11.2,13c-0.8,0.6-6.2,9.4-6.6,11.1s-9.2,10.4-9.2,10.4
		c-2.3,1.9-9.6,11-11.1,12.5s-15,14.4-15,14.4S404.1,469,401,470.8s-16.6,8.8-19.7,10.3s-24.6,8.1-28.4,8.6s-33.4-2.7-34.7-2.6
		s-8.5,0.1-9.5,0s-14.5-6.1-15-6.1s-18.8-6.4-24.9-10.3C262.5,466.7,258.8,467.1,249.9,459.1z"/>
	<path fill="none" stroke="#FF0000" stroke-width="0.15" d="M332.6,489.4c-12.9-1.3-24.3-1-26.8-2.1c-2.4-1.2-15.4-5.9-24.5-8.2
		c-9.1-2.3-16-7.2-18.7-8.7s-12.6-5.6-15.5-9.1s-17.7-16.2-19.3-19.5s-9.6-14.4-10.6-16.2c-1.1-1.8-7.7-13.5-8-14.4
		s-5.3-14-5.8-15.7s-0.3-6.4-2.8-13c-2.4-6.6,0-11.3,0.3-12.3s1.9-26.6,1.9-27s4.8-21.7,5.4-22.6c0.7-0.9,7.8-20.1,8.3-21.6
		s7.3-14.2,8-15s9.3-16.7,9.8-17.5c0.6-0.8,14.2-10.5,15.5-11s15.5-12.2,16.9-12.7c1.4-0.4,12.7-12.3,13.2-12.8
		c0.5-0.4,12.3-11,13.2-11.8c0.9-0.8,14-5.5,15.9-5.8s14.6-7.8,16.1-7.9c1.5-0.2,24.8-10.5,27.2-10.3c2.3,0.2,16.3-0.9,23.3-1.8
		c7.1-0.9,24.2,6.6,29.4,7.5c5.3,0.9,14.5,3.8,18.4,6.3s18.6,5.8,21.7,7.1s23.8,15.3,27.9,18.5c4.2,3.3,15.2,21.4,15.2,22.5
		s10.8,16,11.8,24.8s-3.4,30.2-3.1,36.9c0.3,6.8-12.3,55.1-12.6,55.7c-0.3,0.6-2.8,15.2-3.5,16.8c-0.7,1.6-9.5,12.7-10.8,13.5
		s-11.4,16.7-11.8,17.5s-14.5,16.3-16.6,18.1c-2.1,1.8-16,16.4-16,16.4s-6.3,7.8-7.6,9.7s-10,9.2-12.4,10.8s-21.3,10-23.3,11.3
		s-21.9,4.8-22.9,5.5s-7.9,2.5-11.8,1.3C346,491.9,333.6,489.5,332.6,489.4z"/>
	<path fill="none" stroke="#FF0000" stroke-width="0.15" d="M427.2,464.8c0,0,7.3-12.5,9.1-13.6c1.8-1.1,12.1-10.3,12.8-11.5
		s11.2-14.4,11.6-15.9s6.2-9.3,7.6-10.8c1.4-1.6,9.2-12.8,10.2-13.4c0.9-0.7,7.8-6.4,9.6-17.7s3.6-10,4.3-12.6
		c0.7-2.6,5.2-13.5,5.9-15.7c0,0,4.3-12.3,4.7-14.3c0.4-2.1,3.5-16.3,3.6-17.3s3-27.2,3-27.7s3.1-7.7,0.9-22.9
		c-1.9-13.5-10.5-27.2-10.5-27.2s-13.4-23.2-19.2-26.4s-18.6-11.3-20.2-12s-12.1-4.6-18.6-5.3s-14.8-2.3-20.7-4.2
		c-5.8-1.8-28.9-5.3-34.6-8.3s-21.7-0.6-25.8-0.9c-4.2-0.3-19.2,1.9-21.2,3.1c-2,1.2-18.3,6.8-20.6,7.8s-13,8.4-16.4,9
		s-15,3.1-16.9,5.8s-11,10.1-12.3,11.2c-1.3,1.1-5.7,5.9-7.3,7.1c-1.6,1.2-15.2,13.7-16.2,14.8s-14.2,13.3-14.8,14.8
		c-0.7,1.5-9.3,13.9-10.7,16.3c-1.3,2.4-6.2,14-6.4,14.9s-5.8,14.6-5.8,14.6c-0.1-0.1-10.9,32.4-11.3,35.9
		c-0.3,3.5-0.8,16.7-0.8,17.8c0.1,1.1-2.3,14.1-2.2,16.6c0.2,2.5,3.8,16.8,4.2,18.8c0.3,2,5.6,14.6,6.4,16.4
		c0.8,1.8,7,13.7,8.3,15.2s9.7,14.4,9.9,15.7s8.9,9.4,10.6,11.6c1.7,2.2,11.2,10.6,13.5,11.9s10.9,4.7,13.1,6.5
		c2.2,1.8,9.4,5.2,12.4,6.3c3,1.1,6,2.6,8.8,3.5s17.1,5.6,18.3,6.4c1.3,0.8,3.7,2.8,11.3,2.8s12.9,0.5,13.6,0.7s16.9,3.3,16.9,3.3
		s4.8,0.9,6.8,0.7s21.8-5,22.2-5s29.9-10.7,35.6-12.3C415.5,477.4,423.4,467.8,427.2,464.8z"/>
	<path fill="none" stroke="#FF0000" stroke-width="0.15" d="M442,452.7c0,0,2.5-2.7,3.9-4.2s15.3-15.6,16.9-18.2s13.3-18.2,14-19.7
		s13-15,13.7-15.6s5.1-13,7.1-16.6s7.1-16.5,7.1-16.5s6.5-13,6.6-13.5s4.4-33.1,4.4-33.1s2.8-29.3,2.8-31.7c0-2.3-3.4-23-6.6-32
		s-14.3-27.8-14.3-27.8s-12.1-16.3-17.8-16.8s-22.8-12.4-25-13.1c-2.2-0.8-16.4-2.6-20.2-3c-3.9-0.4-11.9-3.4-19.9-3.9
		s-21.5-3.6-24.1-4.4s-25.5-1.4-27-1.6s-19.3,2.1-22.4,3.8s-23.5,8.4-24.4,8.6s-13.5,7.6-19,8s-11.5,1.5-13.8,2.8
		s-14.1,13.9-15.3,14.5S256,231.9,254.9,233s-19.5,20.5-22.5,23.8s-17.3,24.3-17.6,26.8c-0.4,2.5-9.9,26.3-10.6,27.9
		s-4.9,20.2-5.4,21.4c-3.2,8.4-1.3,28.9-2.1,32.3c-0.9,3.4-2.3,14.6,2,27.9s10,23.8,10.6,25.8s15.6,23,17.8,27
		c2.1,4,16.4,18.8,23.4,22.4c0,0,14.9,7.3,16,8.5c1,1.1,21.7,8.1,22.8,8.6s20.4,7.7,22.3,7.7s20,0.4,22,1.8s17.1,3.6,19.8,3
		s23.5-5.1,26.7-5.8c3.2-0.6,24.7-10,27.3-9.9s20.4-13.3,26.8-21.4L442,452.7z"/>
	<path fill="none" stroke="#FF0000" stroke-width="0.15" d="M401.3,488.5"/>
	<path fill="none" stroke="#FF0000" stroke-width="0.15" d="M431.3,467.6c-0.4,0.3-20.5,16.2-21.8,16.2s-25.4,7.8-25.4,7.8l-31.9,8
		c-3.9-0.4-22-4.5-23.5-4.6c-17.7-1-23.1-2.1-25.2-3s-22.3-8.9-26.5-10.3s-12.4-4.4-13.3-5.1s-13.6-7.8-16.6-9.3
		s-11.5-9.8-11.9-10.1s-8.1-9.5-9.3-11.5c-1.1-2-10.8-15.3-11.3-16.3s-10.1-16.9-10.5-17.7c-0.4-0.8-7.3-18.2-8.5-22.5
		s-1.1-14.1-1.3-15.1c-0.1-0.9,0.6-13.2,0.6-15.3c0-2.1-1.8-20.9,1.2-30.5c3.1-9.8,15-41.6,15.3-41.7s5.6-11.8,6-12.7
		c0.4-0.9,10.9-16.7,11.3-17.8s13.4-15.6,15.3-17.4s13.9-16.3,14.6-16.9s18.6-17.5,20.1-19s16.4-3.9,21.1-4.9s14.1-6.8,17.5-7.5
		s27.4-10.4,27.4-10.4c4-0.3,18.1-2,23-1.8s30.3,4.5,39.9,5.5c9.7,1,23.3,4.1,25.7,4.8s19.4,1.8,22.4,2.3s16,13,28.6,15.7
		s24.3,30.3,25.5,32.3s13.2,38.6,13,44s-4.5,46.5-4.5,46.5s-3.6,17-3.9,17.7c-0.3,0.8-5.3,13.7-5.5,14.9c-0.3,1.2-12,28.2-12.6,30.7
		s-9.5,12.3-11,15s-12,15-12.6,17.2c0,0-9.6,9.8-10,10.7c-0.3,0.9-8.1,9.3-8.8,10.1c-0.7,0.8-8,6-8.9,7.3s-7.2,7.7-7.6,9.2
		C437.3,463.8,433.1,466.1,431.3,467.6z"/>
	<path fill="none" stroke="#FF0000" stroke-width="0.15" d="M451.5,455.4c0,0,8.6-4.8,9.6-6.7c1-1.8,8.2-12.3,9.1-13.4
		c0.9-1.2,6.3-8.4,7.3-10.8c1-2.3,8.1-13.9,9.7-15s8.3-8.1,9.8-9.7s3-11.2,3.8-12.5s8.2-20.3,9.6-22.4c1.3-2.1,7.3-14.4,8.3-16.2
		c4.1-7.7,5.2-26.1,6-27.8c0,0,1.3-24.1,1.6-25.1s0.9-16.7,1-19.8s-0.5-10.3-2.2-14.8s0-22.7-1.3-27s-11-22.3-12.6-25.3
		c-1.7-3-18.9-7.7-26-10.3s-19.7-9.3-22-10.3c-2.3-1.1-7.9-6-13.9-5.7s-13.8-0.7-18.9-2.3s-12.5-4.4-18.8-4.5s-9.4-0.9-16.4-2.4
		s-26.1-5-29.6-5.8s-14.1-4.4-18.6-4.4s-8.6,4.8-12.3,5.7c-3.7,0.9-17,8.5-19.2,9.5s-13.9,8.7-23.8,9.3c-9.8,0.6-12.8,0.2-17,3.1
		c-4.2,2.8-8.4,9.1-9.3,10.4c-0.9,1.3-6.3,6.6-7.3,7.7c-1.1,1.1-9.6,8.2-11.8,12c-2.3,3.8-8.3,10-9.8,10.9s-12.1,13.6-13.5,15.6
		c-1.3,2-8.6,13.5-9.3,15s-9.9,14-10.8,14.9c-0.9,0.9-5.8,9.5-6.7,15.1s-3.5,21.3-4.4,26.5c-1,5.6-3.9,19.1-4,20.4
		c0,0,1.1,27.4,1,29.4c-0.2,2.1-1,10.6,0.4,14.6s5.2,12.9,5.9,15.5c0.8,2.7,5.9,12.5,6.5,14.3s6.5,10.5,7.6,12.5s5.8,7.7,6.2,8.8
		c0.4,1.1,6.8,11.7,9,14.9c0,0,10.2,10,11,11.1s11.3,11.1,12.3,12.3c0.9,1.2,12.7,6.9,14.4,8.3c1.8,1.3,13.1,6.3,19.5,6.6
		c6.4,0.3,18.7,5.3,21.8,6.7c3.1,1.4,28,3.9,36.1,7.3c8.1,3.3,16.3,3.9,25.8-0.9c9.4-4.8,18.7-4.6,19.6-5s17.7-8.3,23.3-7.8
		c5.5,0.4,13.8-9.8,18.5-11.7C431.1,474,444.8,459.6,451.5,455.4z"/>
	<path fill="none" stroke="#FF0000" stroke-width="0.15" d="M439.1,470.4c0,0,17.9-15.9,21-17.4s12.8-16.4,13.5-17.4
		c0.8-1,12.5-20.3,14.1-22.1c1.6-1.9,11.1-11.6,11.9-12.8s5.3-16.4,5.9-17.1s6.3-14.9,7.8-16.3s9.9-19.5,10.1-20.7
		s4.3-27.5,4.3-27.5l3.2-19.4c0,0,2.7-21.9,2.9-22.4s-2.5-23.3-3.3-24.9c0,0-5.3-17.5-5.4-18.6c0,0-11.3-24.8-13.9-26.6
		s-7.6-8.6-18.9-11.3s-32.2-15.8-34.6-17s-17-0.6-20.9-1.8s-15.3-5.1-23.6-5.9c-8.6-0.9-29.9-4.8-32.8-5.1s-10.8-3.8-15.7-4.1
		c0,0-16.4-5.7-21.2-3.4s-19.1,8.5-19.8,9.1c-0.7,0.6-15.9,9.1-17.8,9.5c-1.8,0.4-7.5,5.6-21,6.2c-13.5,0.6-15.3,4.7-16.8,6.7
		s-9,11.8-9.7,12.4c-0.7,0.6-8.5,7.2-9.3,7.8s-5.3,3-9.3,9.1c-4.1,6.1-13.3,14.7-13.6,14.8c-0.4,0.1-8.1,13-8.9,14.2
		s-8.6,14.2-9,14.9s-6.9,9.9-7.9,10.9s-6.3,10.8-6.4,12.3c-0.1,1.6-4.6,19.3-4.7,25.1s-2.6,16.3-2.9,17.1s-3,19.2-0.9,24.8
		s0.3,15.1,0.5,16.1s-0.7,10.3,0,12.4c0,0,5.2,15.1,5.3,16.6s5.1,11.1,5.9,12.2c0,0,6.6,12.5,7.8,14.1s7.6,9.8,7.9,10.3
		s6.6,11.2,7.3,13.3s7.6,8.4,8.7,9.6s10.6,9.5,11,10.4s6.3,7.3,10.2,8.9c4,1.6,11.8,4.7,13.5,6.3s18.2,6.9,21.1,7.6
		s19.8,7.2,21.3,7.8s26.3,2.4,28.8,3.3s15.4,3.9,17.6,3.8s22.4-5.6,24.4-5.9s21.6-7.4,25.1-7.8s11.6-3.3,12.6-3.6
		S435.9,473.2,439.1,470.4z"/>
	<path fill="none" stroke="#FF0000" stroke-width="0.15" d="M443.6,472.6c0,0,12.3-12.2,14.4-13.2s8.7-5.6,10.9-8.6s8.7-9,9.7-9.8
		s9.1-17.7,11-20.3s10.6-12,11.4-13s3.2-3.3,6.4-12.7s11.1-22.8,10.6-22.4s12.3-20.9,12.5-21.9s7.4-34.3,7.4-35.2s7-20.6,7.1-22.3
		s2.3-21.3,2.4-22.1s-4-18.6-3.3-22.7s-0.9-15.1-0.7-16.2c0.2-1.1-5.6-13.7-6.3-15.1s-8.9-17.6-10.3-19.4s-12.3-14.4-16.2-15.1
		s-14.3-4.2-24.8-4.9c-10.6-0.7-24.5-8.6-26.6-9.2s-19.6-2.2-21.4-2.4s-12.6-3.4-15.4-3.5s-20.1-1.6-20.9-1.8s-35.8-7.1-43.9-10.8
		s-19.6-2.8-23.7,0s-30.6,14.3-34.6,17.4c-4,3.2-20.6,5.6-30.1,6.9c-9.5,1.3-10.3,9.1-13.1,11.8s-7.9,11.3-8.5,11.6
		s-12.1,11.9-12.7,13.3c-0.6,1.3-17.9,23-17.9,23s-14.7,23.2-15.2,24s-14.1,20.9-14.4,22.5s-7.6,31.6-9.3,39.9s-5.8,18.4-3.5,36.4
		s3.8,25.9,3.8,26.8s3.2,17.1,7.5,23.1s6,15.6,8.3,18s10.8,15.2,12.8,16.5s8,9.9,10,14.9s11.6,9.9,13.2,11.3s17.1,13.9,17.6,14.4
		s14.3,6.3,17.3,9.3s12.3,1.5,19.7,5.3s13,3.3,20.8,8.2c3.2,2,19.3-1.9,34,3.6c0,0,9.8,2.6,13.7,2.4s24.8-8.6,28.6-8.8
		s17.7-7.8,27.4-8.1s16.8-13,26.4-14.1C440,479.5,439.1,475.8,443.6,472.6z"/>
	<path fill="none" stroke="#FF0000" stroke-width="0.15" d="M509.5,406.6c0,0,4.3-18.7,6.5-22.2s14.7-22.9,15.3-23.8
		c0.6-0.8,8.2-18.3,8.9-20.7s2.5-19.6,2.5-20.6s6.3-18,6.5-21.7s4.8-24.4,3-34.8s-4.8-26.7-5.3-30.7s-12.1-26.3-12.8-27.8
		c-0.8-1.6-11.8-16-15.6-19.5s-13.6-4.4-17.2-5.7s-20.3-3.3-23.7-4.3c-3.3-1-17.1-7.3-18-7.9c-0.9-0.6-15.6-2.1-19.3-2.8
		c-3.7-0.7-20.8-3.4-22.8-3.2s-19.4-2.1-20.5-2.3c0,0-39.5-10.8-40.1-11.2c-0.6-0.3-12.8-1.4-14.6-1.3c-1.8,0.1-13.9,5-14.7,5.1
		c0,0-19.2,5.2-23.9,10.1c-4.8,4.9-18.6,8.3-22.3,8.6c-3.8,0.3-16.2,1.8-19.3,3.8c-3.2,1.9-8.4,10.6-9.5,12s-11.1,13.7-12.2,15.3
		c-1.1,1.6-16.2,17.5-16.6,18.3c-0.4,0.8-13.6,17-14.2,18.6c-0.6,1.6-8.2,15-9.1,16.9c-0.9,1.9-13.7,20.6-14.4,22.2
		c-0.7,1.7-8.1,17.6-8.5,20.1s-3.3,16.9-3.3,18.2c0,0-4.3,18.3-4.4,21.9c-0.1,3.6,2.3,26.6,2.3,28.1s0.5,21.3,2.1,23.4
		c1.6,2.2,7.8,19.9,8.6,21.5c0,0,6.3,14.7,8.8,17.1s9.2,11.8,10.6,14.3c0,0,8.3,7.8,13,17.8c0.2,0.5,13.1,10.3,13.6,11.1
		c0,0,11.2,9.4,14.7,12.1s17.1,12.1,18.6,13s3,2.3,8.9,3.1c5.9,0.8,14,4,14.3,4.4s8.9,1.3,20.4,6.4c1.4,0.6,19.6,0,22.3,1.4
		c0,0,22.6,2.5,25.8,3s26.3-8.8,30.8-8.6s23.2-8.1,29.2-9.2c6.2-1.1,17.9-10.2,21.3-11.9c4.5-2.2,9.4-9.1,16.3-14.4
		c7.6-5.8,6.8-7.1,11.8-10.7c2.2-1.6,13.5-13,15.7-13.3c0,0,10.7-12.6,14.6-19S508.7,407.9,509.5,406.6z"/>
	<path fill="none" stroke="#FF0000" stroke-width="0.15" d="M177.4,292.3l-4.8,20c0,0-6.5,22.7-6.4,24.6c0.1,1.8,1.8,19.7,2.5,21.2
		s1.2,22.2,1.3,23.9c0.2,1.8,7.5,19.8,8.3,21.3s4.5,9.4,5.3,10.4s6.4,14.6,6.8,15.2c0.4,0.6,7.4,7.3,9.9,12.8s4.4,3.2,12.8,17
		c2.3,3.8,22.5,15.9,29.5,24.8c0,0,17.6,11.6,21.2,14.3s29.3,6.8,39.6,12.6c1.7,1,38.4,0.5,50,5.9l19.4-5.3
		c0.8-0.4,10.3-2.9,13.3-3.5c2.9-0.6,11.9-4.3,13.9-5.2s16.3-3.2,18-4.2s12.8-7.8,14.4-8.4c1.6-0.7,8.7-5.2,9.3-5.9
		c0.7-0.7,6.8-7.6,7.3-8.3c0.6-0.7,14.6-12.1,15.6-12.9s11.3-9.8,11.9-10.4s14-15.8,14.3-16.4s12.1-16.2,12.6-17s9.8-13,10.6-13.9
		s5.3-20.6,5.8-21.7c0.4-1.1,12.8-18.5,13-19.4s9.5-22.4,9.6-23.6s4.3-21.2,4.3-22.2s6.6-24.8,6.8-26.2s4.6-26.8,3.3-30
		s0.3-33,0.3-33s-9.9-19.1-11.4-22.2c-7.5-15.6-18.2-16.6-19-17.1s-14-10.3-14.8-10.8s-19.3-3.4-23.1-4.1
		c-3.8-0.7-21.4-7.7-23.8-8.3s-27.3-6-30.1-6.3c-2.8-0.3-35.3-4.5-37.1-4.3c-1.8,0.2-30.3-9-31.6-9s-12.1-8.3-23.5-5.5
		s-19.2,6.9-20.5,6.9s-13.7,5.8-15.7,6.9c-1.9,1.1-8.8,5.8-13,7.3s-19.9,4.2-22.4,4.4s-31.4,23.8-36,29.3s-17.9,22.3-18.8,23.4
		C215.4,220.5,178.5,281.6,177.4,292.3"/>
	<path fill="none" stroke="#FF0000" stroke-width="0.15" d="M389.1,509.2c0,0,29.8-5.8,32.2-7.8c2.4-2.1,21.3-12.8,21.3-12.8
		s11.5-11.9,17.6-15.1c5.8-3,12.6-6.8,13.9-7.4c1.3-0.7,12.3-13.4,13.5-14.2c1.2-0.8,10.4-17.3,11.3-18.3c0.8-1,12.7-15.4,13.6-16.5
		c0.9-1.1,6.6-8.5,7.5-11.6s4.5-17.8,6-19s14.8-24.3,17.7-26.5s11.1-26.2,11.4-28.1c0.3-1.9,1.8-16.7,2.8-18.7s5.1-14,6-16.4
		s2.7-26.3,3-27.4s-3.6-18.8-3.7-21.2c-0.1-2.4-0.1-18.9-0.4-21.1c-0.3-2.2-9.7-22.3-11.1-24c-1.3-1.7-14.5-18.4-15.4-19.4
		s-13.8-11.7-16.8-12.4s-22.9-4.1-25.6-4.5s-9.3-0.4-12.4-1.1c-4.4-0.9-11.7-6-13-6.5c-2.4-1-10.4-5.6-12.1-6s-9.4-0.6-10.8-1
		c-1.3-0.4-15.1-3.2-15.4-3.3c-0.3-0.2-7.8-0.7-10.4-0.8s-20.5-0.8-23.8-1.8s-19.4-1-31.3-6.7c-16.8-7.9-22.7-3.5-29.3-1.6
		c-6.6,1.9-20,8.5-22.2,9.5s-13,7.6-15,8.5s-23.2,8.2-27.8,8.5c-5.2,0.4-14.9,5.8-17.2,7.2s-12.1,13.3-12.7,13.8
		c-0.6,0.5-21.9,24.7-27.1,33.3c-5.2,8.6-19.3,32.3-19.3,32.3s-15.3,25.7-15.3,26.8c-0.1,1.1-6.1,20.5-6.3,21.2s-5.4,18.5-5.2,19.4
		c0.3,0.9-3.5,20.3-2,27.2c0,0,1.8,17.1,2.1,19.5s-0.3,12.8,0.4,14.1c0.7,1.3,5.7,18.3,6.5,19.8s7.6,16.1,8.1,16.8s5.8,11.8,6.3,13
		s8.8,10.3,9.4,11.5c0.7,1.2,6.5,8.6,7.2,9.8c0.7,1.2,7,11.3,8.4,12.4s11,6.8,11.8,8s15.3,13.4,16.6,14.2s18.2,12.3,19.1,12.8
		c0,0,5.3,2.8,10.3,4.4c0,0,10.8,2.1,12.1,2.9c1.3,0.8,17,6.2,19.8,7.3c2.8,1.2,18.3-0.7,25.3,1.3s20.8,4,21.3,4.1s4.6,0.8,9.3-0.4
		S385.2,510,389.1,509.2z"/>
	<path fill="none" stroke="#FF0000" stroke-width="0.15" d="M477.7,472.7c0,0,11.3-13.1,16.8-16.2s12.1-20.1,14.3-22.4
		c2.3-2.3,15.4-15.9,17.1-17.4c0,0,6.8-23.8,8.3-26.6s13.6-23.9,14.4-25.3c0.8-1.3,9-21.4,9.4-22.3s2.4-27.3,3.2-28.2
		c0.8-0.8,7.6-33.9,7.8-35.2s-2-36.5-1.4-38.5s1.3-19.4-4.3-26.6c-5.5-7.2-10.6-17.6-11.3-19.1c-0.7-1.4-7.8-13.3-15.1-17.3
		s-12.3-9.6-17.3-10.7c-4.9-1.1-20.3-3.3-22.1-3.5s-14.9-1.3-18-2.8c-3.1-1.4-15.8-8.9-18.8-10.2c-2.9-1.3-11.7-2.4-15.7-2.4
		s-21.6-2.4-34.8-2.9S366,137,364,135.9s-9.1-4.1-13.7-4.4c-4.6-0.3-10.4-0.3-13.7,1.5s-16.5,6.7-18.3,7.3s-18.5,10.1-20.8,11.4
		c-2.3,1.3-18,9.7-27.4,9.2c-9.4-0.4-11.8,2.4-16.6,5.3c-4.8,2.9-17.5,18.4-18.6,19.6c-1.1,1.2-10.7,12.8-12.1,14
		c-1.3,1.2-14,19-14.5,20.7s-8.5,14.9-9.1,16.7s-11.1,17-11.7,18.2c-0.6,1.2-8.3,14.3-8.8,15.1c-0.4,0.8-7.3,13.6-7.3,13.6
		s-3.1,16.8-3.8,18.8s-4.7,24.3-4.9,25.5c0,0,1.5,21.5,1.4,24.7c-0.1,3.3,2.1,17,2.2,17.8c0.1,0.8,1.6,15.2,2.1,16.8
		c0.5,1.6,6,15.7,6.5,17.3c0.5,1.6,9.3,19.2,9.7,19.9c0.4,0.8,7.9,12.4,9.8,14c1.9,1.6,11.5,15.3,11.8,16.8s5.6,8.8,9.9,11.1
		c4.3,2.3,21.2,16.9,23.8,18.8c2.7,1.8,18,11.6,19.7,12.8s18.3,5.6,20.9,7c2.7,1.4,21.4,9.8,23.3,10.3c1.8,0.6,23.4,0,28.2,1.5
		s17.4,3.9,23.2,4s34-6.3,37.5-6.7s24.7-6,26.9-7c2.2-1,22.1-12.8,24.8-13.3C447.3,494,470.3,473.8,477.7,472.7z"/>
	<path fill="none" stroke="#FF0000" stroke-width="0.15" d="M551.5,370.2c0,0,9.2-19.8,10.7-21.4s5.6-9.4,5.3-10.9
		s1.3-18.3,2.1-20.4s5.3-12.6,5.8-14.4s-0.2-18.3,1.1-22.8s0.8-28.2,1.2-31.9s3.1-22.8,1.8-24.7s-12.2-18.4-13.3-21.1
		s-13.3-19.7-16.3-21.6c-3-1.9-8.5-4.6-10.7-6.7c-2.2-2.1-11.3-9.2-15.8-11s-20.2-4-24.8-5c-4.7-1.1-19.4-3.2-21.3-4.4
		c-1.8-1.2-15.9-7.5-21-8s-15.9,0.8-26.1-2.1c-10.2-2.8-12.9-1.5-17.1-1.9s-67.7-17.2-78.2-11.7c0,0-26.8,11.7-33.9,16.8
		c-7.2,5.2-14,7.4-17.7,8.6c0,0-11.4,4.2-19.2,3.8c-7.8-0.4-18.4,9-20.8,12.7c-2.4,3.7-14.1,14.3-15.8,16
		c-1.8,1.7-14.7,18.5-15.8,19.9c-1.2,1.4-14.4,24.2-14.9,24.9s-18.9,27.6-18.8,28.6c0.1,1-9,23.8-9.4,25.1c-0.4,1.3-7,24.4-7.1,24.9
		s-2.4,26-1.7,29.4c0.8,3.4,3.1,21.7,3.3,22.6s2.5,17.7,2.6,19.3s4.4,15.6,5,17.3s7.8,15.1,8.3,16.6s15.3,27.3,21.1,32.6
		c3,2.8,5.2,9.3,7,12.1c0,0,9,8.2,12.2,10.2s13.3,10.1,16.1,12.3s20.7,13.9,23.7,17s19.9,5.4,23.3,7.3c3.4,1.8,17.8,8.2,21,9.8
		s21.3-0.8,38.3,2.8s10,1.9,13.3,1.9s21.2-3.3,23.8-4.1c2.6-0.8,25.5-5.8,28-5.8s12.5,1.4,33.2-12.6c20.7-14,36.2-24.1,40.7-25.6
		c0,0,16.9-16.1,19.4-18.2s18-25.3,19-26.2s9.9-9.7,10.8-10.8c0.8-1.1,1.7-27.8,13.3-38.3C551,373.8,547.5,375.8,551.5,370.2z"/>
	<path fill="none" stroke="#FF0000" stroke-width="0.15" d="M450.1,497.9c0,0,24.2-18.8,28.7-20.1s19.3-16.4,22.3-18.3
		c2.9-1.8,14.6-22.9,20.2-27.7c5.7-4.8,7.8-6.4,10.4-9.1c0,0,10.8-23,14.8-29.3c4.1-6.3,15.7-20.7,17.5-22.3
		c1.8-1.6,10-23.6,10.6-24.6c0,0-0.6-24.6,2.3-29.4c2.8-4.8,4.5-10.2,5-12.5s-0.2-30.8,2.7-36.5s-0.1-25.8,2-33.4
		c2.1-7.7,0.5-12.2-4.8-21.7s-16.5-21.9-21-27.7s-12.7-10.9-19.5-14.6c-6.8-3.7-11.5-7.7-14.1-9s-16.5-4.7-18.6-4.8
		s-26.7-4.6-27.9-5.2c-1.3-0.6-17.4-12.8-28.4-11.5s-23.2-2.3-27.7-2.5s-75.3-14.8-90.8-11s-27.6,9.9-29.4,11.3
		c-1.8,1.4-13.1,10.9-26.3,13.3c-13.3,2.3-18.6,6.3-21.7,7.2c-3.1,0.8-10.8,1.8-15.3,7.8c-4.6,6-11.1,12-14.2,14.9
		c-3.1,2.9-17.8,17.2-18.8,19.9s-7.5,16-8.4,18s-8.9,15-10,17.1s-11.9,19.3-13.2,23c-1.3,3.7-10.7,24.7-10.8,27.1s-5.7,21.4-6,23.2
		c-0.3,1.8-2.1,13.5-1.9,15.5c0.2,2,0.5,28.5,1.3,29.7s4.2,26.8,4.7,28.6c0.6,1.8,6.5,20.5,6.9,21.8s11.3,21.7,12.4,23.7
		c1.2,2,11.2,15.9,13.2,18.9s7.2,9.9,7.5,11.3c0.3,1.3,10,10.2,11.8,11.9c1.8,1.7,21,15.8,21.6,16.3c0.6,0.6,21.7,15.5,23.2,16.8
		c1.4,1.2,30.9,8.2,40.1,15.4c0,0,31,0.5,51.7,5.5c0,0,41.8-7.4,44.2-8.3c2.4-0.8,17.9-4.3,26.3-4.5
		C425.5,512,439.3,499.9,450.1,497.9z"/>
	<path fill="none" stroke="#FF0000" stroke-width="0.15" d="M578,348.3c-6.1,22.2-18.7,36.8-25.6,43.8c-2.2,2.2-10.9,20.1-11.4,21.3
		c-0.5,1.2-14.8,20-14.8,20c-4.1,2-25.5,31.8-28.2,32.5c-2.7,0.8-40.8,32.2-46.2,33.6c-5.4,1.4-19.2,12.6-29.3,13.8
		c-10.1,1.2-71.2,12.5-71.2,12.5c-23.3-4.6-49.4-4.3-52.8-6.3c-6.5-3.8-39.7-15.2-41.3-16.2c-1.7-1-32.6-22.1-33.7-23.5
		c-1.1-1.4-15-9.4-17.7-12.4s-16.3-26.1-16.3-26.1c-1.4-1.8-4.3-6.6-5.8-8.2s-4.7-7.3-5.6-8.8c-0.9-1.5-5.3-11.8-6.9-13.9
		c-1.7-2.1-5.8-14.1-5.8-14.1c-0.8-1.5-6.1-23-6.1-23c-0.8-5.1-3.5-19.9-3.8-26.5s-0.3-28.9,0-30.4s4.1-20.8,4.7-23
		c0.6-2.3,7.5-23.3,8-25.4s8-14.9,9-17s13.8-20.5,13.8-20.5c0.8-1.8,7.7-15.5,8.4-17.1s6.4-13.5,7.6-15.4c1.2-1.9,19.7-20,22.3-22.8
		c2.7-2.8,16-15.8,19.8-16.8s15.4-5.6,18.8-5.8c3.3-0.2,14.8-4,21.3-6.9s17.4-10.8,19.9-12.1s6.3-2.8,22.3-7.6s90.3,10,94.6,9.8
		c4.3-0.2,10.5,4,21.9,3.4c11.4-0.5,37.7,8.2,40.3,9.3c2.7,1.1,24.2,5.3,29.7,5.9c5.5,0.7,14.5,4.8,16,6.6s6.1,6,15.3,9
		s9.8,8.3,14.5,11c4.8,2.7,14.9,18.5,16.1,21.6c1.2,3.1,12.2,19.7,11.6,23c-0.6,3.3-2.4,25.8-2.4,34.7c0,9-2.4,17.8-2.5,22.6
		s-2,31.7-2,31.7s-3.8,16.8-3.8,18.8C580.8,333.5,578.4,346.8,578,348.3z"/>
	<path fill="none" stroke="#050303" stroke-width="0.15" d="M327.3,100"/>
	<path fill="none" stroke="#050303" stroke-width="0.15" d="M293.2,87.3"/>
	<path fill="none" stroke="#FF0000" stroke-width="0.15" d="M305.8,385c-1.4-2.4-1.2-4.5-1.2-4.5c-0.1-5,3.8-13.2,3.8-13.2
		c2.5-2.9,3.8-5.8,17.2-5.8c16.4,0,21.2,13.3,21.2,13.3l0.2,6.8"/>
	<path fill="none" stroke="#FF0000" stroke-width="0.15" d="M397.5,356.4c-1.3-7-7.9-34.1-15.1-40.5s-19.2-24.9-41.7-24.4
		s-45,11.1-48.9,14.1c-4,3-21.1,19.3-23.1,25s-8.2,21-8.7,25.8s-3.4,23.4,2.3,36.6s24.6,24.9,33.5,28.4c8.9,3.6,28.1,9,44.8,6.8
		s30.7-3.3,44.5-20.9c10.4-13.3,11.8-23.8,14.4-33.1C399.4,374.2,398.8,363.4,397.5,356.4z"/>
</g>
<g id="Layer_5">
	<path fill="none" stroke="#FF0000" stroke-width="0.15" d="M561,388.3c0,0,13.8-17.2,15.3-20.3c1.5-3.1,6.7-24.3,7.4-27.1
		c0.8-2.8,5.4-28.6,6.1-32.6s-0.8-29.2,0-31.2s3-23.8,3.6-26.4s1.6-26.6,0.4-30.3s-18.5-33.3-20.5-35.8c-2-2.4-14.9-15.2-26.4-19.3
		s-16.3-10.5-19.7-11s-31.5-5.1-35.7-6.5s-41.5-11.9-48.9-12.5s-14.9-2.2-17.3-2.5s-80-14.2-97.4-9s-23.4,8.6-28,11.6
		s-19.2,10-23.8,11.3c-4.6,1.3-12.8,4.7-17.8,5.4s-11.8,0.6-16.5,5.3s-23.2,21.8-27.5,25.8s-16.7,30.6-19.3,34
		c-2.7,3.4-13.7,21.7-15.3,25c-1.7,3.3-9.7,16.8-9.8,18.3c-0.2,1.5-5.4,12.2-6,14.8c0,0-5.5,20.9-5.5,22.9s-3.5,22-4.1,23.7
		s-6.9,15.2-2,34.8c4.9,19.6,3.5,22.7,5.3,28.9c1.8,6.2,14.3,28.8,14.4,29.1c0.2,0.3,9.7,19.1,10.8,20.3c1.1,1.3,6.1,8.8,7.3,11.4
		s12.1,23,15.3,25c3.3,2,23.8,14.2,24.8,15.3c1,1.1,24.2,16.1,25.3,17.1c1.2,1,38.3,13.3,44.9,17.1c2.3,1.3,13.5,0.1,24.1,2.4
		c0,0,25.6,3.1,26.9,3.8s17.8-2.8,17.8-2.8s33.7-6.8,36.5-6.8s13.7-2,18.2-3s24.9-10.6,27.7-11.6s29.4-17.5,32.4-18.6
		s19.8-18,21.8-20.4s17.3-22.8,20.9-24.9c3.6-2.2,14.3-13.2,15.5-15.3S555.3,392.1,561,388.3z"/>
	<path fill="none" stroke="#FF0000" stroke-width="0.15" d="M467.4,497.3c0,0,12.6-8.8,16.2-9.3c3.6-0.6,22.7-18.3,25.1-20.3
		c2.3-1.9,10.8-15.6,14.3-19.8c3.6-4.3,13.6-11.7,14.7-13.3c1.2-1.6,12.2-19.6,13.3-22.5s11-19.9,12.3-21.1s10.8-13.3,12.5-15.8
		c1.8-2.6,9.3-16.5,10.8-28.8s8-32.9,7.8-35.2s-2.2-27.1-2.1-29.3c0.2-2.3,3.6-15.3,3.4-17.5s0.9-31.2,1.3-33.3
		c0.4-2.2-3.7-17.5-4.4-19.5s-7-16.1-8.4-17.4c-1.4-1.3-12.1-16.9-17.9-20.9c-5.8-4-15.1-8.4-17.8-9.7s-15.1-8.5-16.3-9.3
		c-1.1-0.8-14.8-5.2-23.5-5.8s-13.1-1.8-14.9-2.3c-1.8-0.6-43.3-10.7-48.7-11.6c-5.3-0.8-14.8-2.5-17.1-3.3
		c-2.3-0.8-89.2-10.3-91.5-10.3c-2.3,0.1-6.5,0.2-8.3,1s-17,6.5-18.3,6.5s-12.1,6-13.6,6.5s-14.8,7.9-16.3,8.1
		c-1.4,0.2-26.4,8.4-27.3,8.7c-0.9,0.3-8.3-2.1-13.3,2.8c-4.9,4.9-14.1,13.3-14.6,13.8s-7.4,7.3-8.4,7.9c-1,0.6-7,7-8.5,8.8
		s-12.5,19.9-13.5,22.1c-1,2.2-12.2,26.5-12.6,27.2c-0.4,0.7-3,6.1-3.4,7.2c-0.4,1.1-8.5,15.2-8.8,15.9c-0.3,0.8-6.3,13.8-6.3,15.5
		c-0.1,1.8-4.2,14.9-4.4,16.2c-0.2,1.3-2.2,15-2.8,17s-3.1,16.4-3.5,17.3c-0.4,0.8-3.7,11.4-4.3,15.6c-0.9,6.1,1.3,21.3,2.4,23.4
		c1.1,2.2,3,14.2,3.4,16.7s2.8,11.7,3.4,13s7.5,12.9,7.7,13.8s7.8,15.2,8.4,16.4c0.7,1.2,8.3,13.8,8.4,14.3c0.2,0.5,6.8,11,7.3,12
		c0.4,1,12.5,21.5,13.6,22.3s14.5,9.3,16,10.2c1.5,0.8,13.1,9.3,16.4,11.6c3.3,2.3,18.7,12.4,20.2,13.2c1.5,0.8,38.8,14,44.5,16.7
		c0.9,0.4,19.3,0.8,50.1,7.3c0,0,36.3-2.6,74.6-8.3c0,0,22.9-13.8,27.3-13.8C451.9,507.7,469.6,496.3,467.4,497.3z"/>
	<path fill="none" stroke="#FF0000" stroke-width="0.15" d="M468.1,500.1c0,0,11.3-9.8,18.1-10.4s14.9-12.1,17.6-14.2
		c2.7-2.2,16.7-19.7,21.2-24.4c4.6-4.8,15.7-11.4,17.9-13.2s8.6-8.2,9.3-10.9s10.4-19.8,11.4-20.5s12.3-17,14.8-18.8
		s12.7-15.7,15.2-25.8c2.5-10.2,5.9-35.4,8-40.2s2.7-11,2.7-13.4s-3-22.7-3-25.3s2.7-14,3.4-16.1s-0.4-25.7,0-28.4
		s-1.8-26.4-2.3-28.9s-12.1-25.2-14.8-27.3s-18.1-21.3-20.7-22.7c0,0-9.4-4-13.3-6.3c-3.8-2.3-11.4-7.2-12-8.1
		c-0.6-0.9-7.6-8-15.3-7.2s-18.1-1.1-20.6-1.4c-2.5-0.3-59.5-5.5-66.5-6.5s-98.6-13.5-117.1-8.6c-8.1,2.2-10.9,2.8-11.8,2.8
		c0,0-5.8,1.8-7.6,3.2c-1.8,1.3-10.6,8-11.5,8.8s-12.1,5.7-16.7,6.8c-4.6,1.2-18.8,5.3-21.1,6.4c-2.3,1.1-11.3,1.3-12.7,2.6
		c0,0-18.3,16.5-18.8,17.4s-13.5,13.2-14.3,13.7s-19.3,24.1-27.3,46.4s-13.8,30.1-14.1,31c-0.3,0.8-7.6,21.8-8.9,31.1
		s-8.9,31-9.8,36.5c-1,6.2-1.1,19.2-0.6,20.7c0.6,1.5,2.6,15.2,3,17.8c0.4,2.7,1.8,4.8,1.5,8.3c-0.3,3.4,2.1,13.6,3.3,15.4
		s7.5,16.9,8.7,19.2s8.7,16.5,8.7,16.9s8.4,15,8.8,15.4c0.3,0.4,7.3,10.8,8.6,11.8s9.5,21,10.3,22.2s8.5,3.8,9.1,4.5
		s8.8,4.3,10.6,5.8s12.1,6.2,12.6,6.7s16,13.9,17.3,14.5s10.9,6,13.4,6.9s19.4,5.5,19.8,5.5s14.1,5.8,14.4,6.1s17.1,1.2,19.3,1.3
		c2.3,0.2,29.3,4.3,32,5.1s24.3-1.3,27.8-2.3s35.7-5.3,48.3-5c0,0,22.8-14.2,26.2-14.2C454.2,510.9,461.6,504.3,468.1,500.1z"/>
	<path fill="none" stroke="#FF0000" stroke-width="0.15" d="M184.8,457.9c-4.3-5.3-5.7-5.9-8.7-10.2s-0.8-4.8-2.3-10.2
		c-1.6-5.4-1.4-4.6-5.1-11.5c-3.7-6.9-6.1-9-10.9-19.5c-4.8-10.5-4.4-9-7.3-16.1c-2.9-7.1-1.7-13.9-2.6-21c-0.9-7.1-3.1-22-3.9-29.7
		c-0.8-7.7,1.3-10.8,4.2-18.5s2.7-23.1,5.7-32.3c3-9.2,5.2-18.2,7.1-22.8c1.9-4.6,9.2-18.8,10.1-22.3c0.9-3.5,8.8-19.3,10-22.4
		s7.5-20.5,8.7-23.8s10.4-11.6,11.3-14.1c0.9-2.5,11.5-11.8,13.3-13.2s12.4-11.5,15.2-13.2s13.3-10.2,15.2-10.3
		c1.9-0.2,13.8-4.1,16.5-4.2c2.8-0.1,18.9-6.8,21.3-7.2c2.4-0.3,13.1-9.2,13.1-9.2c7.1-5.7,9.3-5,14-7.4c4.8-2.4,15.5-2.2,17.9-2
		s98,8.5,101.4,8.8s11.8,1.9,14.4,2.4c2.7,0.5,56.7,5.2,59.3,5.4s6.7,0,10.4,0s17.7,0.8,22.4,1.9c4.7,1.2,13.9,11.1,15.3,12.3
		c1.3,1.2,14.6,7.3,17.6,7.9c3,0.7,10,10.4,11.6,12.7c1.6,2.2,14.3,16.8,15.8,18s7.8,12,10.2,18.6s6.4,22,5.8,24.6
		c-0.7,2.6-2.1,17-2.2,22.3c-0.1,5.3,0.2,13.6-2.6,20.3s-0.6,20.6-0.6,21.7s1.8,10.4,1.3,12.3c-0.5,1.8-2.6,20.9-2.6,20.9
		c-1.1,2.6-6,34-6,35.3s-5.1,15.6-6.4,19.8s-15.7,17.9-17.9,19.8c-2.3,1.8-11.7,10.9-14.8,20.5c-3.2,9.6-8.9,17.1-10.1,18.4
		c-1.2,1.3-11.7,8.7-14.8,9.6c-3.2,0.9-13.8,13-14.8,14.5s-9.6,10.7-11.9,11.8c-2.3,1.2-19,18.6-21.3,19.2s-13.1,7.7-15.2,8.8
		c-2.1,1.2-11.8,9.3-13.5,10s-11.7,2.8-15.5,3.8c-3.8,0.9-17.4,8.4-17.4,8.4s-23.3,0.8-24.8,1.3c-1.4,0.5-12.2,1.9-14.3,2.1
		c-2.2,0.2-15.8,4.2-17.9,3.8s-10.8,0.3-13,0.6s-11.5-0.7-15.7-1s-20.2-3.7-21.7-3.7c-1.5,0.1-13.3-1-16.7-1.3s-11.5-3.8-14-4.4
		s-9.5-4-12.6-4.8s-10.3-3.1-13.2-3.8s-10.3-5.3-12.7-6.8c-2.3-1.6-7.4-5-9.9-6.9c-2.6-1.9-7.3-5.2-9.5-7.3
		c-2.2-2.1-5.7-2.9-9.5-5.9s-8.4-4.4-12.2-5.8s-6.8-0.2-9.1-4.4c-2.3-4.3-1.5-2-4.1-6.4s0.6-0.7-4.6-7.4
		C184.8,457.9,184.8,457.9,184.8,457.9z"/>
	<path fill="none" stroke="#FF0000" stroke-width="0.15" d="M355.8,536.5c2.3-0.2,24.5-1,27.2-1.7s30.7-1.3,32.9-1.6
		s12.4-1.9,27.8-10.2c8.4-4.5,16.8-4.2,18.8-5.6c0,0,16.4-15.2,27.7-20.4c3.8-1.8,16.5-17,18.9-18.6c0,0,21.8-23.1,24.1-25.1
		c0,0,15.2-7.8,18.8-12.3c0,0,3.8-1.7,13.7-25.7c3.3-7.9,16.6-17.9,18.3-20.1c0,0,8-6.2,11.2-12.6s6.8-19,6.8-19s6.7-40.1,7.4-42.8
		s0.3-19,0-21.3s-2.7-20.3-2.1-22.8s3.7-13.8,4-16.8s0.2-12.1,0.4-13.4c0.2-1.3,1.8-15.9,1.9-17.5c0.2-1.6-3-17.9-3.2-20.3
		c-0.3-3.4-1.8-9.3-4.9-13.9c-3.1-4.7-11.3-14.8-13.1-16s-8-10.2-10.3-11.3s-6.3-10-8.5-11.2s-8.6-5-12.5-5.1s-8.8-5.6-12.2-8.3
		s-6.2-10.7-16.6-11.5s-25.1,0-25.1,0s-59.2-7.6-66.1-8.3c-3-0.3-28.7-2.8-57.9-4.5c-20.9-1.2-43.9-2.9-59.9-3.2
		c-12.3-0.3-20.2,0.6-21,1.2c-3.5,2.2-12.9,9.3-16.6,11.3c-3.7,2.1-19.1,9.2-22.7,10.1c-3.6,0.8-18.6,5.3-22.5,5.6
		c0,0-5.2,5.8-9.1,9.6c-3.9,3.8-9.1,7.2-13.1,9.8c0,0-17.3,17.7-19.3,19.2c-2.1,1.5-13.5,13.5-14.5,16.1c-0.9,2.6-4.6,15-6.7,21.4
		c-2.1,6.4-10.7,22.8-11.9,25.9c-1.2,3.1-10,27.2-10.8,30.5s-4.2,11.1-4.3,13.3c-0.1,2.3-3.1,15.3-4.4,21.2
		c-1.3,5.9-6.1,27.1-5.1,31s4,24.2,3.8,25.6s1.4,18.8,1.8,20.4c0.3,1.7,4.9,16.2,8.3,20.1c3.3,3.8,7.6,12.2,9.1,15.1s6.2,7,7.8,17.2
		c1.7,10.2,8.6,16.2,10.3,18.3c1.7,2.2,11.4,15.8,13.3,18.7c1.9,2.9,6.1,7.2,13.4,9.1s23.1,13.8,25.2,15.3c2.1,1.4,9.3,5.4,11.8,7.1
		s5.1,5.3,8.2,6.8s35,10.7,40.7,14.3c5.7,3.7,22.8,1.5,34.2,4.8S347.4,537.2,355.8,536.5z"/>
	<path fill="none" stroke="#FF0000" stroke-width="0.15" d="M394.8,536.6c0,0,26.6,0.3,31-0.8s21-9.5,26.7-10.6s9.8-0.4,11-2
		c1.3-1.6,10.9-12.3,21.1-16.3c10.1-4.1,18.3-16.2,22.6-20c4.3-3.8,25.8-28.9,29.3-31c3.6-2.1,14.5-8.5,16.8-11.3s1.4,2.7,9-9.4
		s10.7-18.7,14.2-21.6c3.4-2.9,13.7-13.9,14.8-15.5c1.2-1.6,14.6-23.6,15.4-25.5c0,0,12.8-31.6,13.5-35.2c0.8-3.6,0.1-29.3,0-34
		c-0.1-4.8-3.4-16.1-4.3-18.3s-3.2-6.5,4.2-15.1s6.1-13.1,5.6-17.9c-0.5-4.8,1.2-17.4,1.3-22.1c0.1-4.7-5.7-28.7-6.8-31.2
		s-2.6-13.5-5.8-16.6s-13.2-13.7-16.4-17.9c0,0-10.4-10.5-11.8-12.3s-13.8-6.5-16.4-8.2c-2.6-1.7-14.8-8.1-17-9.6s-3.6-6.3-9.7-8.6
		s-8.7-4.5-16.7-4.8s-201.6-8.7-204.8-8.7s-12.5,0.4-17.3,1.7s-13.9,8.8-20.3,12.2c-6.4,3.3-20.9,11.3-23.7,11.8s-13.3,3.2-15.8,3.5
		c-2.4,0.3-10.5,1-13.1,2.7s-3.3,5.3-6.4,8.4c-3.2,3.1-11.7,12.1-15.6,15c-3.9,2.9-14.2,12.7-16.5,16.6c-2.3,3.8-14.5,24.4-15,26.3
		c-0.5,1.9-4.8,17.1-6,19.3s-7.8,18-9.7,20.8c-1.8,2.8-6.7,16.4-8.7,21.8c-2,5.3-6.8,30.5-7,31.4s-2.6,14.9-2.9,16
		c-0.3,1.1-5.7,19.2-3.7,28.2c2,8.9,3.2,16.8,3.7,19s2.3,18.5,2.8,20.6c0.4,2.1,0.8,5.5,1.8,8.3s7.8,15.6,9.4,18.4
		c1.6,2.8,3.8,9.3,5.2,11.7c1.3,2.3,1.9,2.9,4.2,6.9s2.8,5.6,3.3,7.5s0.5,1.5,1.5,5s-0.1,5.9,5.3,10.7c5.3,4.8,4.3,4.6,9.1,11
		s4.8,6.7,6.8,9.3c1.9,2.6,3,8.4,9.8,10.1s10.6,5.3,14.6,7.1c4,1.8,7.7,4.6,14,8.3c6.3,3.8,7.3,3.6,11.8,6.9s3.7,5.5,10.5,8.7
		c6.8,3.2,13.5,4.9,20.9,7.3c7.4,2.3,17,6.1,21.4,7.7c4.4,1.6,13.8,2.3,17.4,3.1s9.3,2.1,16.7,3.3c7.3,1.2,22.1,4.3,26.1,3.8
		s12.6-2.8,16.8-3.3S389.8,537.3,394.8,536.6z"/>
	<path fill="none" stroke="#FF0000" stroke-width="0.15" d="M400.7,540c0,0,25.8,0.5,28.5-0.1s23-10.7,27.2-11.1
		c4.2-0.4,8.9-2,21.3-12.2c10.8-8.9,13.3-8.1,18.9-10.8c4.4-2.1,14.5-15.9,13.4-14.5c0,0,9.6-9.5,11.2-10.7c0,0,10.9-17,13.8-19.2
		c2.9-2.2,10.7-8.3,14.4-9.8s5.4-4.3,11-9.1s5.7-11.7,10.6-16c4.9-4.3,12.3-13.4,14.1-14.9s16.1-14.1,17.6-16.2s10.6-15.7,13-17.9
		s8.3-13.8,8.9-15.7c0.7-1.8,0.9-14.8,1.7-18s2.1-17.3,2.2-19.7c0.1-3-1.2-4.1-0.9-7c0.3-3,3.2-17.3,2.2-19.3s-6.8-13.3-6.8-15.9
		c0-2.7,7.7-8.4,9.7-10.4s4.3-18.9,4.3-21.6s2.3-20.6,1.6-22.9c-0.7-2.3-1.3-15.1-2.4-17.2c-1.1-2.1-4.6-13.1-3.6-16.3
		s-2.8-13.5-5.2-15.7s-7.6-6.3-9.8-10.1s-8.6-8.2-11.8-12.3s-4.8-7.1-6.8-10.5s-6-7.9-7.6-10.2c-1.5-2.3-1.3-5-8.3-6.9
		s-7.6-2.4-11.5-5s-4.5-2.8-6.5-4.4s-9.5-7.1-13.1-8.8c-3.6-1.7-8.6-4.6-16.3-4.9c-7.8-0.3-12.3-0.1-16.3,0.4s-4.1-0.3-9.1,1.3
		s-204.1,4.4-207.8,5.6c-3.8,1.2-9.4,5.1-14.2,7.1s-19.2,11.2-25.8,13.8c-6.6,2.7-17.5,6.2-21.5,6.4s-10.3,2.3-13.8,4.3
		c-3.4,2.1-7,6.3-10.3,11.1s-12.5,9.1-15.2,12.9c-2.8,3.8-3.6,4.9-5.4,6.5c-1.8,1.6-9.1,11.4-11.9,16.8c-2.8,5.4-6.3,11-8,15.4
		s-4.3,9.4-5,12.7s-5,14.6-6.9,19.8s-11.4,23-12.8,26.9c-1.3,3.9-4.7,7.5-5.8,12.8c-1.2,5.3-0.8,7.3-2.3,14.7s-1.8,8.9-3.1,16.6
		s0.1,3.8-1.2,8.3s-1.5,11.7-1.8,16.9s-1,13.6,0.7,19s4.5,24,5.3,28.1s1.8,12,3.2,16.3c1.3,4.3,6.2,10.7,6.7,12.6s4.8,11,6.1,13.5
		s1.9,6.3,3.1,8.8c1.2,2.5,3.1,6,4.1,8.3s1.7,4.4,2.3,6.5c0.7,2.1,1.3,4.7,4,7s4.5,5.3,6.9,7.8c2.4,2.6,6.2,6.6,8.3,9.6
		s3.7,6.4,6.6,9.9c2.9,3.5,2.7,3,9.3,5.3s5.8,3.1,8.8,4.5s6.6,3.7,10.8,6.4s11.9,7.4,15.3,9.4c3.4,2,9.1,7.3,11.9,9.6
		c2.8,2.3,9.5,5,16.9,6.4s21.7,8.5,27.8,10.8s23.8,3.2,34.6,6.9s19.8,3.8,25.7,4.1s17.7-4.9,23.8-4.7S393.7,539.3,400.7,540z"/>
	<path fill="none" stroke="#FF0000" stroke-width="0.15" d="M297.9,537.1c-2.7-0.4-18.3-7.9-20.6-8.8c-2.3-0.9-19.8-5.6-21.8-6.6
		s-11.8-9-16.3-11.4c-4.4-2.4-10.3-6.6-12.4-8.2c-2.2-1.6-12.9-8.5-15.7-9.1s-11.4-3.7-16.1-6.7c-4.7-3-7.2-10.6-10.6-15.3
		c-3.4-4.8-9.1-9.3-11.7-12.4c-2.6-3.2-5.7-9.4-6.8-12.7c-1.2-3.3-2.8-5.8-4.2-9.2c-1.4-3.4-4.3-10.7-4.7-12.6
		c-0.3-1.9-2.1-9.5-6.4-14.4s-8.3-19.5-8.6-21.4s-1.8-12.7-1.8-14.9s-2.5-16.3-3.3-19.6s-1-14.8-1.2-17.4
		c-0.2-2.7,2.8-26.1,3.7-28.8c0.8-2.8,3-15.6,3.4-19.1s3.8-17.9,4.3-19.1c0.6-1.2,5.2-13.7,5.2-13.7c2.4-3.3,4.9-8,6.8-10.5
		c1.8-2.5,6.3-18.4,8.4-21.8c2.1-3.4,7.6-21.4,9.1-25.2s7.5-12.4,9.3-14.4s7.8-9.6,10.5-11.8c1.2-1.1,3.8-4.4,7.1-7.4
		c4-3.5,8.8-6.6,10-7.5c1.2-1,3.8-5.3,7.1-9c3-3.3,6.7-6,7.2-6.3c0.9-0.6,20.8-6.2,22.4-6.6c1.7-0.4,21.5-10.6,23.3-11.8
		c1.8-1.2,34.8-16,36.8-16.4c2.1-0.4,192.8-4.3,202.3-4.1s10-0.4,13.4-0.6s11.3,0.2,16.2,0.9s15.3,5.8,17.3,8.1s10.4,7.1,14.7,9.7
		s9.3,3.7,13.6,5.8c4.3,2.2,6.7,6.9,9.1,9.9c2.4,3,10.3,15.8,13.1,18.7s10.9,8.7,12.3,12.4s12,11,13,14.8s1.4,7,1.2,12.3
		s8.1,19.3,8.1,19.3c1.3,3.7,0.5,14.4,0.6,17.3s-2.6,25.1-3.3,28.3s-14.8,19.8-14.8,23.7c0.1,3.9,5.2,10.2,5.3,12.6s2.2,12.5,0,16.8
		s-0.5,10.6-0.6,13.4s0.4,14.6,0,17.1s-1.7,12.4-1.5,15.3s-1.8,8.1-3.4,12.1s-6.8,10.2-8.4,12.7s-19.2,20-20.9,21.3
		s-17.8,14.6-18.8,16.4c-1.1,1.8-8.3,10-9.3,11.6s-5.2,10.8-6.3,11.9s-11,8.2-12.8,9.8c-1.8,1.6-13.4,9-16.5,12
		s-14.1,16.9-14.9,18.3s-9.2,8.3-11.4,12.3c-2.3,4.1-7.2,8.3-9.1,9.3s-9.9,2.1-16.1,7.4c-2.3,2-18.7,16-19.6,16.4
		c0,0-10.2,1.5-12.3,2.4s-13.2,7.1-15.9,7.9s-20.4,3.4-23.9,3.5s-32.9-1.2-34-1.3s-16.6,3.7-20.3,3.8s-17-1-19.2-1.7
		s-9.5-2.8-12-3.2c-2.5-0.3-8.8-2.6-13.2-3c-4.3-0.4-5.5,1.1-8.7-0.4S300.7,538.1,297.9,537.1"/>
	<path fill="none" stroke="#FF0000" stroke-width="0.15" d="M376.3,544.3c-2.2,0.1-13.9,4.4-19.6,4.1s-10.2-0.7-16.5-1.5
		c-6.5-0.9-8.6-0.8-14.4-2.6c-4.5-1.4-17.3-1.8-22.9-3.6s-6.8-1.1-12.8-4.1s-5.7-2.3-10.1-4.3s-11.4-5.2-17.7-5.9
		c-5.3-0.6-7.4-1.5-12.3-5.6s-3.6-4.1-7.6-6.3s-7.2-5.3-11.1-7.3c-3.9-2-11.9-7.9-17.9-9.5s-10.6-4.2-14.4-6.6s-7.3-3.8-9.8-7.4
		s-3.1-8.1-9.4-12.3c-6.3-4.2-8.9-10.4-12.3-13c-3.3-2.6-3.6-2-6.3-6.9s-8.7-15.5-11.9-20.1s-10.1-14.8-11.8-18.5s-3.2-13.8-4-17.5
		s-3.4-19-4.3-20.5s-6.4-22.6-7.1-26.5s2.5-25.5,2.7-28.1s1.5-21.3,1.6-23.5c0.2-2.2,1-9.9,2.1-12.1c1.4-2.9,4.2-8.9,5.4-11.3
		c1.6-3,4.4-26.5,13.1-36.2c2.9-3.2,16.3-39,18.3-43.3c2.6-5.7,5-12.8,8.1-17.8c3.1-5.1,9.4-10.3,12.9-14.1s7.6-7.6,11.5-13.1
		s4.5-7.5,8.6-9.9s15.3-8.5,20.4-9.3s16.1-7.9,19.8-9.4s10.8-6.1,19.8-11.3s31.3-14.3,38.3-14.3s11.5,0.9,17.3,1.4
		s182.4,0.8,189.3-0.3s10.5-7.4,10.5-7.4c5.1,0.5,15.1-1.8,20.6,0.6s11.5,2.1,24.5,10.8c6,4,18.1,9.5,21.6,11.5s5.4-0.2,10.8,4.7
		c5.4,4.9,8.2,16.2,14.2,20.7s10.1,9,14.8,13.6s11.8,6.9,14.5,13.3s7.9,13.4,10,21.8s6.5,26,5.5,30.6c0,0-5.9,19.8-6.6,33.9
		S647.3,274,646,276s-5,28.9-5.5,33.3s1.3,33.7,0.8,39.5c-2,20.8-32.8,52.4-54,69c-1.7,1.3-9.1,9.9-12.3,13.4c0,0-5.9,10.1-7.4,12.6
		s-5,5.8-9.3,7.8s-12.5,8.3-14.9,9.5s-4.4,4.4-8.1,7.2s-20.5,22.5-22,23.8c-0.8,0.4-5,5.2-8.2,9.6s-10,6.9-10,6.9
		c-1.1,0.7-11.6,6.4-13.3,7.4s-17.2,14.3-18.4,14.8c-1.2,0.5-9.2,1.6-10.8,2.6c0,0-5.9,2.1-9.8,4.6s-10.2,5.3-12.3,5.5
		s-14.8,0.9-18.6,1.4S379.5,544.1,376.3,544.3z"/>
	<path fill="none" stroke="#FF0000" stroke-width="0.15" d="M524.7,483.5c0,0,10.9-12.7,11.7-13.3s8.4-7.8,11.7-8.7
		c3.3-0.9,13.5-7.8,15.2-9.3s8.9-10.6,9.7-12.1s9.3-12.3,10.8-13.8s11.5-10.4,13.3-11.9s11.4-11.1,14.5-13.6c2.2-1.8,5.9-7.2,9-9.7
		s18.9-24.2,23-38.9c4.1-14.8-1.1-28.2-0.3-37.5s3.3-28.7,5.4-33.5c2.1-4.8,5.4-30.2,6-33.1c0.6-2.9-0.4,0.9,0.6-5.4
		s4.5-18.5,5.5-20.8c3.6-8.6-0.8-25.6-1.6-28.8s-1.3-12.3-1.9-14.8c-0.7-2.6-10.2-20.7-11-23.6c-0.8-2.8-10.7-8.8-13.1-11.7
		c0,0-15.2-15.3-16.1-17.4c-0.9-2.2-11.6-13-12.1-13.3s-14.4-7.2-18.2-8.6s-14.4-5.3-16.6-6.7c-2.2-1.4-4.2-3.4-8-5.7
		s-11.4-4.7-16.1-5.4s-11.4-2.2-15.5-1.9s-3.8,0.1-7.8,1.9s-8.9,5.5-13.4,6.7c-3.4,0.9-81.2-19.4-162.4-10
		c-26.1,3-54.5,6.1-78.4,17.9c0,0-91.8,23.2-121.6,93s-24,72.1-25.8,76.2s-4.9,11.1-4.7,43.9c0.2,35.4-0.7,45,1.8,57.1
		s4.7,24.9,6.2,31.1c3.1,12.7,6.9,18.2,11.7,27.7s11.8,19.5,15,23.9c0,0,3,2.6,5.8,4.6s7.9,5.3,9.6,8.5c0,0,9.3,4.2,13.5,10.3
		c4.2,6.1,5.5,9.9,7.6,11.3c2.1,1.3,5.7,4.8,9.9,6.1c4.3,1.3,12.6,4.2,16,5.6s10.5,4.6,13.5,7.1s5.2,4.3,7.8,6s9.9,6,15.5,10.3
		c5.6,4.3,14.7,5.4,17.9,6.1s26.3,10.5,27.9,11.2s24.8,4.8,28.4,5.5s24.5,6.4,29.5,7s16.1-1,18.5-1.4s26.3-2.6,31.8-2.6
		c2.7,0,13.8-1.1,22.4-1.3s10.5-3,10.5-3c4.1-0.6,14.8-6.8,18.4-8.7c3.6-1.8,11.2-4,12.4-5.3c4.8-5.1,15.2-14,16.8-15
		c1.7-1,12.5-5.3,14.2-6.5C499.1,509.1,521.6,485.3,524.7,483.5z"/>
	<path fill="none" stroke="#00FF00" stroke-width="0.15" d="M179.9,482c2.9,2.5,4.4,8.8,9.4,10.9l4,2.6c4.5,2.4,4,1.8,9.8,3.6
		s1,0.4,5.9,1.7s10.5,4.4,15.5,6.7s8,5.4,9.7,6.6s7.4,5.6,10.1,7.1s5.6,3.6,7.1,4.6s7.9,2.9,10.9,3.3s8.8,2.9,12.6,4.3
		s5.9,2.9,8.4,3.8s7.4,3.1,10.8,4.7s6.8,1.1,9.9,1.8s9.9,1.7,12.2,2.1s7,1.6,8.8,2.5s5.1,1.4,7,1.9s7.2,1.8,8.9,2s6.6,1.3,9.7,2.4
		s4.9,1.3,8.5,1.3s10.1-1.8,11.6-1.9s32.2-3.6,32.2-3.6c0.8,0.4,16.6,1,16.6,1s13.2,0.8,16.1-1.1c2.8-1.9,15.8-9.4,18.8-10.9
		s9.6-3.3,11.5-4.1s8-6.3,10.1-8.3s8.1-7.5,11.6-8.8s14.3-8.5,16.7-10.6c0,0,7.7-9.3,10.1-11.6c1.2-1.2,9.9-10.4,10.6-10.8
		c0.7-0.4,11.3-13.9,11.3-13.9c1.3-1.1,12.8-8.9,15.8-9.8s11.3-7.3,13.7-8.6s12-11.6,12.9-14.3c0.9-2.7,7.7-9.7,9.5-11.9
		c1.8-2.2,13.8-15.2,14.9-16.3c1.1-1.1,12.4-10.4,14.1-11.8c1.7-1.4,4.2-5.3,6.1-6.9c1.8-1.6,7-7.9,8.8-10.6s4.3-5.3,5.8-8.4
		c1.6-3.1,8.5-14.8,8.4-17.1c-0.1-2.3,2-8.3,2.7-10.1c0.8-1.8-0.2-4-0.2-5.3c0-2.2-0.4-1.6-0.3-3.2c0.2-1.8,0.1-9.1-0.3-10.1
		c-0.3-0.9,5.4-4.8,5.1-6.9c-0.3-2.1-0.8-11.5,0-14.5s2-13.9,0.9-16c-1.1-2.2-1.5-15.6-0.1-18.3c1.4-2.7,1.9-13.6,2.5-15.8
		c1.6-5.9,3.7-19.6,4.6-24c0.7-3.3,4.5-11.1,3.6-15c0,0-1.4-7.5-1.9-11.5c-0.3-2.7-1.6-16.9-2.5-21.1c-0.5-2.2-3.3-13.5-4.6-15.1
		c-1.3-1.7-6-14.5-6.8-16.2s-10.3-8.7-12-10.6c-1.8-1.8-12.2-11.9-13.5-14.3c-1.3-2.4-7.7-9.6-9.3-11.8c-1.6-2.2-3-4.8-5.5-5.8
		s-5.5-3.3-8.8-4.5s-6.9-2.1-8.9-3s-7.3-2.3-9.1-2.9c0,0-11.5-3.6-12.6-5.1s-11.4-7.3-14.2-8.2s-4.2-0.5-8.3-1.5s-8.6-2.3-11.5-2.2
		c-3,0.1-10.7-0.7-13.2,1c0,0-4.8,4-5.9,5s-5.9,3.1-7.8,3.5c0,0-66.5-28.5-216.2-4.3c-101,16.4-139.8,84.1-139.8,84.1
		c-1.3,2.8-6.3,12.4-6.6,13.7s-10.6,29.5-12.5,31.7s-3.6,5.4-10.8,16.7s-5.5,30.7-8.3,38.4s-3.2,16.5-2.8,19.8s-0.6,31.1-0.7,35.3
		s-0.8,21.3,1.1,26.5s2.3,8.2,4.2,16s1.9,9.1,3.1,12.7s1.3,6.9,1.7,8.9s2.3,9.4,3.4,14.1s-0.3,5.5,0.8,10.5s4.9,9.8,6.9,13
		s2.6,6.3,4.1,9.8s2.6,2.9,3.6,4.6s0.3,0.2,5.3,7.9c5.5,8.4,6.3,8,10.9,11.1s4.1,4,10.1,8.2s7.4,5.1,7.4,5.1
		C176.7,477.9,177.1,478.7,179.9,482z"/>
	<line fill="none" stroke="#0000FF" stroke-width="0.15" x1="325.9" y1="381.7" x2="326.2" y2="383.6"/>
</g>
<g id="Layer_3" display="none">
	<path display="inline" fill="none" stroke="#FFFF00" stroke-width="0.15" d="M372.7,547c0,0,7.6,1,12.1-14.4s3.2-9.5,5.7-11.2
		s8.2-5.6,11-6.2s4.8-2.8,7.8,0s4.3,9.1,5.1,12c0.8,2.9,7.8,7.9,11.9,8.4"/>
</g>
</svg>
