<?xml version="1.0" encoding="UTF-8" standalone="no"?>
<svg
   xmlns:dc="http://purl.org/dc/elements/1.1/"
   xmlns:cc="http://creativecommons.org/ns#"
   xmlns:rdf="http://www.w3.org/1999/02/22-rdf-syntax-ns#"
   xmlns:svg="http://www.w3.org/2000/svg"
   xmlns="http://www.w3.org/2000/svg"
   xmlns:sodipodi="http://sodipodi.sourceforge.net/DTD/sodipodi-0.dtd"
   xmlns:inkscape="http://www.inkscape.org/namespaces/inkscape"
   height="100%"
   version="1.1"
   width="100%"
   id="svg2"
   inkscape:version="0.48.4 r9939"
   sodipodi:docname="t6_fixed.svg">
  <metadata
     id="metadata358">
    <rdf:RDF>
      <cc:Work
         rdf:about="">
        <dc:format>image/svg+xml</dc:format>
        <dc:type
           rdf:resource="http://purl.org/dc/dcmitype/StillImage" />
      </cc:Work>
    </rdf:RDF>
  </metadata>
  <sodipodi:namedview
     pagecolor="#ffffff"
     bordercolor="#666666"
     borderopacity="1"
     objecttolerance="10"
     gridtolerance="10"
     guidetolerance="10"
     inkscape:pageopacity="0"
     inkscape:pageshadow="2"
     inkscape:window-width="1366"
     inkscape:window-height="705"
     id="namedview356"
     showgrid="false"
     inkscape:zoom="1.2685914"
     inkscape:cx="386.71201"
     inkscape:cy="385.54184"
     inkscape:window-x="-8"
     inkscape:window-y="-8"
     inkscape:window-maximized="1"
     inkscape:current-layer="svg2" />
  <defs
     id="defs4" />
  <path
     d="M 527.33,514.953 C 527.33,514.953 531.997,500.036 531.747,494.12 C 531.497,488.203 530.08,477.703 527.33,473.62 C 524.58,469.537 518.496,457.787 508.08,451.37 C 497.664,444.953 486.746,443.62 476.08,447.703 C 465.413,451.786 451.997,456.62 446.997,465.37 C 441.997,474.12 440.497,480.453 440.58,489.537 C 440.663,498.621 440.414,507.37 444.747,514.954 C 449.08,522.538 459.663,537.538 466.08,541.788 C 472.497,546.038 493.664,550.954 506.914,542.871 C 520.164,534.788 526.164,523.871 526.164,523.871 L 527.33,514.953z"
     fill="none"
     stroke="#FF0000"
     stroke-width="1"
     id="path8" />
  <path
     d="M 502.664,528.12 C 511.248,525.203 514.164,515.037 517.58,509.703 C 520.996,504.369 520.83,490.036 518.58,482.62 C 516.33,475.204 511.58,468.87 511.58,468.87 C 511.58,468.87 499.663,457.37 489.83,456.537 C 479.997,455.704 482.08,457.787 482.08,457.787 L 475.497,459.62 C 475.497,459.62 465.08,461.537 460.747,468.537 C 456.414,475.537 449.247,483.454 450.747,499.204 C 452.247,514.954 456.664,520.955 459.997,524.788 C 463.33,528.621 468.664,533.538 475.247,535.288 C 481.83,537.038 492.498,535.038 495.164,533.871 C 497.83,532.704 502.664,528.12 502.664,528.12z"
     fill="none"
     stroke="#FF0000"
     stroke-width="1"
     id="path10" />
  <path
     d="M 505.83,537.12 C 505.83,537.12 513.664,531.953 516.497,527.12 C 519.33,522.287 526.08,506.204 526.58,502.787 C 527.08,499.37 527.83,485.12 525.497,479.954 C 523.164,474.788 514.83,458.287 504.58,455.454 C 494.33,452.621 491.513,450.204 485.38,451.787 C 479.247,453.37 462.081,457.87 460.747,460.12 C 459.413,462.37 448.914,470.037 448.247,476.787 C 447.58,483.537 446.247,507.62 448.747,513.704 C 451.247,519.788 460.58,533.704 468.497,537.121 C 476.414,540.538 482.664,544.288 496.497,540.621 C 510.33,536.954 505.83,537.12 505.83,537.12z"
     fill="none"
     stroke="#FF0000"
     stroke-width="1"
     id="path12" />
  <path
     d="M 496.83,487.787 C 496.83,487.787 501.414,491.714 498.664,496.292 C 495.914,500.87 488.627,503.787 485.853,504.037 C 483.079,504.287 478.331,500.621 477.164,499.287 C 475.997,497.953 475.164,490.87 475.997,488.537 C 476.83,486.204 481.747,481.787 482.997,481.287 C 484.247,480.787 493.58,482.287 493.997,483.204 C 494.414,484.121 496.83,487.787 496.83,487.787z"
     fill="none"
     stroke="#FF0000"
     stroke-width="1"
     id="path14" />
  <path
     d="M 488.747,511.453 C 493.477,510.536 499.58,501.787 500.997,496.706 C 502.414,491.625 503.164,484.454 499.08,479.87 C 494.996,475.286 492.08,473.453 485.618,472.037 C 479.156,470.621 474.83,475.287 474.83,475.287 C 474.83,475.287 467.913,480.87 466.913,485.12 C 465.913,489.37 463.496,494.537 465.83,499.37 C 468.164,504.203 472.414,509.871 475.997,509.787 C 479.58,509.703 488.747,511.453 488.747,511.453z"
     fill="none"
     stroke="#FF0000"
     stroke-width="1"
     id="path16" />
  <path
     d="M 460.747,487.62 C 460.747,487.62 466.996,471.953 473.33,468.453 C 479.664,464.953 485.248,464.37 492.664,468.453 C 500.08,472.536 506.746,479.119 506.58,485.036 C 506.414,490.953 504.497,503.119 500.997,506.953 C 497.497,510.787 494.289,514.537 487.601,515.287 C 480.913,516.037 468.997,512.454 467.413,510.287 C 465.829,508.12 460.497,493.287 460.747,487.62z"
     fill="none"
     stroke="#FF0000"
     stroke-width="1"
     id="path18" />
  <path
     d="M 498.664,520.037 C 498.664,520.037 484.83,525.453 478.83,523.953 C 472.83,522.453 461.814,514.453 460.739,510.62 C 459.664,506.787 455.413,490.37 456.08,486.287 C 456.747,482.204 461.163,467.537 469.913,465.037 C 478.663,462.537 488.33,460.37 494.246,462.62 C 500.162,464.87 510.913,470.536 511.746,483.787 C 512.579,497.038 506.996,511.741 503.746,515.389 C 500.496,519.037 498.664,520.037 498.664,520.037z"
     fill="none"
     stroke="#FF0000"
     stroke-width="1"
     id="path20" />
  <path
     d="M 517.548,442.774 C 517.548,442.774 496.312,430.547 486.766,433.014 C 477.22,435.481 466.281,437.733 459.309,441.702 C 452.337,445.671 442.148,451.999 437.751,459.292 C 433.354,466.585 431.53,476.237 431.101,486.427 C 430.672,496.617 433.032,517.531 437.322,524.931 C 441.612,532.331 447.404,544.129 457.379,549.814 C 467.354,555.499 493.782,565.473 502.126,562.041 C 510.47,558.609 523.126,550.887 525.378,549.063 C 527.63,547.239 538.678,527.612 541.573,517.423 C 544.468,507.234 544.04,487.608 541.573,478.598 C 539.106,469.588 517.548,442.774 517.548,442.774z"
     fill="none"
     stroke="#FF0000"
     stroke-width="1"
     id="path22" />
  <path
     d="M 454.679,435.458 C 449.114,437.777 430.792,460.968 428.01,465.606 C 425.228,470.244 422.908,486.245 422.908,486.245 C 422.908,486.245 421.749,516.161 429.634,525.205 C 437.519,534.249 450.566,555.353 460.739,559.991 C 470.912,564.629 495.727,575.065 504.539,572.282 C 513.351,569.499 528.363,559.76 531.757,556.512 C 535.151,553.264 548.601,528.096 549.992,524.215 C 551.383,520.334 560.891,491.81 559.5,486.476 C 558.109,481.142 548.312,454.819 543.586,451.283 C 538.86,447.747 523.372,430.123 520.217,428.499 C 517.062,426.875 482.971,424.325 478.333,425.252 C 473.695,426.179 454.679,435.458 454.679,435.458z"
     fill="none"
     stroke="#FF0000"
     stroke-width="1"
     id="path24" />
  <path
     d="M 562.052,481.187 L 555.79,463.518 C 555.79,463.518 548.833,448.908 541.18,439.4 C 533.527,429.892 527.266,423.63 516.134,421.08 C 505.002,418.53 473.0,420.848 464.846,422.471 C 456.692,424.094 440.069,435.69 433.112,441.951 C 426.155,448.212 415.951,492.618 415.951,492.618 C 415.951,492.618 415.256,519.175 421.517,529.379 C 427.778,539.583 450.544,562.741 450.544,562.741 C 450.544,562.741 450.382,564.861 456.009,567.412 C 461.636,569.963 491.996,585.268 499.543,584.341 C 507.09,583.414 522.163,580.166 528.425,575.528 C 534.687,570.89 548.368,557.673 550.688,552.106 C 553.008,546.539 565.53,525.436 566.458,518.943 C 567.386,512.45 567.618,488.652 562.052,481.187z"
     fill="none"
     stroke="#FF0000"
     stroke-width="1"
     id="path26" />
  <path
     d="M 412.008,491.611 C 412.008,491.611 413.4,465.837 421.748,447.981 C 430.096,430.125 453.751,416.21 457.925,414.123 C 462.099,412.036 492.48,410.877 504.538,412.732 C 516.596,414.587 532.367,418.065 541.875,427.574 C 551.383,437.083 561.447,455.867 566.967,473.955 C 572.487,492.043 580.602,508.974 578.283,521.032 C 575.964,533.09 570.63,568.188 546.28,584.382 C 521.93,600.576 511.073,600.111 502.124,599.184 C 493.175,598.257 458.853,580.634 448.88,572.748 C 438.907,564.862 417.109,548.395 412.007,533.786 C 406.905,519.177 412.008,491.611 412.008,491.611z"
     fill="none"
     stroke="#FF0000"
     stroke-width="1"
     id="path28" />
  <path
     d="M 384.18,550.482 C 384.18,550.482 373.049,524.044 372.585,513.609 C 372.121,503.174 377.455,489.027 378.382,483.462 C 379.309,477.897 387.658,451.691 388.818,449.604 C 389.978,447.517 406.443,419.969 407.37,419.944 C 408.297,419.919 419.197,400.208 446.099,392.787 C 473.001,385.366 490.394,384.207 504.076,385.598 C 517.758,386.989 537.238,389.54 549.993,404.15 C 562.748,418.76 582.923,448.697 588.025,456.339 C 593.127,463.981 602.171,494.825 605.186,508.739 C 608.201,522.653 609.826,559.062 606.346,566.019 C 602.866,572.976 589.417,607.298 579.908,612.864 C 570.399,618.43 562.283,622.372 546.05,623.763 C 529.817,625.154 514.491,623.995 499.543,621.212 C 484.595,618.429 460.477,605.956 454.447,599.554 C 448.417,593.152 432.184,579.932 425.459,578.077 C 418.734,576.222 399.485,565.722 395.311,562.739 C 391.137,559.756 384.18,550.482 384.18,550.482z"
     fill="none"
     stroke="#FF0000"
     stroke-width="1"
     id="path30" />
  <path
     d="M 424.299,425.057 C 424.299,425.057 430.56,409.948 451.896,404.846 C 473.232,399.744 498.947,396.265 511.831,400.208 C 524.715,404.151 544.008,408.788 559.639,435.458 C 575.27,462.128 595.447,506.532 596.142,524.217 C 596.837,541.902 589.3,571.819 578.691,586.196 C 568.082,600.573 547.148,606.14 531.757,609.619 C 516.366,613.098 482.539,606.836 470.58,598.023 C 458.622,589.21 443.548,576.924 434.271,572.748 C 424.994,568.572 397.398,555.352 393.224,544.453 C 389.05,533.554 384.18,514.732 387.658,500.952 C 391.137,487.172 417.574,434.53 417.574,434.53 L 424.299,425.057z"
     fill="none"
     stroke="#FF0000"
     stroke-width="1"
     id="path32" />
  <path
     d="M 368.178,531.697 C 369.106,537.726 371.657,541.438 374.439,553.729 C 377.221,566.02 398.789,577.615 409.74,581.093 C 420.691,584.571 442.851,604.283 457.229,612.168 C 471.606,620.053 503.842,634.199 540.251,636.982 C 576.66,639.765 584.545,629.097 600.314,610.594 C 616.083,592.091 621.65,547.465 620.954,538.653 C 620.258,529.841 614.925,500.157 611.91,490.534 C 608.895,480.911 604.025,460.965 597.532,449.138 C 591.039,437.311 568.775,409.018 561.354,401.597 C 553.933,394.176 535.149,380.03 527.103,375.159 C 519.057,370.288 502.682,373.072 487.6,371.912 C 472.518,370.752 447.288,375.159 447.288,375.159 C 447.288,375.159 421.514,381.885 411.31,395.799 C 401.106,409.713 378.611,441.948 375.133,453.775 C 371.655,465.602 361.683,508.273 361.683,512.679 C 361.683,517.085 368.178,531.697 368.178,531.697z"
     fill="none"
     stroke="#FF0000"
     stroke-width="1"
     id="path34" />
  <path
     d="M 687.976,524.216 L 688.904,485.779 L 678.005,465.606 L 675.686,452.384 L 665.947,437.774 L 653.656,419.944 L 621.014,377.479 L 591.968,349.882 C 591.968,349.882 578.14,335.887 577.195,335.572 C 576.25,335.257 544.757,321.4 542.238,319.83 C 539.719,318.26 508.855,306.913 500.982,306.944 C 493.109,306.975 476.732,318.565 471.378,322.51 C 466.024,326.455 455.631,339.665 451.629,340.97 C 447.627,342.275 415.32,338.406 409.742,339.035 C 404.164,339.664 386.472,353.361 386.472,353.361 C 386.472,353.361 364.701,382.349 363.773,383.045 C 362.845,383.741 345.917,418.063 345.917,418.063 C 345.917,418.063 322.494,453.544 317.161,461.676 C 311.828,469.808 307.653,491.809 306.957,500.95 C 306.261,510.092 300.232,537.726 305.565,556.047 C 310.898,574.368 334.321,607.762 334.553,608.69 L 351.779,626.078 L 370.67,642.826 L 396.17,653.237 L 410.655,655.048 L 427.101,654.294 C 427.101,654.294 444.906,656.857 450.187,661.083 C 455.468,665.309 482.325,685.527 482.325,685.527 L 503.902,703.935 C 503.902,703.935 527.892,722.796 535.135,723.55 C 542.378,724.304 572.453,722.947 578.691,720.231 C 584.929,717.515 588.096,715.855 588.096,715.855 L 613.256,698.966 L 643.45,670.5 L 666.873,632.626 L 674.061,599.556 L 685.925,551.309 L 687.976,524.216z"
     fill="none"
     stroke="#FF0000"
     stroke-width="1"
     id="path36" />
  <path
     d="M 546.05,377.017 C 546.05,377.017 573.183,396.726 582.923,411.802 C 592.663,426.878 609.592,454.937 613.07,468.62 C 616.548,482.303 627.216,523.582 627.448,533.554 C 627.68,543.526 627.896,592.458 608.308,615.185 C 588.72,637.912 578.052,643.013 562.746,646.26 C 547.44,649.507 531.72,649.739 520.216,646.26 C 508.712,642.781 492.247,633.274 480.188,629.795 C 468.129,626.316 431.256,609.155 421.516,603.357 C 411.776,597.559 398.325,585.963 391.368,582.253 C 384.411,578.543 367.482,552.79 364.003,542.128 C 360.524,531.466 355.886,510.825 360.061,486.707 C 364.236,462.589 383.947,425.057 383.947,425.057 C 383.947,425.057 403.427,390.466 414.095,383.973 C 424.763,377.48 434.149,363.565 456.009,364.493 C 477.869,365.421 497.119,364.636 505.467,364.449 C 513.815,364.262 531.757,368.436 531.757,368.436 L 546.05,377.017z"
     fill="none"
     stroke="#FF0000"
     stroke-width="1"
     id="path38" />
  <path
     d="M 624.202,610.596 L 630.927,578.077 L 638.116,549.785 L 638.116,520.564 L 628.608,473.023 L 617.709,449.601 L 604.954,426.411 L 585.706,398.506 L 543.586,364.442 L 538.629,363.333 L 513.815,356.607 L 494.216,356.607 L 470.58,359.158 C 467.233,359.622 447.29,360.086 447.29,360.086 C 447.29,360.086 431.488,361.246 424.763,364.442 C 418.038,367.638 391.368,399.742 387.426,405.772 C 383.484,411.802 365.859,441.717 365.859,441.717 C 365.859,441.717 353.336,475.807 352.176,487.171 C 351.016,498.535 352.64,523.116 353.8,534.248 C 354.96,545.38 364.004,567.41 370.729,578.773 C 377.454,590.136 407.37,610.596 407.37,610.596 L 447.29,624.355 L 487.318,642.594 C 487.318,642.594 520.793,655.436 531.756,658.375 C 542.719,661.314 565.584,659.127 572.254,655.695 C 578.924,652.263 598.112,643.212 603.543,639.229 C 608.974,635.246 623.139,615.738 624.202,610.596z"
     fill="none"
     stroke="#FF0000"
     stroke-width="1"
     id="path40" />
  <path
     d="M 572.255,344.084 L 613.256,376.087 L 633.943,408.786 L 652.263,432.685 L 663.394,456.34 L 674.062,484.877 L 669.656,505.679 L 669.888,540.045 L 662.003,607.297 L 654.165,635.5 C 654.165,635.5 638.749,663.991 638.116,664.663 C 637.483,665.335 630.774,669.392 630.774,669.392 C 630.774,669.392 592.604,704.273 585.801,706.918 C 578.998,709.563 568.039,713.343 562.937,713.343 C 557.835,713.343 540.639,715.539 535.16,712.363 C 530.612201602,709.726787605 517.731320724,704.851425309 511.106985343,701.865837303"
     fill="none"
     stroke="#FFFF00"
     stroke-width="1"
     id="path42" />
  <path
     d="M 361.128,443.938 C 365.46,435.02 384.061,404.442 384.061,404.442 L 410.943,368.26 C 410.943,368.26 425.551,358.959 431.051,357.94 C 436.551,356.921 464.962,355.393 464.962,355.393 L 475.66,355.448 L 499.543,348.491 L 516.366,349.419 L 536.773,356.144 L 558.108,370.522 L 590.851,399.742 L 602.634,416.207 L 617.708,441.717 L 631.622,467.922 L 643.449,527.754 L 643.449,566.019 C 643.449,566.019 633.709,607.994 633.941,608.691 C 633.941,608.691 618.386,634.89 615.49,637.422 C 612.594,639.954 576.009,666.744 566.967,667.831 C 566.967,667.831 546.34,674.709 530.048,666.383 C 513.756,658.057 468.86,635.247 456.008,631.265 C 443.156,627.283 412.671,615.697 404.924,612.439 C 397.177,609.181 377.312,589.763 372.555,587.585 C 367.798,585.407 351.777,544.973 351.777,544.973 L 349.423,536.686 L 347.033,507.038 L 352.963,467.3 L 361.128,443.938z"
     fill="none"
     stroke="#FF0000"
     stroke-width="1"
     id="path44" />
  <path
     d="M 469.529,353.095 C 469.796,353.184 481.116,350.114 481.116,350.114 L 504.539,344.084 L 524.482,347.099 L 555.326,364.441 L 585.937,390.233 L 603.098,409.249 L 613.534,427.569 L 624.202,444.034 L 627.498,456.338 L 633.71,465.604 L 641.595,486.009 L 648.784,535.974 L 646.233,572.745 L 640.435,607.295 C 639.332,613.863 622.37,638.504 619.473,644.297 C 616.576,650.09 596.664,663.847 588.095,667.829 C 579.526,671.811 554.305,676.518 535.479,675.093 C 516.653,673.668 493.482,654.434 485.379,648.78 C 477.276,643.126 444.244,630.902 436.641,628.367 C 429.038,625.832 401.161,616.782 381.78,601.938 C 362.399,587.094 350.113,544.971 350.113,544.971 L 345.346,528.932 L 344.254,504.047 L 349.715,477.355 L 354.266,451.283 L 362.458,434.817 L 365.395,432.684 C 368.642,428.986 377.454,409.713 379.541,404.147 C 381.628,398.581 401.34,376.086 404.819,370.057 C 408.298,364.028 421.078,358.541 421.078,358.541 L 438.191,354.172 L 469.529,353.095z"
     fill="none"
     stroke="#FF0000"
     stroke-width="1"
     id="path46" />
  <path
     d="M 468.696,348.491 L 487.319,334.242 L 508.493,331.513 L 532.055,336.254 L 559.556,346.173 L 578.692,362.638 L 604.956,386.061 L 622.117,412.962 L 635.799,430.819 L 650.409,459.111 L 656.438,478.592 L 663.395,509.666 L 662.004,548.162 L 657.365,586.658 L 653.423,607.298 L 643.451,632.627 C 643.451,632.627 633.594,652.265 629.611,657.185 C 625.628,662.105 604.268,679.056 599.035,683.039 C 593.802,687.022 581.46,688.832 570.236,690.28 C 559.012,691.728 538.377,692.09 520.217,690.28 C 502.057,688.47 490.433,671.985 490.433,671.985 L 467.898,654.506 L 442.073,637.651 L 415.928,634.526 L 389.576,622.579 L 372.556,607.3 C 372.556,607.3 351.945,581.79 347.306,574.833 L 342.668,567.876 L 330.806,538.563 L 332.001,511.457 L 341.509,474.303 L 358.408,432.689 L 370.96,409.254 L 392.991,377.483 L 415.927,357.307"
     fill="none"
     stroke="#FFFF00"
     stroke-width="1"
     id="path48" />
  <path
     d="M 341.741,490.497 C 341.277,492.272 338.956,505.679 338.956,505.679 L 337.678,512.967 L 337.566,533.12 L 340.43,547.206 C 341.154,549.666 354.456,577.32 358.408,581.303 C 362.36,585.286 387.765,616.06 394.282,619.318 C 400.799,622.576 417.452,630.542 422.847,630.542 C 428.242,630.542 456.553,641.041 462.346,642.595 C 468.139,644.149 492.034,658.419 496.741,661.354 C 501.448,664.289 518.101,678.694 528.193,680.142 C 538.285,681.59 554.305,683.763 566.967,682.676 C 579.629,681.589 595.216,671.091 601.733,667.832 C 608.25,664.573 623.818,650.816 627.498,646.109 C 631.178,641.402 645.537,607.297 645.537,607.297 L 652.263,540.509 L 652.263,506.613 L 642.291,465.607 L 629.536,439.399 L 610.983,406.701 L 590.851,382.582 L 555.093,353.364 L 528.193,341.303 L 507.774,337.404 L 479.04,346.174"
     fill="none"
     stroke="#FFFF00"
     stroke-width="1"
     id="path50" />
  <path
     d="M 330.146,562.741 L 345.916,590.368 L 369.107,616.111 C 369.107,616.111 380.591,629.823 391.929,633.791 C 403.267,637.759 424.241,643.05 430.477,643.428 C 436.713,643.806 471.859,659.684 478.473,665.728"
     fill="none"
     stroke="#FFFF00"
     stroke-width="1"
     id="path52" />
  <path
     d="M 324.348,511.453 L 331.073,491.611 L 331.073,469.314 L 342.668,445.377 L 356.351,418.063 L 370.729,398.506 L 402.732,359.158 L 422.848,351.507 L 456.01,351.507 L 472.432,344.085 C 472.432,344.085 490.588,329.904 496.142,328.168 C 501.696,326.432 526.175,330.252 526.175,330.252 L 559.639,344.085 L 583.618,364.442 L 611.474,387.915 L 634.173,421.773 L 652.262,449.834 L 661.306,478.591 L 666.872,524.216 L 658.059,607.297 L 657.124,622.167 C 655.676,629.723 645.177,643.213 640.434,651.526 C 635.691,659.839 616.213,677.968 610.421,685.571 C 604.629,693.174 581.457,701.863 572.253,703.674 C 563.049,705.485 536.926,704.398 520.215,700.415 C 503.504,696.432 488.05,678.331 485.378,675.095 C 482.706,671.859 450.398,652.264 443.072,648.782 C 435.746,645.3 409.487,644.661 396.815,641.041 C 384.143,637.421 361.683,616.112 361.683,616.112 L 344.924,599.556 L 327.361,570.657 L 317.099,539.813 L 324.348,511.453z"
     fill="none"
     stroke="#FF0000"
     stroke-width="1"
     id="path54" />
  <path
     d="M 671.047,461.677 L 668.496,450.297 L 658.06,437.31 L 650.639,421.772 L 639.971,411.8 L 624.201,385.087 L 615.388,373.072 L 583.617,348.49 L 559.638,333.682 L 531.528,322.51 C 531.528,322.51 508.538,315.524 506.964,316.257 C 505.39,316.99 481.116,322.51 481.116,322.51 L 464.845,339.036 L 456.009,346.171 L 415.927,347.098 L 395.774,359.157 L 366.554,398.505 L 342.668,432.684 L 328.29,464.674 L 316.695,484.876 L 309.506,509.664 L 309.506,547.205 L 332.233,593.383 L 358.409,625.386 C 365.547,634.114 381.611,643.212 393.197,646.47 C 404.783,649.728 419.989,647.195 432.66,648.781 C 445.331,650.367 489.139,682.313 492.954,691.504 C 496.769,700.695 531.758,714.173 531.758,714.173 L 566.969,718.155 L 602.097,701.863 L 648.785,660.161 L 666.874,606.138 L 676.149,544.683 L 676.149,517.319 L 676.149,485.78 L 671.047,461.677z"
     fill="none"
     stroke="#FF0000"
     stroke-width="1"
     id="path56" />
  <path
     d="M 584.546,614.255 C 584.546,614.255 599.619,595.555 604.258,584.381 C 608.897,573.207 611.355,540.74 613.256,532.392 C 615.157,524.044 606.345,482.995 604.258,475.691"
     fill="none"
     stroke="#FFFF00"
     stroke-width="1"
     id="path58" />
  <path
     d="M 327.363,351.507 L 293.968,389.538 L 280.286,418.294 L 264.285,451.284 L 255.856,490.145 L 254.367,511.453 L 254.367,539.812 L 261.734,570.835 L 269.155,624.354 L 278.548,636.34 L 289.503,650.632 L 302.008,667.009 L 326.204,693.174 L 349.028,704.759 L 388.853,712.362 L 412.023,709.466 L 431.052,700.053 C 431.052,700.053 438.182,693.173 445.739,713.81 C 453.296,734.447 481.117,762.324 481.117,762.324"
     fill="none"
     stroke="#FFFF00"
     stroke-width="1"
     id="path60" />
  <path
     d="M 382.668,791.762 L 351.777,792.518 L 330.704,792.14 L 303.317,782.28 L 283.464,765.91 L 269.161,755.672 L 257.388,737.802 L 237.886,725.816 L 216.331,694.351 L 203.153,684.429 L 190.35,651.528 L 183.204,614.257 L 188.266,567.875 L 190.35,535.978 L 195.114,494.316 L 223.698,400.375 L 243.349,379.383 L 268.806,353.364 L 282.354,330.254 L 278.546,297.768 L 292.628,261.88 L 311.392,234.454 L 350.113,216.215 L 378.511,215.27 L 411.539,224.088 L 426.026,218.42 L 440.828,218.735 C 440.828,218.735 441.649023315,218.400996704 442.945903406,217.850011619"
     fill="none"
     stroke="#FFFF00"
     stroke-width="1"
     id="path88" />
  <path
     d="M 407.587,759.83 L 385.314,770.988 L 367.741,767.197 C 367.741,767.197 336.08,769.62 335.247,769.62 C 334.414,769.62 309.506,759.83 309.506,759.83 L 277.411,744.585 L 261.733,725.814 L 243.75,714.082 L 232.779,696.061 L 222.826,685.76 L 214.279,667.663 L 200.771,642.594 L 196.603,610.596 L 199.432,577.962 C 199.432,577.962 198.092,549.398 198.092,547.909 C 198.092,546.42 200.772,535.975 200.772,535.975 L 207.323,482.068 L 220.126,456.797 L 234.418,425.057 L 250.497,380.275 L 264.286,371.721 L 290.955,353.363 L 299.768,330.253 C 299.768,330.253 296.907,307.23 296.907,302.19 C 296.907,297.15 312.654,269.437 315.488,263.769 C 318.322,258.101 340.367,245.818 347.138,243.928 C 353.909,242.038 377.529,234.795 385.315,234.453 C 393.101,234.111 401.463,238.889 410.911,245.563 C 420.359,252.237 432.724,231.016 432.724,231.016 C 432.724,231.016 449.333,221.253 454.687,218.104 C 460.041,214.955 476.732,197.318 484.712,192.28 C 492.692,187.242 498.777,184.406 507.595,184.721 C 516.413,185.036 539.718,186.926 549.166,188.185 C 558.614,189.444 604.278,204.561 608.31,205.799 C 612.342,207.037 621.915,222.827 623.16,226.606 C 624.405,230.385 643.331,251.486 645.85,255.992 C 648.369,260.498 648.684,287.388 648.786,297.766 C 648.888,308.144 670.415,326.977 670.415,326.977 L 694.891,346.172 L 712.364,368.547 L 731.737,398.506 L 754.189,440.879 L 772.515,471.769 L 780.977,513.608 L 782.616,518.838 L 782.616,562.741 L 773.68,602.608 L 750.561,647.277 L 735.679,665.096 L 705.907,697.408 L 675.184,724.752"
     fill="none"
     stroke="#FFFF00"
     stroke-width="1"
     id="path94" />
  <path
     d="M 710.048,668.959 L 725.663,632.626 L 736.091,602.1 L 749.66,577.962 L 761.066,524.216 L 756.286,490.497 L 754.186,477.842 L 725.663,414.022 L 709.233,393.419 L 702.22,371.72 L 687.917,366.011 L 682.485,356.607 L 676.147,349.534 L 649.532,327.715 L 633.88,307.874 C 633.88,307.874 620.338,257.154 615.614,250.54 C 610.89,243.926 602.005,233.849 596.184,227.235 C 590.363,220.621 562.39,213.054 552.943,210.859 C 543.496,208.664 518.93,205.505 507.592,205.82 C 496.254,206.135 475.6,217.472 470.43,219.047 C 465.261,220.622 440.196,250.312 436.102,260.504 C 433.638,266.638 427.284,274.475 421.149,273.215 C 415.014,271.955 390.122,262.507 382.666,260.933 C 375.21,259.359 359.889,262.193 350.111,268.176 C 340.333,274.159 331.231,282.348 327.766,292.111 C 324.301,301.874 320.403,330.251 320.403,330.251 L 317.098,347.818 L 303.377,362.11 L 285.384,377.295 L 267.991,391.587 L 254.363,423.446 L 248.11,458.283 L 234.413,485.379 C 234.413,485.379 225.995,553.34 236.367,583.162 L 264.281,663.415 L 287.233,687.647 L 320.851,716.043 C 320.851,716.043 361.316,732.529 373.81,731.291 C 386.304,730.053 421.07,722.48 421.07,722.48 L 426.126,725.811 L 434.629,742.44 L 447.857,760.769 L 482.815,779.098 L 519.095,785.523 L 582.019,775.697 L 631.715,752.455 L 646.698,740.924 L 674.057,715.17 L 685.921,701.151 L 710.048,668.959z"
     fill="none"
     stroke="#FF0000"
     stroke-width="1"
     id="path96" />
  <path
     d="M 236.799,535.976 L 234.417,550.291 L 250.793,603.411 L 257.344,631.279 L 266.426,650.038 L 285.388,669.392 L 303.381,691.504 C 303.381,691.504 321.446,710.131 321.446,710.887 C 321.446,711.643 362.828,720.902 364.718,722.035 C 366.608,723.168 394.196,725.814 394.196,725.814 L 428.209,718.155 L 436.334,727.893 L 452.962,754.235 L 487.113,774.756 L 545.552,778.912 C 545.552,778.912 578.157,772.874 587.143,770.988"
     fill="none"
     stroke="#FFFF00"
     stroke-width="1"
     id="path98" />
  <path
     d="M 247.816,477.341 L 255.26,449.948 L 261.734,418.684 L 270.083,403.452 L 280.519,391.856 L 300.463,369.129 L 320.407,351.505 C 320.407,351.505 338.162,321.713 342.67,314.767 C 347.178,307.821 358.633,278.253 367.743,272.269 C 376.853,266.285 416.581,282.662 428.863,280.772 C 441.145,278.882 454.687,237.941 464.847,230.383 C 475.007,222.825 496.888,220.935 519.877,220.62 C 542.866,220.305 573.101,228.493 583.619,232.587 C 594.137,236.681 617.19,271.953 619.08,278.882 C 620.97,285.811 631.362,315.099 636.087,319.828 C 640.812,324.557 668.84,348.488 668.84,348.488 L 677.354,355.507 L 681.252,366.008 L 698.901,385.085 L 712.282,407.397 L 725.664,425.054 L 738.614,453.627 L 743.366,473.252 L 751.762,539.81 C 751.762,539.81 743.449,577.737 743.366,578.669 C 743.283,579.601 731.735,597.668 731.735,597.668 L 722.331,629.61 L 696.357,675.352 L 676.149,708.739 C 676.149,708.739 628.708,751.46 621.013,755.804 C 613.318,760.148 577.115,771.372 577.115,771.372 C 577.115,771.372 545.98,778.25 537.291,777.526 C 528.602,776.802 498.801,773.181 481.117,767.027 C 463.433,760.873 443.159,733.719 443.159,733.719 C 443.159,733.719 433.746,709.1 427.229,710.186 C 420.712,711.272 392.056,722.857 386.472,721.771 C 380.888,720.685 335.025,710.911 327.364,705.118 C 319.703,699.325 307.98,681.223 305.333,679.413 C 302.686,677.603 289.502,660.157 289.502,660.157 L 273.72,644.38 L 261.733,625.387 L 258.535,601.802 L 250.495,572.747 L 243.349,548.802 L 243.349,535.976 L 247.815,497.713 L 247.815,477.341z"
     fill="none"
     stroke="#FF0000"
     stroke-width="1"
     id="path100" />
  <path
     d="M 674.062,705.122 L 623.159,750.016 C 623.159,750.016 593.769,761.963 584.547,764.497 C 575.325,767.031 564.443,769.203 548.876,771.738 C 533.309,774.273 522.447,771.376 510.861,769.203 C 499.275,767.03 477.915,755.807 477.915,755.807 C 455.83,732.636 444.246,700.777 444.246,700.777 C 444.246,700.777 434.471,691.002 433.385,691.002 C 432.299,691.002 411.663,701.864 393.56,701.14 C 375.457,700.416 348.225,694.985 339.394,691.002 C 330.563,687.019 305.583,658.765 301.601,655.695 C 297.619,652.625 275.881,614.255 275.881,614.255 L 267.996,584.381 L 261.734,543.291 L 261.734,492.527"
     fill="none"
     stroke="#FFFF00"
     stroke-width="1"
     id="path102" />
  <path
     d="M 421.074,538.56 L 450.544,568.632 C 450.544,568.632 483.74,590.354 494.947,592.164 C 506.154,593.974 519.815,592.419 527.104,587.585 C 534.393,582.751 543.806,572.961 550.685,565.728 C 557.564,558.495 566.967,538.56 566.967,538.56"
     fill="none"
     stroke="#FFFF00"
     stroke-width="1"
     id="path104" />
  <path
     d="M 465.245,645.695 C 465.245,645.695 493.767,667.237 503.032,673.85 C 512.297,680.463 523.635,685.944 537.428,685.754 C 551.221,685.564 561.615,684.905 577.11,682.968 C 592.605,681.031 616.165,662.512 621.013,659.111 C 625.861,655.71 630.586,648.53 630.775,647.585"
     fill="none"
     stroke="#FFFF00"
     stroke-width="1"
     id="path106" />
  <path
     d="M 403.481,755.671 L 337.106,765.909 L 283.464,744.585 L 258.414,716.589 L 250.551,712.362 L 239.328,692.088 L 222.826,676.52 L 214.765,657.184 L 206.428,645.274 L 203.153,610.596 L 205.833,587.585 L 204.94,577.962 L 203.153,547.909 L 205.535,535.975 L 210.894,490.442 L 225.484,463.644 L 238.288,431.479 L 249.602,399.529 L 257.641,380.274 L 274.952,371.72 L 296.945,353.362 L 305.332,330.252 L 305.093,310.063 L 318.32,272.901 C 318.32,272.901 346.533,248.966 358.408,247.077 C 370.283,245.188 396.171,246.763 400.863,249.597 C 405.555,252.431 412.485,256.72 418.153,255.993 C 423.821,255.266 437.049,237.945 437.049,237.945"
     fill="none"
     stroke="#FFFF00"
     stroke-width="1"
     id="path108" />
  <path
     d="M 330.603,330.252 C 330.603,328.014 346.634,294.001 350.113,285.498 L 363.67,271.326"
     fill="none"
     stroke="#FFFF00"
     stroke-width="1"
     id="path132" />
  <path
     d="M 632.435,307.875 C 632.435,307.875 617.505,265.343 617.505,264.398 C 617.505,263.453 599.554,235.109 598.924,233.85 C 598.294,232.591 561.447,219.678 552.945,219.048 C 544.443,218.418 508.54,215.899 494.948,214.009 C 481.356,212.119 471.063,222.827 464.846,226.921 C 458.629,231.015 431.052,275.421 431.052,275.421 L 421.152,276.681 L 367.742,265.973 L 358.409,267.862 C 358.409,267.862 340.366,282.664 335.248,289.907 C 330.13,297.15 323.045,338.092 322.73,339.036"
     fill="none"
     stroke="#FFFF00"
     stroke-width="1"
     id="path134" />
  <path
     d="M 662.225,348.491 C 662.225,348.491 614.357,306.885 609.632,297.766 C 604.907,288.647 591.996,260.812 586.327,255.992 C 580.658,251.172 565.227,241.093 557.353,238.888 C 549.479,236.683 522.082,234.164 511.058,234.479 C 500.034,234.794 473.896,235.423 468.227,241.092 C 462.559,246.761 448.653,263.452 446.473,267.546 C 444.293,271.64 439.253,291.461 434.215,291.471 C 429.177,291.481 382.669,281.088 382.669,281.088 C 382.669,281.088 368.203,284.255 361.686,287.072"
     fill="none"
     stroke="#FFFF00"
     stroke-width="1"
     id="path136" />
  <path
     d="M 681.251,715.173 L 714.76,674.045 L 739.953,637.649 L 754.186,612.197 C 754.186,612.197 752.265,600.853 759.328,591.803 L 761.066,583.164 L 776.306,509.72"
     fill="none"
     stroke="#FFFF00"
     stroke-width="1"
     id="path138" />
  <path
     d="M 271.361,282.349 C 270.766,277.31 303.203,218.92 306.668,213.787 C 310.133,208.654 334.067,198.549 335.957,197.303 C 337.847,196.057 358.409,193.538 358.409,193.538 L 374.064,191.334 L 404.926,205.799 L 424.3,202.357 L 439.57,203.932 L 477.583,177.13 L 511.956,149.653 C 511.956,149.653 571.411,157.007 572.256,157.007 C 573.101,157.007 613.257,172.124 613.257,172.124 C 613.257,172.124 631.677,182.202 633.882,182.517 C 636.087,182.832 654.983,194.169 654.983,194.169 L 671.674,211.49"
     fill="none"
     stroke="#FFFF00"
     stroke-width="1"
     id="path140" />
  <path
     d="M 342.668,204.246 L 386.471,207.08 L 407.761,213.787 L 421.152,210.544 L 445.238,205.798 C 445.238,205.798 503.5,162.989 510.113,161.73"
     fill="none"
     stroke="#FFFF00"
     stroke-width="1"
     id="path142" />
  <path
     d="M 557.702136925,329.941229298 L 578.69,341.302"
     fill="none"
     stroke="#FFFF00"
     stroke-width="1"
     id="path144" />
  <path
     d="M 516.727,160.471 C 525.544,159.526 579.399,176.533 585.382,178.737 C 591.365,180.941 623.488,193.538 631.047,200.782 C 638.606,208.026 661.28,249.282 663.394,255.992 C 665.508,262.702 671.673,293.057 671.673,293.057 L 690.453,308.174 L 719.601,328.169 L 728.352,343.199 L 739.337,356.782 L 742.325,366.918 L 761.065,422.853"
     fill="none"
     stroke="#FFFF00"
     stroke-width="1"
     id="path184" />
  <path
     d="M 480.768,685.76 C 480.768,685.76 497.556,713.343 511.351,719.012 C 525.146,724.681 538.562,731.294 550.088,731.294 C 561.614,731.294 576.733,728.838 580.7,725.815 C 584.667,722.792 627.498,691.504 627.498,691.504 L 653.673,670.5 L 676.149,620.416 L 693.079,569.277 L 696.357,535.975 L 693.079,481.026 L 689.137,468.154 L 681.484,448.442 L 668.034,432.685 L 657.598,415.048 L 635.567,393.481 L 618.87,373.769 L 594.983,348.491 L 578.692,330.252 L 543.588,314.769 L 514.525,302.189 C 514.525,302.189 482.663,307.228 477.808,310.377 C 472.953,313.526 456.529,337.776 446.475,335.887 C 436.421,333.998 408.546,329.588 398.392,332.738 C 388.238,335.888 379.544,351.507 379.544,351.507 L 341.744,400.903 L 321.104,438.008 L 302.319,470.011 L 296.522,513.146 L 290.956,549.555 L 307.242,591.185 L 333.035,624.355 L 354.516,642.594 L 372.558,648.782 L 400.439,661.353 L 433.023,658.375 C 433.023,658.375 456.556,666.066 463.797,675.095"
     fill="none"
     stroke="#FFFF00"
     stroke-width="1"
     id="path194" />
  <path
     d="M 681.251,614.255 L 694.889,569.277 L 703.328,531.382 L 701.902,482.451 L 684.033,445.376 L 665.249,416.438 L 650.64,399.741 L 642.059,386.522 L 610.52,349.881 L 576.564,317.935 L 565.542,314.768 L 550.426,305.338 C 550.426,305.338 523.972,298.094 511.69,297.779 C 499.408,297.464 476.732,302.503 472.433,306.944 C 468.134,311.385 454.057,327.383 450.593,330.251 C 447.129,333.119 439.571,329.587 432.724,328.167 C 425.877,326.747 410.911,324.549 407.588,324.296 C 404.265,324.043 387.921,327.698 386.472,330.251 C 385.023,332.804 367.019,351.506 367.019,351.506 L 335.248,394.407 L 306.26,436.382 L 286.78,476.734 L 285.388,515.388 L 290.954,569.496 L 314.144,616.11 C 314.144,616.11 335.948,636.543 342.668,642.592 C 349.388,648.641 364.587,663.852 372.556,664.03 C 380.525,664.208 411.845,665.3 418.269,664.03 C 424.693,662.76 436.578,656.605 447.29,666.381 C 458.002,676.157 470.311,687.379 477.19,698.965 C 484.069,710.551 510.86,734.808 510.86,734.808 L 543.586,744.583 L 572.255,736.979 L 609.698,723.754 C 609.698,723.754 645.901,692.727 646.988,691.501 C 648.075,690.275 663.393,662.655 663.393,662.655 L 674.061,632.623 L 681.251,614.255z"
     fill="none"
     stroke="#FF0000"
     stroke-width="1"
     id="path196" />
  <path
     d="M 698.9,625.935 L 712.361,586.202 L 719.591,556.907 L 725.662,535.976 L 721.413,481.187 L 712.28,458.906 L 694.639,431.48 L 670.411,400.373 L 590.419,318.566 L 569.318,302.19 L 527.432,290.223 L 503.029,290.223 L 477.58,297.767 C 477.58,297.767 456.258,314.895 455.313,316.259 C 454.368,317.623 442.086,326.565 438.937,324.298 C 435.788,322.031 416.262,314.753 411.853,314.77 C 407.444,314.787 390.123,317.937 389.178,318.567 C 388.233,319.197 369.337,330.253 369.337,330.253 L 355.653,351.508 L 289.56,448.675 L 278.545,497.714 L 279.82,513.609 L 280.98,540.974 L 280.98,555.12 L 287.937,589.905 L 305.33,617.038"
     fill="none"
     stroke="#FFFF00"
     stroke-width="1"
     id="path198" />
  <path
     d="M 704.45,632.626 L 716.223,591.767 L 724.424,581.05 L 731.734,547.206 L 730.204,481.187 L 721.414,453.63 L 710.337,431.48 C 710.337,431.48 693.322,417.307 691.897,411.801 C 690.472,406.295 678.125,390.843 678.125,390.843 L 668.84,387.535 C 668.84,387.535 655.612,369.584 647.11,364.441 C 638.608,359.298 620.97,333.997 613.257,328.167 C 605.544,322.337 585.069,301.874 576.25,297.765 C 567.431,293.656 556.725,289.276 546.961,283.922 C 537.197,278.568 516.413,279.198 506.65,280.458 C 496.887,281.718 476.417,289.591 472.432,293.37 C 468.447,297.149 444.923,318.249 441.459,319.829 C 437.995,321.409 421.618,314.155 415.928,311.006 C 410.238,307.857 395.164,303.133 390.44,304.393 C 385.716,305.653 367.742,319.83 367.742,319.83 L 347.539,351.506 L 328.755,376.55 L 283.533,449.6 L 276.576,478.589 L 274.952,507.808 L 274.952,545.609 L 278.547,576.684 L 295.244,614.253 C 295.244,614.253 325.494,651.251 341.062,661.351 C 356.63,671.451 392.834,675.433 400.437,675.071 C 408.04,674.709 431.211,666.244 442.072,669.39 C 442.072,669.39 455.801,673.297 459.749,682.967 C 463.697,692.637 469.98,714.192 478.472,721.719 C 486.964,729.246 496.201,742.472 506.807,744.583 C 517.413,746.694 534.814,751.143 548.01,750.116 C 561.206,749.089 572.838,746.352 582.761,742.247 C 592.684,738.142 633.659,716.93 643.45,706.665 C 653.241,696.4 680.659,661.16 680.659,661.16 L 704.45,632.626z"
     fill="none"
     stroke="#FF0000"
     stroke-width="1"
     id="path200" />
  <path
     d="M 714.76,629.613 L 724.425,596.387 L 735.677,544.972 L 734.251,475.69 L 729.101,456.339 L 716.224,429.858 L 703.328,409.608 L 692.307,392.315 L 663.394,364.441 C 662.225,363.6 627.355,329.587 621.013,325.808 C 614.671,322.029 599.869,314.534 597.35,306.944 C 594.831,299.354 580.502,285.812 578.691,282.033 C 576.88,278.254 544.757,258.728 541.922,258.098 C 539.087,257.468 519.884,253.689 503.031,258.098 C 486.178,262.507 466.818,270.065 464.845,274.16 C 462.872,278.255 450.857,301.244 446.472,303.449 C 442.087,305.654 426.037,305.654 421.15,302.189 C 416.263,298.724 403.151,298.066 393.961,297.766 C 384.771,297.466 373.071,306.277 367.74,310.217 C 362.409,314.157 352.302,331.163 350.112,333.998 C 347.922,336.833 342.667,349.883 342.667,349.883 L 313.215,379.799 L 273.791,452.617 L 269.153,494.36 L 267.994,511.454 L 269.153,542.129 L 270.081,562.742 L 287.938,616.112 L 296.892,626.922 C 296.892,626.922 325.494,655.523 330.2,660.162 C 334.906,664.801 360.25,678.693 369.105,680.504 C 377.96,682.315 404.057,680.504 413.108,679.78 C 422.159,679.056 441.347,673.987 443.157,674.711 C 444.967,675.435 454.018,689.917 459.748,698.244 C 465.478,706.571 474.293,729.017 482.62,737.345 C 490.947,745.673 506.153,753.999 515.204,755.991 C 524.255,757.983 538.736,760.154 546.702,759.792 C 554.668,759.43 580.733,752.189 580.733,752.189 L 630.773,721.47 L 657.125,700.476 L 685.925,665.729 L 714.76,629.613z"
     fill="none"
     stroke="#FF0000"
     stroke-width="1"
     id="path202" />
  <path
     d="M 718.063,625.935 L 728.364,599.556 L 742.326,562.742 L 747.863,538.56 L 741.33,477.357 L 734.251,456.34 L 721.414,423.588 L 706.49,404.825 L 696.356,385.089 L 680.659,371.721 L 665.059,359.159 C 665.059,359.159 610.261,312.268 605.222,306.946 C 600.183,301.624 584.121,274.162 573.729,266.603 C 563.337,259.044 546.645,249.597 535.937,246.763 C 525.229,243.929 501.924,246.763 494.947,248.653 C 487.97,250.543 464.763,259.046 457.52,261.88 C 450.277,264.714 449.646,286.444 444.292,294.003 C 438.938,301.562 436.733,296.522 431.05,297.768 C 425.367,299.014 415.003,288.649 403.48,288.649 C 391.957,288.649 375.322,285.815 369.653,288.649 C 363.984,291.483 346.663,319.832 346.663,319.832 L 335.246,349.884 L 309.505,376.321 L 292.808,408.556 L 265.907,458.88 L 264.979,511.455 L 264.284,540.975 L 270.081,582.486 L 279.821,614.257 C 279.821,614.257 308.115,657.696 322.235,666.024 C 336.355,674.352 364.949,689.556 372.555,689.556 C 380.161,689.556 417.452,685.211 420.348,684.488 C 423.244,683.765 440.352,679.42 445.737,685.936 C 451.122,692.452 456.914,726.122 471.396,738.07 C 485.878,750.018 512.307,761.24 521.72,762.327 C 531.133,763.414 564.497,764.861 572.253,762.327 L 593.417,755.674 L 632.433,734.157 L 685.425,680.458 L 718.063,625.935z"
     fill="none"
     stroke="#FF0000"
     stroke-width="1"
     id="path204" />
  <path
     d="M 734.251,635.5 C 734.251,633.293 745.656,606.067 745.656,606.067 L 757.797,572.747 L 769.274,524.216 C 769.274,524.216 764.419,485.027 764.051,483.924 L 708.498,376.128 L 662.225,331.244 C 662.225,331.244 641.539,306.616 640.068,302.19"
     fill="none"
     stroke="#FFFF00"
     stroke-width="1"
     id="path206" />
  <path
     d="M 549.541751825,161.86850297 L 586.332,169.922 L 629.478,186.613 L 668.844,234.456 L 685.432,294.677 L 725.765,327.719 L 739.343,348.494 L 747.492,366.92 L 754.191,390.112 L 766.684,419.947 L 776.311,448.608 L 782.618,477.845 L 799.216,512.137 L 804.073,544.975 L 808.02,554.161 L 810.043,592.899 L 803.053,631.142 L 793.893,656.352 L 789.050738774,663.982066409"
     fill="none"
     stroke="#FFFF00"
     stroke-width="1"
     id="path208" />
  <path
     d="M 385.314,777.584 L 359.993,775.512 L 335.995,777.584 L 318.611,769.843 L 283.465,754.236 L 274.953,749.434 L 261.734,734.038 C 261.734,734.038 244.73,721.722 243.35,721.037 C 241.97,720.352 236.518,708.527 236.518,708.527 L 222.826,696.745 C 222.826,696.745 212.226,677.586 212.086,676.901 C 211.946,676.216 200.771,657.184 200.771,657.184 L 196.603,645.572 L 189.159,614.256 L 193.625,590.786 L 193.625,569.645 L 196.603,535.976 L 203.154,489.252 L 214.766,460.072 L 220.125,441.016 L 234.417,415.41 L 246.029,379.68 L 264.284,364.443 L 277.41,356.609 L 286.523,346.173 L 293.073,330.253 L 287.235,302.19 C 287.235,302.19 306.037,256.089 306.667,255.992 C 307.297,255.895 334.696,231.015 334.696,231.015 L 378.511,220.614 C 378.511,220.614 402.091,228.811 407.13,231.015 C 412.169,233.219 424.298,223.168 424.298,223.168 C 424.298,223.168 437.048,222.495 438.938,220.614 C 440.828,218.733 455.629,214.639 468.856,200.467 C 482.083,186.295 499.405,177.792 506.018,177.162 C 512.631,176.532 558.927,185.035 568.374,187.24 C 577.821,189.445 593.127,198.263 608.307,203.616 C 623.487,208.969 632.306,225.608 639.864,234.452 C 647.422,243.296 657.5,264.397 657.5,271.326 C 657.5,278.255 656.058,308.138 663.393,314.769 L 674.881,321.108 L 701.902,340.3 L 705.904,352.069 L 721.414,366.01 L 738.613,397.097 L 757.06,434.255 L 772.512,464.736 L 776.306,471.767 L 790.908,497.711 C 792.012,499.359 790.908,524.214 790.908,524.214"
     fill="none"
     stroke="#FFFF00"
     stroke-width="1"
     id="path210" />
  <path
     d="M 209.108,538.56 L 208.959,542.847 L 208.959,574.706 L 208.959,594.656 L 207.321,605.375 C 207.321,605.375 210.894,632.173 210.894,633.661 L 212.085,646.471 L 228.015,675.095 L 243.349,689.916 L 248.184,703.674 L 264.284,715.259 L 278.546,732.637 L 297.616,746.395 L 339.392,763.733 C 339.392,763.733 384.144,757.256 392.471,753.636 C 400.798,750.016 411.659,739.878 418.268,742.775 C 424.877,745.672 440.575,792.375 440.575,792.375 L 459.747,797.806 L 487.316,810.84 L 521.719,810.84 L 546.338,805.409 L 596.183,789.478 L 629.246,774.634 L 643.447,765.583 L 678.121,751.825 L 703.325,744.585 L 718.089,735.132 L 738.61,725.666 L 766.137,706.487 L 789.302,677.841 L 796.008,667.507 L 807.828,635.024 L 815.381,608.167 L 808.012,532.119"
     fill="none"
     stroke="#FFFF00"
     stroke-width="1"
     id="path212" />
  <path
     d="M 745.656,432.685 C 745.656,432.685 723.661,395.626 721.414,393.051 C 719.167,390.476 710.337,373.552 710.337,373.552 L 703.852,366.916 L 687.738,348.49 L 670.414,334.506 L 644.905,305.653 L 632.435,268.176 L 619.709,230.07 C 619.079,228.81 597.034,216.213 583.618,209.599 C 570.202,202.985 556.408,203.301 543.586,200.151 C 530.764,197.001 509.169,197.002 501.295,197.631 C 493.421,198.26 470.747,211.803 466.653,215.582 C 462.559,219.361 440.829,239.202 435.16,246.445 C 429.491,253.688 424.138,259.357 417.524,262.192 C 410.91,265.027 403.982,256.523 395.263,253.374 C 386.544,250.225 372.489,251.17 358.409,253.374 C 344.329,255.578 338.161,259.043 330.603,265.342 C 323.045,271.641 319.265,285.497 317.101,290.851 C 314.937,296.205 312.726,326.976 312.726,326.976 L 304.389,351.506 L 278.547,373.128 L 264.285,380.869 L 249.9,413.325 L 243.349,449.949 L 225.484,487.763 L 217.743,538.56 L 217.743,589.296 L 220.125,614.255 L 225.187,639.021 L 238.288,655.696 L 243.35,668.347 L 256.02,681.006 L 267.996,698.113 L 282.356,712.362 L 291.779,727.326 L 312.727,738.664 L 327.115,745.467 L 344.121,748.301 L 387.393,744.585 L 404.778,735.641 C 404.778,735.641 416.195,728.808 421.108,730.32 C 426.021,731.832 429.721,755.334 433.878,762.325 C 438.035,769.316 442.949,775.129 444.838,776.646 C 446.727,778.163 477.151,791.196 477.151,791.196 L 500.582,796.109 L 520.234,796.109 L 532.138,795.353 L 546.688,794.219 L 559.726,790.44 L 594.118,782.314 L 609.612,773.623 L 632.666,760.962 L 657.128,748.231 L 677.922,739.065 L 690.289,731.295 L 698.689,727.631 L 722.023,708.03 L 734.973,694.851 L 743.606,688.434 L 760.405,663.0 L 764.051,656.839 L 780.975,631.14 L 800.474,577.962"
     fill="none"
     stroke="#FFFF00"
     stroke-width="1"
     id="path214" />
  <path
     d="M 772.513,458.078 L 751.762,414.39 L 743.366,385.088 L 731.735,359.493 L 713.991,333.239 L 668.84,308.173 C 666.95,304.394 659.392,261.248 659.077,255.991 C 658.762,250.734 643.33,226.605 638.117,223.167 C 632.904,219.729 623.804,200.466 613.257,197.302 C 602.71,194.138 551.056,170.232 537.514,168.028 C 523.972,165.824 503.186,166.138 496.143,171.177 C 489.1,176.216 452.482,205.505 444.924,208.654 C 437.366,211.803 433.272,209.914 431.052,210.229 C 428.832,210.544 414.69,216.213 409.741,217.158 C 404.792,218.103 389.18,210.859 389.18,210.859 C 389.18,210.859 368.394,208.654 358.409,208.654 C 348.424,208.654 331.548,208.024 322.73,213.786 C 313.912,219.548 274.953,288.961 274.953,288.961"
     fill="none"
     stroke="#FFFF00"
     stroke-width="1"
     id="path216" />
  <path
     d="M 793.938,490.497 L 787.023,463.321 L 776.307,431.48 L 770.179,398.506 L 754.187,367.822 L 752.374,355.691 L 741.33,337.404 L 733.001,321.289 L 713.447,304.994 L 691.901,286.707 L 682.304,222.792 L 663.393,194.001 L 646.092,181.691 L 643.449,177.162 C 636.957,169.604 623.173,166.769 614.67,161.73 C 606.167,156.691 595.774,153.227 582.232,147.873 C 568.69,142.519 548.849,139.685 529.954,140.323 C 511.059,140.961 503.5,150.707 492.953,157.636 C 482.406,164.565 458.78,190.074 442.088,197.002 C 425.396,203.93 426.971,194.482 421.151,193.538 C 415.331,192.594 404.925,197.002 404.925,197.002 C 404.925,197.002 365.591,181.57 355.655,182.83 C 345.719,184.09 319.303,188.184 303.38,209.914 C 287.457,231.644 265.005,272.9 266.626,285.183 C 268.247,297.466 278.547,319.83 278.547,319.83 L 281.164,326.976 C 279.44,328.763 272.945,341.268 272.945,341.268 L 261.733,359.157 L 241.116,371.719 L 215.51,396.352 L 187.968,433.869 L 186.702,446.364 L 180.71,478.531 L 186.702,533.318 L 184.99,562.74 L 180.822,594.059 L 174.718,616.11 L 177.547,642.592 L 180.822,657.182 L 195.119,677.242 L 201.619,694.348 L 217.743,707.007 L 230.017,725.813 L 249.519,741.16 L 261.733,762.323 L 280.252,772.724 L 284.598,778.911 L 289.322,781.746 L 294.235,789.115 L 308.407,792.516 L 323.335,800.641 L 347.9,806.31 L 371.52,806.499 L 414.414,767.195 L 438.601,805.406 L 455.04,808.388 L 479.605,817.08 L 491.348,821.237 L 504.548,820.103 L 522.121,822.181 L 534.025,817.079 L 548.764,814.622 L 561.424,807.819 L 581.453,798.75 L 603.184,790.813 L 630.205,778.908 L 668.765,762.32 L 690.726,753.526 L 716.821,749.075 L 747.862,727.806 L 776.305,712.956 L 781.084,704.518 L 804.066,670.496 L 812.728,643.985 L 821.81,607.293 L 818.867,572.743 L 810.973,526.547 L 793.938,490.497z"
     fill="none"
     stroke="#FF0000"
     stroke-width="1"
     id="path222"
     style="stroke:#00ff00;stroke-opacity:1" />
  <path
     d="M 766.68,616.585 L 754.187,645.695 L 735.677,673.394 L 714.76,704.522 L 706.49,707.142 L 697.097,717.978 L 688.436,723.176 L 687.698,723.756 L 627.498,757.559 L 614.335,765.307 L 585.99,777.583 L 558.78,783.636 L 543.096,786.848 L 532.892,786.848 L 518.153,790.817 L 504.926,787.982 L 490.432,785.526 C 490.432,785.526 469.401,776.078 468.834,775.889 C 468.267,775.7 455.606,772.11 450.883,767.385 C 446.16,762.66 436.144,750.568 436.144,750.568 C 433.498,741.12 422.35,725.814 422.35,725.814 L 403.076,732.049 L 387.77,735.828 C 387.77,735.828 347.521,735.828 346.955,735.828 C 346.389,735.828 328.059,728.837 328.059,728.837 L 296.88,708.051 L 280.252,691.503 L 267.995,675.355 L 253.175,658.375 L 238.288,631.875 L 228.164,595.251"
     fill="none"
     stroke="#FFFF00"
     stroke-width="1"
     id="path232" />
  <path
     d="M 835.385,767.197 C 835.512607297,768.554798987 835.108571609,770.569306279 834.385329086,772.914533229"
     fill="none"
     stroke="#FFFF00"
     stroke-width="1"
     id="path246" />
  <path
     d="M 435.956,755.671 L 448.994,772.726 L 472.425,784.015 L 496.045,790.817 L 519.477,792.518 L 553.111,787.604 L 586.368,779.857 L 613.522,768.897"
     fill="none"
     stroke="#FFFF00"
     stroke-width="1"
     id="path282" />
  <path
     d="M 375.677,797.809 L 362.639,797.809 L 327.303,794.69 L 315.021,790.817 L 299.148,785.526 L 290.954,775.322 L 267.995,759.83 L 254.367,739.512"
     fill="none"
     stroke="#FFFF00"
     stroke-width="1"
     id="path284" />
  <path
     d="M 379.542,783.306 L 331.29,780.235 L 310.762,777.584 L 285.388,757.987"
     fill="none"
     stroke="#FFFF00"
     stroke-width="1"
     id="path290" />
  <path
     d="M 678.124,629.613 L 700.036,565.728 L 706.49,538.56 L 706.49,477.356 L 691.896,451.284"
     fill="none"
     stroke="#FFFF00"
     stroke-width="1"
     id="path316" />
  <path
     d="M 691.896,620.416 L 705.904,577.962 L 714.76,545.958 L 714.76,488.706 L 685.926,432.685"
     fill="none"
     stroke="#FFFF00"
     stroke-width="1"
     id="path318" />
  <path
     d="M 694.889,622.167 L 707.766,586.201 L 718.063,552.651 L 718.092,483.923 L 701.902,451.284 L 666.873,400.042"
     fill="none"
     stroke="#FFFF00"
     stroke-width="1"
     id="path320" />
  <path
     d="M 791.398,592.896 L 776.307,624.354 L 764.051,645.695 L 739.953,685.76 L 723.79,702.032 L 698.968,723.757 L 678.124,736.589 L 634.722,757.761"
     fill="none"
     stroke="#FFFF00"
     stroke-width="1"
     id="path322" />
  <path
     d="M 805.698,567.438 L 803.049,599.813 L 793.938,629.613 L 776.307,656.839 L 760.434,677.21 L 743.502,696.679 L 727.44,709.576 L 685.926,737.563"
     fill="none"
     stroke="#FFFF00"
     stroke-width="1"
     id="path324" />
  <line
     fill="none"
     stroke="#0000FF"
     x1="484.853"
     x2="486.853"
     y1="491.703"
     y2="491.703"
     id="line354" />
</svg>
