<?xml version="1.0" encoding="UTF-8" standalone="no"?>
<svg
   xmlns:dc="http://purl.org/dc/elements/1.1/"
   xmlns:cc="http://creativecommons.org/ns#"
   xmlns:rdf="http://www.w3.org/1999/02/22-rdf-syntax-ns#"
   xmlns:svg="http://www.w3.org/2000/svg"
   xmlns="http://www.w3.org/2000/svg"
   xmlns:sodipodi="http://sodipodi.sourceforge.net/DTD/sodipodi-0.dtd"
   xmlns:inkscape="http://www.inkscape.org/namespaces/inkscape"
   height="100%"
   version="1.1"
   width="100%"
   id="svg2"
   inkscape:version="0.48.4 r9939"
   sodipodi:docname="ns3_fixed.svg">
  <metadata
     id="metadata122">
    <rdf:RDF>
      <cc:Work
         rdf:about="">
        <dc:format>image/svg+xml</dc:format>
        <dc:type
           rdf:resource="http://purl.org/dc/dcmitype/StillImage" />
      </cc:Work>
    </rdf:RDF>
  </metadata>
  <sodipodi:namedview
     pagecolor="#ffffff"
     bordercolor="#666666"
     borderopacity="1"
     objecttolerance="10"
     gridtolerance="10"
     guidetolerance="10"
     inkscape:pageopacity="0"
     inkscape:pageshadow="2"
     inkscape:window-width="1366"
     inkscape:window-height="705"
     id="namedview120"
     showgrid="false"
     inkscape:zoom="1.2685914"
     inkscape:cx="475.87157"
     inkscape:cy="712.17769"
     inkscape:window-x="-8"
     inkscape:window-y="-8"
     inkscape:window-maximized="1"
     inkscape:current-layer="svg2" />
  <defs
     id="defs4" />
  <rect
     fill="white"
     height="100%"
     width="100%"
     x="0"
     y="0"
     id="rect6" />
  <path
     d="M 335.156,372.406 C 335.156,372.406 338.969,373.031 341.281,373.906 C 343.593,374.781 347.781,376.968 348.344,379.125 C 348.907,381.281 349.125,384.5 347.563,386.031 C 346.0,387.562 340.593,388.593 339.25,388.718 C 337.906,388.843 331.406,386.812 329.75,385.375 C 328.094,383.937 326.968,380.281 327.156,379.375 C 327.344,378.468 330.812,374.125 331.937,373.312 C 333.063,372.5 333.992,372.194 335.156,372.406z"
     fill="none"
     stroke="#FF0000"
     stroke-width="1"
     id="path10" />
  <path
     d="M 328.688,374.094 C 328.688,374.094 332.75,370.531 337.251,371.625 C 341.751,372.719 346.125,374.625 347.564,375.75 C 349.001,376.875 350.658,378.313 350.314,379.344 C 349.97,380.375 350.126,384.25 347.595,386.844 C 345.064,389.438 339.97,389.875 337.47,389.594 C 334.97,389.313 331.126,388.313 329.97,387.532 C 328.814,386.75 325.125,383.938 325.5,381.781 C 325.874,379.625 327.59,374.898 328.688,374.094z"
     fill="none"
     stroke="#FF0000"
     stroke-width="1"
     id="path12" />
  <path
     d="M 325.736,383.19 C 325.736,383.19 323.129,382.094 325.736,376.5 C 328.343,370.906 332.0,370.438 333.718,369.875 C 335.437,369.313 337.593,369.281 338.843,369.875 C 340.093,370.469 342.499,371.094 344.406,371.594 C 346.313,372.094 348.937,372.531 349.719,374.0 C 350.5,375.469 352.469,377.281 352.032,379.313 C 351.594,381.344 352.126,387.875 349.344,390.25 C 346.562,392.625 343.5,393.813 341.781,393.438 C 340.062,393.063 339.437,391.719 337.781,390.844 C 336.910322135,390.3839498 335.586565935,389.799227037 334.526849458,389.348104674"
     fill="none"
     stroke="#FFFF00"
     stroke-width="1"
     id="path14" />
  <path
     d="M 332.628,367.585 C 332.628,367.585 340.349,366.745 343.5,367.585 C 346.65,368.425 350.184,368.74 352.094,371.629 C 354.004,374.518 355.579,379.245 355.422,381.083 C 355.265,382.921 354.162,388.803 352.691,391.272 C 351.221,393.741 348.385,395.58 346.651,396.0 L 344.919,396.419 C 344.919,396.419 341.821,395.001 341.138,394.738 C 340.454,394.476 338.426,393.531 337.917,392.9 C 337.408,392.27 336.778,390.694 334.835,390.537 C 332.892,390.379 330.476,390.484 329.53,390.222 C 328.585,389.959 325.928,389.118 324.578,386.913 L 323.227,384.707 C 323.227,384.707 322.123,382.36 322.176,380.382 C 322.229,378.404 322.732,372.995 325.474,370.841 C 328.216,368.688 330.947,368.688 332.628,367.585z"
     fill="none"
     stroke="#FF0000"
     stroke-width="1"
     id="path16" />
  <path
     d="M 327.067258844,373.44520702 C 328.527953986,370.106233518 332.418,369.056 332.418,369.056 L 333.993,368.321 C 335.568,367.586 337.197,368.163 339.457,368.321 C 341.715,368.479 342.555,369.108 344.971,369.108 C 347.387,369.108 349.698,371.104 349.698,371.104 L 352.094,372.995 C 354.49,374.886 353.9,379.35 354.373,381.406 C 354.845,383.462 353.531,386.808 353.165,387.858 C 352.797,388.909 350.905,391.273 349.75,392.795 C 348.595,394.318 345.285,394.739 345.285,394.739 C 345.285,394.739 343.857379832,394.719880087 342.626880574,394.349254689"
     fill="none"
     stroke="#FFFF00"
     stroke-width="1"
     id="path18" />
  <path
     d="M 329.319,362.071 C 329.319,362.071 334.781,358.447 341.294,359.13 C 347.807,359.813 353.27,360.916 357.104,364.802 C 360.938,368.689 363.721,373.889 364.457,376.462 C 365.192,379.035 363.828,381.767 362.935,386.651 C 362.041,391.535 358.471,397.681 354.952,399.991 C 351.433,402.301 346.652,401.512 344.447,400.515 C 342.242,399.518 335.781,394.32 333.943,393.505 C 332.105,392.69 327.535,394.791 325.697,393.793 C 323.859,392.795 319.342,390.957 318.922,388.383 C 318.502,385.81 316.507,385.022 317.662,379.403 C 318.815,373.784 323.857,365.22 329.319,362.071z"
     fill="none"
     stroke="#FF0000"
     stroke-width="1"
     id="path20" />
  <path
     d="M 327.884108925,368.954446054 L 330.737,366.589 L 335.897,365.118 C 341.057,363.648 347.071,365.066 349.908,366.274 C 352.745,367.482 354.897,370.896 357.786,377.041 C 360.675,383.186 355.003,393.506 355.003,393.506 C 355.003,393.506 352.750772223,396.780570078 349.334719247,396.10918688"
     fill="none"
     stroke="#FFFF00"
     stroke-width="1"
     id="path22" />
  <path
     d="M 322.448157603,373.012777753 C 322.660353711,370.61367054 323.936966398,367.226275907 328.743,364.491 C 337.146,359.708 338.67,360.233 344.132,361.493 C 349.594,362.754 354.374,363.785 356.895,368.338 C 359.416,372.891 362.567,375.668 361.832,380.345 C 361.097,385.023 362.094,392.218 356.475,396.42 C 350.856,400.621 348.072,399.886 345.971,398.941 L 343.87,397.996 L 340.703,394.558"
     fill="none"
     stroke="#FFFF00"
     stroke-width="1"
     id="path24" />
  <path
     d="M 334.677,397.785 C 334.677,397.785 340.689,404.876 348.765,403.3 C 356.841,401.724 356.946,402.669 361.305,398.31 C 365.664,393.951 366.767,390.486 367.345,387.177 C 367.923,383.868 367.713,375.991 365.56,372.104 C 363.407,368.218 362.986,363.38 357.261,360.626 C 351.536,357.871 347.679,355.508 342.176,356.244 C 336.673,356.979 330.113,358.291 326.644,361.128 C 323.175,363.964 316.084,369.11 316.084,375.045 C 316.084,380.98 314.219,384.447 317.305,389.856 C 320.391,395.266 324.54,396.263 328.584,396.001 C 332.628,395.738 334.677,397.785 334.677,397.785z"
     fill="none"
     stroke="#FF0000"
     stroke-width="1"
     id="path26" />
  <path
     d="M 354.474,408.409 C 354.474,408.409 365.437,405.418 369.277,397.172 C 373.117,388.926 372.274,378.81 370.869,374.033 C 369.464,369.255 366.497,361.762 361.939,358.015 C 357.38,354.268 352.791,353.893 347.358,353.144 C 341.925,352.395 335.087,353.824 330.684,356.107 C 326.282,358.389 319.069,361.786 315.978,367.956 C 312.887,374.126 312.232,380.402 313.262,384.805 C 314.292,389.207 318.694,398.199 323.846,400.728 C 328.998,403.257 338.366,408.689 345.11,409.346 C 351.854,410.002 354.474,408.409 354.474,408.409z"
     fill="none"
     stroke="#FF0000"
     stroke-width="1"
     id="path28" />
  <path
     d="M 336.566517811,357.013680257 C 338.808380818,356.268332141 342.926709008,354.961211395 345.044,354.679 C 348.045,354.278 354.715,356.613 357.316,357.88 C 359.918,359.148 364.385,365.217 367.12,369.442 C 369.854,373.667 370.121,383.958 370.121,383.958 C 370.121,383.958 371.561,397.426 361.937,402.228 C 352.938207204,406.718046032 345.213260112,407.064814921 341.042974018,402.921688145"
     fill="none"
     stroke="#FFFF00"
     stroke-width="1"
     id="path30" />
  <path
     d="M 315.525,351.951 C 315.525,351.951 327.889,343.547 337.916,342.317 C 347.943,341.087 354.502,342.112 359.524,344.982 C 364.546,347.851 371.003,353.704 372.746,356.107 C 374.488,358.511 379.1,369.068 380.022,372.962 C 380.945,376.857 384.225,389.466 381.047,398.895 C 377.869,408.325 372.95,414.883 365.878,419.085 C 362.798,420.915 357.485,423.933 351.529,424.62 C 343.812,425.511 335.362,423.718 332.875,423.082 C 328.468,421.955 315.759,415.088 310.327,405.146 C 304.895,395.204 301.717,383.623 302.742,376.346 C 303.769,369.07 311.601,355.228 315.525,351.951z"
     fill="none"
     stroke="#FF0000"
     stroke-width="1"
     id="path32" />
  <path
     d="M 308.791,382.43 C 308.791,382.43 309.612,366.405 318.631,357.18 C 327.65,347.956 333.687,346.931 340.559,346.521 C 347.431,346.111 355.22,349.936 359.627,352.943 C 364.034,355.951 372.54,365.774 373.976,372.341 C 375.412,378.909 376.334,384.955 375.001,389.158 C 373.668,393.36 367.621,404.43 363.624,407.401 C 359.627,410.373 344.072,412.218 340.985,412.116 C 337.898,412.014 329.494,408.264 323.549,403.528 C 317.604,398.792 309.508,388.309 308.791,382.43z"
     fill="none"
     stroke="#FF0000"
     stroke-width="1"
     id="path34" />
  <path
     d="M 307.664,376.349 C 307.664,376.349 309.919,368.557 309.919,367.212 C 309.919,365.867 320.783,353.081 327.136,348.162 C 333.489,343.242 341.692,344.882 347.431,345.087 C 353.17,345.292 366.393,352.568 371.413,359.044 C 376.435,365.52 380.433,377.679 380.433,377.679 L 380.433,378.191 L 379.409,393.506 C 378.385,408.82 364.24,415.806 364.24,415.806 C 364.24,415.806 361.984,419.087 355.015,420.625 C 348.046,422.163 340.051,420.523 336.669,419.6 C 333.287,418.678 317.913,409.66 316.171,407.405 C 314.429,405.15 307.562,393.413 307.254,388.725 C 306.946,384.037 307.664,376.349 307.664,376.349z"
     fill="none"
     stroke="#FF0000"
     stroke-width="1"
     id="path36" />
  <path
     d="M 374.861178781,390.36593136 C 373.613249706,398.19652823 365.457662652,410.50019277 361.37,412.836 C 357.065,415.296 351.018,416.833 344.561,417.038 C 338.104,417.243 329.084,413.144 321.295,407.711 C 315.961103489,403.990966656 314.091382763,397.915068741 313.442605371,394.453536368"
     fill="none"
     stroke="#FFFF00"
     stroke-width="1"
     id="path38" />
  <path
     d="M 374.078,352.943 C 374.078,352.943 380.536,365.058 383.405,372.341 C 383.405,372.341 387.375,380.5 388.625,384.75 C 389.875,389.0 388.625,403.75 387.25,407.0 C 385.875,410.25 381.367,422.375 367.621,426.875 C 353.875,431.375 352.17,436.125 335.022,433.125 C 317.874,430.125 319.125,430.0 311.5,423.875 C 303.875,417.75 291.875,400.125 289.5,393.0 C 287.125,385.875 284.625,374.298 287.0,367.212 C 289.375,360.125 303.707,348.125 308.791,345.125 C 313.875,342.125 326.875,337.0 331.75,336.5 C 336.625,336.0 349.125,335.0 357.0,339.875 C 364.875,344.75 374.078,352.943 374.078,352.943z"
     fill="none"
     stroke="#FF0000"
     stroke-width="1"
     id="path40" />
  <path
     d="M 378.620099181,364.666130118 C 381.133309583,369.825428673 382.232639588,374.692202686 384.125,379.306 C 386.25,384.486 386.0,384.375 384.125,397.172 C 382.25,409.969 373.125,418.375 369.375,421.257 C 365.625,424.139 352.0,427.75 346.5,428.875 C 341.0,430.0 331.125,426.75 324.577,423.75 C 318.029,420.75 307.875,408.875 302.553,400.25 C 297.231,391.625 297.375,378.25 301.0,366.0 C 304.625,353.75 316.625,347.75 329.375,341.854 C 342.125,335.958 347.632,341.854 347.632,341.854"
     fill="none"
     stroke="#FFFF00"
     stroke-width="1"
     id="path42" />
  <path
     d="M 385.58,386.408 C 385.58,386.408 387.625,400.0 384.625,406.625 C 381.625,413.25 375.75,419.708 367.621,424.863 C 359.492,430.018 348.75,432.125 345.0,431.875 C 341.25,431.625 326.25,429.0 323.0,426.5 C 319.75,424.0 308.5,413.646 303.125,405.824 C 297.75,398.0 293.625,381.374 294.5,373.374 C 295.375,365.374 299.375,358.124 310.375,349.749 C 321.375,341.374 331.428,337.782 333.582,340.234"
     fill="none"
     stroke="#FFFF00"
     stroke-width="1"
     id="path44" />
  <path
     d="M 346.25,431.895 C 346.25,431.895 341.249,433.001 335.022,431.895 C 328.795,430.789 323.0,429.25 314.0,423.5 C 305.0,417.75 298.0,402.5 292.875,393.506 C 287.75,384.512 289.25,377.375 291.875,367.212 C 293.958197376,359.146653361 301.086717529,355.647981976 303.940637835,354.547318271"
     fill="none"
     stroke="#FFFF00"
     stroke-width="1"
     id="path46" />
  <path
     d="M 308.791,341.269 C 308.791,341.269 330.902,333.84 338.804,334.269 C 346.705,334.697 357.992,337.84 363.706,341.269 C 369.42,344.698 375.442,347.138 380.433,354.633 C 385.423,362.128 390.281,376.272 392.138,387.13 C 393.995,397.988 392.143,403.984 389.14,410.843 C 386.137,417.702 381.566,421.273 370.994,427.845 C 360.422,434.417 354.254,435.703 350.837,436.846 C 347.42,437.989 344.706,437.99 334.276,436.846 C 323.846,435.702 309.352,435.56 294.382,418.701 C 279.414,401.843 274.699,385.701 276.985,376.129 C 279.27,366.557 287.688,350.269 302.553,343.84 C 317.417,337.411 308.791,341.269 308.791,341.269z"
     fill="none"
     stroke="#FF0000"
     stroke-width="1"
     id="path48" />
  <path
     d="M 344.053,434.061 C 343.622,434.059 328.568,436.255 323.278,434.87 C 317.988,433.485 315.002,432.284 303.495,424.863 C 291.987,417.442 284.487,402.803 280.738,392.072 C 276.988,381.341 281.642,370.737 281.642,370.737 C 290.426139302,349.775954701 302.979492327,345.286820315 308.248018658,344.329436917"
     fill="none"
     stroke="#FFFF00"
     stroke-width="1"
     id="path50" />
  <path
     d="M 271.815,385.064 C 271.556,381.415 272.72,375.396 272.591,369.441 C 272.461,363.487 282.547,354.19 286.041,348.63 C 289.535,343.07 303.494,338.157 303.494,338.157 C 303.494,338.157 323.277,332.338 329.742,332.338 C 336.207,332.338 354.955,334.924 359.869,336.864 C 364.783,338.803 379.781,345.915 381.333,347.984 C 382.885,350.053 387.021,358.655 387.798,360.625 C 388.575,362.595 391.628,371.903 392.882,375.395 C 394.135,378.886 397.109,391.925 396.461,397.172 C 395.815,402.419 395.169,411.761 390.385,417.046 C 385.601,422.331 377.067,429.564 372.8,431.895 C 368.533,434.227 358.448,437.848 353.147,439.529 C 347.846,441.21 336.209,439.788 331.812,439.529 C 331.812,439.529 321.935,437.328 317.305,436.035 C 312.675,434.742 313.193,435.389 312.675,434.742 C 312.157,434.095 301.814,430.088 296.771,426.984 C 291.729,423.88 278.152,409.528 274.402,398.925 C 270.652,388.322 271.815,385.064 271.815,385.064z"
     fill="none"
     stroke="#FF0000"
     stroke-width="1"
     id="path52" />
  <path
     d="M 328.838,440.336 C 333.493,440.369 352.5,442.889 355.433,443.019 C 358.366,443.149 370.991,439.787 377.197,434.065 C 383.403,428.343 390.644,424.011 395.558,417.046 C 400.472,410.081 400.212,400.352 400.86,395.71 C 401.506,391.068 397.368,381.604 396.553,379.306 C 395.739,377.007 392.971,367.9 392.195,365.702 C 391.419,363.503 387.928,354.633 387.928,354.633 L 383.403,346.491 L 370.199,339.233 L 350.949,332.338 C 350.949,332.338 340.174,328.847 335.023,329.882 C 329.872,330.917 313.319,331.304 307.178,333.503 C 301.038,335.701 291.34,338.287 280.996,350.312 C 270.652,362.336 270.78,367.767 269.358,373.326 C 267.936,378.886 269.795,394.919 271.645,399.056 C 273.496,403.194 279.574,416.252 285.134,422.976 C 290.693,429.7 296.512,432.482 301.814,434.064 C 307.115,435.647 328.838,440.336 328.838,440.336z"
     fill="none"
     stroke="#FF0000"
     stroke-width="1"
     id="path54" />
  <path
     d="M 287.849,430.476 C 290.694,432.674 304.787,439.786 311.665,441.725 C 318.543,443.664 340.862,446.38 342.485,446.638 C 344.108,446.896 358.059,447.284 362.843,445.475 C 367.627,443.666 379.394,437.846 383.014,434.065 C 386.634,430.284 396.332,422.718 399.177,417.805 C 402.022,412.892 403.573,405.909 403.961,397.172 C 404.349,388.435 399.694,377.594 398.918,376.042 C 398.142,374.49 395.686,364.405 394.91,361.689 C 394.135,358.974 390.642,352.38 389.139,350.053 C 387.635,347.726 383.014,344.493 378.747,341.806 C 374.48,339.118 360.386,332.726 354.473,331.046 C 348.56,329.365 337.887,326.391 316.164,328.46 C 294.441,330.529 282.805,344.072 282.805,344.072 C 282.805,344.072 275.176,351.844 274.271,354.633 C 273.366,357.423 268.453,363.241 267.935,365.439 C 267.418,367.638 263.927,380.73 265.349,387.308 C 266.771,393.885 268.97,402.807 270.263,404.875 C 271.556,406.943 278.926,417.985 280.865,421.257 C 282.806,424.528 287.849,430.476 287.849,430.476z"
     fill="none"
     stroke="#FF0000"
     stroke-width="1"
     id="path56" />
  <path
     d="M 384.438,343.329 C 381.206,341.131 362.974,331.045 362.974,331.045 C 362.974,331.045 350.088,326.649 344.053,325.873 C 338.018,325.098 326.252,322.77 319.657,323.934 C 313.062,325.098 303.521,325.744 298.4,329.106 C 298.4,329.106 291.727,331.507 288.753,334.25 C 285.779,336.994 278.02,343.846 275.564,347.984 C 273.107,352.121 267.03,358.845 265.737,362.983 C 264.444,367.121 261.47,376.736 262.246,381.816 C 263.022,386.896 265.867,400.085 266.513,402.283 C 267.16,404.481 277.246,425.296 285.004,431.115 C 292.762,436.934 319.527,444.246 328.061,446.861 C 336.595,449.476 353.333,449.346 358.606,448.7 C 363.877,448.054 388.784,433.831 392.881,430.211 C 396.978,426.591 409.004,407.572 407.065,396.2 C 405.125,384.827 397.754,362.072 395.427,357.805 C 395.427,357.805 393.23,351.081 390.514,348.883 C 387.799,346.684 384.438,343.329 384.438,343.329z"
     fill="none"
     stroke="#FF0000"
     stroke-width="1"
     id="path58" />
  <path
     d="M 337.95,322.264 C 337.95,322.264 354.656,324.528 365.221,329.69 C 375.785,334.852 379.719,337.436 383.877,340.696 C 388.035,343.955 395.79,352.947 398.264,357.442 C 400.736,361.938 404.332,374.975 406.579,378.684 C 408.826,382.393 411.073,394.196 411.411,397.792 C 411.749,401.389 410.736,410.155 408.826,415.325 C 406.916,420.495 405.006,423.079 402.982,425.889 C 400.959,428.698 385.225,440.335 385.225,440.335 L 370.198,450.277 L 356.455,454.548 C 356.455,454.548 338.809,455.447 330.83,454.548 C 322.851,453.649 303.745,449.604 296.327,445.332 C 288.909,441.06 277.783,426.786 273.512,422.628 C 269.242,418.471 268.855,418.021 268.855,418.021 C 268.855,418.021 269.255,418.091 268.855,417.044 L 268.455,415.997 L 268.455,415.548 L 267.893,415.323 C 267.893,415.323 262.723,407.12 261.599,404.422 C 260.475,401.724 259.352,387.297 259.24,382.428 C 259.128,377.559 260.926,367.402 263.847,360.623 C 266.769,353.844 274.364,344.852 279.277,340.469 C 284.189,336.086 293.42,325.974 306.0,323.612 C 318.58,321.252 330.571,320.241 337.95,322.264z"
     fill="none"
     stroke="#FF0000"
     stroke-width="1"
     id="path60" />
  <path
     d="M 263.654,410.053 L 261.516,406.299 L 259.557,402.577 C 257.599,398.855 257.468,383.379 257.468,383.379 L 259.235,371.757 C 261.002,360.135 268.371,350.47 268.371,350.47 C 273.431,345.409 273.136,344.071 282.538,333.755 C 291.94,323.439 302.907,321.675 308.791,320.108 C 314.674,318.541 324.649,319.063 329.808,319.063 C 334.967,319.063 343.41,321.18 343.41,321.18 C 343.41,321.18 363.802,327.319 368.478,329.69 C 373.155,332.061 389.943,343.331 392.013,345.554 C 394.083,347.777 397.303,352.99 399.372,355.443 C 401.441,357.896 403.74,367.239 406.73,372.342 C 409.72,377.445 411.635,387.717 413.169,392.547 C 414.703,397.376 413.476,409.411 413.169,413.015 C 412.862,416.619 409.923,423.552 407.274,426.2 C 404.626,428.849 399.601,434.634 395.691,438.544 C 391.781,442.454 382.967,449.507 375.645,452.727 C 375.645,452.727 371.925,454.981 367.946,455.723 C 363.966,456.465 348.721,459.029 345.214,459.029 C 341.707,459.029 328.755,458.016 324.505,457.747 C 320.255,457.478 302.039,452.08 297.992,450.664 C 293.945,449.248 284.296,441.962 282.002,439.938 C 279.71,437.913 260.951,418.376 263.654,410.053z"
     fill="none"
     stroke="#FF0000"
     stroke-width="1"
     id="path62" />
  <path
     d="M 352.61,306.056 C 352.61,306.056 359.978,307.81 367.621,312.969 C 375.264,318.128 379.329,321.12 382.404,322.462 C 385.479,323.803 390.276,328.344 392.882,331.851 C 395.487,335.359 397.551,340.409 399.099,341.806 C 400.647,343.202 405.084,348.361 405.703,350.012 C 406.322,351.663 410.438,361.738 411.475,364.491 C 412.512,367.244 417.259,384.832 417.672,386.356 C 418.083,387.88 422.417,395.311 422.108,398.509 C 421.799,401.707 421.179,413.264 420.354,415.74 C 419.529,418.216 415.917,425.438 415.505,426.574 C 415.091,427.71 408.435,434.314 407.275,436.893 C 406.115,439.472 395.796,448.862 390.947,452.267 C 386.098,455.672 376.297,461.451 370.827,463.204 C 365.358,464.958 354.318,467.332 349.159,467.744 C 344.0,468.156 336.157,469.911 328.832,469.292 C 321.507,468.673 315.42,468.155 310.982,466.918 C 306.544,465.681 295.396,463.62 289.465,459.027 C 283.535,454.434 269.296,442.465 264.137,436.687 C 258.979,430.91 249.176,416.05 247.525,411.303 C 245.874,406.556 239.89,386.509 240.509,379.817 C 241.128,373.124 245.359,356.717 250.93,349.082 C 256.502,341.447 269.136,324.627 279.277,317.301 C 289.417,309.975 307.68,306.364 319.34,304.816 C 330.999,303.269 348.678,304.801 352.61,306.056z"
     fill="none"
     stroke="#FF0000"
     stroke-width="1"
     id="path64" />
  <path
     d="M 399.188809368,354.800770545 C 400.656376637,356.396066851 402.854951296,359.027968695 403.985,361.569 C 405.776,365.593 416.331,392.007 416.847,394.74 C 417.363,397.473 416.433,414.295 415.505,417.047 C 414.577,419.799 411.58,425.886 411.476,426.403 C 411.372,426.917 405.187,431.44 403.433,434.725 C 401.679,438.01 391.725,445.842 387.853,448.344 C 383.981,450.846 375.059,457.631 375.059,457.631 C 375.059,457.631 371.24,458.251 368.248,459.798 C 365.256,461.345 347.301,462.996 340.321,463.821 C 333.341,464.646 318.618,461.448 309.95,460.623 C 301.282,459.798 290.965,451.027 286.631,448.653 C 282.298,446.28 272.26,436.925 268.855,432.385 C 265.45,427.845 258.979,421.105 254.336,413.779 C 249.692,406.453 248.042,395.103 246.494,389.668 C 244.946,384.234 249.176,373.846 250.827,370.235 C 252.478,366.624 264.138,345.058 266.408,342.375 C 268.678,339.692 276.623,330.406 280.337,327.754 C 284.052,325.102 294.473,320.295 299.735,317.921 C 299.735,317.921 315.212,313.071 328.213,314.309 C 341.214,315.547 351.223,318.849 356.485,320.706 C 361.529161613,322.487081771 389.011439153,339.746401917 393.658364168,347.292687758"
     fill="none"
     stroke="#FFFF00"
     stroke-width="1"
     id="path66" />
  <path
     d="M 274.114295597,432.20647606 C 268.238034214,427.189637505 257.32473875,411.427135812 256.399,408.928 C 255.367,406.142 252.375,399.229 251.343,392.316 C 250.312,385.403 252.891,374.877 252.891,374.877 L 258.463,364.972 L 266.305,348.256 C 266.305,348.256 274.972,332.779 282.607,328.754 C 290.243,324.73 305.055,315.857 317.305,316.372 C 329.555,316.888 342.659,317.94 350.913,321.18 C 355.128666016,322.834804688 360.068733537,325.26696497 363.8935493,327.250755903"
     fill="none"
     stroke="#FFFF00"
     stroke-width="1"
     id="path68" />
  <path
     d="M 398.690329924,440.025133809 C 396.752691531,442.069782142 392.437807201,446.511305604 389.139,449.092 C 384.752,452.524 377.431,458.145 373.407,460.208 C 369.383,462.271 356.278,463.51 352.61,463.954 C 348.942,464.398 336.468,465.471 332.031,465.265 C 327.594,465.059 317.687,464.233 312.323,463.408 C 306.958,462.583 293.235,457.217 291.171,456.288 C 289.108,455.36 284.155,450.51 284.155,450.51 L 272.805,440.811 L 267.956,434.723 L 251.1,410.682 C 248.579,405.705 244.121,394.895 242.985,390.458 C 241.85,386.021 243.501,375.392 243.914,373.226 C 244.327,371.059 246.081,368.169 247.938,365.487 C 249.795,362.804 251.859,356.096 253.097,354.136 C 254.335,352.176 258.566,348.564 262.119,341.805 C 265.672,335.045 279.099,322.871 284.258,318.979 C 289.417,315.087 300.354,312.45 309.847,309.251 C 319.339,306.052 333.579,307.085 333.579,307.085 C 333.579,307.085 354.628,306.26 363.295,312.347 C 371.962,318.435 383.711,324.625 385.627,326.379 C 387.543,328.134 394.765,338.246 395.9,339.897 C 397.035,341.547 401.472,348.757 403.329,352.943 C 405.185,357.128 407.972,362.494 409.519,366.621 C 411.068,370.748 414.577,382.766 415.608,385.064 C 416.056409488,386.062058715 416.165365798,387.447524507 416.145199939,388.695308138"
     fill="none"
     stroke="#FFFF00"
     stroke-width="1"
     id="path70" />
  <path
     d="M 279.546838428,328.283774463 C 282.050090921,325.931100756 290.711192016,318.322982134 301.283,315.03 C 313.871,311.109 326.917,312.554 335.356,312.657 C 343.795,312.76 354.641,315.443 358.607,318.022 C 362.573,320.602 369.485,323.594 373.407,325.554 C 377.328,327.515 384.551,334.944 387.026,337.627 C 389.202510365,339.983568728 395.547271536,347.516699165 396.730981119,350.963494467"
     fill="none"
     stroke="#FFFF00"
     stroke-width="1"
     id="path72" />
  <path
     d="M 398.2125271,456.791392821 C 395.421715492,459.840000504 389.061766122,466.783699831 387.786,468.144 C 386.142,469.898 378.141,473.076 374.743,474.282 C 371.345,475.488 363.89,478.885 359.724,479.513 C 355.56,480.141 344.051,479.105 338.789,479.434 C 333.527,479.763 323.443,478.995 320.045,478.337 C 316.647,477.679 304.48,475.27 302.552,473.516 C 300.623,471.762 290.23,469.022 286.04,466.171 C 281.851,463.321 276.418,457.512 273.349,453.346 C 270.28,449.18 263.922,449.51 261.291,446.861 C 258.661,444.212 254.934,438.439 252.523,435.328 C 250.111,432.217 245.069,421.229 243.754,419.037 C 242.439,416.844 241.123,409.719 240.463,407.308 C 239.804,404.897 237.068,391.303 237.178,389.003 C 237.287,386.703 236.301,375.409 236.191,370.695 C 236.081,365.982 238.492,361.707 239.588,359.044 C 240.684,356.381 241.671,351.622 242.592,348.772 C 243.513,345.922 248.028,340.44 251.099,335.398 C 254.169,330.355 261.401,324.984 267.539,318.979 C 273.678,312.974 289.932,306.155 289.932,306.155 C 289.932,306.155 307.989,301.719 316.037,300.377 C 324.085,299.036 335.605,298.83 342.175,299.758 C 348.745,300.687 356.586,303.679 362.881,306.155 C 369.176,308.632 379.39,313.998 383.621,317.402 C 387.852,320.807 393.077,326.585 396.552,330.403 C 400.027,334.221 406.527,346.397 408.488,350.834 C 410.449,355.27 413.377,363.731 413.925,366.001 C 414.339412719,367.717636629 415.930754824,377.227284308 416.681978954,381.761652661"
     fill="none"
     stroke="#FFFF00"
     stroke-width="1"
     id="path74" />
  <path
     d="M 422.30982662,399.520174805 C 422.979494193,402.927381013 425.050598207,413.94017757 424.419,416.747 C 423.669,420.08 418.751,429.579 418.334,430.996 C 417.917,432.413 408.667,442.163 406.583,444.83 C 404.499,447.497 397.5,453.081 395.917,453.998 C 394.334,454.915 387.249,460.667 384.416,462.082 C 381.583,463.499 368.999,468.249 365.166,469.424 C 361.333,470.599 349.628,471.257 342.014,472.424 C 334.4,473.591 323.786,472.514 316.619,471.514 C 309.452,470.514 298.926,466.542 293.342,463.957 C 287.759,461.373 282.251,458.83 279.667,455.83 C 277.084,452.83 268.501,447.164 266.001,444.747 C 263.501,442.33 257.668,434.58 253.751,429.913 C 249.834,425.246 245.668,414.998 243.585,408.664 C 241.501,402.33 239.002,381.082 238.668,377.666 C 238.335,374.249 240.335,361.832 241.418,360.749 C 242.501,359.666 245.502,350.499 249.752,343.499 C 254.002,336.499 259.668,333.167 266.251,325.084 C 271.198903857,319.008668559 281.758259424,314.673887073 286.698505776,312.895335061"
     fill="none"
     stroke="#FFFF00"
     stroke-width="1"
     id="path76" />
  <path
     d="M 419.724002776,428.74124032 C 417.989032623,435.049272593 407.370373045,448.752888362 403.984,451.876 C 400.316,455.257 378.911,469.822 375.001,471.513 C 371.091,473.204 345.62,475.415 340.559,475.024 C 335.498,474.635 316.489,474.244 311.665,472.423 C 308.452026945,471.210142634 303.282741714,468.672671174 300.188406667,467.113108894"
     fill="none"
     stroke="#FFFF00"
     stroke-width="1"
     id="path78" />
  <path
     d="M 422.124,383.334 C 422.124,383.334 416.103,353.598 413.113,346.491 C 410.122,339.384 400.499,323.259 397.637,319.748 C 394.776,316.236 385.533,305.55 364.665,299.188 C 343.798,292.827 336.125,293.217 325.071,292.437 C 314.017,291.657 303.614,292.177 297.242,293.348 C 290.87,294.518 285.928,293.738 277.215,301.28 C 268.502,308.823 255.153,321.177 251.099,324.818 C 247.044,328.459 238.726,342.375 236.187,347.707 C 233.649,353.039 231.699,369.213 232.219,374.911 C 232.739,380.609 232.74,395.884 233.78,403.528 C 234.82,411.172 239.571,423.657 242.592,430.029 C 245.614,436.401 248.214,441.63 255.107,449.093 C 261.999,456.557 270.582,462.02 273.313,466.311 C 276.044,470.602 286.188,478.145 293.211,482.306 C 300.233,486.467 316.879,490.759 324.031,490.369 C 331.183,489.979 354.851,489.589 361.094,488.808 C 367.337,488.027 385.023,477.079 391.265,472.93 C 397.507,468.781 404.92,465.792 405.96,462.8 C 407.0,459.809 421.25,437.962 422.123,434.58 C 422.996,431.198 428.197,416.288 427.287,409.503 C 426.377,402.718 422.124,383.334 422.124,383.334z"
     fill="none"
     stroke="#FF0000"
     stroke-width="1"
     id="path80" />
  <path
     d="M 422.064882037,423.147421407 C 420.629657524,427.320327568 416.405847423,439.375377506 413.925,444.072 C 410.902,449.795 399.239,459.549 396.553,463.189 C 393.867,466.829 387.884,470.057 384.763,472.93 C 381.642,475.804 363.046,485.557 360.835,485.687 C 358.624,485.817 333.525,485.297 328.714,485.687 C 323.903,486.077 308.946,484.516 304.915,482.696 C 300.884,480.876 295.422,478.405 292.691,476.974 C 289.96,475.543 270.768,459.286 268.855,457.596 C 266.943,455.906 248.997,434.412 247.306,431.894 C 245.615,429.376 241.816,421.443 240.465,418.972 C 239.113,416.501 236.773,404.949 235.472,399.671 L 234.171,394.393 L 234.171,366.302 C 234.171,358.109 240.934,342.504 243.274,338.343 C 245.615,334.181 268.893,310.251 279.817,305.31 C 290.741,300.368 311.808,295.556 320.651,295.556 C 329.494,295.556 360.965,297.898 368.768,303.229 C 376.571,308.561 387.086,314.159 392.882,321.178 C 398.678,328.198 406.09,337.063 409.602,344.66 C 412.83774579,351.660340692 415.630382878,363.87187739 415.134648653,369.988640789"
     fill="none"
     stroke="#FFFF00"
     stroke-width="1"
     id="path82" />
  <path
     d="M 419.209932104,362.333671845 C 419.697301165,363.015786238 420.089874783,363.931389559 420.136,365.131 C 420.266,368.512 429.109,402.065 430.02,405.823 C 430.931,409.581 428.069,429.244 428.069,431.195 C 428.069,433.146 424.168,439.388 424.168,439.388 L 423.258,441.208 C 422.348,443.028 421.308,448.881 418.576,451.872 C 415.844,454.863 411.683,462.535 410.384,463.955 C 409.085,465.375 406.613,465.267 404.531,468.647 C 402.449,472.027 390.746,478.92 387.756,481.782 C 384.766,484.644 372.021,489.193 366.428,491.925 C 360.835,494.657 359.016,494.526 356.025,494.136 C 353.034,493.746 334.699,495.308 334.699,495.308 C 334.699,495.308 328.455,497.258 324.944,496.348 C 321.433,495.438 315.581,494.528 309.209,493.877 C 302.837,493.226 289.017,486.074 286.043,484.124 C 283.07,482.174 272.276,475.78 269.805,472.93 C 267.334,470.079 259.531,462.019 256.8,459.027 C 254.07,456.035 245.166,445.761 242.595,442.51 C 240.025,439.259 232.352,426.513 231.051,423.262 C 229.751,420.011 228.45,414.418 228.32,411.428 C 228.19,408.438 225.459,393.033 226.5,389.031 C 227.541,385.028 228.581,376.499 228.451,374.912 C 228.321,373.324 230.883,360.97 232.138,357.329 C 233.393,353.688 238.076,338.471 243.406,330.799 C 243.406,330.799 260.053,313.893 262.784,310.511 C 264.922992925,307.862909528 274.161992799,302.417512016 278.067011899,300.181116846"
     fill="none"
     stroke="#FFFF00"
     stroke-width="1"
     id="path84" />
  <path
     d="M 418.316,462.275 C 420.756,457.189 424.168,449.921 425.209,446.149 C 426.25,442.378 430.15,430.544 431.32,425.732 C 432.49,420.921 432.491,400.243 432.491,394.738 C 432.491,389.234 426.379,364.35 424.537,355.507 C 422.695,346.664 421.047,342.761 419.096,339.478 C 417.145,336.194 410.123,329.107 407.276,324.165 C 404.429,319.223 393.998,309.339 386.715,304.787 C 379.433,300.235 366.428,295.554 359.405,293.343 C 352.382,291.132 339.638,289.182 339.638,289.182 C 339.638,289.182 332.037,288.142 328.23,286.971 C 324.422,285.801 306.736,283.07 302.055,283.72 C 297.373,284.371 279.297,286.712 275.656,290.613 C 272.015,294.514 261.541,300.887 259.235,305.048 C 256.929,309.21 246.135,317.533 243.924,321.954 C 241.714,326.376 234.822,338.601 233.391,342.632 C 231.961,346.664 228.059,358.239 227.279,362.4 C 226.499,366.562 221.947,388.452 222.728,394.738 C 223.508,401.025 224.158,417.151 227.019,423.653 C 229.88,430.155 234.767,440.039 238.63,444.98 C 242.494,449.921 249.256,457.594 252.638,461.366 C 256.019,465.137 262.298,471.736 265.011,475.069 C 267.723,478.402 275.396,483.733 278.647,486.334 C 281.898,488.935 299.5,497.127 306.759,500.639 C 314.019,504.151 319.611,502.98 325.202,504.41 C 330.793,505.84 349.131,501.419 352.641,502.069 C 356.151,502.719 360.575,502.329 363.826,501.419 C 367.077,500.509 397.898,483.473 399.198,483.083 C 399.199,483.083 416.76,465.52 418.316,462.275z"
     fill="none"
     stroke="#FF0000"
     stroke-width="1"
     id="path86" />
  <path
     d="M 413.761481614,460.063089848 C 413.948516367,461.786530417 414.07678261,465.258790119 412.463,467.347 C 410.254,470.208 397.119,481.131 397.119,481.131 L 395.298,482.171 C 395.298,482.171 388.278,484.902 386.261,486.983 C 384.244,489.064 366.039,498.297 363.047,499.207 C 360.055,500.117 352.124,498.817 346.401,499.987 C 340.678,501.157 328.324,501.808 325.073,501.548 C 321.822,501.288 308.297,498.818 304.916,497.517 C 301.921889067,496.364873906 293.595774045,490.319130292 289.980724595,486.917800976"
     fill="none"
     stroke="#FFFF00"
     stroke-width="1"
     id="path88" />
  <path
     d="M 408.534959018,474.045031704 C 407.38795415,476.332045043 404.804383598,481.479481925 403.984,483.081 C 402.918,485.162 393.087,490.493 390.355,491.664 C 387.623,492.835 372.668,501.546 369.808,503.107 C 366.948,504.668 362.006,506.618 358.785,506.358 C 355.564,506.098 327.283,509.089 323.772,508.439 C 320.261,507.789 314.928,506.618 310.637,505.318 C 306.346,504.018 296.072,501.026 290.351,497.515 C 284.629,494.004 269.933,484.511 268.112,482.691 C 266.292,480.87 251.727,466.305 247.436,460.843 C 243.144,455.381 233.911,443.678 232.135,440.336 C 230.36,436.994 224.417,426.772 222.638,421.257 C 220.859,415.742 220.126,398.682 219.736,394.739 C 219.346,390.796 222.857,375.012 223.377,373.062 C 223.897,371.111 226.758,352.904 227.929,349.523 C 229.099,346.141 230.79,341.07 232.135,336.063 C 233.481,331.055 238.462,320.912 241.063,317.661 C 243.664,314.41 251.336,308.038 253.417,305.698 C 255.498,303.357 268.855,292.822 268.855,292.822 C 268.855,292.822 285.93,277.607 298.153,278.517 C 310.376,279.427 337.815,283.848 341.977,285.019 C 346.139,286.189 358.362,287.49 363.305,290.091 C 368.248,292.692 381.381,297.763 386.193,301.534 C 391.005,305.306 404.141,313.76 408.043,317.661 C 411.943,321.562 417.145,329.235 420.656,333.657 C 424.167,338.078 425.206,345.751 426.637,351.083 C 428.068,356.415 431.971,367.079 432.491,372.151 C 433.01,377.223 434.832,393.457 434.571,397.89 C 434.31,402.323 434.181,425.842 433.14,429.103 C 432.274969888,431.812762915 427.994057441,439.70331523 426.185339898,443.565571027"
     fill="none"
     stroke="#FFFF00"
     stroke-width="1"
     id="path90" />
  <path
     d="M 296.597789313,284.105416873 C 298.432159546,283.424388776 301.210662137,282.45295713 302.553,282.287 C 304.656,282.027 319.871,282.963 322.342,283.535 C 324.813,284.108 333.786,285.408 341.069,287.359 C 348.351,289.309 365.778,292.821 367.858,293.991 C 369.402273213,294.859653682 377.941474106,299.740606701 382.237760134,302.197268105"
     fill="none"
     stroke="#FFFF00"
     stroke-width="1"
     id="path92" />
  <path
     d="M 439.252,409.504 C 439.773,407.91 437.822,371.236 437.302,368.505 C 436.781,365.775 435.274,341.922 434.597,339.478 C 433.921,337.034 428.199,329.751 425.728,325.98 C 423.257,322.209 411.292,303.871 408.692,301.01 C 406.091,298.15 387.885,285.063 383.334,282.243 C 378.782,279.423 368.38,273.961 364.088,272.791 C 359.796,271.621 354.984,271.232 354.984,271.232 C 354.984,271.232 344.32,266.16 341.199,266.94 C 338.078,267.72 335.695,267.07 331.295,265.77 C 326.895,264.469 320.132,263.689 315.061,263.949 C 309.99,264.209 302.706,264.209 297.894,265.379 C 293.082,266.55 282.548,267.46 278.257,269.671 C 273.965,271.882 265.49,274.485 262.12,277.085 C 258.751,279.684 250.298,285.146 246.917,289.047 C 243.535,292.949 239.634,294.119 237.293,297.24 C 234.952,300.361 226.808,314.394 226.263,316.351 C 225.719,318.307 217.266,341.365 216.746,344.662 C 216.226,347.958 210.893,361.613 209.723,365.254 C 208.552,368.896 205.822,387.165 205.562,391.231 C 205.562,391.231 207.123,407.521 207.903,411.552 C 208.683,415.583 210.243,427.278 210.894,429.103 C 211.544,430.928 222.161,450.827 222.64,452.387 C 223.118,453.948 232.745,472.154 236.19,474.365 C 239.634,476.576 246.396,478.655 249.907,482.427 C 253.419,486.198 262.392,492.05 265.643,495.041 C 268.894,498.032 280.399,503.499 284.56,506.847 C 288.722,510.195 300.235,511.166 303.486,512.337 C 306.737,513.508 313.499,513.768 317.141,515.198 C 320.783,516.628 331.335,516.368 335.358,515.328 C 339.379,514.288 359.536,514.158 363.567,514.288 C 367.598,514.418 373.712,509.279 375.662,508.532 C 377.612,507.785 398.419,499.203 401.671,498.423 C 404.923,497.643 409.344,493.352 410.645,491.141 C 411.946,488.93 414.767,484.119 416.998,481.648 C 419.229,479.177 426.12,473.586 426.641,471.635 C 427.162,469.684 427.813,462.402 428.332,460.711 C 428.851,459.02 432.235,452.626 432.494,451.206 C 432.753,449.786 433.453,444.932 434.728,440.337 C 436.003,435.742 436.915,425.729 436.915,423.777 L 439.252,409.504z"
     fill="none"
     stroke="#FF0000"
     stroke-width="1"
     id="path94" />
  <path
     d="M 437.330115711,424.052927877 L 438.732,433.472 L 435.612,447.704 C 435.612,450.436 434.831,454.858 434.051,456.678 C 433.271,458.498 431.19,467.471 430.8,471.242 C 430.41,475.013 425.728,478.525 424.537,479.719 C 423.346,480.913 416.753,487.367 416.147,489.578 C 415.54,491.789 409.341,498.811 408.691,499.721 C 408.041,500.631 400.511,506.175 397.91,506.436 C 395.309,506.697 380.756,514.128 377.765,515.428 C 374.774,516.728 368.508,519.617 366.816,520.007 C 365.124,520.397 363.52,522.185 360.138,521.274 C 356.756,520.363 345.424,521.984 341.522,521.724 C 337.62,521.464 328.415,522.565 325.424,523.474 C 322.433,524.385 315.575,523.434 313.104,522.263 C 310.633,521.092 301.521,521.355 298.895,521.094 C 296.268,520.834 286.785,516.839 285.225,516.189 C 283.664,515.539 274.614,509.215 270.323,508.531 C 266.031,507.847 255.89,501.722 253.029,498.072 C 250.168,494.422 241.491,486.394 238.63,483.504 C 235.77,480.614 233.696,481.541 231.355,478.288 C 229.014,475.035 221.503,463.453 218.944,459.941 C 216.386,456.429 217.309,451.022 214.448,446.861 C 211.587,442.7 207.314,434.586 206.534,431.075 C 206.534,431.075 205.04,416.07 204.39,412.12 C 203.74,408.17 203.336,398.93 203.206,396.631 C 203.117667185,395.068868132 204.431047717,391.324754287 205.282043299,389.085130884"
     fill="none"
     stroke="#FFFF00"
     stroke-width="1"
     id="path96" />
  <path
     d="M 414.252763782,468.274795059 L 413.923,471.799 L 405.309,485.748 C 403.358,488.289 401.798,489.84 399.977,491.399 C 398.156,492.958 383.332,498.941 380.081,499.591 C 376.83,500.241 366.946,507.783 363.825,508.53 C 360.704,509.277 352.642,508.433 348.09,508.53 C 343.538,508.627 332.354,511.033 329.765,510.904 C 327.176,510.775 321.042,512.594 317.66,510.254 C 314.278,507.914 305.437,508.693 301.275,506.353 C 297.113,504.013 288.921,500.892 282.679,498.161 C 276.437,495.43 274.096,494.13 271.495,491.139 C 268.895,488.148 264.733,486.199 262.119,483.858 C 259.506,481.517 250.297,470.073 248.087,468.903 C 245.877,467.733 240.284,462.922 238.631,460.45 C 236.978,457.977 230.837,451.206 230.837,451.206 C 230.837,451.206 225.281,443.156 222.639,436.654 C 219.996,430.152 218.566,429.631 217.005,425.859 C 215.444,422.087 216.744,417.666 215.574,414.675 C 214.404,411.683 214.014,408.805 214.014,405.823 C 214.014,402.841 214.014,393.811 214.534,390.653 C 215.054,387.494 222.03,366.686 222.639,363.565 C 223.247,360.444 225.636,346.166 226.262,344.072 C 226.888,341.977 236.068,321.429 238.631,317.918 C 241.193,314.407 251.467,304.908 252.768,303.61 C 254.068,302.313 271.37,285.147 276.439,283.066 C 281.507,280.986 295.137,277.084 298.401,277.084 C 301.664,277.084 318.583,277.66 322.413,278.477 C 326.243,279.295 341.197,281.636 344.709,282.936 C 348.221,284.237 358.494,285.797 361.095,287.098 C 363.041976371,288.071488185 371.134848923,292.869899533 375.077287399,295.218855302"
     fill="none"
     stroke="#FFFF00"
     stroke-width="1"
     id="path98" />
  <path
     d="M 421.449,470.447 L 413.925,481.646 C 411.226,484.507 408.17,489.968 407.276,491.789 C 406.381,493.61 393.086,498.941 389.139,500.241 C 385.195,501.541 376.7,505.572 375.269,506.873 C 373.838,508.174 363.304,511.426 360.964,511.458 C 358.623,511.491 337.426,512.855 332.874,514.025 C 328.322,515.195 321.69,514.286 319.739,514.025 C 317.788,513.764 309.076,510.385 304.784,510.385 C 300.492,510.385 295.032,507.134 295.032,507.134 C 291.131,505.702 285.408,503.882 281.377,501.604 C 277.345,499.326 271.103,495.04 267.462,492.178 C 263.821,489.317 254.198,482.556 251.987,480.316 C 249.776,478.076 240.413,472.153 238.631,470.202 C 236.848,468.251 227.148,456.027 226.262,454.077 C 225.376,452.127 222.987,443.544 221.036,441.203 C 219.085,438.862 212.323,424.557 212.323,422.086 C 212.323,419.615 209.462,397.637 209.332,393.504 C 209.202,389.372 215.444,366.815 216.224,363.954 C 217.005,361.093 222.596,350.038 222.638,346.491 C 222.68,342.944 229.489,328.971 231.309,321.948 C 233.13,314.926 238.631,305.822 238.631,305.822 C 238.631,305.822 245.498,297.342 249.234,293.718 C 252.97,290.095 265.991,279.244 269.614,277.084 C 273.237,274.924 287.39,272.32 293.617,271.188 C 299.844,270.055 314.222,268.13 320.45,269.829 C 326.678,271.528 341.283,273.678 344.114,274.697 C 346.945,275.717 352.718,278.181 357.588,278.477 C 362.457,278.774 368.118,282.057 371.175,284.661 C 374.232,287.265 384.423,293.093 387.366,295.557 C 390.309,298.022 402.762,307.646 406.16,310.136 C 409.557,312.627 415.784,318.628 418.049,322.817 C 420.314,327.006 427.899,337.194 429.145,339.233 C 430.391,341.273 430.279,344.671 430.731,348.633 C 431.183,352.595 434.193,368.899 434.726,372.975 C 435.259,377.051 437.411,391.45 437.297,394.271 C 437.183,397.092 438.098,411.018 437.301,413.736 C 436.504,416.454 436.504,418.945 436.504,418.945 C 436.504,418.945 435.091,430.67 434.596,432.49 C 434.103,434.31 428.329,449.526 428.069,450.436 C 427.809,451.346 424.558,459.8 423.518,462.661 L 421.449,470.447z"
     fill="none"
     stroke="#FF0000"
     stroke-width="1"
     id="path100" />
  <path
     d="M 441.348,409.761 C 441.618,407.063 440.989,394.384 440.809,388.065 C 440.629,381.746 440.449,372.35 440.449,366.865 C 440.449,361.379 437.391,347.98 437.631,342.674 C 437.87,337.367 433.345,331.702 432.492,329.69 C 431.639,327.678 424.981,317.403 423.542,313.536 C 422.103,309.669 418.506,306.432 416.148,303.611 C 413.791,300.789 410.232,295.101 408.793,294.201 C 407.354,293.302 394.225,284.579 392.246,283.622 C 390.267,282.666 385.051,279.453 382.623,278.478 C 380.195,277.503 375.158,273.697 373.36,272.438 C 371.562,271.179 361.758,269.65 358.791,268.391 C 355.823,267.133 347.64,264.524 344.132,263.899 C 340.624,263.274 333.61,262.276 330.822,261.286 C 328.036,260.297 311.486,258.499 308.069,259.398 C 304.652,260.297 289.902,262.456 286.844,263.535 C 283.786,264.614 277.941,266.413 275.872,267.942 C 273.804,269.47 269.037,269.56 265.98,271.089 C 262.922,272.618 247.184,284.039 246.16,285.568 C 245.135,287.097 238.37,291.144 236.662,293.752 C 234.953,296.36 228.253,304.408 227.219,305.443 C 226.184,306.477 218.136,316.414 217.956,318.303 C 217.776,320.191 210.941,332.961 210.222,335.389 C 209.502,337.818 203.027,353.735 203.202,354.904 C 203.378,356.073 200.059,371.901 199.25,375.678 C 198.44,379.455 197.181,397.891 197.361,399.24 C 197.541,400.589 197.541,408.143 197.721,411.74 C 197.901,415.337 198.8,418.665 199.34,421.543 C 199.879,424.421 199.879,429.457 200.599,431.165 C 201.319,432.873 206.175,443.845 207.524,446.363 C 208.873,448.882 211.481,456.076 211.931,457.965 C 212.38,459.854 216.337,463.989 217.866,466.058 C 219.395,468.127 225.06,479.638 225.87,481.257 C 226.68,482.876 238.011,494.296 240.079,497.264 C 242.147,500.232 248.623,505.448 251.051,507.516 C 253.479,509.584 265.8,515.521 270.297,517.408 C 274.793,519.297 282.887,523.076 286.484,524.424 C 290.081,525.773 293.05,528.022 298.176,528.739 C 303.302,529.456 306.629,528.831 310.317,528.741 C 314.005,528.651 319.31,531.169 319.31,531.169 C 319.31,531.169 324.283,531.482 327.565,530.294 C 330.847,529.106 342.289,526.839 347.253,526.947 C 352.217,527.055 361.715,528.027 365.709,527.811 C 369.703,527.595 379.74,521.011 382.007,519.608 C 384.274,518.205 397.55,512.268 400.896,510.433 C 404.242,508.598 412.596,504.389 413.87,502.338 C 415.144,500.287 422.699,487.442 425.937,484.097 C 429.175,480.752 434.838,475.462 434.597,474.383 C 434.356,473.304 437.387,461.216 438.732,458.194 C 440.077,455.172 440.94,442.76 440.94,441.465 C 440.94,440.17 441.673,419.183 441.415,417.048 L 441.156,414.913 L 441.348,409.761z"
     fill="none"
     stroke="#FF0000"
     stroke-width="1"
     id="path102" />
  <path
     d="M 197.728567435,385.526550615 C 197.263191575,380.331137978 196.252,368.774599701 196.252,366.448 C 196.252,363.426 199.814,347.02 200.785,344.071 C 201.756,341.123 204.455,328.671 206.506,323.614 C 208.557,318.556 216.328,305.682 216.328,305.682 C 216.328,305.682 221.617,301.689 223.236,300.285 C 224.854,298.882 229.596,291.65 232.136,289.492 C 234.677,287.333 246.334,277.079 249.464,274.489 C 252.594,271.898 262.631,266.501 265.978,265.314 C 269.324,264.127 279.362,259.791 282.384,259.153 C 285.406,258.515 295.229,255.817 297.063,255.277 C 298.897,254.737 306.777,250.204 310.231,250.528 C 313.685,250.852 333.437,252.902 336.567,253.55 C 339.697,254.196 349.087,254.953 350.814,255.601 C 352.541,256.248 363.119,260.998 366.141,261.537 C 369.163,262.077 383.518,270.387 386.325,272.222 L 396.088,280.59 L 405.826,287.948 L 408.853492975,293.674185543"
     fill="none"
     stroke="#FFFF00"
     stroke-width="1"
     id="path104" />
  <path
     d="M 259.18,519.288 C 257.19,518.625 246.988,510.828 243.919,508.531 C 240.85,506.234 235.957,500.045 234.171,497.722 C 232.385,495.4 225.507,488.763 222.273,486.524 C 219.038,484.285 216.965,477.399 215.887,475.243 C 214.808,473.087 209.251,465.788 207.759,462.886 C 206.266,459.984 203.202,449.094 203.202,449.094 C 201.357,445.967 193.437,435.45 194.297,432.386 C 195.158,429.322 191.717,416.314 191.061,414.594 C 190.405,412.874 191.502,404.059 191.932,400.618 C 192.362,397.179 191.061,388.064 191.061,388.064 C 191.061,388.064 192.93,371.504 192.369,367.956 C 191.808,364.408 191.271,358.873 192.474,354.633 C 193.677,350.392 199.097,329.167 201.339,323.614 C 203.582,318.061 210.683,303.111 212.552,300.868 C 212.552,300.868 216.345,298.206 218.598,297.079 C 220.851,295.952 227.55,286.749 229.303,285.935 C 230.571510698,285.345971074 234.178028892,283.781943276 236.074653581,282.962412512"
     fill="none"
     stroke="#FFFF00"
     stroke-width="1"
     id="path106" />
  <path
     d="M 317.74,531.204 C 315.915,530.46 304.059,533.605 301.355,533.538 C 298.651,533.471 292.569,533.199 288.445,532.388 C 284.321,531.577 278.035,527.318 275.669,525.899 C 273.303,524.48 257.958,516.636 255.525,515.284 C 253.091,513.931 244.506,507.645 243.357,505.888 C 242.207,504.13 239.639,500.074 237.273,497.437 C 234.907,494.8 229.364,488.445 225.781,486.213 C 222.198,483.981 220.982,478.507 218.683,473.91 C 216.385,469.313 211.383,461.603 210.369,459.509 C 209.355,457.415 205.096,448.557 203.609,445.921 C 202.122,443.285 197.796,432.263 197.661,428.747 C 197.526,425.231 194.822,417.658 194.349,415.698 C 193.876,413.738 195.025,402.042 194.822,400.082 C 194.619,398.122 194.011,384.735 193.74,382.842 C 193.47,380.95 194.416,371.484 194.078,363.71 C 193.74,355.936 195.43,351.271 197.661,348.567 C 199.892,345.863 197.999,340.52 198.675,338.222 C 199.351,335.923 205.367,317.399 207.193,314.83 C 209.018,312.261 217.264,300.159 220.712,298.603 C 224.16,297.048 226.39,291.369 227.336,289.95 C 228.282,288.53 235.245,283.866 237.274,282.446 C 239.302,281.026 251.099,269.159 251.099,269.159 C 253.292,266.67 278.894,257.886 282.258,256.578 C 285.622,255.27 295.153,254.335 297.396,253.214 C 299.638,252.093 307.861,247.981 312.533,247.981 C 312.533,247.981 329.89,246.198 333.201,246.64 C 336.511,247.081 349.826,248.846 352.99,249.582 C 356.154,250.318 362.702,254.143 367.189,256.571 C 371.676,258.999 394.149,277.085 394.149,277.085 L 421.619,298.667 C 425.936,303.632 429.387,310.864 430.198,313.131 C 431.009,315.397 437.74,323.384 439.34,326.946 C 440.94,330.508 442.883,339.898 442.99,343.136 C 443.097,346.374 444.285,356.412 444.932,361.377 C 445.579,366.342 447.847,382.475 447.954,385.687 C 448.061,388.9 448.71,411.242 447.954,415.56 C 447.198,419.878 444.392,439.521 443.636,442.003 C 442.881,444.485 442.234,449.56 443.205,453.229 C 444.177,456.899 443.51,459.704 441.468,463.266 C 439.427,466.829 441.695,473.833 437.052,479.721 C 432.411,485.609 421.295,500.799 418.489,504.699 C 415.683,508.599 403.919,512.808 401.218,515.075 C 401.218,515.075 388.458,519.967 382.639,523.84 C 376.82,527.713 366.743,530.441 362.484,531.206 C 358.225,531.971 327.76,531.395 327.76,531.395 C 327.76,531.395 325.115,532.19 324.062,532.083 C 323.008,531.977 320.32,532.255 319.245,531.933 C 318.17,531.611 317.74,531.204 317.74,531.204z"
     fill="none"
     stroke="#FF0000"
     stroke-width="1"
     id="path108" />
  <path
     d="M 193.709174816,432.001821974 C 193.080486554,430.164711499 192.188066179,427.401329607 191.99,425.975 C 191.677,423.721 189.798,418.213 189.548,416.585 C 189.297,414.957 188.484,403.689 188.546,401.686 C 188.609,399.683 187.544,391.795 187.482,390.044 C 187.419,388.292 186.731,375.018 187.419,372.451 C 188.108,369.884 185.729,362.122 188.233,357.051 C 190.738,351.98 192.804,338.584 192.992,336.58 C 193.18,334.577 200.316,317.55 201.819,315.359 C 203.322,313.168 206.452,305.468 207.204,303.652 C 207.955,301.837 214.34,298.08 214.34,298.08 C 214.34,298.08 219.365,293.34 220.516,291.658 C 221.667,289.976 226.005,283.413 229.635,282.445 C 233.266,281.476 239.252,275.102 240.464,273.951 C 241.676,272.8 249.29,266.16 252.389,264.92 C 252.389,264.92 268.235,258.751 269.473,258.229 C 270.711,257.708 280.028,253.864 282.829,253.343 C 285.63,252.822 290.191,252.822 292.863,252.626 C 295.534,252.431 299.443,248.522 303.026,247.74 C 306.61,246.958 316.776,244.156 322.901,244.287 C 329.025,244.417 344.531,245.525 348.179,245.525 C 351.827,245.525 359.582,247.935 361.407,250.216 C 363.231,252.496 370.006,253.538 373.915,255.102 C 377.824,256.665 380.887,260.965 382.58,262.724 C 384.273,264.484 393.004,270.802 395.219,272.431 C 397.434,274.06 404.338,279.076 407.14,281.422 C 409.942,283.767 417.08,289.76 417.08,289.76 L 419.256,296.808"
     fill="none"
     stroke="#FFFF00"
     stroke-width="1"
     id="path110" />
  <path
     d="M 214.67883327,296.463336826 C 216.058403735,293.798217965 218.355084932,289.355143166 218.95,288.166 C 219.816,286.435 229.338,281.781 232.137,279.076 C 234.936,276.371 243.189,268.796 245.353,266.523 C 247.517,264.251 261.368,259.814 264.073,258.299 C 266.778,256.784 274.786,253.322 277.816,251.158 C 280.846,248.994 289.394,249.643 293.615,248.127 C 297.834,246.612 308.872,242.5 308.872,242.5 C 308.872,242.5 323.587,237.739 328.565,238.713 C 333.543,239.687 341.443,240.421 344.581,240.541 C 347.719,240.661 354.211,240.541 354.211,240.541 C 354.211,240.541 362.868,244.665 365.357,245.639 C 367.845,246.612 376.394,248.452 377.476,249.101 C 378.558,249.75 384.618,256.026 385.7,256.892 C 386.782,257.758 390.244,263.71 391.976,265.333 C 393.708,266.956 399.877,272.367 402.365,274.423 C 404.037774018,275.804652174 406.805833215,279.486719648 408.440221051,281.751336954"
     fill="none"
     stroke="#FFFF00"
     stroke-width="1"
     id="path112" />
  <path
     d="M 439.807,324.849 C 439.807,324.849 434.287,316.95 432.99,314.57 C 431.691,312.189 429.094,302.991 427.395,301.151 C 425.697,299.312 421.627,292.17 419.247,289.897 C 416.866,287.625 413.727,282.755 411.671,280.05 C 409.614,277.345 403.88,266.523 399.984,263.899 C 396.088,261.274 386.565,249.642 381.154,245.854 C 375.743,242.067 358.971,237.739 355.725,237.631 C 352.479,237.523 346.094,236.981 342.199,235.428 C 338.303,233.874 324.561,235.141 321.005,234.059 C 317.449,232.977 303.461,236.981 303.461,236.981 L 293.83,240.444 C 293.83,240.444 280.954,241.851 279.438,242.825 C 277.923,243.799 269.916,247.586 267.968,248.452 C 266.02,249.317 256.714,249.858 254.658,251.806 C 252.602,253.754 246.759,259.381 245.028,260.03 C 243.296,260.68 234.071,267.931 232.137,270.852 C 230.203,273.773 219.058,279.401 218.3,281.456 C 217.542,283.512 215.823,288.197 214.016,290.005 C 212.208,291.812 204.45,298.987 203.475,301.368 C 202.501,303.748 195.468,317.599 194.278,320.629 C 193.087,323.659 189.841,331.234 189.408,334.048 C 188.975,336.861 188.278,344.544 187.058,347.141 C 185.837,349.738 181.077,358.504 181.293,361.101 C 181.509,363.698 182.591,370.082 181.942,372.463 C 181.293,374.844 180.319,389.335 180.319,391.883 C 180.319,394.43 182.915,405.251 182.808,409.255 C 182.7,413.259 181.618,416.288 182.7,418.236 C 183.782,420.184 185.897,422.781 187.058,429.056 C 188.218,435.333 189.277,439.771 190.858,442.368 C 192.438,444.965 198.605,454.705 199.363,457.843 C 200.121,460.981 203.908,468.447 206.722,470.395 C 209.535,472.343 213.972,486.736 215.703,487.493 C 217.434,488.25 228.688,497.882 230.419,501.019 C 232.151,504.157 240.483,512.4 243.513,514.609 C 246.543,516.818 256.498,522.446 259.852,524.502 C 263.207,526.558 269.591,531.101 274.677,534.132 C 279.763,537.162 286.877,538.786 288.839,539.652 C 290.801,540.517 293.181,541.708 296.536,541.816 C 299.89,541.924 307.158,540.734 309.421,541.816 C 311.684,542.898 317.743,545.063 320.341,544.629 C 322.939,544.195 327.158,543.113 332.677,542.789 C 338.196,542.465 345.77,540.517 348.259,540.733 C 350.748,540.949 365.788,539.758 368.494,539.758 C 371.199,539.758 388.838,531.643 391.975,530.452 C 395.112,529.261 411.62,521.361 414.35,520.063 C 417.08,518.765 427.578,502.749 428.552,500.043 C 429.526,497.338 438.225,488.031 439.34,486.733 C 440.455,485.435 443.269,482.404 443.918,473.531 C 444.567,464.658 446.19,462.06 446.948,460.113 C 447.706,458.166 448.679,446.055 449.22,443.021 C 449.761,439.986 452.901,432.843 452.901,430.138 C 452.901,427.433 453.659,386.203 452.901,382.849 C 452.143,379.494 448.276,360.882 448.316,359.691 C 448.356,358.501 446.407,345.623 445.866,343.026 C 445.325,340.431 439.807,324.849 439.807,324.849z"
     fill="none"
     stroke="#FF0000"
     stroke-width="1"
     id="path114"
     style="stroke:#00ff00;stroke-opacity:1" />
  <line
     fill="none"
     stroke="#0000FF"
     x1="337.299"
     x2="339.299"
     y1="381.4065"
     y2="381.4065"
     id="line118" />
</svg>
