<?xml version="1.0" encoding="UTF-8" standalone="no"?>
<svg
   xmlns:dc="http://purl.org/dc/elements/1.1/"
   xmlns:cc="http://creativecommons.org/ns#"
   xmlns:rdf="http://www.w3.org/1999/02/22-rdf-syntax-ns#"
   xmlns:svg="http://www.w3.org/2000/svg"
   xmlns="http://www.w3.org/2000/svg"
   xmlns:sodipodi="http://sodipodi.sourceforge.net/DTD/sodipodi-0.dtd"
   xmlns:inkscape="http://www.inkscape.org/namespaces/inkscape"
   height="100%"
   version="1.1"
   width="100%"
   id="svg2"
   inkscape:version="0.48.4 r9939"
   sodipodi:docname="t18_fixed.svg">
  <metadata
     id="metadata56">
    <rdf:RDF>
      <cc:Work
         rdf:about="">
        <dc:format>image/svg+xml</dc:format>
        <dc:type
           rdf:resource="http://purl.org/dc/dcmitype/StillImage" />
      </cc:Work>
    </rdf:RDF>
  </metadata>
  <sodipodi:namedview
     pagecolor="#ffffff"
     bordercolor="#666666"
     borderopacity="1"
     objecttolerance="10"
     gridtolerance="10"
     guidetolerance="10"
     inkscape:pageopacity="0"
     inkscape:pageshadow="2"
     inkscape:window-width="1366"
     inkscape:window-height="705"
     id="namedview54"
     showgrid="false"
     inkscape:zoom="1.7940591"
     inkscape:cx="-115.94573"
     inkscape:cy="986.18955"
     inkscape:window-x="-8"
     inkscape:window-y="-8"
     inkscape:window-maximized="1"
     inkscape:current-layer="svg2" />
  <defs
     id="defs4" />
  <rect
     fill="white"
     height="100%"
     width="100%"
     x="0"
     y="0"
     id="rect6" />
  <path
     d="M 138.152,120.084 C 147.451,117.019 143.772,108.843 145.305,105.062 C 146.838,101.281 140.093,93.004 134.984,88.712 C 129.875,84.42 122.415,87.69 122.415,87.69 C 122.415,87.69 110.46,91.982 109.233,99.237 C 108.006,106.492 105.043,113.236 111.276,117.017 C 117.509,120.798 122.109,122.024 129.977,121.922 C 137.845,121.82 138.152,120.084 138.152,120.084z"
     fill="none"
     stroke="#FF0000"
     stroke-width="1"
     id="path8" />
  <path
     d="M 122.927,72.975 C 122.927,72.975 136.825,66.537 144.284,71.544 C 151.743,76.551 163.597,78.492 166.458,87.69 C 169.319,96.888 170.137,109.391 166.458,113.766 C 162.779,118.141 144.386,130.711 139.072,133.061 C 133.758,135.411 112.707,130.709 108.926,128.666 C 105.145,126.623 97.481,115.688 99.116,105.47 C 100.751,95.252 107.495,84.113 110.357,81.762 C 113.219,79.411 122.927,72.975 122.927,72.975z"
     fill="none"
     stroke="#FF0000"
     stroke-width="1"
     id="path10" />
  <path
     d="M 120.679,81.661 C 120.679,81.661 128.139,79.106 135.19,80.23 C 142.241,81.354 147.349,83.5 151.13,90.142 C 154.911,96.784 157.057,101.38 154.605,107.871 C 152.153,114.362 149.292,121.72 140.299,124.376 C 131.306,127.032 116.591,126.113 112.504,124.376 C 108.417,122.639 102.592,111.041 103.103,106.672 C 103.614,102.303 109.95,90.041 111.687,88.508 C 113.424,86.975 120.679,81.661 120.679,81.661z"
     fill="none"
     stroke="#FF0000"
     stroke-width="1"
     id="path12" />
  <path
     d="M 171.363,67.968 C 171.363,67.968 186.282,85.302 181.582,101.671 C 176.882,118.04 168.706,130.2 161.144,134.186 C 153.582,138.172 146.737,146.755 134.576,145.325 C 122.415,143.895 105.452,140.112 101.773,137.762 C 98.094,135.412 89.102,119.47 95.744,95.967 C 102.386,72.464 114.954,64.595 123.334,62.245 C 131.714,59.895 150.516,58.056 157.465,59.384 C 164.414,60.712 171.363,67.968 171.363,67.968z"
     fill="none"
     stroke="#FF0000"
     stroke-width="1"
     id="path14" />
  <path
     d="M 103.511,72.36 C 103.511,72.36 119.248,51.514 128.036,49.879 C 136.824,48.244 147.145,46.506 152.765,48.857 C 158.385,51.208 172.283,57.032 177.903,61.732 C 183.523,66.432 191.699,79.717 191.392,88.097 C 191.085,96.477 185.873,116.606 179.129,123.351 C 172.385,130.096 160.735,139.088 153.889,142.767 C 147.043,146.446 137.538,149.205 133.349,148.592 C 129.16,147.979 101.773,139.804 100.138,138.577 C 98.503,137.35 91.758,123.759 91.656,119.365 C 91.554,114.971 94.211,90.344 96.868,83.497 C 99.525,76.65 103.511,72.36 103.511,72.36z"
     fill="none"
     stroke="#FF0000"
     stroke-width="1"
     id="path16" />
  <path
     d="M 103.511,62.754 C 103.511,62.754 119.247,46.098 127.014,44.769 C 134.781,43.44 140.707,42.316 152.97,44.769 C 165.233,47.222 177.904,54.272 185.568,61.834 C 193.232,69.396 195.786,81.658 196.297,87.483 C 196.808,93.308 191.589,115.483 182.498,122.942 C 173.407,130.401 151.846,145.117 147.86,146.752 C 143.874,148.387 136.006,149.612 131.408,149.204 C 126.81,148.796 112.298,145.219 106.167,143.277 C 100.036,141.335 97.276,137.35 95.642,134.796 C 94.008,132.242 90.329,122.228 90.226,120.184 C 90.123,118.14 91.6,87.586 93.365,81.557 C 95.13,75.528 103.511,62.754 103.511,62.754z"
     fill="none"
     stroke="#FF0000"
     stroke-width="1"
     id="path18" />
  <path
     d="M 184.239,124.682 C 186.998,120.697 193.538,113.44 196.331,107.871 C 199.124,102.302 202.633,89.221 202.633,89.221 L 201.509,75.937 L 197.728,67.762 C 197.728,67.762 183.831,53.558 179.641,50.799 C 175.451,48.04 150.722,40.478 150.722,40.478 L 118.635,38.025 C 118.635,38.025 103.603,37.564 100.126,45.335 C 96.649,53.106 93.366,76.01 93.366,76.01 L 89.287,110.365 C 89.287,110.365 88.702,119.775 90.222,124.681 C 91.742,129.587 95.816,137.971 98.891,140.63 C 101.966,143.289 128.348,149.832 131.21,150.651 C 134.072,151.47 156.566,145.335 161.271,141.858 C 165.976,138.381 184.239,124.682 184.239,124.682z"
     fill="none"
     stroke="#FF0000"
     stroke-width="1"
     id="path20" />
  <path
     d="M 97.672,67.012 C 97.672,67.012 100.33,53.514 106.056,49.834 C 111.782,46.154 122.362,41.041 124.229,41.245 C 126.096,41.449 141.527,41.239 141.527,41.239"
     fill="none"
     stroke="#FFFF00"
     stroke-width="1"
     id="path22" />
  <path
     d="M 98.891,54.125 C 98.891,54.125 101.885,46.766 107.447,44.926 C 113.009,43.086 119.599,41.239 119.599,41.239"
     fill="none"
     stroke="#FFFF00"
     stroke-width="1"
     id="path24" />
  <path
     d="M 68.02,118.75 C 68.02,118.75 55.545,119.339 53.091,106.672 C 50.637,94.005 48.387,93.187 56.363,74.169 C 64.339,55.151 96.445,23.454 101.762,22.022 C 107.079,20.59 132.642,22.227 135.709,22.022 C 138.776,21.817 164.952,28.361 164.952,28.361 C 164.952,28.361 185.744,37.359 191.401,40.017 C 197.058,42.675 208.101,70.091 208.101,70.091 C 208.101,70.091 211.783,93.036 205.034,113.766 C 198.285,134.496 167.821,161.693 155.65,165.784 C 143.479,169.875 134.89,163.944 131.823,162.513 C 128.756,161.082 93.365,142.268 93.365,142.268 L 68.02,118.75z"
     fill="none"
     stroke="#FF0000"
     stroke-width="1"
     id="path26" />
  <path
     d="M 76.813,109.071 C 76.813,109.071 62.703,98.096 61.68,91.143 C 60.657,84.19 64.747,69.671 69.246,62.718 C 73.745,55.765 94.973,28.975 103.07,26.113 C 111.167,23.251 138.98,25.908 147.569,28.158 C 156.158,30.408 176.813,36.134 181.516,39.61 C 186.219,43.086 193.967,46.563 196.33,49.631 C 198.693,52.699 207.487,69.058 206.056,75.807 C 204.625,82.556 204.215,114.458 193.785,123.66 C 183.355,132.862 173.132,144.442 163.929,149.286 C 154.726,154.13 145.524,152.494 139.593,152.494 C 133.662,152.494 121.051,152.437 118.155,150.727 C 115.259,149.017 93.365,140.019 93.365,140.019 C 93.365,140.019 84.992,124.476 84.379,123.045 C 83.766,121.614 76.813,109.071 76.813,109.071z"
     fill="none"
     stroke="#FF0000"
     stroke-width="1"
     id="path28" />
  <path
     d="M 97.672,17.523 C 105.852,14.046 130.188,12.615 136.526,12.002 C 142.864,11.389 168.428,16.706 175.79,19.773 C 183.152,22.84 199.921,41.859 201.148,43.322 C 202.375,44.785 214.645,66.603 214.849,68.444 C 215.053,70.285 219.348,104.436 219.144,111.798 C 218.94,119.16 207.692,145.745 202.632,156.788 C 197.572,167.831 168.632,181.532 168.919,182.145 C 168.919,182.145 149.205,184.803 139.798,182.145 C 130.391,179.487 118.734,172.125 111.577,172.943 C 104.42,173.761 92.559,177.032 86.628,177.85 C 80.697,178.668 73.744,177.645 68.632,176.828 C 63.52,176.011 55.34,162.923 53.704,160.469 C 52.068,158.015 36.526,136.185 33.254,133.705 C 29.982,131.225 21.393,114.171 23.438,107.872 C 25.483,101.573 28.959,82.245 29.164,79.946 C 29.369,77.647 46.751,54.126 46.751,54.126 L 63.315,37.156 L 97.672,17.523z"
     fill="none"
     stroke="#FF0000"
     stroke-width="1"
     id="path30" />
  <path
     d="M 42.457,127.339 C 42.457,127.339 34.686,117.523 33.459,109.957 C 32.232,102.391 35.709,80.918 37.958,77.033 C 40.207,73.148 48.388,56.378 48.388,56.378 L 68.633,37.155 C 68.633,37.155 92.968,21.0 95.013,20.591 C 97.058,20.182 122.825,14.864 130.801,14.66 C 138.777,14.456 166.587,18.137 173.336,22.431 C 180.085,26.725 195.422,39.814 195.422,39.814 C 195.422,39.814 209.737,56.992 210.76,63.331 C 211.783,69.67 216.895,92.828 214.237,102.21 C 211.579,111.592 199.922,145.129 189.901,153.719 C 179.88,162.309 170.269,172.942 160.658,174.782 C 151.047,176.622 139.261,175.395 133.906,173.146 C 128.551,170.897 95.013,163.74 86.016,164.353 C 77.019,164.966 62.499,161.491 59.022,156.787 C 55.545,152.083 58.204,139.812 52.273,136.132 C 46.342,132.452 42.457,127.339 42.457,127.339z"
     fill="none"
     stroke="#FF0000"
     stroke-width="1"
     id="path32" />
  <path
     d="M 44.911,113.766 C 44.911,113.766 42.866,84.289 43.889,79.945 C 44.912,75.601 54.932,57.809 54.932,57.809 L 78.654,34.292 L 97.673,21.429 C 97.673,21.429 119.721,16.91 126.488,17.728 C 133.255,18.546 168.634,24.885 172.723,26.112 C 176.812,27.339 191.402,38.02 191.402,38.02 C 191.402,38.02 203.809,54.707 207.693,61.286 C 211.577,67.865 209.846,109.547 206.214,118.545 C 202.582,127.543 173.911,162.717 168.921,165.171 C 163.931,167.625 148.369,171.51 141.528,170.692 C 134.687,169.874 118.736,159.444 111.987,159.24 C 105.238,159.036 77.836,155.354 73.541,154.128 C 69.246,152.902 68.224,145.948 66.997,141.858 C 65.77,137.768 54.318,123.267 52.477,121.928 C 50.636,120.589 44.911,113.766 44.911,113.766z"
     fill="none"
     stroke="#FF0000"
     stroke-width="1"
     id="path34" />
  <path
     d="M 87.242,99.118 L 80.493,64.353 L 86.424,47.682 L 105.238,33.065 L 124.098,29.588 L 154.726,35.723 L 185.81,46.561 L 196.331,54.124 C 196.331,54.124 204.215,66.537 204.42,69.637 C 204.625,72.737 206.604,98.504 191.401,120.181 C 176.198,141.858 160.453,146.357 160.453,146.357 L 141.527,150.725"
     fill="none"
     stroke="#FFFF00"
     stroke-width="1"
     id="path36" />
  <path
     d="M 80.494,109.071 C 80.494,109.071 65.157,95.921 65.77,90.157 C 66.383,84.393 66.588,76.623 68.224,70.897 C 69.86,65.171 91.654,38.02 91.654,38.02 L 105.852,26.93 L 130.801,26.93 L 166.792,36.746 L 185.811,43.322 L 196.332,52.493"
     fill="none"
     stroke="#FFFF00"
     stroke-width="1"
     id="path38" />
  <path
     d="M 84.993,102.21 C 84.993,102.21 73.95,81.122 75.382,73.556 C 76.814,65.99 78.245,58.937 78.245,58.937"
     fill="none"
     stroke="#FFFF00"
     stroke-width="1"
     id="path40" />
  <path
     d="M 90.222,85.007 C 90.719,83.167 87.065,59.036 89.177,51.469 C 91.289,43.902 98.49,40.315 101.762,38.019 C 105.034,35.723 117.176,32.86 126.749,33.064 C 136.322,33.268 173.541,44.311 173.541,44.311 L 195.014,57.603 C 195.014,57.603 200.709,66.789 202.633,72.532"
     fill="none"
     stroke="#FFFF00"
     stroke-width="1"
     id="path42" />
  <path
     d="M 71.7,191.756 C 71.7,191.756 41.844,185.212 39.594,179.691 C 37.344,174.17 38.06,165.581 33.203,161.082 C 28.346,156.583 23.233,157.754 19.348,150.727 C 15.463,143.7 11.577,126.319 11.372,120.183 C 11.167,114.048 20.983,85.827 21.188,85.009 C 21.393,84.191 35.708,65.991 35.708,65.991 L 51.863,47.683 C 51.863,47.683 70.472,30.204 71.699,29.59 C 72.926,28.976 93.365,17.63 93.365,17.63 L 105.033,10.571 C 105.033,10.571 130.465,6.89 131.041,7.094 C 131.617,7.298 165.769,10.161 165.769,10.161 L 187.855,21.429 C 187.855,21.429 204.324,41.104 206.212,43.322 C 208.1,45.54 219.151,68.0 219.151,68.0 C 219.151,68.0 229.369,91.142 220.78,136.132 C 212.191,181.122 198.489,187.463 187.855,197.483 C 177.221,207.503 159.634,209.958 152.477,207.708 C 145.32,205.458 137.975,203.247 132.845,199.323 C 127.715,195.399 124.826,189.302 117.793,189.302 C 110.76,189.302 97.467,183.576 94.195,185.008 C 90.923,186.44 71.7,191.756 71.7,191.756z"
     fill="none"
     stroke="#FF0000"
     stroke-width="1"
     id="path44"
     style="stroke:#00ff00;stroke-opacity:1" />
  <path
     d="M 23.127,144.722 C 23.127,144.722 27.323,140.017 40.002,155.764 C 52.681,171.511 36.321,172.124 57.18,178.668 C 78.039,185.212 97.671,181.531 97.671,181.531 L 137.931,191.552 L 145.527,200.754 L 164.133,198.709 C 164.133,198.709 182.743,194.414 190.105,187.666 C 197.467,180.918 209.031,163.126 209.895,161.49 C 210.759,159.854 224.052,123.114 222.621,109.071 C 221.189,95.028 216.485,65.58 216.485,65.58 C 216.485,65.58 204.829,41.449 190.309,29.588 C 175.789,17.727 164.746,10.365 154.726,10.774 C 144.706,11.183 106.056,11.952 106.056,11.952"
     fill="none"
     stroke="#FFFF00"
     stroke-width="1"
     id="path46" />
  <path
     d="M 61.521,46.766 L 43.603,69.638 C 43.603,69.638 37.141,93.801 37.549,95.164 C 37.957,96.527 41.639,118.341 42.048,119.977 C 42.457,121.613 55.75,133.705 55.75,133.705 L 65.752,155.356 L 119.6,164.967"
     fill="none"
     stroke="#FFFF00"
     stroke-width="1"
     id="path48" />
  <line
     fill="none"
     stroke="#0000FF"
     x1="120.7995"
     x2="122.7995"
     y1="107.8715"
     y2="107.8715"
     id="line52" />
</svg>
