<?xml version="1.0" encoding="utf-8"?>
<!-- Generator: Adobe Illustrator 14.0.0, SVG Export Plug-In . SVG Version: 6.00 Build 43363)  -->
<!DOCTYPE svg PUBLIC "-//W3C//DTD SVG 1.1//EN" "http://www.w3.org/Graphics/SVG/1.1/DTD/svg11.dtd">
<svg version="1.1" id="Layer_1" xmlns="http://www.w3.org/2000/svg" xmlns:xlink="http://www.w3.org/1999/xlink" x="0px" y="0px"
	 width="792px" height="612px" viewBox="0 0 792 612" enable-background="new 0 0 792 612" xml:space="preserve">
<path fill="none" stroke="#FF0000" d="M358.473,225.332c0,0,44.172-28.835,41.104,5.521c-3.068,34.356,6.288,45.399-20.476,45.399
	C352.337,276.251,344.976,248.645,358.473,225.332z"/>
<path fill="none" stroke="#FF0000" d="M381.172,206.926c0,0,33.741-6.135,34.355,14.11s6.749,42.332-4.294,55.215
	s-25.767,22.699-45.399,12.883s-38.037-18.686-33.129-44.005S381.172,206.926,381.172,206.926z"/>
<line fill="none" stroke="#0000FF" x1="374.84" y1="241.896" x2="374.84" y2="259.074"/>
<path fill="none" stroke="#FFFF00" d="M347.63,223.833c0,0,15.716-29.069,30.124-30.542s29.143-1.964,34.054,6.385
	s3.58,19.648,3.58,19.648"/>
<path fill="none" stroke="#FFFF00" d="M342.86,227.98c0,0,7.389-32.07,33.748-37.636s29.305-4.257,36.672,3.602
	s7.398,26.668,2.881,36.991"/>
<path fill="none" stroke="#FFFF00" d="M415.552,268.744c6.302-7.006,12.698-16.244,15.448-37.807S423.25,190.5,413,180
	s-24.25-14-65.37,16.75s-11.991,70.48-11.991,70.48"/>
<path fill="none" stroke="#FFFF00" d="M431.444,217.721C434.889,194.941,449.25,169.75,396,164.5s-66.315,53.221-66.315,53.221"/>
<path fill="none" stroke="#00FF00" d="M331.903,180.75c0,0,2.67-25.75,46.634-24.5s69.963-4.5,72.463,22.5s-1,66.75-9.25,83.25
	S417.5,306.75,389,304.25s-61,0.25-67.5-21S319.806,194.5,331.903,180.75z"/>
</svg>
